<?xml version="1.0" encoding="utf-8" ?>
<svg baseProfile="full" height="297mm" style="font-size:2mm; font-family:Arial" version="1.1" width="210mm" xmlns="http://www.w3.org/2000/svg" xmlns:ev="http://www.w3.org/2001/xml-events" xmlns:xlink="http://www.w3.org/1999/xlink"><defs><marker id="id1" markerHeight="10" markerWidth="10" refX="5" refY="5"><circle cx="5" cy="5" fill="red" r="5" /></marker></defs><text x="30mm" y="30mm">0</text><g id="bitmarks"><rect fill="black" height="62mm" width="14mm" x="28mm" y="32mm" /><rect fill="white" height="2mm" width="10mm" x="30mm" y="33mm" /><rect fill="black" height="2mm" width="10mm" x="30mm" y="35mm" /><rect fill="white" height="2mm" width="10mm" x="30mm" y="37mm" /><rect fill="black" height="2mm" width="10mm" x="30mm" y="39mm" /><rect fill="white" height="2mm" width="10mm" x="30mm" y="41mm" /><rect fill="black" height="2mm" width="10mm" x="30mm" y="43mm" /><rect fill="white" height="2mm" width="10mm" x="30mm" y="45mm" /><rect fill="black" height="2mm" width="10mm" x="30mm" y="47mm" /><rect fill="white" height="2mm" width="10mm" x="30mm" y="49mm" /><rect fill="black" height="2mm" width="10mm" x="30mm" y="51mm" /><rect fill="white" height="2mm" width="10mm" x="30mm" y="53mm" /><rect fill="black" height="2mm" width="10mm" x="30mm" y="55mm" /><rect fill="white" height="2mm" width="10mm" x="30mm" y="57mm" /></g><text x="26mm" y="34.5mm">0</text><text x="26mm" y="36.5mm">0</text><text x="26mm" y="38.5mm">0</text><text x="26mm" y="40.5mm">0</text><text x="26mm" y="42.5mm">0</text><text x="26mm" y="44.5mm">0</text><text x="26mm" y="46.5mm">0</text><text x="26mm" y="48.5mm">0</text><text x="26mm" y="50.5mm">0</text><text x="26mm" y="52.5mm">0</text><text x="26mm" y="54.5mm">0</text><text x="26mm" y="56.5mm">0</text><text x="26mm" y="58.5mm">0</text><text x="50mm" y="30mm">1</text><g id="bitmarks"><rect fill="black" height="62mm" width="14mm" x="48mm" y="32mm" /><rect fill="white" height="4mm" width="10mm" x="50mm" y="33mm" /><rect fill="black" height="4mm" width="10mm" x="50mm" y="37mm" /><rect fill="white" height="4mm" width="10mm" x="50mm" y="41mm" /><rect fill="black" height="2mm" width="10mm" x="50mm" y="45mm" /><rect fill="white" height="2mm" width="10mm" x="50mm" y="47mm" /><rect fill="black" height="2mm" width="10mm" x="50mm" y="49mm" /><rect fill="white" height="2mm" width="10mm" x="50mm" y="51mm" /><rect fill="black" height="2mm" width="10mm" x="50mm" y="53mm" /><rect fill="white" height="2mm" width="10mm" x="50mm" y="55mm" /><rect fill="black" height="2mm" width="10mm" x="50mm" y="57mm" /><rect fill="white" height="2mm" width="10mm" x="50mm" y="59mm" /><rect fill="black" height="2mm" width="10mm" x="50mm" y="61mm" /><rect fill="white" height="2mm" width="10mm" x="50mm" y="63mm" /></g><text x="46mm" y="35.5mm">1</text><text x="46mm" y="39.5mm">1</text><text x="46mm" y="43.5mm">1</text><text x="46mm" y="46.5mm">0</text><text x="46mm" y="48.5mm">0</text><text x="46mm" y="50.5mm">0</text><text x="46mm" y="52.5mm">0</text><text x="46mm" y="54.5mm">0</text><text x="46mm" y="56.5mm">0</text><text x="46mm" y="58.5mm">0</text><text x="46mm" y="60.5mm">0</text><text x="46mm" y="62.5mm">0</text><text x="46mm" y="64.5mm">0</text><text x="70mm" y="30mm">2</text><g id="bitmarks"><rect fill="black" height="62mm" width="14mm" x="68mm" y="32mm" /><rect fill="white" height="4mm" width="10mm" x="70mm" y="33mm" /><rect fill="black" height="2mm" width="10mm" x="70mm" y="37mm" /><rect fill="white" height="2mm" width="10mm" x="70mm" y="39mm" /><rect fill="black" height="4mm" width="10mm" x="70mm" y="41mm" /><rect fill="white" height="4mm" width="10mm" x="70mm" y="45mm" /><rect fill="black" height="2mm" width="10mm" x="70mm" y="49mm" /><rect fill="white" height="2mm" width="10mm" x="70mm" y="51mm" /><rect fill="black" height="2mm" width="10mm" x="70mm" y="53mm" /><rect fill="white" height="2mm" width="10mm" x="70mm" y="55mm" /><rect fill="black" height="2mm" width="10mm" x="70mm" y="57mm" /><rect fill="white" height="2mm" width="10mm" x="70mm" y="59mm" /><rect fill="black" height="2mm" width="10mm" x="70mm" y="61mm" /><rect fill="white" height="2mm" width="10mm" x="70mm" y="63mm" /></g><text x="66mm" y="35.5mm">1</text><text x="66mm" y="38.5mm">0</text><text x="66mm" y="40.5mm">0</text><text x="66mm" y="43.5mm">1</text><text x="66mm" y="47.5mm">1</text><text x="66mm" y="50.5mm">0</text><text x="66mm" y="52.5mm">0</text><text x="66mm" y="54.5mm">0</text><text x="66mm" y="56.5mm">0</text><text x="66mm" y="58.5mm">0</text><text x="66mm" y="60.5mm">0</text><text x="66mm" y="62.5mm">0</text><text x="66mm" y="64.5mm">0</text><text x="90mm" y="30mm">3</text><g id="bitmarks"><rect fill="black" height="62mm" width="14mm" x="88mm" y="32mm" /><rect fill="white" height="2mm" width="10mm" x="90mm" y="33mm" /><rect fill="black" height="4mm" width="10mm" x="90mm" y="35mm" /><rect fill="white" height="4mm" width="10mm" x="90mm" y="39mm" /><rect fill="black" height="4mm" width="10mm" x="90mm" y="43mm" /><rect fill="white" height="4mm" width="10mm" x="90mm" y="47mm" /><rect fill="black" height="2mm" width="10mm" x="90mm" y="51mm" /><rect fill="white" height="2mm" width="10mm" x="90mm" y="53mm" /><rect fill="black" height="2mm" width="10mm" x="90mm" y="55mm" /><rect fill="white" height="2mm" width="10mm" x="90mm" y="57mm" /><rect fill="black" height="2mm" width="10mm" x="90mm" y="59mm" /><rect fill="white" height="2mm" width="10mm" x="90mm" y="61mm" /><rect fill="black" height="2mm" width="10mm" x="90mm" y="63mm" /><rect fill="white" height="2mm" width="10mm" x="90mm" y="65mm" /></g><text x="86mm" y="34.5mm">0</text><text x="86mm" y="37.5mm">1</text><text x="86mm" y="41.5mm">1</text><text x="86mm" y="45.5mm">1</text><text x="86mm" y="49.5mm">1</text><text x="86mm" y="52.5mm">0</text><text x="86mm" y="54.5mm">0</text><text x="86mm" y="56.5mm">0</text><text x="86mm" y="58.5mm">0</text><text x="86mm" y="60.5mm">0</text><text x="86mm" y="62.5mm">0</text><text x="86mm" y="64.5mm">0</text><text x="86mm" y="66.5mm">0</text><text x="110mm" y="30mm">4</text><g id="bitmarks"><rect fill="black" height="62mm" width="14mm" x="108mm" y="32mm" /><rect fill="white" height="2mm" width="10mm" x="110mm" y="33mm" /><rect fill="black" height="4mm" width="10mm" x="110mm" y="35mm" /><rect fill="white" height="2mm" width="10mm" x="110mm" y="39mm" /><rect fill="black" height="4mm" width="10mm" x="110mm" y="41mm" /><rect fill="white" height="2mm" width="10mm" x="110mm" y="45mm" /><rect fill="black" height="4mm" width="10mm" x="110mm" y="47mm" /><rect fill="white" height="2mm" width="10mm" x="110mm" y="51mm" /><rect fill="black" height="2mm" width="10mm" x="110mm" y="53mm" /><rect fill="white" height="2mm" width="10mm" x="110mm" y="55mm" /><rect fill="black" height="2mm" width="10mm" x="110mm" y="57mm" /><rect fill="white" height="2mm" width="10mm" x="110mm" y="59mm" /><rect fill="black" height="2mm" width="10mm" x="110mm" y="61mm" /><rect fill="white" height="2mm" width="10mm" x="110mm" y="63mm" /></g><text x="106mm" y="34.5mm">0</text><text x="106mm" y="37.5mm">1</text><text x="106mm" y="40.5mm">0</text><text x="106mm" y="43.5mm">1</text><text x="106mm" y="46.5mm">0</text><text x="106mm" y="49.5mm">1</text><text x="106mm" y="52.5mm">0</text><text x="106mm" y="54.5mm">0</text><text x="106mm" y="56.5mm">0</text><text x="106mm" y="58.5mm">0</text><text x="106mm" y="60.5mm">0</text><text x="106mm" y="62.5mm">0</text><text x="106mm" y="64.5mm">0</text><text x="130mm" y="30mm">5</text><g id="bitmarks"><rect fill="black" height="62mm" width="14mm" x="128mm" y="32mm" /><rect fill="white" height="4mm" width="10mm" x="130mm" y="33mm" /><rect fill="black" height="2mm" width="10mm" x="130mm" y="37mm" /><rect fill="white" height="4mm" width="10mm" x="130mm" y="39mm" /><rect fill="black" height="4mm" width="10mm" x="130mm" y="43mm" /><rect fill="white" height="2mm" width="10mm" x="130mm" y="47mm" /><rect fill="black" height="4mm" width="10mm" x="130mm" y="49mm" /><rect fill="white" height="2mm" width="10mm" x="130mm" y="53mm" /><rect fill="black" height="2mm" width="10mm" x="130mm" y="55mm" /><rect fill="white" height="2mm" width="10mm" x="130mm" y="57mm" /><rect fill="black" height="2mm" width="10mm" x="130mm" y="59mm" /><rect fill="white" height="2mm" width="10mm" x="130mm" y="61mm" /><rect fill="black" height="2mm" width="10mm" x="130mm" y="63mm" /><rect fill="white" height="2mm" width="10mm" x="130mm" y="65mm" /></g><text x="126mm" y="35.5mm">1</text><text x="126mm" y="38.5mm">0</text><text x="126mm" y="41.5mm">1</text><text x="126mm" y="45.5mm">1</text><text x="126mm" y="48.5mm">0</text><text x="126mm" y="51.5mm">1</text><text x="126mm" y="54.5mm">0</text><text x="126mm" y="56.5mm">0</text><text x="126mm" y="58.5mm">0</text><text x="126mm" y="60.5mm">0</text><text x="126mm" y="62.5mm">0</text><text x="126mm" y="64.5mm">0</text><text x="126mm" y="66.5mm">0</text><text x="150mm" y="30mm">6</text><g id="bitmarks"><rect fill="black" height="62mm" width="14mm" x="148mm" y="32mm" /><rect fill="white" height="4mm" width="10mm" x="150mm" y="33mm" /><rect fill="black" height="4mm" width="10mm" x="150mm" y="37mm" /><rect fill="white" height="2mm" width="10mm" x="150mm" y="41mm" /><rect fill="black" height="2mm" width="10mm" x="150mm" y="43mm" /><rect fill="white" height="4mm" width="10mm" x="150mm" y="45mm" /><rect fill="black" height="4mm" width="10mm" x="150mm" y="49mm" /><rect fill="white" height="2mm" width="10mm" x="150mm" y="53mm" /><rect fill="black" height="2mm" width="10mm" x="150mm" y="55mm" /><rect fill="white" height="2mm" width="10mm" x="150mm" y="57mm" /><rect fill="black" height="2mm" width="10mm" x="150mm" y="59mm" /><rect fill="white" height="2mm" width="10mm" x="150mm" y="61mm" /><rect fill="black" height="2mm" width="10mm" x="150mm" y="63mm" /><rect fill="white" height="2mm" width="10mm" x="150mm" y="65mm" /></g><text x="146mm" y="35.5mm">1</text><text x="146mm" y="39.5mm">1</text><text x="146mm" y="42.5mm">0</text><text x="146mm" y="44.5mm">0</text><text x="146mm" y="47.5mm">1</text><text x="146mm" y="51.5mm">1</text><text x="146mm" y="54.5mm">0</text><text x="146mm" y="56.5mm">0</text><text x="146mm" y="58.5mm">0</text><text x="146mm" y="60.5mm">0</text><text x="146mm" y="62.5mm">0</text><text x="146mm" y="64.5mm">0</text><text x="146mm" y="66.5mm">0</text><text x="170mm" y="30mm">7</text><g id="bitmarks"><rect fill="black" height="62mm" width="14mm" x="168mm" y="32mm" /><rect fill="white" height="2mm" width="10mm" x="170mm" y="33mm" /><rect fill="black" height="2mm" width="10mm" x="170mm" y="35mm" /><rect fill="white" height="4mm" width="10mm" x="170mm" y="37mm" /><rect fill="black" height="2mm" width="10mm" x="170mm" y="41mm" /><rect fill="white" height="4mm" width="10mm" x="170mm" y="43mm" /><rect fill="black" height="4mm" width="10mm" x="170mm" y="47mm" /><rect fill="white" height="2mm" width="10mm" x="170mm" y="51mm" /><rect fill="black" height="2mm" width="10mm" x="170mm" y="53mm" /><rect fill="white" height="2mm" width="10mm" x="170mm" y="55mm" /><rect fill="black" height="2mm" width="10mm" x="170mm" y="57mm" /><rect fill="white" height="2mm" width="10mm" x="170mm" y="59mm" /><rect fill="black" height="2mm" width="10mm" x="170mm" y="61mm" /><rect fill="white" height="2mm" width="10mm" x="170mm" y="63mm" /></g><text x="166mm" y="34.5mm">0</text><text x="166mm" y="36.5mm">0</text><text x="166mm" y="39.5mm">1</text><text x="166mm" y="42.5mm">0</text><text x="166mm" y="45.5mm">1</text><text x="166mm" y="49.5mm">1</text><text x="166mm" y="52.5mm">0</text><text x="166mm" y="54.5mm">0</text><text x="166mm" y="56.5mm">0</text><text x="166mm" y="58.5mm">0</text><text x="166mm" y="60.5mm">0</text><text x="166mm" y="62.5mm">0</text><text x="166mm" y="64.5mm">0</text><text x="30mm" y="110mm">8</text><g id="bitmarks"><rect fill="black" height="62mm" width="14mm" x="28mm" y="112mm" /><rect fill="white" height="4mm" width="10mm" x="30mm" y="113mm" /><rect fill="black" height="4mm" width="10mm" x="30mm" y="117mm" /><rect fill="white" height="2mm" width="10mm" x="30mm" y="121mm" /><rect fill="black" height="4mm" width="10mm" x="30mm" y="123mm" /><rect fill="white" height="2mm" width="10mm" x="30mm" y="127mm" /><rect fill="black" height="2mm" width="10mm" x="30mm" y="129mm" /><rect fill="white" height="4mm" width="10mm" x="30mm" y="131mm" /><rect fill="black" height="2mm" width="10mm" x="30mm" y="135mm" /><rect fill="white" height="2mm" width="10mm" x="30mm" y="137mm" /><rect fill="black" height="2mm" width="10mm" x="30mm" y="139mm" /><rect fill="white" height="2mm" width="10mm" x="30mm" y="141mm" /><rect fill="black" height="2mm" width="10mm" x="30mm" y="143mm" /><rect fill="white" height="2mm" width="10mm" x="30mm" y="145mm" /></g><text x="26mm" y="115.5mm">1</text><text x="26mm" y="119.5mm">1</text><text x="26mm" y="122.5mm">0</text><text x="26mm" y="125.5mm">1</text><text x="26mm" y="128.5mm">0</text><text x="26mm" y="130.5mm">0</text><text x="26mm" y="133.5mm">1</text><text x="26mm" y="136.5mm">0</text><text x="26mm" y="138.5mm">0</text><text x="26mm" y="140.5mm">0</text><text x="26mm" y="142.5mm">0</text><text x="26mm" y="144.5mm">0</text><text x="26mm" y="146.5mm">0</text><text x="50mm" y="110mm">9</text><g id="bitmarks"><rect fill="black" height="62mm" width="14mm" x="48mm" y="112mm" /><rect fill="white" height="2mm" width="10mm" x="50mm" y="113mm" /><rect fill="black" height="2mm" width="10mm" x="50mm" y="115mm" /><rect fill="white" height="4mm" width="10mm" x="50mm" y="117mm" /><rect fill="black" height="4mm" width="10mm" x="50mm" y="121mm" /><rect fill="white" height="2mm" width="10mm" x="50mm" y="125mm" /><rect fill="black" height="2mm" width="10mm" x="50mm" y="127mm" /><rect fill="white" height="4mm" width="10mm" x="50mm" y="129mm" /><rect fill="black" height="2mm" width="10mm" x="50mm" y="133mm" /><rect fill="white" height="2mm" width="10mm" x="50mm" y="135mm" /><rect fill="black" height="2mm" width="10mm" x="50mm" y="137mm" /><rect fill="white" height="2mm" width="10mm" x="50mm" y="139mm" /><rect fill="black" height="2mm" width="10mm" x="50mm" y="141mm" /><rect fill="white" height="2mm" width="10mm" x="50mm" y="143mm" /></g><text x="46mm" y="114.5mm">0</text><text x="46mm" y="116.5mm">0</text><text x="46mm" y="119.5mm">1</text><text x="46mm" y="123.5mm">1</text><text x="46mm" y="126.5mm">0</text><text x="46mm" y="128.5mm">0</text><text x="46mm" y="131.5mm">1</text><text x="46mm" y="134.5mm">0</text><text x="46mm" y="136.5mm">0</text><text x="46mm" y="138.5mm">0</text><text x="46mm" y="140.5mm">0</text><text x="46mm" y="142.5mm">0</text><text x="46mm" y="144.5mm">0</text><text x="70mm" y="110mm">10</text><g id="bitmarks"><rect fill="black" height="62mm" width="14mm" x="68mm" y="112mm" /><rect fill="white" height="2mm" width="10mm" x="70mm" y="113mm" /><rect fill="black" height="4mm" width="10mm" x="70mm" y="115mm" /><rect fill="white" height="2mm" width="10mm" x="70mm" y="119mm" /><rect fill="black" height="2mm" width="10mm" x="70mm" y="121mm" /><rect fill="white" height="4mm" width="10mm" x="70mm" y="123mm" /><rect fill="black" height="2mm" width="10mm" x="70mm" y="127mm" /><rect fill="white" height="4mm" width="10mm" x="70mm" y="129mm" /><rect fill="black" height="2mm" width="10mm" x="70mm" y="133mm" /><rect fill="white" height="2mm" width="10mm" x="70mm" y="135mm" /><rect fill="black" height="2mm" width="10mm" x="70mm" y="137mm" /><rect fill="white" height="2mm" width="10mm" x="70mm" y="139mm" /><rect fill="black" height="2mm" width="10mm" x="70mm" y="141mm" /><rect fill="white" height="2mm" width="10mm" x="70mm" y="143mm" /></g><text x="66mm" y="114.5mm">0</text><text x="66mm" y="117.5mm">1</text><text x="66mm" y="120.5mm">0</text><text x="66mm" y="122.5mm">0</text><text x="66mm" y="125.5mm">1</text><text x="66mm" y="128.5mm">0</text><text x="66mm" y="131.5mm">1</text><text x="66mm" y="134.5mm">0</text><text x="66mm" y="136.5mm">0</text><text x="66mm" y="138.5mm">0</text><text x="66mm" y="140.5mm">0</text><text x="66mm" y="142.5mm">0</text><text x="66mm" y="144.5mm">0</text><text x="90mm" y="110mm">11</text><g id="bitmarks"><rect fill="black" height="62mm" width="14mm" x="88mm" y="112mm" /><rect fill="white" height="4mm" width="10mm" x="90mm" y="113mm" /><rect fill="black" height="2mm" width="10mm" x="90mm" y="117mm" /><rect fill="white" height="4mm" width="10mm" x="90mm" y="119mm" /><rect fill="black" height="2mm" width="10mm" x="90mm" y="123mm" /><rect fill="white" height="4mm" width="10mm" x="90mm" y="125mm" /><rect fill="black" height="2mm" width="10mm" x="90mm" y="129mm" /><rect fill="white" height="4mm" width="10mm" x="90mm" y="131mm" /><rect fill="black" height="2mm" width="10mm" x="90mm" y="135mm" /><rect fill="white" height="2mm" width="10mm" x="90mm" y="137mm" /><rect fill="black" height="2mm" width="10mm" x="90mm" y="139mm" /><rect fill="white" height="2mm" width="10mm" x="90mm" y="141mm" /><rect fill="black" height="2mm" width="10mm" x="90mm" y="143mm" /><rect fill="white" height="2mm" width="10mm" x="90mm" y="145mm" /></g><text x="86mm" y="115.5mm">1</text><text x="86mm" y="118.5mm">0</text><text x="86mm" y="121.5mm">1</text><text x="86mm" y="124.5mm">0</text><text x="86mm" y="127.5mm">1</text><text x="86mm" y="130.5mm">0</text><text x="86mm" y="133.5mm">1</text><text x="86mm" y="136.5mm">0</text><text x="86mm" y="138.5mm">0</text><text x="86mm" y="140.5mm">0</text><text x="86mm" y="142.5mm">0</text><text x="86mm" y="144.5mm">0</text><text x="86mm" y="146.5mm">0</text><text x="110mm" y="110mm">12</text><g id="bitmarks"><rect fill="black" height="62mm" width="14mm" x="108mm" y="112mm" /><rect fill="white" height="4mm" width="10mm" x="110mm" y="113mm" /><rect fill="black" height="2mm" width="10mm" x="110mm" y="117mm" /><rect fill="white" height="2mm" width="10mm" x="110mm" y="119mm" /><rect fill="black" height="2mm" width="10mm" x="110mm" y="121mm" /><rect fill="white" height="2mm" width="10mm" x="110mm" y="123mm" /><rect fill="black" height="4mm" width="10mm" x="110mm" y="125mm" /><rect fill="white" height="4mm" width="10mm" x="110mm" y="129mm" /><rect fill="black" height="2mm" width="10mm" x="110mm" y="133mm" /><rect fill="white" height="2mm" width="10mm" x="110mm" y="135mm" /><rect fill="black" height="2mm" width="10mm" x="110mm" y="137mm" /><rect fill="white" height="2mm" width="10mm" x="110mm" y="139mm" /><rect fill="black" height="2mm" width="10mm" x="110mm" y="141mm" /><rect fill="white" height="2mm" width="10mm" x="110mm" y="143mm" /></g><text x="106mm" y="115.5mm">1</text><text x="106mm" y="118.5mm">0</text><text x="106mm" y="120.5mm">0</text><text x="106mm" y="122.5mm">0</text><text x="106mm" y="124.5mm">0</text><text x="106mm" y="127.5mm">1</text><text x="106mm" y="131.5mm">1</text><text x="106mm" y="134.5mm">0</text><text x="106mm" y="136.5mm">0</text><text x="106mm" y="138.5mm">0</text><text x="106mm" y="140.5mm">0</text><text x="106mm" y="142.5mm">0</text><text x="106mm" y="144.5mm">0</text><text x="130mm" y="110mm">13</text><g id="bitmarks"><rect fill="black" height="62mm" width="14mm" x="128mm" y="112mm" /><rect fill="white" height="2mm" width="10mm" x="130mm" y="113mm" /><rect fill="black" height="4mm" width="10mm" x="130mm" y="115mm" /><rect fill="white" height="4mm" width="10mm" x="130mm" y="119mm" /><rect fill="black" height="2mm" width="10mm" x="130mm" y="123mm" /><rect fill="white" height="2mm" width="10mm" x="130mm" y="125mm" /><rect fill="black" height="4mm" width="10mm" x="130mm" y="127mm" /><rect fill="white" height="4mm" width="10mm" x="130mm" y="131mm" /><rect fill="black" height="2mm" width="10mm" x="130mm" y="135mm" /><rect fill="white" height="2mm" width="10mm" x="130mm" y="137mm" /><rect fill="black" height="2mm" width="10mm" x="130mm" y="139mm" /><rect fill="white" height="2mm" width="10mm" x="130mm" y="141mm" /><rect fill="black" height="2mm" width="10mm" x="130mm" y="143mm" /><rect fill="white" height="2mm" width="10mm" x="130mm" y="145mm" /></g><text x="126mm" y="114.5mm">0</text><text x="126mm" y="117.5mm">1</text><text x="126mm" y="121.5mm">1</text><text x="126mm" y="124.5mm">0</text><text x="126mm" y="126.5mm">0</text><text x="126mm" y="129.5mm">1</text><text x="126mm" y="133.5mm">1</text><text x="126mm" y="136.5mm">0</text><text x="126mm" y="138.5mm">0</text><text x="126mm" y="140.5mm">0</text><text x="126mm" y="142.5mm">0</text><text x="126mm" y="144.5mm">0</text><text x="126mm" y="146.5mm">0</text><text x="150mm" y="110mm">14</text><g id="bitmarks"><rect fill="black" height="62mm" width="14mm" x="148mm" y="112mm" /><rect fill="white" height="2mm" width="10mm" x="150mm" y="113mm" /><rect fill="black" height="2mm" width="10mm" x="150mm" y="115mm" /><rect fill="white" height="2mm" width="10mm" x="150mm" y="117mm" /><rect fill="black" height="4mm" width="10mm" x="150mm" y="119mm" /><rect fill="white" height="4mm" width="10mm" x="150mm" y="123mm" /><rect fill="black" height="4mm" width="10mm" x="150mm" y="127mm" /><rect fill="white" height="4mm" width="10mm" x="150mm" y="131mm" /><rect fill="black" height="2mm" width="10mm" x="150mm" y="135mm" /><rect fill="white" height="2mm" width="10mm" x="150mm" y="137mm" /><rect fill="black" height="2mm" width="10mm" x="150mm" y="139mm" /><rect fill="white" height="2mm" width="10mm" x="150mm" y="141mm" /><rect fill="black" height="2mm" width="10mm" x="150mm" y="143mm" /><rect fill="white" height="2mm" width="10mm" x="150mm" y="145mm" /></g><text x="146mm" y="114.5mm">0</text><text x="146mm" y="116.5mm">0</text><text x="146mm" y="118.5mm">0</text><text x="146mm" y="121.5mm">1</text><text x="146mm" y="125.5mm">1</text><text x="146mm" y="129.5mm">1</text><text x="146mm" y="133.5mm">1</text><text x="146mm" y="136.5mm">0</text><text x="146mm" y="138.5mm">0</text><text x="146mm" y="140.5mm">0</text><text x="146mm" y="142.5mm">0</text><text x="146mm" y="144.5mm">0</text><text x="146mm" y="146.5mm">0</text><text x="170mm" y="110mm">15</text><g id="bitmarks"><rect fill="black" height="62mm" width="14mm" x="168mm" y="112mm" /><rect fill="white" height="4mm" width="10mm" x="170mm" y="113mm" /><rect fill="black" height="4mm" width="10mm" x="170mm" y="117mm" /><rect fill="white" height="4mm" width="10mm" x="170mm" y="121mm" /><rect fill="black" height="4mm" width="10mm" x="170mm" y="125mm" /><rect fill="white" height="4mm" width="10mm" x="170mm" y="129mm" /><rect fill="black" height="4mm" width="10mm" x="170mm" y="133mm" /><rect fill="white" height="4mm" width="10mm" x="170mm" y="137mm" /><rect fill="black" height="2mm" width="10mm" x="170mm" y="141mm" /><rect fill="white" height="2mm" width="10mm" x="170mm" y="143mm" /><rect fill="black" height="2mm" width="10mm" x="170mm" y="145mm" /><rect fill="white" height="2mm" width="10mm" x="170mm" y="147mm" /><rect fill="black" height="2mm" width="10mm" x="170mm" y="149mm" /><rect fill="white" height="2mm" width="10mm" x="170mm" y="151mm" /></g><text x="166mm" y="115.5mm">1</text><text x="166mm" y="119.5mm">1</text><text x="166mm" y="123.5mm">1</text><text x="166mm" y="127.5mm">1</text><text x="166mm" y="131.5mm">1</text><text x="166mm" y="135.5mm">1</text><text x="166mm" y="139.5mm">1</text><text x="166mm" y="142.5mm">0</text><text x="166mm" y="144.5mm">0</text><text x="166mm" y="146.5mm">0</text><text x="166mm" y="148.5mm">0</text><text x="166mm" y="150.5mm">0</text><text x="166mm" y="152.5mm">0</text><text x="30mm" y="190mm">16</text><g id="bitmarks"><rect fill="black" height="62mm" width="14mm" x="28mm" y="192mm" /><rect fill="white" height="4mm" width="10mm" x="30mm" y="193mm" /><rect fill="black" height="2mm" width="10mm" x="30mm" y="197mm" /><rect fill="white" height="2mm" width="10mm" x="30mm" y="199mm" /><rect fill="black" height="2mm" width="10mm" x="30mm" y="201mm" /><rect fill="white" height="2mm" width="10mm" x="30mm" y="203mm" /><rect fill="black" height="2mm" width="10mm" x="30mm" y="205mm" /><rect fill="white" height="2mm" width="10mm" x="30mm" y="207mm" /><rect fill="black" height="4mm" width="10mm" x="30mm" y="209mm" /><rect fill="white" height="4mm" width="10mm" x="30mm" y="213mm" /><rect fill="black" height="2mm" width="10mm" x="30mm" y="217mm" /><rect fill="white" height="2mm" width="10mm" x="30mm" y="219mm" /><rect fill="black" height="2mm" width="10mm" x="30mm" y="221mm" /><rect fill="white" height="2mm" width="10mm" x="30mm" y="223mm" /></g><text x="26mm" y="195.5mm">1</text><text x="26mm" y="198.5mm">0</text><text x="26mm" y="200.5mm">0</text><text x="26mm" y="202.5mm">0</text><text x="26mm" y="204.5mm">0</text><text x="26mm" y="206.5mm">0</text><text x="26mm" y="208.5mm">0</text><text x="26mm" y="211.5mm">1</text><text x="26mm" y="215.5mm">1</text><text x="26mm" y="218.5mm">0</text><text x="26mm" y="220.5mm">0</text><text x="26mm" y="222.5mm">0</text><text x="26mm" y="224.5mm">0</text><text x="50mm" y="190mm">17</text><g id="bitmarks"><rect fill="black" height="62mm" width="14mm" x="48mm" y="192mm" /><rect fill="white" height="2mm" width="10mm" x="50mm" y="193mm" /><rect fill="black" height="4mm" width="10mm" x="50mm" y="195mm" /><rect fill="white" height="4mm" width="10mm" x="50mm" y="199mm" /><rect fill="black" height="2mm" width="10mm" x="50mm" y="203mm" /><rect fill="white" height="2mm" width="10mm" x="50mm" y="205mm" /><rect fill="black" height="2mm" width="10mm" x="50mm" y="207mm" /><rect fill="white" height="2mm" width="10mm" x="50mm" y="209mm" /><rect fill="black" height="4mm" width="10mm" x="50mm" y="211mm" /><rect fill="white" height="4mm" width="10mm" x="50mm" y="215mm" /><rect fill="black" height="2mm" width="10mm" x="50mm" y="219mm" /><rect fill="white" height="2mm" width="10mm" x="50mm" y="221mm" /><rect fill="black" height="2mm" width="10mm" x="50mm" y="223mm" /><rect fill="white" height="2mm" width="10mm" x="50mm" y="225mm" /></g><text x="46mm" y="194.5mm">0</text><text x="46mm" y="197.5mm">1</text><text x="46mm" y="201.5mm">1</text><text x="46mm" y="204.5mm">0</text><text x="46mm" y="206.5mm">0</text><text x="46mm" y="208.5mm">0</text><text x="46mm" y="210.5mm">0</text><text x="46mm" y="213.5mm">1</text><text x="46mm" y="217.5mm">1</text><text x="46mm" y="220.5mm">0</text><text x="46mm" y="222.5mm">0</text><text x="46mm" y="224.5mm">0</text><text x="46mm" y="226.5mm">0</text><text x="70mm" y="190mm">18</text><g id="bitmarks"><rect fill="black" height="62mm" width="14mm" x="68mm" y="192mm" /><rect fill="white" height="2mm" width="10mm" x="70mm" y="193mm" /><rect fill="black" height="2mm" width="10mm" x="70mm" y="195mm" /><rect fill="white" height="2mm" width="10mm" x="70mm" y="197mm" /><rect fill="black" height="4mm" width="10mm" x="70mm" y="199mm" /><rect fill="white" height="4mm" width="10mm" x="70mm" y="203mm" /><rect fill="black" height="2mm" width="10mm" x="70mm" y="207mm" /><rect fill="white" height="2mm" width="10mm" x="70mm" y="209mm" /><rect fill="black" height="4mm" width="10mm" x="70mm" y="211mm" /><rect fill="white" height="4mm" width="10mm" x="70mm" y="215mm" /><rect fill="black" height="2mm" width="10mm" x="70mm" y="219mm" /><rect fill="white" height="2mm" width="10mm" x="70mm" y="221mm" /><rect fill="black" height="2mm" width="10mm" x="70mm" y="223mm" /><rect fill="white" height="2mm" width="10mm" x="70mm" y="225mm" /></g><text x="66mm" y="194.5mm">0</text><text x="66mm" y="196.5mm">0</text><text x="66mm" y="198.5mm">0</text><text x="66mm" y="201.5mm">1</text><text x="66mm" y="205.5mm">1</text><text x="66mm" y="208.5mm">0</text><text x="66mm" y="210.5mm">0</text><text x="66mm" y="213.5mm">1</text><text x="66mm" y="217.5mm">1</text><text x="66mm" y="220.5mm">0</text><text x="66mm" y="222.5mm">0</text><text x="66mm" y="224.5mm">0</text><text x="66mm" y="226.5mm">0</text><text x="90mm" y="190mm">19</text><g id="bitmarks"><rect fill="black" height="62mm" width="14mm" x="88mm" y="192mm" /><rect fill="white" height="4mm" width="10mm" x="90mm" y="193mm" /><rect fill="black" height="4mm" width="10mm" x="90mm" y="197mm" /><rect fill="white" height="4mm" width="10mm" x="90mm" y="201mm" /><rect fill="black" height="4mm" width="10mm" x="90mm" y="205mm" /><rect fill="white" height="4mm" width="10mm" x="90mm" y="209mm" /><rect fill="black" height="2mm" width="10mm" x="90mm" y="213mm" /><rect fill="white" height="2mm" width="10mm" x="90mm" y="215mm" /><rect fill="black" height="4mm" width="10mm" x="90mm" y="217mm" /><rect fill="white" height="4mm" width="10mm" x="90mm" y="221mm" /><rect fill="black" height="2mm" width="10mm" x="90mm" y="225mm" /><rect fill="white" height="2mm" width="10mm" x="90mm" y="227mm" /><rect fill="black" height="2mm" width="10mm" x="90mm" y="229mm" /><rect fill="white" height="2mm" width="10mm" x="90mm" y="231mm" /></g><text x="86mm" y="195.5mm">1</text><text x="86mm" y="199.5mm">1</text><text x="86mm" y="203.5mm">1</text><text x="86mm" y="207.5mm">1</text><text x="86mm" y="211.5mm">1</text><text x="86mm" y="214.5mm">0</text><text x="86mm" y="216.5mm">0</text><text x="86mm" y="219.5mm">1</text><text x="86mm" y="223.5mm">1</text><text x="86mm" y="226.5mm">0</text><text x="86mm" y="228.5mm">0</text><text x="86mm" y="230.5mm">0</text><text x="86mm" y="232.5mm">0</text><text x="110mm" y="190mm">20</text><g id="bitmarks"><rect fill="black" height="62mm" width="14mm" x="108mm" y="192mm" /><rect fill="white" height="4mm" width="10mm" x="110mm" y="193mm" /><rect fill="black" height="4mm" width="10mm" x="110mm" y="197mm" /><rect fill="white" height="2mm" width="10mm" x="110mm" y="201mm" /><rect fill="black" height="4mm" width="10mm" x="110mm" y="203mm" /><rect fill="white" height="2mm" width="10mm" x="110mm" y="207mm" /><rect fill="black" height="4mm" width="10mm" x="110mm" y="209mm" /><rect fill="white" height="2mm" width="10mm" x="110mm" y="213mm" /><rect fill="black" height="4mm" width="10mm" x="110mm" y="215mm" /><rect fill="white" height="4mm" width="10mm" x="110mm" y="219mm" /><rect fill="black" height="2mm" width="10mm" x="110mm" y="223mm" /><rect fill="white" height="2mm" width="10mm" x="110mm" y="225mm" /><rect fill="black" height="2mm" width="10mm" x="110mm" y="227mm" /><rect fill="white" height="2mm" width="10mm" x="110mm" y="229mm" /></g><text x="106mm" y="195.5mm">1</text><text x="106mm" y="199.5mm">1</text><text x="106mm" y="202.5mm">0</text><text x="106mm" y="205.5mm">1</text><text x="106mm" y="208.5mm">0</text><text x="106mm" y="211.5mm">1</text><text x="106mm" y="214.5mm">0</text><text x="106mm" y="217.5mm">1</text><text x="106mm" y="221.5mm">1</text><text x="106mm" y="224.5mm">0</text><text x="106mm" y="226.5mm">0</text><text x="106mm" y="228.5mm">0</text><text x="106mm" y="230.5mm">0</text><text x="130mm" y="190mm">21</text><g id="bitmarks"><rect fill="black" height="62mm" width="14mm" x="128mm" y="192mm" /><rect fill="white" height="2mm" width="10mm" x="130mm" y="193mm" /><rect fill="black" height="2mm" width="10mm" x="130mm" y="195mm" /><rect fill="white" height="4mm" width="10mm" x="130mm" y="197mm" /><rect fill="black" height="4mm" width="10mm" x="130mm" y="201mm" /><rect fill="white" height="2mm" width="10mm" x="130mm" y="205mm" /><rect fill="black" height="4mm" width="10mm" x="130mm" y="207mm" /><rect fill="white" height="2mm" width="10mm" x="130mm" y="211mm" /><rect fill="black" height="4mm" width="10mm" x="130mm" y="213mm" /><rect fill="white" height="4mm" width="10mm" x="130mm" y="217mm" /><rect fill="black" height="2mm" width="10mm" x="130mm" y="221mm" /><rect fill="white" height="2mm" width="10mm" x="130mm" y="223mm" /><rect fill="black" height="2mm" width="10mm" x="130mm" y="225mm" /><rect fill="white" height="2mm" width="10mm" x="130mm" y="227mm" /></g><text x="126mm" y="194.5mm">0</text><text x="126mm" y="196.5mm">0</text><text x="126mm" y="199.5mm">1</text><text x="126mm" y="203.5mm">1</text><text x="126mm" y="206.5mm">0</text><text x="126mm" y="209.5mm">1</text><text x="126mm" y="212.5mm">0</text><text x="126mm" y="215.5mm">1</text><text x="126mm" y="219.5mm">1</text><text x="126mm" y="222.5mm">0</text><text x="126mm" y="224.5mm">0</text><text x="126mm" y="226.5mm">0</text><text x="126mm" y="228.5mm">0</text><text x="150mm" y="190mm">22</text><g id="bitmarks"><rect fill="black" height="62mm" width="14mm" x="148mm" y="192mm" /><rect fill="white" height="2mm" width="10mm" x="150mm" y="193mm" /><rect fill="black" height="4mm" width="10mm" x="150mm" y="195mm" /><rect fill="white" height="2mm" width="10mm" x="150mm" y="199mm" /><rect fill="black" height="2mm" width="10mm" x="150mm" y="201mm" /><rect fill="white" height="4mm" width="10mm" x="150mm" y="203mm" /><rect fill="black" height="4mm" width="10mm" x="150mm" y="207mm" /><rect fill="white" height="2mm" width="10mm" x="150mm" y="211mm" /><rect fill="black" height="4mm" width="10mm" x="150mm" y="213mm" /><rect fill="white" height="4mm" width="10mm" x="150mm" y="217mm" /><rect fill="black" height="2mm" width="10mm" x="150mm" y="221mm" /><rect fill="white" height="2mm" width="10mm" x="150mm" y="223mm" /><rect fill="black" height="2mm" width="10mm" x="150mm" y="225mm" /><rect fill="white" height="2mm" width="10mm" x="150mm" y="227mm" /></g><text x="146mm" y="194.5mm">0</text><text x="146mm" y="197.5mm">1</text><text x="146mm" y="200.5mm">0</text><text x="146mm" y="202.5mm">0</text><text x="146mm" y="205.5mm">1</text><text x="146mm" y="209.5mm">1</text><text x="146mm" y="212.5mm">0</text><text x="146mm" y="215.5mm">1</text><text x="146mm" y="219.5mm">1</text><text x="146mm" y="222.5mm">0</text><text x="146mm" y="224.5mm">0</text><text x="146mm" y="226.5mm">0</text><text x="146mm" y="228.5mm">0</text><text x="170mm" y="190mm">23</text><g id="bitmarks"><rect fill="black" height="62mm" width="14mm" x="168mm" y="192mm" /><rect fill="white" height="4mm" width="10mm" x="170mm" y="193mm" /><rect fill="black" height="2mm" width="10mm" x="170mm" y="197mm" /><rect fill="white" height="4mm" width="10mm" x="170mm" y="199mm" /><rect fill="black" height="2mm" width="10mm" x="170mm" y="203mm" /><rect fill="white" height="4mm" width="10mm" x="170mm" y="205mm" /><rect fill="black" height="4mm" width="10mm" x="170mm" y="209mm" /><rect fill="white" height="2mm" width="10mm" x="170mm" y="213mm" /><rect fill="black" height="4mm" width="10mm" x="170mm" y="215mm" /><rect fill="white" height="4mm" width="10mm" x="170mm" y="219mm" /><rect fill="black" height="2mm" width="10mm" x="170mm" y="223mm" /><rect fill="white" height="2mm" width="10mm" x="170mm" y="225mm" /><rect fill="black" height="2mm" width="10mm" x="170mm" y="227mm" /><rect fill="white" height="2mm" width="10mm" x="170mm" y="229mm" /></g><text x="166mm" y="195.5mm">1</text><text x="166mm" y="198.5mm">0</text><text x="166mm" y="201.5mm">1</text><text x="166mm" y="204.5mm">0</text><text x="166mm" y="207.5mm">1</text><text x="166mm" y="211.5mm">1</text><text x="166mm" y="214.5mm">0</text><text x="166mm" y="217.5mm">1</text><text x="166mm" y="221.5mm">1</text><text x="166mm" y="224.5mm">0</text><text x="166mm" y="226.5mm">0</text><text x="166mm" y="228.5mm">0</text><text x="166mm" y="230.5mm">0</text></svg>