<?xml version="1.0" encoding="utf-8" ?>
<svg baseProfile="full" height="297mm" version="1.1" width="210mm" xmlns="http://www.w3.org/2000/svg" xmlns:ev="http://www.w3.org/2001/xml-events" xmlns:xlink="http://www.w3.org/1999/xlink"><defs /><text x="30mm" y="30mm">0</text><g id="bitmarks"><rect fill="black" height="45mm" width="14mm" x="28mm" y="32mm" /><rect fill="white" height="2mm" width="10mm" x="30mm" y="36mm" /><rect fill="black" height="2mm" width="10mm" x="30mm" y="38mm" /><rect fill="white" height="2mm" width="10mm" x="30mm" y="40mm" /><rect fill="black" height="2mm" width="10mm" x="30mm" y="42mm" /><rect fill="white" height="2mm" width="10mm" x="30mm" y="44mm" /><rect fill="black" height="2mm" width="10mm" x="30mm" y="46mm" /><rect fill="white" height="2mm" width="10mm" x="30mm" y="48mm" /><rect fill="black" height="2mm" width="10mm" x="30mm" y="50mm" /><rect fill="white" height="2mm" width="10mm" x="30mm" y="52mm" /></g><text x="50mm" y="30mm">1</text><g id="bitmarks"><rect fill="black" height="45mm" width="14mm" x="48mm" y="32mm" /><rect fill="white" height="4mm" width="10mm" x="50mm" y="36mm" /><rect fill="black" height="2mm" width="10mm" x="50mm" y="40mm" /><rect fill="white" height="2mm" width="10mm" x="50mm" y="42mm" /><rect fill="black" height="2mm" width="10mm" x="50mm" y="44mm" /><rect fill="white" height="2mm" width="10mm" x="50mm" y="46mm" /><rect fill="black" height="2mm" width="10mm" x="50mm" y="48mm" /><rect fill="white" height="2mm" width="10mm" x="50mm" y="50mm" /><rect fill="black" height="4mm" width="10mm" x="50mm" y="52mm" /><rect fill="white" height="4mm" width="10mm" x="50mm" y="56mm" /></g><text x="70mm" y="30mm">2</text><g id="bitmarks"><rect fill="black" height="45mm" width="14mm" x="68mm" y="32mm" /><rect fill="white" height="4mm" width="10mm" x="70mm" y="36mm" /><rect fill="black" height="4mm" width="10mm" x="70mm" y="40mm" /><rect fill="white" height="2mm" width="10mm" x="70mm" y="44mm" /><rect fill="black" height="4mm" width="10mm" x="70mm" y="46mm" /><rect fill="white" height="2mm" width="10mm" x="70mm" y="50mm" /><rect fill="black" height="2mm" width="10mm" x="70mm" y="52mm" /><rect fill="white" height="4mm" width="10mm" x="70mm" y="54mm" /><rect fill="black" height="2mm" width="10mm" x="70mm" y="58mm" /><rect fill="white" height="2mm" width="10mm" x="70mm" y="60mm" /></g><text x="90mm" y="30mm">3</text><g id="bitmarks"><rect fill="black" height="45mm" width="14mm" x="88mm" y="32mm" /><rect fill="white" height="2mm" width="10mm" x="90mm" y="36mm" /><rect fill="black" height="4mm" width="10mm" x="90mm" y="38mm" /><rect fill="white" height="2mm" width="10mm" x="90mm" y="42mm" /><rect fill="black" height="4mm" width="10mm" x="90mm" y="44mm" /><rect fill="white" height="2mm" width="10mm" x="90mm" y="48mm" /><rect fill="black" height="2mm" width="10mm" x="90mm" y="50mm" /><rect fill="white" height="4mm" width="10mm" x="90mm" y="52mm" /><rect fill="black" height="4mm" width="10mm" x="90mm" y="56mm" /><rect fill="white" height="4mm" width="10mm" x="90mm" y="60mm" /></g><text x="110mm" y="30mm">4</text><g id="bitmarks"><rect fill="black" height="45mm" width="14mm" x="108mm" y="32mm" /><rect fill="white" height="2mm" width="10mm" x="110mm" y="36mm" /><rect fill="black" height="4mm" width="10mm" x="110mm" y="38mm" /><rect fill="white" height="2mm" width="10mm" x="110mm" y="42mm" /><rect fill="black" height="4mm" width="10mm" x="110mm" y="44mm" /><rect fill="white" height="2mm" width="10mm" x="110mm" y="48mm" /><rect fill="black" height="4mm" width="10mm" x="110mm" y="50mm" /><rect fill="white" height="2mm" width="10mm" x="110mm" y="54mm" /><rect fill="black" height="2mm" width="10mm" x="110mm" y="56mm" /><rect fill="white" height="2mm" width="10mm" x="110mm" y="58mm" /></g><text x="130mm" y="30mm">5</text><g id="bitmarks"><rect fill="black" height="45mm" width="14mm" x="128mm" y="32mm" /><rect fill="white" height="4mm" width="10mm" x="130mm" y="36mm" /><rect fill="black" height="4mm" width="10mm" x="130mm" y="40mm" /><rect fill="white" height="2mm" width="10mm" x="130mm" y="44mm" /><rect fill="black" height="4mm" width="10mm" x="130mm" y="46mm" /><rect fill="white" height="2mm" width="10mm" x="130mm" y="50mm" /><rect fill="black" height="4mm" width="10mm" x="130mm" y="52mm" /><rect fill="white" height="2mm" width="10mm" x="130mm" y="56mm" /><rect fill="black" height="4mm" width="10mm" x="130mm" y="58mm" /><rect fill="white" height="4mm" width="10mm" x="130mm" y="62mm" /></g><text x="150mm" y="30mm">6</text><g id="bitmarks"><rect fill="black" height="45mm" width="14mm" x="148mm" y="32mm" /><rect fill="white" height="4mm" width="10mm" x="150mm" y="36mm" /><rect fill="black" height="2mm" width="10mm" x="150mm" y="40mm" /><rect fill="white" height="2mm" width="10mm" x="150mm" y="42mm" /><rect fill="black" height="2mm" width="10mm" x="150mm" y="44mm" /><rect fill="white" height="2mm" width="10mm" x="150mm" y="46mm" /><rect fill="black" height="4mm" width="10mm" x="150mm" y="48mm" /><rect fill="white" height="4mm" width="10mm" x="150mm" y="52mm" /><rect fill="black" height="2mm" width="10mm" x="150mm" y="56mm" /><rect fill="white" height="2mm" width="10mm" x="150mm" y="58mm" /></g><text x="170mm" y="30mm">7</text><g id="bitmarks"><rect fill="black" height="45mm" width="14mm" x="168mm" y="32mm" /><rect fill="white" height="2mm" width="10mm" x="170mm" y="36mm" /><rect fill="black" height="2mm" width="10mm" x="170mm" y="38mm" /><rect fill="white" height="2mm" width="10mm" x="170mm" y="40mm" /><rect fill="black" height="2mm" width="10mm" x="170mm" y="42mm" /><rect fill="white" height="2mm" width="10mm" x="170mm" y="44mm" /><rect fill="black" height="4mm" width="10mm" x="170mm" y="46mm" /><rect fill="white" height="4mm" width="10mm" x="170mm" y="50mm" /><rect fill="black" height="4mm" width="10mm" x="170mm" y="54mm" /><rect fill="white" height="4mm" width="10mm" x="170mm" y="58mm" /></g><text x="30mm" y="90mm">8</text><g id="bitmarks"><rect fill="black" height="45mm" width="14mm" x="28mm" y="92mm" /><rect fill="white" height="4mm" width="10mm" x="30mm" y="96mm" /><rect fill="black" height="2mm" width="10mm" x="30mm" y="100mm" /><rect fill="white" height="2mm" width="10mm" x="30mm" y="102mm" /><rect fill="black" height="4mm" width="10mm" x="30mm" y="104mm" /><rect fill="white" height="4mm" width="10mm" x="30mm" y="108mm" /><rect fill="black" height="2mm" width="10mm" x="30mm" y="112mm" /><rect fill="white" height="2mm" width="10mm" x="30mm" y="114mm" /><rect fill="black" height="2mm" width="10mm" x="30mm" y="116mm" /><rect fill="white" height="2mm" width="10mm" x="30mm" y="118mm" /></g><text x="50mm" y="90mm">9</text><g id="bitmarks"><rect fill="black" height="45mm" width="14mm" x="48mm" y="92mm" /><rect fill="white" height="2mm" width="10mm" x="50mm" y="96mm" /><rect fill="black" height="2mm" width="10mm" x="50mm" y="98mm" /><rect fill="white" height="2mm" width="10mm" x="50mm" y="100mm" /><rect fill="black" height="4mm" width="10mm" x="50mm" y="102mm" /><rect fill="white" height="4mm" width="10mm" x="50mm" y="106mm" /><rect fill="black" height="2mm" width="10mm" x="50mm" y="110mm" /><rect fill="white" height="2mm" width="10mm" x="50mm" y="112mm" /><rect fill="black" height="4mm" width="10mm" x="50mm" y="114mm" /><rect fill="white" height="4mm" width="10mm" x="50mm" y="118mm" /></g><text x="70mm" y="90mm">10</text><g id="bitmarks"><rect fill="black" height="45mm" width="14mm" x="68mm" y="92mm" /><rect fill="white" height="2mm" width="10mm" x="70mm" y="96mm" /><rect fill="black" height="4mm" width="10mm" x="70mm" y="98mm" /><rect fill="white" height="2mm" width="10mm" x="70mm" y="102mm" /><rect fill="black" height="2mm" width="10mm" x="70mm" y="104mm" /><rect fill="white" height="4mm" width="10mm" x="70mm" y="106mm" /><rect fill="black" height="2mm" width="10mm" x="70mm" y="110mm" /><rect fill="white" height="4mm" width="10mm" x="70mm" y="112mm" /><rect fill="black" height="2mm" width="10mm" x="70mm" y="116mm" /><rect fill="white" height="2mm" width="10mm" x="70mm" y="118mm" /></g><text x="90mm" y="90mm">11</text><g id="bitmarks"><rect fill="black" height="45mm" width="14mm" x="88mm" y="92mm" /><rect fill="white" height="4mm" width="10mm" x="90mm" y="96mm" /><rect fill="black" height="4mm" width="10mm" x="90mm" y="100mm" /><rect fill="white" height="2mm" width="10mm" x="90mm" y="104mm" /><rect fill="black" height="2mm" width="10mm" x="90mm" y="106mm" /><rect fill="white" height="4mm" width="10mm" x="90mm" y="108mm" /><rect fill="black" height="2mm" width="10mm" x="90mm" y="112mm" /><rect fill="white" height="4mm" width="10mm" x="90mm" y="114mm" /><rect fill="black" height="4mm" width="10mm" x="90mm" y="118mm" /><rect fill="white" height="4mm" width="10mm" x="90mm" y="122mm" /></g><text x="110mm" y="90mm">12</text><g id="bitmarks"><rect fill="black" height="45mm" width="14mm" x="108mm" y="92mm" /><rect fill="white" height="4mm" width="10mm" x="110mm" y="96mm" /><rect fill="black" height="4mm" width="10mm" x="110mm" y="100mm" /><rect fill="white" height="2mm" width="10mm" x="110mm" y="104mm" /><rect fill="black" height="2mm" width="10mm" x="110mm" y="106mm" /><rect fill="white" height="4mm" width="10mm" x="110mm" y="108mm" /><rect fill="black" height="4mm" width="10mm" x="110mm" y="112mm" /><rect fill="white" height="2mm" width="10mm" x="110mm" y="116mm" /><rect fill="black" height="2mm" width="10mm" x="110mm" y="118mm" /><rect fill="white" height="2mm" width="10mm" x="110mm" y="120mm" /></g><text x="130mm" y="90mm">13</text><g id="bitmarks"><rect fill="black" height="45mm" width="14mm" x="128mm" y="92mm" /><rect fill="white" height="2mm" width="10mm" x="130mm" y="96mm" /><rect fill="black" height="4mm" width="10mm" x="130mm" y="98mm" /><rect fill="white" height="2mm" width="10mm" x="130mm" y="102mm" /><rect fill="black" height="2mm" width="10mm" x="130mm" y="104mm" /><rect fill="white" height="4mm" width="10mm" x="130mm" y="106mm" /><rect fill="black" height="4mm" width="10mm" x="130mm" y="110mm" /><rect fill="white" height="2mm" width="10mm" x="130mm" y="114mm" /><rect fill="black" height="4mm" width="10mm" x="130mm" y="116mm" /><rect fill="white" height="4mm" width="10mm" x="130mm" y="120mm" /></g><text x="150mm" y="90mm">14</text><g id="bitmarks"><rect fill="black" height="45mm" width="14mm" x="148mm" y="92mm" /><rect fill="white" height="2mm" width="10mm" x="150mm" y="96mm" /><rect fill="black" height="2mm" width="10mm" x="150mm" y="98mm" /><rect fill="white" height="2mm" width="10mm" x="150mm" y="100mm" /><rect fill="black" height="4mm" width="10mm" x="150mm" y="102mm" /><rect fill="white" height="4mm" width="10mm" x="150mm" y="106mm" /><rect fill="black" height="4mm" width="10mm" x="150mm" y="110mm" /><rect fill="white" height="4mm" width="10mm" x="150mm" y="114mm" /><rect fill="black" height="2mm" width="10mm" x="150mm" y="118mm" /><rect fill="white" height="2mm" width="10mm" x="150mm" y="120mm" /></g><text x="170mm" y="90mm">15</text><g id="bitmarks"><rect fill="black" height="45mm" width="14mm" x="168mm" y="92mm" /><rect fill="white" height="4mm" width="10mm" x="170mm" y="96mm" /><rect fill="black" height="2mm" width="10mm" x="170mm" y="100mm" /><rect fill="white" height="2mm" width="10mm" x="170mm" y="102mm" /><rect fill="black" height="4mm" width="10mm" x="170mm" y="104mm" /><rect fill="white" height="4mm" width="10mm" x="170mm" y="108mm" /><rect fill="black" height="4mm" width="10mm" x="170mm" y="112mm" /><rect fill="white" height="4mm" width="10mm" x="170mm" y="116mm" /><rect fill="black" height="4mm" width="10mm" x="170mm" y="120mm" /><rect fill="white" height="4mm" width="10mm" x="170mm" y="124mm" /></g><text x="30mm" y="150mm">16</text><g id="bitmarks"><rect fill="black" height="45mm" width="14mm" x="28mm" y="152mm" /><rect fill="white" height="4mm" width="10mm" x="30mm" y="156mm" /><rect fill="black" height="4mm" width="10mm" x="30mm" y="160mm" /><rect fill="white" height="4mm" width="10mm" x="30mm" y="164mm" /><rect fill="black" height="2mm" width="10mm" x="30mm" y="168mm" /><rect fill="white" height="2mm" width="10mm" x="30mm" y="170mm" /><rect fill="black" height="2mm" width="10mm" x="30mm" y="172mm" /><rect fill="white" height="2mm" width="10mm" x="30mm" y="174mm" /><rect fill="black" height="2mm" width="10mm" x="30mm" y="176mm" /><rect fill="white" height="2mm" width="10mm" x="30mm" y="178mm" /></g><text x="50mm" y="150mm">17</text><g id="bitmarks"><rect fill="black" height="45mm" width="14mm" x="48mm" y="152mm" /><rect fill="white" height="2mm" width="10mm" x="50mm" y="156mm" /><rect fill="black" height="4mm" width="10mm" x="50mm" y="158mm" /><rect fill="white" height="4mm" width="10mm" x="50mm" y="162mm" /><rect fill="black" height="2mm" width="10mm" x="50mm" y="166mm" /><rect fill="white" height="2mm" width="10mm" x="50mm" y="168mm" /><rect fill="black" height="2mm" width="10mm" x="50mm" y="170mm" /><rect fill="white" height="2mm" width="10mm" x="50mm" y="172mm" /><rect fill="black" height="4mm" width="10mm" x="50mm" y="174mm" /><rect fill="white" height="4mm" width="10mm" x="50mm" y="178mm" /></g><text x="70mm" y="150mm">18</text><g id="bitmarks"><rect fill="black" height="45mm" width="14mm" x="68mm" y="152mm" /><rect fill="white" height="2mm" width="10mm" x="70mm" y="156mm" /><rect fill="black" height="2mm" width="10mm" x="70mm" y="158mm" /><rect fill="white" height="4mm" width="10mm" x="70mm" y="160mm" /><rect fill="black" height="4mm" width="10mm" x="70mm" y="164mm" /><rect fill="white" height="2mm" width="10mm" x="70mm" y="168mm" /><rect fill="black" height="2mm" width="10mm" x="70mm" y="170mm" /><rect fill="white" height="4mm" width="10mm" x="70mm" y="172mm" /><rect fill="black" height="2mm" width="10mm" x="70mm" y="176mm" /><rect fill="white" height="2mm" width="10mm" x="70mm" y="178mm" /></g><text x="90mm" y="150mm">19</text><g id="bitmarks"><rect fill="black" height="45mm" width="14mm" x="88mm" y="152mm" /><rect fill="white" height="4mm" width="10mm" x="90mm" y="156mm" /><rect fill="black" height="2mm" width="10mm" x="90mm" y="160mm" /><rect fill="white" height="4mm" width="10mm" x="90mm" y="162mm" /><rect fill="black" height="4mm" width="10mm" x="90mm" y="166mm" /><rect fill="white" height="2mm" width="10mm" x="90mm" y="170mm" /><rect fill="black" height="2mm" width="10mm" x="90mm" y="172mm" /><rect fill="white" height="4mm" width="10mm" x="90mm" y="174mm" /><rect fill="black" height="4mm" width="10mm" x="90mm" y="178mm" /><rect fill="white" height="4mm" width="10mm" x="90mm" y="182mm" /></g><text x="110mm" y="150mm">20</text><g id="bitmarks"><rect fill="black" height="45mm" width="14mm" x="108mm" y="152mm" /><rect fill="white" height="4mm" width="10mm" x="110mm" y="156mm" /><rect fill="black" height="2mm" width="10mm" x="110mm" y="160mm" /><rect fill="white" height="4mm" width="10mm" x="110mm" y="162mm" /><rect fill="black" height="4mm" width="10mm" x="110mm" y="166mm" /><rect fill="white" height="2mm" width="10mm" x="110mm" y="170mm" /><rect fill="black" height="4mm" width="10mm" x="110mm" y="172mm" /><rect fill="white" height="2mm" width="10mm" x="110mm" y="176mm" /><rect fill="black" height="2mm" width="10mm" x="110mm" y="178mm" /><rect fill="white" height="2mm" width="10mm" x="110mm" y="180mm" /></g><text x="130mm" y="150mm">21</text><g id="bitmarks"><rect fill="black" height="45mm" width="14mm" x="128mm" y="152mm" /><rect fill="white" height="2mm" width="10mm" x="130mm" y="156mm" /><rect fill="black" height="2mm" width="10mm" x="130mm" y="158mm" /><rect fill="white" height="4mm" width="10mm" x="130mm" y="160mm" /><rect fill="black" height="4mm" width="10mm" x="130mm" y="164mm" /><rect fill="white" height="2mm" width="10mm" x="130mm" y="168mm" /><rect fill="black" height="4mm" width="10mm" x="130mm" y="170mm" /><rect fill="white" height="2mm" width="10mm" x="130mm" y="174mm" /><rect fill="black" height="4mm" width="10mm" x="130mm" y="176mm" /><rect fill="white" height="4mm" width="10mm" x="130mm" y="180mm" /></g><text x="150mm" y="150mm">22</text><g id="bitmarks"><rect fill="black" height="45mm" width="14mm" x="148mm" y="152mm" /><rect fill="white" height="2mm" width="10mm" x="150mm" y="156mm" /><rect fill="black" height="4mm" width="10mm" x="150mm" y="158mm" /><rect fill="white" height="4mm" width="10mm" x="150mm" y="162mm" /><rect fill="black" height="2mm" width="10mm" x="150mm" y="166mm" /><rect fill="white" height="2mm" width="10mm" x="150mm" y="168mm" /><rect fill="black" height="4mm" width="10mm" x="150mm" y="170mm" /><rect fill="white" height="4mm" width="10mm" x="150mm" y="174mm" /><rect fill="black" height="2mm" width="10mm" x="150mm" y="178mm" /><rect fill="white" height="2mm" width="10mm" x="150mm" y="180mm" /></g></svg>