G04 #@! TF.FileFunction,Legend,Top*
%FSLAX46Y46*%
G04 Gerber Fmt 4.6, Leading zero omitted, Abs format (unit mm)*
G04 Created by KiCad (PCBNEW 4.0.4-stable) date 01/06/17 10:27:03*
%MOMM*%
%LPD*%
G01*
G04 APERTURE LIST*
%ADD10C,0.150000*%
%ADD11C,0.381000*%
%ADD12C,0.304800*%
%ADD13C,0.203200*%
%ADD14C,0.254000*%
%ADD15C,0.002540*%
%ADD16C,0.300000*%
%ADD17C,0.200000*%
G04 APERTURE END LIST*
D10*
D11*
X38100000Y24130000D02*
G75*
G03X38100000Y24130000I-12700000J0D01*
G01*
D12*
X44734238Y19431001D02*
X43669857Y19431001D01*
X43476333Y19358430D01*
X43379571Y19213287D01*
X43379571Y18923001D01*
X43476333Y18777858D01*
X44637476Y19431001D02*
X44734238Y19285858D01*
X44734238Y18923001D01*
X44637476Y18777858D01*
X44443952Y18705287D01*
X44250429Y18705287D01*
X44056905Y18777858D01*
X43960143Y18923001D01*
X43960143Y19285858D01*
X43863381Y19431001D01*
X44734238Y20156715D02*
X43379571Y20156715D01*
X43766619Y20156715D02*
X43573095Y20229287D01*
X43476333Y20301858D01*
X43379571Y20447001D01*
X43379571Y20592144D01*
X43379571Y20882430D02*
X43379571Y21463001D01*
X42702238Y21100144D02*
X44443952Y21100144D01*
X44637476Y21172716D01*
X44734238Y21317858D01*
X44734238Y21463001D01*
X44734238Y22624144D02*
X42702238Y22624144D01*
X44637476Y22624144D02*
X44734238Y22479001D01*
X44734238Y22188715D01*
X44637476Y22043573D01*
X44540714Y21971001D01*
X44347190Y21898430D01*
X43766619Y21898430D01*
X43573095Y21971001D01*
X43476333Y22043573D01*
X43379571Y22188715D01*
X43379571Y22479001D01*
X43476333Y22624144D01*
X44734238Y23567572D02*
X44637476Y23422430D01*
X44540714Y23349858D01*
X44347190Y23277287D01*
X43766619Y23277287D01*
X43573095Y23349858D01*
X43476333Y23422430D01*
X43379571Y23567572D01*
X43379571Y23785287D01*
X43476333Y23930430D01*
X43573095Y24003001D01*
X43766619Y24075572D01*
X44347190Y24075572D01*
X44540714Y24003001D01*
X44637476Y23930430D01*
X44734238Y23785287D01*
X44734238Y23567572D01*
X44637476Y25381858D02*
X44734238Y25236715D01*
X44734238Y24946429D01*
X44637476Y24801287D01*
X44540714Y24728715D01*
X44347190Y24656144D01*
X43766619Y24656144D01*
X43573095Y24728715D01*
X43476333Y24801287D01*
X43379571Y24946429D01*
X43379571Y25236715D01*
X43476333Y25381858D01*
X44637476Y25962430D02*
X44734238Y26107573D01*
X44734238Y26397858D01*
X44637476Y26543001D01*
X44443952Y26615573D01*
X44347190Y26615573D01*
X44153667Y26543001D01*
X44056905Y26397858D01*
X44056905Y26180144D01*
X43960143Y26035001D01*
X43766619Y25962430D01*
X43669857Y25962430D01*
X43476333Y26035001D01*
X43379571Y26180144D01*
X43379571Y26397858D01*
X43476333Y26543001D01*
X44540714Y27268715D02*
X44637476Y27341287D01*
X44734238Y27268715D01*
X44637476Y27196144D01*
X44540714Y27268715D01*
X44734238Y27268715D01*
X44637476Y28647572D02*
X44734238Y28502429D01*
X44734238Y28212143D01*
X44637476Y28067001D01*
X44540714Y27994429D01*
X44347190Y27921858D01*
X43766619Y27921858D01*
X43573095Y27994429D01*
X43476333Y28067001D01*
X43379571Y28212143D01*
X43379571Y28502429D01*
X43476333Y28647572D01*
X44734238Y29518429D02*
X44637476Y29373287D01*
X44540714Y29300715D01*
X44347190Y29228144D01*
X43766619Y29228144D01*
X43573095Y29300715D01*
X43476333Y29373287D01*
X43379571Y29518429D01*
X43379571Y29736144D01*
X43476333Y29881287D01*
X43573095Y29953858D01*
X43766619Y30026429D01*
X44347190Y30026429D01*
X44540714Y29953858D01*
X44637476Y29881287D01*
X44734238Y29736144D01*
X44734238Y29518429D01*
X44540714Y30679572D02*
X44637476Y30752144D01*
X44734238Y30679572D01*
X44637476Y30607001D01*
X44540714Y30679572D01*
X44734238Y30679572D01*
X43379571Y32058429D02*
X44734238Y32058429D01*
X43379571Y31405286D02*
X44443952Y31405286D01*
X44637476Y31477858D01*
X44734238Y31623000D01*
X44734238Y31840715D01*
X44637476Y31985858D01*
X44540714Y32058429D01*
X44734238Y32784143D02*
X42702238Y32784143D01*
X43960143Y32929286D02*
X44734238Y33364715D01*
X43379571Y33364715D02*
X44153667Y32784143D01*
X42194238Y15076715D02*
X40839571Y15076715D01*
X41226619Y15076715D02*
X41033095Y15149287D01*
X40936333Y15221858D01*
X40839571Y15367001D01*
X40839571Y15512144D01*
X42097476Y16600716D02*
X42194238Y16455573D01*
X42194238Y16165287D01*
X42097476Y16020144D01*
X41903952Y15947573D01*
X41129857Y15947573D01*
X40936333Y16020144D01*
X40839571Y16165287D01*
X40839571Y16455573D01*
X40936333Y16600716D01*
X41129857Y16673287D01*
X41323381Y16673287D01*
X41516905Y15947573D01*
X41420143Y17326430D02*
X41420143Y18487573D01*
X42194238Y19213287D02*
X40839571Y19213287D01*
X40162238Y19213287D02*
X40259000Y19140716D01*
X40355762Y19213287D01*
X40259000Y19285859D01*
X40162238Y19213287D01*
X40355762Y19213287D01*
X40839571Y19939001D02*
X42194238Y19939001D01*
X41033095Y19939001D02*
X40936333Y20011573D01*
X40839571Y20156715D01*
X40839571Y20374430D01*
X40936333Y20519573D01*
X41129857Y20592144D01*
X42194238Y20592144D01*
X40839571Y21317858D02*
X42194238Y21317858D01*
X41033095Y21317858D02*
X40936333Y21390430D01*
X40839571Y21535572D01*
X40839571Y21753287D01*
X40936333Y21898430D01*
X41129857Y21971001D01*
X42194238Y21971001D01*
X42194238Y22914429D02*
X42097476Y22769287D01*
X42000714Y22696715D01*
X41807190Y22624144D01*
X41226619Y22624144D01*
X41033095Y22696715D01*
X40936333Y22769287D01*
X40839571Y22914429D01*
X40839571Y23132144D01*
X40936333Y23277287D01*
X41033095Y23349858D01*
X41226619Y23422429D01*
X41807190Y23422429D01*
X42000714Y23349858D01*
X42097476Y23277287D01*
X42194238Y23132144D01*
X42194238Y22914429D01*
X40839571Y23930429D02*
X42194238Y24293286D01*
X40839571Y24656144D01*
X42194238Y25889858D02*
X41129857Y25889858D01*
X40936333Y25817287D01*
X40839571Y25672144D01*
X40839571Y25381858D01*
X40936333Y25236715D01*
X42097476Y25889858D02*
X42194238Y25744715D01*
X42194238Y25381858D01*
X42097476Y25236715D01*
X41903952Y25164144D01*
X41710429Y25164144D01*
X41516905Y25236715D01*
X41420143Y25381858D01*
X41420143Y25744715D01*
X41323381Y25889858D01*
X40839571Y26397858D02*
X40839571Y26978429D01*
X40162238Y26615572D02*
X41903952Y26615572D01*
X42097476Y26688144D01*
X42194238Y26833286D01*
X42194238Y26978429D01*
X42194238Y27486429D02*
X40839571Y27486429D01*
X40162238Y27486429D02*
X40259000Y27413858D01*
X40355762Y27486429D01*
X40259000Y27559001D01*
X40162238Y27486429D01*
X40355762Y27486429D01*
X42194238Y28429857D02*
X42097476Y28284715D01*
X42000714Y28212143D01*
X41807190Y28139572D01*
X41226619Y28139572D01*
X41033095Y28212143D01*
X40936333Y28284715D01*
X40839571Y28429857D01*
X40839571Y28647572D01*
X40936333Y28792715D01*
X41033095Y28865286D01*
X41226619Y28937857D01*
X41807190Y28937857D01*
X42000714Y28865286D01*
X42097476Y28792715D01*
X42194238Y28647572D01*
X42194238Y28429857D01*
X40839571Y29591000D02*
X42194238Y29591000D01*
X41033095Y29591000D02*
X40936333Y29663572D01*
X40839571Y29808714D01*
X40839571Y30026429D01*
X40936333Y30171572D01*
X41129857Y30244143D01*
X42194238Y30244143D01*
X42000714Y30969857D02*
X42097476Y31042429D01*
X42194238Y30969857D01*
X42097476Y30897286D01*
X42000714Y30969857D01*
X42194238Y30969857D01*
X42097476Y32348714D02*
X42194238Y32203571D01*
X42194238Y31913285D01*
X42097476Y31768143D01*
X42000714Y31695571D01*
X41807190Y31623000D01*
X41226619Y31623000D01*
X41033095Y31695571D01*
X40936333Y31768143D01*
X40839571Y31913285D01*
X40839571Y32203571D01*
X40936333Y32348714D01*
X42194238Y33219571D02*
X42097476Y33074429D01*
X42000714Y33001857D01*
X41807190Y32929286D01*
X41226619Y32929286D01*
X41033095Y33001857D01*
X40936333Y33074429D01*
X40839571Y33219571D01*
X40839571Y33437286D01*
X40936333Y33582429D01*
X41033095Y33655000D01*
X41226619Y33727571D01*
X41807190Y33727571D01*
X42000714Y33655000D01*
X42097476Y33582429D01*
X42194238Y33437286D01*
X42194238Y33219571D01*
X42000714Y34380714D02*
X42097476Y34453286D01*
X42194238Y34380714D01*
X42097476Y34308143D01*
X42000714Y34380714D01*
X42194238Y34380714D01*
X40839571Y35759571D02*
X42194238Y35759571D01*
X40839571Y35106428D02*
X41903952Y35106428D01*
X42097476Y35179000D01*
X42194238Y35324142D01*
X42194238Y35541857D01*
X42097476Y35687000D01*
X42000714Y35759571D01*
X42194238Y36485285D02*
X40162238Y36485285D01*
X41420143Y36630428D02*
X42194238Y37065857D01*
X40839571Y37065857D02*
X41613667Y36485285D01*
X15112999Y6634238D02*
X15185570Y6731000D01*
X15330713Y6827762D01*
X15693570Y6827762D01*
X15838713Y6731000D01*
X15911284Y6634238D01*
X15983856Y6440714D01*
X15983856Y6247190D01*
X15911284Y5956905D01*
X15040427Y4795762D01*
X15983856Y4795762D01*
X16927285Y6827762D02*
X17072428Y6827762D01*
X17217571Y6731000D01*
X17290142Y6634238D01*
X17362713Y6440714D01*
X17435285Y6053667D01*
X17435285Y5569857D01*
X17362713Y5182810D01*
X17290142Y4989286D01*
X17217571Y4892524D01*
X17072428Y4795762D01*
X16927285Y4795762D01*
X16782142Y4892524D01*
X16709571Y4989286D01*
X16636999Y5182810D01*
X16564428Y5569857D01*
X16564428Y6053667D01*
X16636999Y6440714D01*
X16709571Y6634238D01*
X16782142Y6731000D01*
X16927285Y6827762D01*
X19177000Y6924524D02*
X17870714Y4311952D01*
X20483285Y4795762D02*
X19612428Y4795762D01*
X20047856Y4795762D02*
X20047856Y6827762D01*
X19902713Y6537476D01*
X19757571Y6343952D01*
X19612428Y6247190D01*
X21063857Y6634238D02*
X21136428Y6731000D01*
X21281571Y6827762D01*
X21644428Y6827762D01*
X21789571Y6731000D01*
X21862142Y6634238D01*
X21934714Y6440714D01*
X21934714Y6247190D01*
X21862142Y5956905D01*
X20991285Y4795762D01*
X21934714Y4795762D01*
X23676429Y6924524D02*
X22370143Y4311952D01*
X24111857Y6634238D02*
X24184428Y6731000D01*
X24329571Y6827762D01*
X24692428Y6827762D01*
X24837571Y6731000D01*
X24910142Y6634238D01*
X24982714Y6440714D01*
X24982714Y6247190D01*
X24910142Y5956905D01*
X24039285Y4795762D01*
X24982714Y4795762D01*
X25926143Y6827762D02*
X26071286Y6827762D01*
X26216429Y6731000D01*
X26289000Y6634238D01*
X26361571Y6440714D01*
X26434143Y6053667D01*
X26434143Y5569857D01*
X26361571Y5182810D01*
X26289000Y4989286D01*
X26216429Y4892524D01*
X26071286Y4795762D01*
X25926143Y4795762D01*
X25781000Y4892524D01*
X25708429Y4989286D01*
X25635857Y5182810D01*
X25563286Y5569857D01*
X25563286Y6053667D01*
X25635857Y6440714D01*
X25708429Y6634238D01*
X25781000Y6731000D01*
X25926143Y6827762D01*
X27885572Y4795762D02*
X27014715Y4795762D01*
X27450143Y4795762D02*
X27450143Y6827762D01*
X27305000Y6537476D01*
X27159858Y6343952D01*
X27014715Y6247190D01*
X29191858Y6827762D02*
X28901572Y6827762D01*
X28756429Y6731000D01*
X28683858Y6634238D01*
X28538715Y6343952D01*
X28466144Y5956905D01*
X28466144Y5182810D01*
X28538715Y4989286D01*
X28611287Y4892524D01*
X28756429Y4795762D01*
X29046715Y4795762D01*
X29191858Y4892524D01*
X29264429Y4989286D01*
X29337001Y5182810D01*
X29337001Y5666619D01*
X29264429Y5860143D01*
X29191858Y5956905D01*
X29046715Y6053667D01*
X28756429Y6053667D01*
X28611287Y5956905D01*
X28538715Y5860143D01*
X28466144Y5666619D01*
X18759715Y7970762D02*
X18034001Y7970762D01*
X18034001Y10002762D01*
X19267715Y9035143D02*
X19775715Y9035143D01*
X19993429Y7970762D02*
X19267715Y7970762D01*
X19267715Y10002762D01*
X19993429Y10002762D01*
X20646572Y7970762D02*
X20646572Y10002762D01*
X21009429Y10002762D01*
X21227144Y9906000D01*
X21372286Y9712476D01*
X21444858Y9518952D01*
X21517429Y9131905D01*
X21517429Y8841619D01*
X21444858Y8454571D01*
X21372286Y8261048D01*
X21227144Y8067524D01*
X21009429Y7970762D01*
X20646572Y7970762D01*
X23331715Y10002762D02*
X23331715Y8357810D01*
X23404287Y8164286D01*
X23476858Y8067524D01*
X23622001Y7970762D01*
X23912287Y7970762D01*
X24057429Y8067524D01*
X24130001Y8164286D01*
X24202572Y8357810D01*
X24202572Y10002762D01*
X24928286Y7970762D02*
X24928286Y10002762D01*
X25799143Y7970762D01*
X25799143Y10002762D01*
X26524857Y7970762D02*
X26524857Y10002762D01*
X27032857Y10002762D02*
X27903714Y10002762D01*
X27468285Y7970762D02*
X27468285Y10002762D01*
D13*
X22555200Y33655000D02*
X22555200Y29845000D01*
D14*
X22608003Y29842332D02*
G75*
G03X22606000Y33655000I2537997J1907668D01*
G01*
D13*
X15570200Y29210000D02*
X15570200Y25400000D01*
D14*
X15623003Y25397332D02*
G75*
G03X15621000Y29210000I2537997J1907668D01*
G01*
D13*
X18110200Y19685000D02*
X18110200Y15875000D01*
D14*
X18163003Y15872332D02*
G75*
G03X18161000Y19685000I2537997J1907668D01*
G01*
D13*
X27635200Y19685000D02*
X27635200Y15875000D01*
D14*
X27688003Y15872332D02*
G75*
G03X27686000Y19685000I2537997J1907668D01*
G01*
D13*
X30175200Y29210000D02*
X30175200Y25400000D01*
D14*
X30228003Y25397332D02*
G75*
G03X30226000Y29210000I2537997J1907668D01*
G01*
D13*
X22555200Y26035000D02*
X22555200Y22225000D01*
D14*
X22608003Y22222332D02*
G75*
G03X22606000Y26035000I2537997J1907668D01*
G01*
D15*
G36*
X39959280Y4069080D02*
X39893240Y4005580D01*
X39710360Y3845560D01*
X39512240Y3688080D01*
X39301420Y3538220D01*
X39080440Y3395980D01*
X38856920Y3263900D01*
X38630860Y3147060D01*
X38404800Y3045460D01*
X38359080Y3025140D01*
X38313360Y3007360D01*
X38262560Y2987040D01*
X38206680Y2966720D01*
X38150800Y2946400D01*
X38100000Y2926080D01*
X38054280Y2910840D01*
X38021260Y2900680D01*
X38000940Y2895600D01*
X37998400Y2895600D01*
X37993320Y2903220D01*
X37980620Y2931160D01*
X37957760Y2971800D01*
X37929820Y3030220D01*
X37891720Y3103880D01*
X37846000Y3192780D01*
X37795200Y3294380D01*
X37736780Y3408680D01*
X37673280Y3533140D01*
X37604700Y3672840D01*
X37528500Y3820160D01*
X37449760Y3980180D01*
X37363400Y4147820D01*
X37277040Y4325620D01*
X37183060Y4511040D01*
X37086540Y4704080D01*
X36987480Y4902200D01*
X36883340Y5107940D01*
X36779200Y5316220D01*
X36703000Y5466080D01*
X36596320Y5679440D01*
X36492180Y5890260D01*
X36390580Y6093460D01*
X36294060Y6289040D01*
X36197540Y6479540D01*
X36106100Y6662420D01*
X36019740Y6837680D01*
X35938460Y7002780D01*
X35859720Y7160260D01*
X35788600Y7305040D01*
X35720020Y7439660D01*
X35659060Y7564120D01*
X35605720Y7673340D01*
X35557460Y7772400D01*
X35516820Y7856220D01*
X35481260Y7924800D01*
X35455860Y7978140D01*
X35438080Y8016240D01*
X35427920Y8036560D01*
X35425380Y8041640D01*
X35445700Y8051800D01*
X35476180Y8069580D01*
X35511740Y8094980D01*
X35549840Y8122920D01*
X35582860Y8150860D01*
X35608260Y8171180D01*
X35659060Y8216900D01*
X35803840Y8079740D01*
X35824160Y8059420D01*
X35857180Y8028940D01*
X35902900Y7983220D01*
X35961320Y7927340D01*
X36032440Y7858760D01*
X36116260Y7780020D01*
X36207700Y7691120D01*
X36309300Y7592060D01*
X36421060Y7482840D01*
X36542980Y7366000D01*
X36669980Y7244080D01*
X36807140Y7112000D01*
X36949380Y6974840D01*
X37099240Y6830060D01*
X37254180Y6682740D01*
X37411660Y6527800D01*
X37576760Y6370320D01*
X37744400Y6210300D01*
X37912040Y6045200D01*
X37955220Y6004560D01*
X39959280Y4069080D01*
X39959280Y4069080D01*
X39959280Y4069080D01*
G37*
X39959280Y4069080D02*
X39893240Y4005580D01*
X39710360Y3845560D01*
X39512240Y3688080D01*
X39301420Y3538220D01*
X39080440Y3395980D01*
X38856920Y3263900D01*
X38630860Y3147060D01*
X38404800Y3045460D01*
X38359080Y3025140D01*
X38313360Y3007360D01*
X38262560Y2987040D01*
X38206680Y2966720D01*
X38150800Y2946400D01*
X38100000Y2926080D01*
X38054280Y2910840D01*
X38021260Y2900680D01*
X38000940Y2895600D01*
X37998400Y2895600D01*
X37993320Y2903220D01*
X37980620Y2931160D01*
X37957760Y2971800D01*
X37929820Y3030220D01*
X37891720Y3103880D01*
X37846000Y3192780D01*
X37795200Y3294380D01*
X37736780Y3408680D01*
X37673280Y3533140D01*
X37604700Y3672840D01*
X37528500Y3820160D01*
X37449760Y3980180D01*
X37363400Y4147820D01*
X37277040Y4325620D01*
X37183060Y4511040D01*
X37086540Y4704080D01*
X36987480Y4902200D01*
X36883340Y5107940D01*
X36779200Y5316220D01*
X36703000Y5466080D01*
X36596320Y5679440D01*
X36492180Y5890260D01*
X36390580Y6093460D01*
X36294060Y6289040D01*
X36197540Y6479540D01*
X36106100Y6662420D01*
X36019740Y6837680D01*
X35938460Y7002780D01*
X35859720Y7160260D01*
X35788600Y7305040D01*
X35720020Y7439660D01*
X35659060Y7564120D01*
X35605720Y7673340D01*
X35557460Y7772400D01*
X35516820Y7856220D01*
X35481260Y7924800D01*
X35455860Y7978140D01*
X35438080Y8016240D01*
X35427920Y8036560D01*
X35425380Y8041640D01*
X35445700Y8051800D01*
X35476180Y8069580D01*
X35511740Y8094980D01*
X35549840Y8122920D01*
X35582860Y8150860D01*
X35608260Y8171180D01*
X35659060Y8216900D01*
X35803840Y8079740D01*
X35824160Y8059420D01*
X35857180Y8028940D01*
X35902900Y7983220D01*
X35961320Y7927340D01*
X36032440Y7858760D01*
X36116260Y7780020D01*
X36207700Y7691120D01*
X36309300Y7592060D01*
X36421060Y7482840D01*
X36542980Y7366000D01*
X36669980Y7244080D01*
X36807140Y7112000D01*
X36949380Y6974840D01*
X37099240Y6830060D01*
X37254180Y6682740D01*
X37411660Y6527800D01*
X37576760Y6370320D01*
X37744400Y6210300D01*
X37912040Y6045200D01*
X37955220Y6004560D01*
X39959280Y4069080D01*
X39959280Y4069080D01*
G36*
X34889440Y7950200D02*
X34884360Y7914640D01*
X34881820Y7901940D01*
X34879280Y7871460D01*
X34874200Y7820660D01*
X34866580Y7752080D01*
X34858960Y7668260D01*
X34848800Y7569200D01*
X34836100Y7454900D01*
X34820860Y7327900D01*
X34808160Y7188200D01*
X34790380Y7035800D01*
X34775140Y6873240D01*
X34754820Y6697980D01*
X34737040Y6517640D01*
X34716720Y6324600D01*
X34696400Y6126480D01*
X34673540Y5923280D01*
X34653220Y5712460D01*
X34635440Y5544820D01*
X34607500Y5285740D01*
X34582100Y5046980D01*
X34559240Y4823460D01*
X34538920Y4620260D01*
X34518600Y4434840D01*
X34500820Y4264660D01*
X34483040Y4109720D01*
X34467800Y3967480D01*
X34455100Y3843020D01*
X34444940Y3728720D01*
X34432240Y3627120D01*
X34424620Y3540760D01*
X34414460Y3462020D01*
X34406840Y3393440D01*
X34401760Y3337560D01*
X34396680Y3289300D01*
X34391600Y3246120D01*
X34386520Y3213100D01*
X34383980Y3187700D01*
X34381440Y3167380D01*
X34378900Y3152140D01*
X34378900Y3139440D01*
X34376360Y3131820D01*
X34376360Y3126740D01*
X34373820Y3126740D01*
X34373820Y3124200D01*
X34371280Y3124200D01*
X34371280Y3124200D01*
X34361120Y3129280D01*
X34335720Y3141980D01*
X34300160Y3159760D01*
X34254440Y3182620D01*
X34223960Y3197860D01*
X33947100Y3355340D01*
X33682940Y3525520D01*
X33434020Y3708400D01*
X33197800Y3903980D01*
X32979360Y4112260D01*
X32951420Y4137660D01*
X32910780Y4180840D01*
X32875220Y4218940D01*
X32847280Y4251960D01*
X32826960Y4272280D01*
X32819340Y4282440D01*
X32819340Y4284980D01*
X32824420Y4292600D01*
X32837120Y4320540D01*
X32857440Y4363720D01*
X32885380Y4422140D01*
X32918400Y4495800D01*
X32959040Y4582160D01*
X33007300Y4683760D01*
X33060640Y4795520D01*
X33119060Y4919980D01*
X33182560Y5054600D01*
X33251140Y5196840D01*
X33322260Y5349240D01*
X33398460Y5511800D01*
X33477200Y5679440D01*
X33561020Y5852160D01*
X33644840Y6029960D01*
X33705800Y6156960D01*
X33792160Y6337300D01*
X33875980Y6515100D01*
X33957260Y6687820D01*
X34036000Y6852920D01*
X34109660Y7010400D01*
X34180780Y7160260D01*
X34249360Y7302500D01*
X34310320Y7432040D01*
X34368740Y7551420D01*
X34419540Y7660640D01*
X34465260Y7757160D01*
X34503360Y7840980D01*
X34536380Y7909560D01*
X34561780Y7962900D01*
X34579560Y8001000D01*
X34589720Y8023860D01*
X34592260Y8028940D01*
X34602420Y8028940D01*
X34625280Y8021320D01*
X34655760Y8011160D01*
X34696400Y7995920D01*
X34744660Y7983220D01*
X34795460Y7970520D01*
X34803080Y7967980D01*
X34889440Y7950200D01*
X34889440Y7950200D01*
X34889440Y7950200D01*
G37*
X34889440Y7950200D02*
X34884360Y7914640D01*
X34881820Y7901940D01*
X34879280Y7871460D01*
X34874200Y7820660D01*
X34866580Y7752080D01*
X34858960Y7668260D01*
X34848800Y7569200D01*
X34836100Y7454900D01*
X34820860Y7327900D01*
X34808160Y7188200D01*
X34790380Y7035800D01*
X34775140Y6873240D01*
X34754820Y6697980D01*
X34737040Y6517640D01*
X34716720Y6324600D01*
X34696400Y6126480D01*
X34673540Y5923280D01*
X34653220Y5712460D01*
X34635440Y5544820D01*
X34607500Y5285740D01*
X34582100Y5046980D01*
X34559240Y4823460D01*
X34538920Y4620260D01*
X34518600Y4434840D01*
X34500820Y4264660D01*
X34483040Y4109720D01*
X34467800Y3967480D01*
X34455100Y3843020D01*
X34444940Y3728720D01*
X34432240Y3627120D01*
X34424620Y3540760D01*
X34414460Y3462020D01*
X34406840Y3393440D01*
X34401760Y3337560D01*
X34396680Y3289300D01*
X34391600Y3246120D01*
X34386520Y3213100D01*
X34383980Y3187700D01*
X34381440Y3167380D01*
X34378900Y3152140D01*
X34378900Y3139440D01*
X34376360Y3131820D01*
X34376360Y3126740D01*
X34373820Y3126740D01*
X34373820Y3124200D01*
X34371280Y3124200D01*
X34371280Y3124200D01*
X34361120Y3129280D01*
X34335720Y3141980D01*
X34300160Y3159760D01*
X34254440Y3182620D01*
X34223960Y3197860D01*
X33947100Y3355340D01*
X33682940Y3525520D01*
X33434020Y3708400D01*
X33197800Y3903980D01*
X32979360Y4112260D01*
X32951420Y4137660D01*
X32910780Y4180840D01*
X32875220Y4218940D01*
X32847280Y4251960D01*
X32826960Y4272280D01*
X32819340Y4282440D01*
X32819340Y4284980D01*
X32824420Y4292600D01*
X32837120Y4320540D01*
X32857440Y4363720D01*
X32885380Y4422140D01*
X32918400Y4495800D01*
X32959040Y4582160D01*
X33007300Y4683760D01*
X33060640Y4795520D01*
X33119060Y4919980D01*
X33182560Y5054600D01*
X33251140Y5196840D01*
X33322260Y5349240D01*
X33398460Y5511800D01*
X33477200Y5679440D01*
X33561020Y5852160D01*
X33644840Y6029960D01*
X33705800Y6156960D01*
X33792160Y6337300D01*
X33875980Y6515100D01*
X33957260Y6687820D01*
X34036000Y6852920D01*
X34109660Y7010400D01*
X34180780Y7160260D01*
X34249360Y7302500D01*
X34310320Y7432040D01*
X34368740Y7551420D01*
X34419540Y7660640D01*
X34465260Y7757160D01*
X34503360Y7840980D01*
X34536380Y7909560D01*
X34561780Y7962900D01*
X34579560Y8001000D01*
X34589720Y8023860D01*
X34592260Y8028940D01*
X34602420Y8028940D01*
X34625280Y8021320D01*
X34655760Y8011160D01*
X34696400Y7995920D01*
X34744660Y7983220D01*
X34795460Y7970520D01*
X34803080Y7967980D01*
X34889440Y7950200D01*
X34889440Y7950200D01*
G36*
X34193480Y8399780D02*
X34193480Y8394700D01*
X34183320Y8389620D01*
X34160460Y8371840D01*
X34119820Y8348980D01*
X34066480Y8315960D01*
X34000440Y8275320D01*
X33924240Y8227060D01*
X33835340Y8173720D01*
X33741360Y8112760D01*
X33634680Y8049260D01*
X33525460Y7980680D01*
X33408620Y7909560D01*
X33286700Y7833360D01*
X33162240Y7757160D01*
X33035240Y7678420D01*
X32905700Y7597140D01*
X32776160Y7518400D01*
X32649160Y7439660D01*
X32524700Y7363460D01*
X32402780Y7287260D01*
X32285940Y7216140D01*
X32174180Y7147560D01*
X32070040Y7081520D01*
X31970980Y7023100D01*
X31884620Y6967220D01*
X31805880Y6918960D01*
X31739840Y6878320D01*
X31683960Y6845300D01*
X31643320Y6819900D01*
X31617920Y6804660D01*
X31607760Y6799580D01*
X31602680Y6804660D01*
X31597600Y6827520D01*
X31592520Y6860540D01*
X31589980Y6863080D01*
X31567120Y7048500D01*
X31549340Y7241540D01*
X31541720Y7447280D01*
X31539180Y7569200D01*
X31541720Y7635240D01*
X31541720Y7706360D01*
X31544260Y7780020D01*
X31546800Y7853680D01*
X31549340Y7919720D01*
X31551880Y7983220D01*
X31556960Y8034020D01*
X31559500Y8074660D01*
X31562040Y8097520D01*
X31564580Y8102600D01*
X31574740Y8105140D01*
X31602680Y8112760D01*
X31648400Y8122920D01*
X31709360Y8138160D01*
X31783020Y8153400D01*
X31869380Y8173720D01*
X31965900Y8196580D01*
X32072580Y8221980D01*
X32186880Y8247380D01*
X32308800Y8275320D01*
X32438340Y8305800D01*
X32567880Y8333740D01*
X32702500Y8364220D01*
X32837120Y8394700D01*
X32971740Y8427720D01*
X33106360Y8455660D01*
X33235900Y8486140D01*
X33360360Y8514080D01*
X33479740Y8542020D01*
X33594040Y8567420D01*
X33695640Y8590280D01*
X33789620Y8610600D01*
X33870900Y8630920D01*
X33939480Y8646160D01*
X33995360Y8656320D01*
X34033460Y8666480D01*
X34056320Y8671560D01*
X34056320Y8671560D01*
X34074100Y8674100D01*
X34086800Y8669020D01*
X34094420Y8653780D01*
X34104580Y8623300D01*
X34114740Y8590280D01*
X34132520Y8544560D01*
X34152840Y8498840D01*
X34160460Y8486140D01*
X34178240Y8448040D01*
X34188400Y8417560D01*
X34193480Y8399780D01*
X34193480Y8399780D01*
X34193480Y8399780D01*
G37*
X34193480Y8399780D02*
X34193480Y8394700D01*
X34183320Y8389620D01*
X34160460Y8371840D01*
X34119820Y8348980D01*
X34066480Y8315960D01*
X34000440Y8275320D01*
X33924240Y8227060D01*
X33835340Y8173720D01*
X33741360Y8112760D01*
X33634680Y8049260D01*
X33525460Y7980680D01*
X33408620Y7909560D01*
X33286700Y7833360D01*
X33162240Y7757160D01*
X33035240Y7678420D01*
X32905700Y7597140D01*
X32776160Y7518400D01*
X32649160Y7439660D01*
X32524700Y7363460D01*
X32402780Y7287260D01*
X32285940Y7216140D01*
X32174180Y7147560D01*
X32070040Y7081520D01*
X31970980Y7023100D01*
X31884620Y6967220D01*
X31805880Y6918960D01*
X31739840Y6878320D01*
X31683960Y6845300D01*
X31643320Y6819900D01*
X31617920Y6804660D01*
X31607760Y6799580D01*
X31602680Y6804660D01*
X31597600Y6827520D01*
X31592520Y6860540D01*
X31589980Y6863080D01*
X31567120Y7048500D01*
X31549340Y7241540D01*
X31541720Y7447280D01*
X31539180Y7569200D01*
X31541720Y7635240D01*
X31541720Y7706360D01*
X31544260Y7780020D01*
X31546800Y7853680D01*
X31549340Y7919720D01*
X31551880Y7983220D01*
X31556960Y8034020D01*
X31559500Y8074660D01*
X31562040Y8097520D01*
X31564580Y8102600D01*
X31574740Y8105140D01*
X31602680Y8112760D01*
X31648400Y8122920D01*
X31709360Y8138160D01*
X31783020Y8153400D01*
X31869380Y8173720D01*
X31965900Y8196580D01*
X32072580Y8221980D01*
X32186880Y8247380D01*
X32308800Y8275320D01*
X32438340Y8305800D01*
X32567880Y8333740D01*
X32702500Y8364220D01*
X32837120Y8394700D01*
X32971740Y8427720D01*
X33106360Y8455660D01*
X33235900Y8486140D01*
X33360360Y8514080D01*
X33479740Y8542020D01*
X33594040Y8567420D01*
X33695640Y8590280D01*
X33789620Y8610600D01*
X33870900Y8630920D01*
X33939480Y8646160D01*
X33995360Y8656320D01*
X34033460Y8666480D01*
X34056320Y8671560D01*
X34056320Y8671560D01*
X34074100Y8674100D01*
X34086800Y8669020D01*
X34094420Y8653780D01*
X34104580Y8623300D01*
X34114740Y8590280D01*
X34132520Y8544560D01*
X34152840Y8498840D01*
X34160460Y8486140D01*
X34178240Y8448040D01*
X34188400Y8417560D01*
X34193480Y8399780D01*
X34193480Y8399780D01*
G36*
X41450260Y7693660D02*
X41450260Y7642860D01*
X41447720Y7609840D01*
X41445180Y7589520D01*
X41442640Y7579360D01*
X41435020Y7576820D01*
X41432480Y7576820D01*
X41422320Y7579360D01*
X41391840Y7584440D01*
X41343580Y7594600D01*
X41277540Y7607300D01*
X41196260Y7622540D01*
X41099740Y7642860D01*
X40987980Y7665720D01*
X40860980Y7691120D01*
X40721280Y7719060D01*
X40568880Y7749540D01*
X40406320Y7782560D01*
X40231060Y7815580D01*
X40048180Y7853680D01*
X39855140Y7891780D01*
X39651940Y7932420D01*
X39443660Y7975600D01*
X39225220Y8018780D01*
X39001700Y8064500D01*
X38775640Y8110220D01*
X38699440Y8125460D01*
X38470840Y8171180D01*
X38244780Y8216900D01*
X38026340Y8262620D01*
X37812980Y8303260D01*
X37607240Y8346440D01*
X37411660Y8384540D01*
X37223700Y8422640D01*
X37045900Y8460740D01*
X36875720Y8493760D01*
X36720780Y8524240D01*
X36576000Y8554720D01*
X36443920Y8580120D01*
X36327080Y8605520D01*
X36222940Y8625840D01*
X36136580Y8643620D01*
X36062920Y8656320D01*
X36009580Y8669020D01*
X35971480Y8676640D01*
X35953700Y8679180D01*
X35951160Y8679180D01*
X35930840Y8684260D01*
X35923220Y8694420D01*
X35923220Y8712200D01*
X35925760Y8727440D01*
X35928300Y8755380D01*
X35930840Y8796020D01*
X35930840Y8846820D01*
X35930840Y8879840D01*
X35930840Y8991600D01*
X38437820Y9344660D01*
X38658800Y9375140D01*
X38877240Y9405620D01*
X39088060Y9436100D01*
X39291260Y9464040D01*
X39486840Y9491980D01*
X39674800Y9517380D01*
X39855140Y9542780D01*
X40022780Y9568180D01*
X40180260Y9588500D01*
X40327580Y9611360D01*
X40459660Y9629140D01*
X40579040Y9646920D01*
X40685720Y9662160D01*
X40774620Y9674860D01*
X40848280Y9685020D01*
X40906700Y9692640D01*
X40944800Y9697720D01*
X40967660Y9700260D01*
X40970200Y9702800D01*
X40982900Y9702800D01*
X40990520Y9697720D01*
X41000680Y9685020D01*
X41013380Y9662160D01*
X41031160Y9624060D01*
X41038780Y9603740D01*
X41135300Y9352280D01*
X41221660Y9088120D01*
X41297860Y8816340D01*
X41356280Y8539480D01*
X41399460Y8288020D01*
X41412160Y8186420D01*
X41424860Y8079740D01*
X41435020Y7973060D01*
X41442640Y7868920D01*
X41447720Y7774940D01*
X41450260Y7696200D01*
X41450260Y7693660D01*
X41450260Y7693660D01*
X41450260Y7693660D01*
G37*
X41450260Y7693660D02*
X41450260Y7642860D01*
X41447720Y7609840D01*
X41445180Y7589520D01*
X41442640Y7579360D01*
X41435020Y7576820D01*
X41432480Y7576820D01*
X41422320Y7579360D01*
X41391840Y7584440D01*
X41343580Y7594600D01*
X41277540Y7607300D01*
X41196260Y7622540D01*
X41099740Y7642860D01*
X40987980Y7665720D01*
X40860980Y7691120D01*
X40721280Y7719060D01*
X40568880Y7749540D01*
X40406320Y7782560D01*
X40231060Y7815580D01*
X40048180Y7853680D01*
X39855140Y7891780D01*
X39651940Y7932420D01*
X39443660Y7975600D01*
X39225220Y8018780D01*
X39001700Y8064500D01*
X38775640Y8110220D01*
X38699440Y8125460D01*
X38470840Y8171180D01*
X38244780Y8216900D01*
X38026340Y8262620D01*
X37812980Y8303260D01*
X37607240Y8346440D01*
X37411660Y8384540D01*
X37223700Y8422640D01*
X37045900Y8460740D01*
X36875720Y8493760D01*
X36720780Y8524240D01*
X36576000Y8554720D01*
X36443920Y8580120D01*
X36327080Y8605520D01*
X36222940Y8625840D01*
X36136580Y8643620D01*
X36062920Y8656320D01*
X36009580Y8669020D01*
X35971480Y8676640D01*
X35953700Y8679180D01*
X35951160Y8679180D01*
X35930840Y8684260D01*
X35923220Y8694420D01*
X35923220Y8712200D01*
X35925760Y8727440D01*
X35928300Y8755380D01*
X35930840Y8796020D01*
X35930840Y8846820D01*
X35930840Y8879840D01*
X35930840Y8991600D01*
X38437820Y9344660D01*
X38658800Y9375140D01*
X38877240Y9405620D01*
X39088060Y9436100D01*
X39291260Y9464040D01*
X39486840Y9491980D01*
X39674800Y9517380D01*
X39855140Y9542780D01*
X40022780Y9568180D01*
X40180260Y9588500D01*
X40327580Y9611360D01*
X40459660Y9629140D01*
X40579040Y9646920D01*
X40685720Y9662160D01*
X40774620Y9674860D01*
X40848280Y9685020D01*
X40906700Y9692640D01*
X40944800Y9697720D01*
X40967660Y9700260D01*
X40970200Y9702800D01*
X40982900Y9702800D01*
X40990520Y9697720D01*
X41000680Y9685020D01*
X41013380Y9662160D01*
X41031160Y9624060D01*
X41038780Y9603740D01*
X41135300Y9352280D01*
X41221660Y9088120D01*
X41297860Y8816340D01*
X41356280Y8539480D01*
X41399460Y8288020D01*
X41412160Y8186420D01*
X41424860Y8079740D01*
X41435020Y7973060D01*
X41442640Y7868920D01*
X41447720Y7774940D01*
X41450260Y7696200D01*
X41450260Y7693660D01*
X41450260Y7693660D01*
G36*
X35526980Y8882380D02*
X35516820Y8788400D01*
X35491420Y8696960D01*
X35450780Y8610600D01*
X35394900Y8531860D01*
X35326320Y8465820D01*
X35247580Y8409940D01*
X35158680Y8369300D01*
X35130740Y8361680D01*
X35069780Y8348980D01*
X35006280Y8341360D01*
X34952940Y8341360D01*
X34945320Y8341360D01*
X34838640Y8361680D01*
X34742120Y8399780D01*
X34655760Y8453120D01*
X34582100Y8519160D01*
X34521140Y8600440D01*
X34475420Y8694420D01*
X34467800Y8712200D01*
X34457640Y8750300D01*
X34450020Y8785860D01*
X34447480Y8826500D01*
X34444940Y8879840D01*
X34444940Y8890000D01*
X34447480Y8943340D01*
X34450020Y8983980D01*
X34455100Y9014460D01*
X34465260Y9047480D01*
X34472880Y9067800D01*
X34521140Y9164320D01*
X34582100Y9248140D01*
X34655760Y9314180D01*
X34739580Y9367520D01*
X34833560Y9403080D01*
X34932620Y9420860D01*
X35024060Y9423400D01*
X35123120Y9405620D01*
X35217100Y9372600D01*
X35300920Y9321800D01*
X35374580Y9258300D01*
X35435540Y9179560D01*
X35483800Y9090660D01*
X35514280Y8989060D01*
X35516820Y8978900D01*
X35526980Y8882380D01*
X35526980Y8882380D01*
X35526980Y8882380D01*
G37*
X35526980Y8882380D02*
X35516820Y8788400D01*
X35491420Y8696960D01*
X35450780Y8610600D01*
X35394900Y8531860D01*
X35326320Y8465820D01*
X35247580Y8409940D01*
X35158680Y8369300D01*
X35130740Y8361680D01*
X35069780Y8348980D01*
X35006280Y8341360D01*
X34952940Y8341360D01*
X34945320Y8341360D01*
X34838640Y8361680D01*
X34742120Y8399780D01*
X34655760Y8453120D01*
X34582100Y8519160D01*
X34521140Y8600440D01*
X34475420Y8694420D01*
X34467800Y8712200D01*
X34457640Y8750300D01*
X34450020Y8785860D01*
X34447480Y8826500D01*
X34444940Y8879840D01*
X34444940Y8890000D01*
X34447480Y8943340D01*
X34450020Y8983980D01*
X34455100Y9014460D01*
X34465260Y9047480D01*
X34472880Y9067800D01*
X34521140Y9164320D01*
X34582100Y9248140D01*
X34655760Y9314180D01*
X34739580Y9367520D01*
X34833560Y9403080D01*
X34932620Y9420860D01*
X35024060Y9423400D01*
X35123120Y9405620D01*
X35217100Y9372600D01*
X35300920Y9321800D01*
X35374580Y9258300D01*
X35435540Y9179560D01*
X35483800Y9090660D01*
X35514280Y8989060D01*
X35516820Y8978900D01*
X35526980Y8882380D01*
X35526980Y8882380D01*
G36*
X34277300Y9479280D02*
X34274760Y9471660D01*
X34262060Y9448800D01*
X34241740Y9418320D01*
X34231580Y9400540D01*
X34206180Y9359900D01*
X34180780Y9314180D01*
X34163000Y9278620D01*
X34160460Y9271000D01*
X34145220Y9240520D01*
X34132520Y9222740D01*
X34124900Y9215120D01*
X34114740Y9220200D01*
X34086800Y9230360D01*
X34043620Y9245600D01*
X33982660Y9265920D01*
X33909000Y9293860D01*
X33822640Y9324340D01*
X33726120Y9359900D01*
X33619440Y9398000D01*
X33502600Y9441180D01*
X33378140Y9486900D01*
X33248600Y9535160D01*
X33119060Y9580880D01*
X32984440Y9629140D01*
X32854900Y9677400D01*
X32732980Y9723120D01*
X32616140Y9763760D01*
X32509460Y9804400D01*
X32415480Y9837420D01*
X32329120Y9870440D01*
X32258000Y9895840D01*
X32199580Y9916160D01*
X32156400Y9931400D01*
X32131000Y9941560D01*
X32123380Y9944100D01*
X32123380Y9954260D01*
X32133540Y9974580D01*
X32151320Y10007600D01*
X32174180Y10048240D01*
X32197040Y10093960D01*
X32222440Y10139680D01*
X32247840Y10182860D01*
X32268160Y10213340D01*
X32298640Y10261600D01*
X32334200Y10317480D01*
X32374840Y10378440D01*
X32418020Y10441940D01*
X32463740Y10505440D01*
X32506920Y10566400D01*
X32550100Y10624820D01*
X32588200Y10678160D01*
X32623760Y10721340D01*
X32649160Y10756900D01*
X32669480Y10777220D01*
X32677100Y10784840D01*
X32687260Y10779760D01*
X32710120Y10761980D01*
X32743140Y10731500D01*
X32791400Y10693400D01*
X32849820Y10647680D01*
X32915860Y10594340D01*
X32992060Y10533380D01*
X33073340Y10467340D01*
X33159700Y10396220D01*
X33251140Y10322560D01*
X33345120Y10243820D01*
X33441640Y10167620D01*
X33538160Y10086340D01*
X33632140Y10010140D01*
X33726120Y9933940D01*
X33817560Y9857740D01*
X33903920Y9789160D01*
X33982660Y9723120D01*
X34056320Y9662160D01*
X34122360Y9608820D01*
X34175700Y9565640D01*
X34221420Y9527540D01*
X34254440Y9499600D01*
X34272220Y9484360D01*
X34277300Y9479280D01*
X34277300Y9479280D01*
X34277300Y9479280D01*
G37*
X34277300Y9479280D02*
X34274760Y9471660D01*
X34262060Y9448800D01*
X34241740Y9418320D01*
X34231580Y9400540D01*
X34206180Y9359900D01*
X34180780Y9314180D01*
X34163000Y9278620D01*
X34160460Y9271000D01*
X34145220Y9240520D01*
X34132520Y9222740D01*
X34124900Y9215120D01*
X34114740Y9220200D01*
X34086800Y9230360D01*
X34043620Y9245600D01*
X33982660Y9265920D01*
X33909000Y9293860D01*
X33822640Y9324340D01*
X33726120Y9359900D01*
X33619440Y9398000D01*
X33502600Y9441180D01*
X33378140Y9486900D01*
X33248600Y9535160D01*
X33119060Y9580880D01*
X32984440Y9629140D01*
X32854900Y9677400D01*
X32732980Y9723120D01*
X32616140Y9763760D01*
X32509460Y9804400D01*
X32415480Y9837420D01*
X32329120Y9870440D01*
X32258000Y9895840D01*
X32199580Y9916160D01*
X32156400Y9931400D01*
X32131000Y9941560D01*
X32123380Y9944100D01*
X32123380Y9954260D01*
X32133540Y9974580D01*
X32151320Y10007600D01*
X32174180Y10048240D01*
X32197040Y10093960D01*
X32222440Y10139680D01*
X32247840Y10182860D01*
X32268160Y10213340D01*
X32298640Y10261600D01*
X32334200Y10317480D01*
X32374840Y10378440D01*
X32418020Y10441940D01*
X32463740Y10505440D01*
X32506920Y10566400D01*
X32550100Y10624820D01*
X32588200Y10678160D01*
X32623760Y10721340D01*
X32649160Y10756900D01*
X32669480Y10777220D01*
X32677100Y10784840D01*
X32687260Y10779760D01*
X32710120Y10761980D01*
X32743140Y10731500D01*
X32791400Y10693400D01*
X32849820Y10647680D01*
X32915860Y10594340D01*
X32992060Y10533380D01*
X33073340Y10467340D01*
X33159700Y10396220D01*
X33251140Y10322560D01*
X33345120Y10243820D01*
X33441640Y10167620D01*
X33538160Y10086340D01*
X33632140Y10010140D01*
X33726120Y9933940D01*
X33817560Y9857740D01*
X33903920Y9789160D01*
X33982660Y9723120D01*
X34056320Y9662160D01*
X34122360Y9608820D01*
X34175700Y9565640D01*
X34221420Y9527540D01*
X34254440Y9499600D01*
X34272220Y9484360D01*
X34277300Y9479280D01*
X34277300Y9479280D01*
G36*
X39049960Y11879580D02*
X37409120Y10660380D01*
X37249100Y10541000D01*
X37091620Y10424160D01*
X36939220Y10309860D01*
X36794440Y10203180D01*
X36654740Y10099040D01*
X36522660Y9999980D01*
X36398200Y9908540D01*
X36281360Y9822180D01*
X36177220Y9743440D01*
X36080700Y9672320D01*
X35996880Y9611360D01*
X35923220Y9555480D01*
X35864800Y9512300D01*
X35816540Y9476740D01*
X35783520Y9453880D01*
X35765740Y9441180D01*
X35763200Y9438640D01*
X35753040Y9443720D01*
X35732720Y9461500D01*
X35704780Y9489440D01*
X35679380Y9514840D01*
X35646360Y9547860D01*
X35610800Y9580880D01*
X35585400Y9606280D01*
X35572700Y9616440D01*
X35539680Y9639300D01*
X36484560Y11043920D01*
X36586160Y11196320D01*
X36685220Y11343640D01*
X36781740Y11485880D01*
X36873180Y11620500D01*
X36959540Y11750040D01*
X37040820Y11871960D01*
X37117020Y11983720D01*
X37185600Y12085320D01*
X37249100Y12179300D01*
X37302440Y12260580D01*
X37348160Y12329160D01*
X37386260Y12385040D01*
X37414200Y12425680D01*
X37431980Y12453620D01*
X37439600Y12463780D01*
X37439600Y12466320D01*
X37444680Y12471400D01*
X37457380Y12473940D01*
X37477700Y12471400D01*
X37508180Y12466320D01*
X37556440Y12458700D01*
X37566600Y12456160D01*
X37706300Y12425680D01*
X37856160Y12385040D01*
X38016180Y12334240D01*
X38178740Y12280900D01*
X38343840Y12217400D01*
X38455600Y12174220D01*
X38501320Y12153900D01*
X38559740Y12128500D01*
X38625780Y12098020D01*
X38694360Y12065000D01*
X38765480Y12029440D01*
X38834060Y11996420D01*
X38897560Y11965940D01*
X38950900Y11938000D01*
X38991540Y11915140D01*
X39011860Y11902440D01*
X39049960Y11879580D01*
X39049960Y11879580D01*
X39049960Y11879580D01*
G37*
X39049960Y11879580D02*
X37409120Y10660380D01*
X37249100Y10541000D01*
X37091620Y10424160D01*
X36939220Y10309860D01*
X36794440Y10203180D01*
X36654740Y10099040D01*
X36522660Y9999980D01*
X36398200Y9908540D01*
X36281360Y9822180D01*
X36177220Y9743440D01*
X36080700Y9672320D01*
X35996880Y9611360D01*
X35923220Y9555480D01*
X35864800Y9512300D01*
X35816540Y9476740D01*
X35783520Y9453880D01*
X35765740Y9441180D01*
X35763200Y9438640D01*
X35753040Y9443720D01*
X35732720Y9461500D01*
X35704780Y9489440D01*
X35679380Y9514840D01*
X35646360Y9547860D01*
X35610800Y9580880D01*
X35585400Y9606280D01*
X35572700Y9616440D01*
X35539680Y9639300D01*
X36484560Y11043920D01*
X36586160Y11196320D01*
X36685220Y11343640D01*
X36781740Y11485880D01*
X36873180Y11620500D01*
X36959540Y11750040D01*
X37040820Y11871960D01*
X37117020Y11983720D01*
X37185600Y12085320D01*
X37249100Y12179300D01*
X37302440Y12260580D01*
X37348160Y12329160D01*
X37386260Y12385040D01*
X37414200Y12425680D01*
X37431980Y12453620D01*
X37439600Y12463780D01*
X37439600Y12466320D01*
X37444680Y12471400D01*
X37457380Y12473940D01*
X37477700Y12471400D01*
X37508180Y12466320D01*
X37556440Y12458700D01*
X37566600Y12456160D01*
X37706300Y12425680D01*
X37856160Y12385040D01*
X38016180Y12334240D01*
X38178740Y12280900D01*
X38343840Y12217400D01*
X38455600Y12174220D01*
X38501320Y12153900D01*
X38559740Y12128500D01*
X38625780Y12098020D01*
X38694360Y12065000D01*
X38765480Y12029440D01*
X38834060Y11996420D01*
X38897560Y11965940D01*
X38950900Y11938000D01*
X38991540Y11915140D01*
X39011860Y11902440D01*
X39049960Y11879580D01*
X39049960Y11879580D01*
G36*
X35090100Y12296140D02*
X35090100Y12270740D01*
X35090100Y12227560D01*
X35087560Y12166600D01*
X35087560Y12090400D01*
X35085020Y12001500D01*
X35082480Y11899900D01*
X35079940Y11788140D01*
X35077400Y11668760D01*
X35074860Y11541760D01*
X35072320Y11412220D01*
X35067240Y11277600D01*
X35064700Y11140440D01*
X35062160Y11003280D01*
X35059620Y10866120D01*
X35054540Y10734040D01*
X35052000Y10607040D01*
X35049460Y10485120D01*
X35046920Y10370820D01*
X35044380Y10266680D01*
X35041840Y10175240D01*
X35039300Y10096500D01*
X35036760Y10030460D01*
X35034220Y9982200D01*
X35034220Y9951720D01*
X35034220Y9949180D01*
X35029140Y9817100D01*
X34952940Y9809480D01*
X34902140Y9804400D01*
X34846260Y9794240D01*
X34805620Y9786620D01*
X34770060Y9776460D01*
X34742120Y9771380D01*
X34729420Y9771380D01*
X34729420Y9771380D01*
X34726880Y9781540D01*
X34719260Y9809480D01*
X34704020Y9852660D01*
X34686240Y9913620D01*
X34660840Y9987280D01*
X34632900Y10073640D01*
X34602420Y10170160D01*
X34566860Y10279380D01*
X34528760Y10398760D01*
X34488120Y10525760D01*
X34444940Y10657840D01*
X34399220Y10797540D01*
X34383980Y10840720D01*
X34338260Y10980420D01*
X34295080Y11117580D01*
X34254440Y11247120D01*
X34213800Y11366500D01*
X34178240Y11480800D01*
X34145220Y11582400D01*
X34117280Y11673840D01*
X34091880Y11750040D01*
X34071560Y11816080D01*
X34056320Y11864340D01*
X34046160Y11897360D01*
X34041080Y11915140D01*
X34041080Y11915140D01*
X34048700Y11922760D01*
X34074100Y11935460D01*
X34112200Y11955780D01*
X34160460Y11981180D01*
X34218880Y12014200D01*
X34287460Y12047220D01*
X34328100Y12067540D01*
X34490660Y12146280D01*
X34640520Y12214860D01*
X34777680Y12273280D01*
X34899600Y12321540D01*
X35006280Y12357100D01*
X35006280Y12357100D01*
X35090100Y12382500D01*
X35090100Y12296140D01*
X35090100Y12296140D01*
X35090100Y12296140D01*
G37*
X35090100Y12296140D02*
X35090100Y12270740D01*
X35090100Y12227560D01*
X35087560Y12166600D01*
X35087560Y12090400D01*
X35085020Y12001500D01*
X35082480Y11899900D01*
X35079940Y11788140D01*
X35077400Y11668760D01*
X35074860Y11541760D01*
X35072320Y11412220D01*
X35067240Y11277600D01*
X35064700Y11140440D01*
X35062160Y11003280D01*
X35059620Y10866120D01*
X35054540Y10734040D01*
X35052000Y10607040D01*
X35049460Y10485120D01*
X35046920Y10370820D01*
X35044380Y10266680D01*
X35041840Y10175240D01*
X35039300Y10096500D01*
X35036760Y10030460D01*
X35034220Y9982200D01*
X35034220Y9951720D01*
X35034220Y9949180D01*
X35029140Y9817100D01*
X34952940Y9809480D01*
X34902140Y9804400D01*
X34846260Y9794240D01*
X34805620Y9786620D01*
X34770060Y9776460D01*
X34742120Y9771380D01*
X34729420Y9771380D01*
X34729420Y9771380D01*
X34726880Y9781540D01*
X34719260Y9809480D01*
X34704020Y9852660D01*
X34686240Y9913620D01*
X34660840Y9987280D01*
X34632900Y10073640D01*
X34602420Y10170160D01*
X34566860Y10279380D01*
X34528760Y10398760D01*
X34488120Y10525760D01*
X34444940Y10657840D01*
X34399220Y10797540D01*
X34383980Y10840720D01*
X34338260Y10980420D01*
X34295080Y11117580D01*
X34254440Y11247120D01*
X34213800Y11366500D01*
X34178240Y11480800D01*
X34145220Y11582400D01*
X34117280Y11673840D01*
X34091880Y11750040D01*
X34071560Y11816080D01*
X34056320Y11864340D01*
X34046160Y11897360D01*
X34041080Y11915140D01*
X34041080Y11915140D01*
X34048700Y11922760D01*
X34074100Y11935460D01*
X34112200Y11955780D01*
X34160460Y11981180D01*
X34218880Y12014200D01*
X34287460Y12047220D01*
X34328100Y12067540D01*
X34490660Y12146280D01*
X34640520Y12214860D01*
X34777680Y12273280D01*
X34899600Y12321540D01*
X35006280Y12357100D01*
X35006280Y12357100D01*
X35090100Y12382500D01*
X35090100Y12296140D01*
X35090100Y12296140D01*
D16*
X7828427Y45000000D02*
G75*
G03X7828427Y45000000I-2828427J0D01*
G01*
X7828427Y5000000D02*
G75*
G03X7828427Y5000000I-2828427J0D01*
G01*
X47828427Y5000000D02*
G75*
G03X47828427Y5000000I-2828427J0D01*
G01*
X47828427Y45000000D02*
G75*
G03X47828427Y45000000I-2828427J0D01*
G01*
X45000000Y50000000D02*
X5000000Y50000000D01*
X50000000Y5000000D02*
X50000000Y45000000D01*
X5000000Y0D02*
X45000000Y0D01*
X0Y45000000D02*
X0Y5000000D01*
X0Y5000000D02*
G75*
G03X5000000Y0I5000000J0D01*
G01*
X45000000Y0D02*
G75*
G03X50000000Y5000000I0J5000000D01*
G01*
X50000000Y45000000D02*
G75*
G03X45000000Y50000000I-5000000J0D01*
G01*
X5000000Y50000000D02*
G75*
G03X0Y45000000I0J-5000000D01*
G01*
X29210000Y48260000D02*
X29210000Y47625000D01*
X29210000Y47625000D02*
X22860000Y47625000D01*
X22860000Y47625000D02*
X22860000Y48260000D01*
X37465000Y41910000D02*
G75*
G03X37465000Y41910000I-1270000J0D01*
G01*
X20955000Y41910000D02*
X20955000Y48260000D01*
X26035000Y45720000D02*
X26035000Y48260000D01*
X31115000Y41910000D02*
X31115000Y48260000D01*
X36195000Y41910000D02*
X15875000Y41910000D01*
X15875000Y41910000D02*
X15875000Y48260000D01*
X15875000Y48260000D02*
X36195000Y48260000D01*
X36195000Y48260000D02*
X36195000Y41910000D01*
D17*
X9906000Y31750000D02*
X10160000Y31750000D01*
X5334000Y31750000D02*
X5080000Y31750000D01*
X9906000Y30734000D02*
X9906000Y32639000D01*
X9906000Y32639000D02*
X5334000Y32639000D01*
X5334000Y32639000D02*
X5334000Y30734000D01*
X5334000Y30734000D02*
X9906000Y30734000D01*
X9906000Y28575000D02*
X10160000Y28575000D01*
X5334000Y28575000D02*
X5080000Y28575000D01*
X9906000Y27559000D02*
X9906000Y29464000D01*
X9906000Y29464000D02*
X5334000Y29464000D01*
X5334000Y29464000D02*
X5334000Y27559000D01*
X5334000Y27559000D02*
X9906000Y27559000D01*
X9906000Y25400000D02*
X10160000Y25400000D01*
X5334000Y25400000D02*
X5080000Y25400000D01*
X9906000Y24384000D02*
X9906000Y26289000D01*
X9906000Y26289000D02*
X5334000Y26289000D01*
X5334000Y26289000D02*
X5334000Y24384000D01*
X5334000Y24384000D02*
X9906000Y24384000D01*
X9906000Y22225000D02*
X10160000Y22225000D01*
X5334000Y22225000D02*
X5080000Y22225000D01*
X9906000Y21209000D02*
X9906000Y23114000D01*
X9906000Y23114000D02*
X5334000Y23114000D01*
X5334000Y23114000D02*
X5334000Y21209000D01*
X5334000Y21209000D02*
X9906000Y21209000D01*
X9906000Y19050000D02*
X10160000Y19050000D01*
X5334000Y19050000D02*
X5080000Y19050000D01*
X9906000Y18034000D02*
X9906000Y19939000D01*
X9906000Y19939000D02*
X5334000Y19939000D01*
X5334000Y19939000D02*
X5334000Y18034000D01*
X5334000Y18034000D02*
X9906000Y18034000D01*
X9906000Y15875000D02*
X10160000Y15875000D01*
X5334000Y15875000D02*
X5080000Y15875000D01*
X9906000Y14859000D02*
X9906000Y16764000D01*
X9906000Y16764000D02*
X5334000Y16764000D01*
X5334000Y16764000D02*
X5334000Y14859000D01*
X5334000Y14859000D02*
X9906000Y14859000D01*
D12*
X19830143Y32330571D02*
X19830143Y33854571D01*
X20193000Y33854571D01*
X20410715Y33782000D01*
X20555857Y33636857D01*
X20628429Y33491714D01*
X20701000Y33201429D01*
X20701000Y32983714D01*
X20628429Y32693429D01*
X20555857Y32548286D01*
X20410715Y32403143D01*
X20193000Y32330571D01*
X19830143Y32330571D01*
X22152429Y32330571D02*
X21281572Y32330571D01*
X21717000Y32330571D02*
X21717000Y33854571D01*
X21571857Y33636857D01*
X21426715Y33491714D01*
X21281572Y33419143D01*
D10*
X28321048Y30408571D02*
X29082953Y30408571D01*
X28702001Y30027619D02*
X28702001Y30789524D01*
D12*
X14750143Y22170571D02*
X14750143Y23694571D01*
X15113000Y23694571D01*
X15330715Y23622000D01*
X15475857Y23476857D01*
X15548429Y23331714D01*
X15621000Y23041429D01*
X15621000Y22823714D01*
X15548429Y22533429D01*
X15475857Y22388286D01*
X15330715Y22243143D01*
X15113000Y22170571D01*
X14750143Y22170571D01*
X16201572Y23549429D02*
X16274143Y23622000D01*
X16419286Y23694571D01*
X16782143Y23694571D01*
X16927286Y23622000D01*
X16999857Y23549429D01*
X17072429Y23404286D01*
X17072429Y23259143D01*
X16999857Y23041429D01*
X16129000Y22170571D01*
X17072429Y22170571D01*
D10*
X21336048Y25963571D02*
X22097953Y25963571D01*
X21717001Y25582619D02*
X21717001Y26344524D01*
D12*
X23005143Y13534571D02*
X23005143Y15058571D01*
X23368000Y15058571D01*
X23585715Y14986000D01*
X23730857Y14840857D01*
X23803429Y14695714D01*
X23876000Y14405429D01*
X23876000Y14187714D01*
X23803429Y13897429D01*
X23730857Y13752286D01*
X23585715Y13607143D01*
X23368000Y13534571D01*
X23005143Y13534571D01*
X24384000Y15058571D02*
X25327429Y15058571D01*
X24819429Y14478000D01*
X25037143Y14478000D01*
X25182286Y14405429D01*
X25254857Y14332857D01*
X25327429Y14187714D01*
X25327429Y13824857D01*
X25254857Y13679714D01*
X25182286Y13607143D01*
X25037143Y13534571D01*
X24601715Y13534571D01*
X24456572Y13607143D01*
X24384000Y13679714D01*
D10*
X23876048Y16438571D02*
X24637953Y16438571D01*
X24257001Y16057619D02*
X24257001Y16819524D01*
D12*
X33800143Y18995571D02*
X33800143Y20519571D01*
X34163000Y20519571D01*
X34380715Y20447000D01*
X34525857Y20301857D01*
X34598429Y20156714D01*
X34671000Y19866429D01*
X34671000Y19648714D01*
X34598429Y19358429D01*
X34525857Y19213286D01*
X34380715Y19068143D01*
X34163000Y18995571D01*
X33800143Y18995571D01*
X35977286Y20011571D02*
X35977286Y18995571D01*
X35614429Y20592143D02*
X35251572Y19503571D01*
X36195000Y19503571D01*
D10*
X33401048Y16438571D02*
X34162953Y16438571D01*
X33782001Y16057619D02*
X33782001Y16819524D01*
D12*
X31260143Y31060571D02*
X31260143Y32584571D01*
X31623000Y32584571D01*
X31840715Y32512000D01*
X31985857Y32366857D01*
X32058429Y32221714D01*
X32131000Y31931429D01*
X32131000Y31713714D01*
X32058429Y31423429D01*
X31985857Y31278286D01*
X31840715Y31133143D01*
X31623000Y31060571D01*
X31260143Y31060571D01*
X33509857Y32584571D02*
X32784143Y32584571D01*
X32711572Y31858857D01*
X32784143Y31931429D01*
X32929286Y32004000D01*
X33292143Y32004000D01*
X33437286Y31931429D01*
X33509857Y31858857D01*
X33582429Y31713714D01*
X33582429Y31350857D01*
X33509857Y31205714D01*
X33437286Y31133143D01*
X33292143Y31060571D01*
X32929286Y31060571D01*
X32784143Y31133143D01*
X32711572Y31205714D01*
D10*
X35941048Y25963571D02*
X36702953Y25963571D01*
X36322001Y25582619D02*
X36322001Y26344524D01*
D12*
X19830143Y22805571D02*
X19830143Y24329571D01*
X20193000Y24329571D01*
X20410715Y24257000D01*
X20555857Y24111857D01*
X20628429Y23966714D01*
X20701000Y23676429D01*
X20701000Y23458714D01*
X20628429Y23168429D01*
X20555857Y23023286D01*
X20410715Y22878143D01*
X20193000Y22805571D01*
X19830143Y22805571D01*
X22007286Y24329571D02*
X21717000Y24329571D01*
X21571857Y24257000D01*
X21499286Y24184429D01*
X21354143Y23966714D01*
X21281572Y23676429D01*
X21281572Y23095857D01*
X21354143Y22950714D01*
X21426715Y22878143D01*
X21571857Y22805571D01*
X21862143Y22805571D01*
X22007286Y22878143D01*
X22079857Y22950714D01*
X22152429Y23095857D01*
X22152429Y23458714D01*
X22079857Y23603857D01*
X22007286Y23676429D01*
X21862143Y23749000D01*
X21571857Y23749000D01*
X21426715Y23676429D01*
X21354143Y23603857D01*
X21281572Y23458714D01*
D10*
X28321048Y22788571D02*
X29082953Y22788571D01*
X28702001Y22407619D02*
X28702001Y23169524D01*
D17*
X38007857Y43859524D02*
X36807857Y43859524D01*
X36807857Y44164286D01*
X36865000Y44240477D01*
X36922143Y44278572D01*
X37036429Y44316667D01*
X37207857Y44316667D01*
X37322143Y44278572D01*
X37379286Y44240477D01*
X37436429Y44164286D01*
X37436429Y43859524D01*
X38007857Y45078572D02*
X38007857Y44621429D01*
X38007857Y44850000D02*
X36807857Y44850000D01*
X36979286Y44773810D01*
X37093571Y44697619D01*
X37150714Y44621429D01*
D14*
X21710953Y39696571D02*
X21227144Y39696571D01*
X21227144Y41220571D01*
X22049620Y40494857D02*
X22388286Y40494857D01*
X22533429Y39696571D02*
X22049620Y39696571D01*
X22049620Y41220571D01*
X22533429Y41220571D01*
X22968858Y39696571D02*
X22968858Y41220571D01*
X23210763Y41220571D01*
X23355905Y41148000D01*
X23452667Y41002857D01*
X23501048Y40857714D01*
X23549429Y40567429D01*
X23549429Y40349714D01*
X23501048Y40059429D01*
X23452667Y39914286D01*
X23355905Y39769143D01*
X23210763Y39696571D01*
X22968858Y39696571D01*
X23742953Y39551429D02*
X24517048Y39551429D01*
X25339524Y39841714D02*
X25291143Y39769143D01*
X25146000Y39696571D01*
X25049238Y39696571D01*
X24904096Y39769143D01*
X24807334Y39914286D01*
X24758953Y40059429D01*
X24710572Y40349714D01*
X24710572Y40567429D01*
X24758953Y40857714D01*
X24807334Y41002857D01*
X24904096Y41148000D01*
X25049238Y41220571D01*
X25146000Y41220571D01*
X25291143Y41148000D01*
X25339524Y41075429D01*
X25968477Y41220571D02*
X26162000Y41220571D01*
X26258762Y41148000D01*
X26355524Y41002857D01*
X26403905Y40712571D01*
X26403905Y40204571D01*
X26355524Y39914286D01*
X26258762Y39769143D01*
X26162000Y39696571D01*
X25968477Y39696571D01*
X25871715Y39769143D01*
X25774953Y39914286D01*
X25726572Y40204571D01*
X25726572Y40712571D01*
X25774953Y41002857D01*
X25871715Y41148000D01*
X25968477Y41220571D01*
X26839334Y39696571D02*
X26839334Y41220571D01*
X27419905Y39696571D01*
X27419905Y41220571D01*
X27758572Y41220571D02*
X28339143Y41220571D01*
X28048858Y39696571D02*
X28048858Y41220571D01*
X29258381Y39696571D02*
X28919715Y40422286D01*
X28677810Y39696571D02*
X28677810Y41220571D01*
X29064857Y41220571D01*
X29161619Y41148000D01*
X29210000Y41075429D01*
X29258381Y40930286D01*
X29258381Y40712571D01*
X29210000Y40567429D01*
X29161619Y40494857D01*
X29064857Y40422286D01*
X28677810Y40422286D01*
X29887334Y41220571D02*
X30080857Y41220571D01*
X30177619Y41148000D01*
X30274381Y41002857D01*
X30322762Y40712571D01*
X30322762Y40204571D01*
X30274381Y39914286D01*
X30177619Y39769143D01*
X30080857Y39696571D01*
X29887334Y39696571D01*
X29790572Y39769143D01*
X29693810Y39914286D01*
X29645429Y40204571D01*
X29645429Y40712571D01*
X29693810Y41002857D01*
X29790572Y41148000D01*
X29887334Y41220571D01*
X31242000Y39696571D02*
X30758191Y39696571D01*
X30758191Y41220571D01*
D13*
X7408333Y31118024D02*
X6985000Y31783262D01*
X6682619Y31118024D02*
X6682619Y32515024D01*
X7166428Y32515024D01*
X7287381Y32448500D01*
X7347857Y32381976D01*
X7408333Y32248929D01*
X7408333Y32049357D01*
X7347857Y31916310D01*
X7287381Y31849786D01*
X7166428Y31783262D01*
X6682619Y31783262D01*
X8617857Y31118024D02*
X7892143Y31118024D01*
X8255000Y31118024D02*
X8255000Y32515024D01*
X8134048Y32315452D01*
X8013095Y32182405D01*
X7892143Y32115881D01*
X7408333Y27943024D02*
X6985000Y28608262D01*
X6682619Y27943024D02*
X6682619Y29340024D01*
X7166428Y29340024D01*
X7287381Y29273500D01*
X7347857Y29206976D01*
X7408333Y29073929D01*
X7408333Y28874357D01*
X7347857Y28741310D01*
X7287381Y28674786D01*
X7166428Y28608262D01*
X6682619Y28608262D01*
X7892143Y29206976D02*
X7952619Y29273500D01*
X8073571Y29340024D01*
X8375952Y29340024D01*
X8496905Y29273500D01*
X8557381Y29206976D01*
X8617857Y29073929D01*
X8617857Y28940881D01*
X8557381Y28741310D01*
X7831667Y27943024D01*
X8617857Y27943024D01*
X7408333Y24768024D02*
X6985000Y25433262D01*
X6682619Y24768024D02*
X6682619Y26165024D01*
X7166428Y26165024D01*
X7287381Y26098500D01*
X7347857Y26031976D01*
X7408333Y25898929D01*
X7408333Y25699357D01*
X7347857Y25566310D01*
X7287381Y25499786D01*
X7166428Y25433262D01*
X6682619Y25433262D01*
X7831667Y26165024D02*
X8617857Y26165024D01*
X8194524Y25632833D01*
X8375952Y25632833D01*
X8496905Y25566310D01*
X8557381Y25499786D01*
X8617857Y25366738D01*
X8617857Y25034119D01*
X8557381Y24901071D01*
X8496905Y24834548D01*
X8375952Y24768024D01*
X8013095Y24768024D01*
X7892143Y24834548D01*
X7831667Y24901071D01*
X7408333Y21593024D02*
X6985000Y22258262D01*
X6682619Y21593024D02*
X6682619Y22990024D01*
X7166428Y22990024D01*
X7287381Y22923500D01*
X7347857Y22856976D01*
X7408333Y22723929D01*
X7408333Y22524357D01*
X7347857Y22391310D01*
X7287381Y22324786D01*
X7166428Y22258262D01*
X6682619Y22258262D01*
X8496905Y22524357D02*
X8496905Y21593024D01*
X8194524Y23056548D02*
X7892143Y22058690D01*
X8678333Y22058690D01*
X7408333Y18418024D02*
X6985000Y19083262D01*
X6682619Y18418024D02*
X6682619Y19815024D01*
X7166428Y19815024D01*
X7287381Y19748500D01*
X7347857Y19681976D01*
X7408333Y19548929D01*
X7408333Y19349357D01*
X7347857Y19216310D01*
X7287381Y19149786D01*
X7166428Y19083262D01*
X6682619Y19083262D01*
X8557381Y19815024D02*
X7952619Y19815024D01*
X7892143Y19149786D01*
X7952619Y19216310D01*
X8073571Y19282833D01*
X8375952Y19282833D01*
X8496905Y19216310D01*
X8557381Y19149786D01*
X8617857Y19016738D01*
X8617857Y18684119D01*
X8557381Y18551071D01*
X8496905Y18484548D01*
X8375952Y18418024D01*
X8073571Y18418024D01*
X7952619Y18484548D01*
X7892143Y18551071D01*
X7408333Y15243024D02*
X6985000Y15908262D01*
X6682619Y15243024D02*
X6682619Y16640024D01*
X7166428Y16640024D01*
X7287381Y16573500D01*
X7347857Y16506976D01*
X7408333Y16373929D01*
X7408333Y16174357D01*
X7347857Y16041310D01*
X7287381Y15974786D01*
X7166428Y15908262D01*
X6682619Y15908262D01*
X8496905Y16640024D02*
X8255000Y16640024D01*
X8134048Y16573500D01*
X8073571Y16506976D01*
X7952619Y16307405D01*
X7892143Y16041310D01*
X7892143Y15509119D01*
X7952619Y15376071D01*
X8013095Y15309548D01*
X8134048Y15243024D01*
X8375952Y15243024D01*
X8496905Y15309548D01*
X8557381Y15376071D01*
X8617857Y15509119D01*
X8617857Y15841738D01*
X8557381Y15974786D01*
X8496905Y16041310D01*
X8375952Y16107833D01*
X8134048Y16107833D01*
X8013095Y16041310D01*
X7952619Y15974786D01*
X7892143Y15841738D01*
M02*
