M48
;DRILL file {KiCad 4.0.4-stable} date 01/06/17 10:27:05
;FORMAT={-:-/ absolute / inch / decimal}
FMAT,2
INCH,TZ
T1C0.031
T2C0.032
T3C0.032
T4C0.039
T5C0.118
%
G90
G05
M72
T1
X0.9069Y1.7169
X0.9856Y1.7169
X1.0644Y1.7169
X1.1431Y1.7169
T2
X0.15Y1.25
X0.15Y1.125
X0.15Y1.
X0.15Y0.875
X0.15Y0.75
X0.15Y0.625
X0.45Y1.25
X0.45Y1.125
X0.45Y1.
X0.45Y0.875
X0.45Y0.75
X0.45Y0.625
T3
X0.675Y1.075
X0.775Y1.075
X0.775Y0.7
X0.875Y0.7
X0.95Y1.25
X0.95Y0.95
X1.05Y1.25
X1.05Y0.95
X1.15Y0.7
X1.25Y1.075
X1.25Y0.7
X1.35Y1.075
T4
X0.725Y1.8
X0.925Y1.8
X1.125Y1.8
X1.325Y1.8
T5
X0.1969Y1.7717
X0.1969Y0.1969
X1.7717Y1.7717
X1.7717Y0.1969
T0
M30
