G04 #@! TF.FileFunction,Copper,L1,Top,Signal*
%FSLAX46Y46*%
G04 Gerber Fmt 4.6, Leading zero omitted, Abs format (unit mm)*
G04 Created by KiCad (PCBNEW 4.0.4-stable) date 01/06/17 10:27:03*
%MOMM*%
%LPD*%
G01*
G04 APERTURE LIST*
%ADD10C,0.150000*%
%ADD11C,2.032000*%
%ADD12R,2.032000X2.032000*%
%ADD13R,1.500000X1.500000*%
%ADD14C,1.500000*%
%ADD15C,1.270000*%
%ADD16C,0.762000*%
G04 APERTURE END LIST*
D10*
D11*
X26670000Y31750000D03*
D12*
X24130000Y31750000D03*
D11*
X19685000Y27305000D03*
D12*
X17145000Y27305000D03*
D11*
X22225000Y17780000D03*
D12*
X19685000Y17780000D03*
D11*
X31750000Y17780000D03*
D12*
X29210000Y17780000D03*
D11*
X34290000Y27305000D03*
D12*
X31750000Y27305000D03*
D11*
X26670000Y24130000D03*
D12*
X24130000Y24130000D03*
X33655000Y45720000D03*
D11*
X28575000Y45720000D03*
X23495000Y45720000D03*
X18415000Y45720000D03*
D13*
X29035000Y43609000D03*
D14*
X27035000Y43609000D03*
X25035000Y43609000D03*
X23035000Y43609000D03*
D11*
X11430000Y31750000D03*
X3810000Y31750000D03*
X11430000Y28575000D03*
X3810000Y28575000D03*
X11430000Y25400000D03*
X3810000Y25400000D03*
X11430000Y22225000D03*
X3810000Y22225000D03*
X11430000Y19050000D03*
X3810000Y19050000D03*
X11430000Y15875000D03*
X3810000Y15875000D03*
D15*
X25035000Y43609000D02*
X25035000Y41672000D01*
X5588000Y25400000D02*
X3810000Y25400000D01*
X7239000Y27051000D02*
X5588000Y25400000D01*
X7239000Y34163000D02*
X7239000Y27051000D01*
X10541000Y37465000D02*
X7239000Y34163000D01*
X20828000Y37465000D02*
X10541000Y37465000D01*
X25035000Y41672000D02*
X20828000Y37465000D01*
X11430000Y19050000D02*
X15240000Y19050000D01*
X15240000Y19050000D02*
X23495000Y27305000D01*
X23495000Y27305000D02*
X31750000Y27305000D01*
D16*
X23495000Y27305000D02*
X31750000Y27305000D01*
X15240000Y19050000D02*
X23495000Y27305000D01*
D15*
X24130000Y24130000D02*
X24130000Y20701000D01*
X23749000Y14605000D02*
X21082000Y14605000D01*
X25400000Y16256000D02*
X23749000Y14605000D01*
X25400000Y19431000D02*
X25400000Y16256000D01*
X24130000Y20701000D02*
X25400000Y19431000D01*
X11430000Y15875000D02*
X13462000Y15875000D01*
X14732000Y14605000D02*
X21082000Y14605000D01*
X13462000Y15875000D02*
X14732000Y14605000D01*
M02*
