G04 #@! TF.FileFunction,Soldermask,Bot*
%FSLAX46Y46*%
G04 Gerber Fmt 4.6, Leading zero omitted, Abs format (unit mm)*
G04 Created by KiCad (PCBNEW 4.0.4-stable) date 01/06/17 10:24:34*
%MOMM*%
%LPD*%
G01*
G04 APERTURE LIST*
%ADD10C,0.150000*%
%ADD11C,2.408000*%
%ADD12R,2.794000X2.082800*%
%ADD13O,2.794000X2.082800*%
%ADD14C,3.508000*%
%ADD15O,2.235200X2.540000*%
%ADD16R,2.235200X2.540000*%
%ADD17C,2.540000*%
%ADD18R,2.540000X2.540000*%
%ADD19C,3.048000*%
%ADD20R,3.007360X3.007360*%
%ADD21C,3.007360*%
%ADD22R,2.540000X2.235200*%
%ADD23O,2.540000X2.235200*%
%ADD24R,2.008000X2.008000*%
%ADD25C,2.008000*%
%ADD26C,2.908300*%
%ADD27R,2.308860X2.308860*%
%ADD28C,2.308860*%
%ADD29R,2.108000X3.308000*%
%ADD30O,2.108000X3.308000*%
%ADD31R,2.413000X2.413000*%
%ADD32C,2.413000*%
G04 APERTURE END LIST*
D10*
D11*
X40640000Y76835000D03*
X40640000Y79375000D03*
X40640000Y81915000D03*
X40640000Y84455000D03*
X40640000Y86995000D03*
X40640000Y89535000D03*
X40640000Y92075000D03*
X40640000Y94615000D03*
X22225000Y94615000D03*
X22225000Y92075000D03*
X22225000Y89535000D03*
X22225000Y86995000D03*
X22225000Y84455000D03*
X22225000Y81915000D03*
X22225000Y79375000D03*
X22225000Y76835000D03*
D12*
X35560000Y22860000D03*
D13*
X35560000Y25400000D03*
X35560000Y27940000D03*
X35560000Y30480000D03*
X35560000Y33020000D03*
X35560000Y35560000D03*
X35560000Y38100000D03*
X35560000Y40640000D03*
X35560000Y43180000D03*
X35560000Y45720000D03*
X35560000Y48260000D03*
X35560000Y50800000D03*
X35560000Y53340000D03*
X35560000Y55880000D03*
X35560000Y58420000D03*
X20320000Y58420000D03*
X20320000Y55880000D03*
X20320000Y53340000D03*
X20320000Y50800000D03*
X20320000Y48260000D03*
X20320000Y45720000D03*
X20320000Y43180000D03*
X20320000Y40640000D03*
X20320000Y38100000D03*
X20320000Y35560000D03*
X20320000Y33020000D03*
X20320000Y30480000D03*
X20320000Y27940000D03*
X20320000Y25400000D03*
X20320000Y22860000D03*
D14*
X70000000Y95000000D03*
X5000000Y95000000D03*
X5000000Y5000000D03*
X70000000Y5000000D03*
D15*
X58420000Y94615000D03*
D16*
X47625000Y94615000D03*
D15*
X60880000Y94455000D03*
X55880000Y94615000D03*
X45085000Y94615000D03*
X60325000Y75565000D03*
X57785000Y75565000D03*
X47625000Y75565000D03*
X45085000Y75565000D03*
D17*
X43942000Y33655000D03*
D18*
X43942000Y31115000D03*
D19*
X13081000Y85090000D03*
X13081000Y94488000D03*
X18161000Y79375000D03*
X18161000Y69977000D03*
X25019000Y45339000D03*
X25019000Y54737000D03*
D20*
X6985000Y72390000D03*
D21*
X6985000Y77470000D03*
D20*
X68580000Y84455000D03*
D21*
X68580000Y79375000D03*
D22*
X40894000Y21590000D03*
D23*
X40894000Y24130000D03*
X40894000Y26670000D03*
D18*
X70485000Y13335000D03*
D17*
X70485000Y18415000D03*
X70485000Y23495000D03*
X70485000Y28575000D03*
D24*
X68374000Y17955000D03*
D25*
X68374000Y19955000D03*
X68374000Y21955000D03*
X68374000Y23955000D03*
D20*
X68580000Y64135000D03*
D21*
X68580000Y59055000D03*
D20*
X68580000Y74295000D03*
D21*
X68580000Y69215000D03*
D20*
X6985000Y82550000D03*
D21*
X6985000Y87630000D03*
D17*
X43942000Y26924000D03*
X43942000Y19304000D03*
X12700000Y78740000D03*
X12700000Y71120000D03*
X13970000Y33020000D03*
X13970000Y25400000D03*
X15240000Y78740000D03*
X15240000Y71120000D03*
X13970000Y46355000D03*
X13970000Y38735000D03*
X25019000Y34798000D03*
X25019000Y42418000D03*
X28067000Y45466000D03*
X28067000Y53086000D03*
X30480000Y86995000D03*
X30480000Y79375000D03*
X34290000Y86995000D03*
X34290000Y79375000D03*
X36830000Y86995000D03*
X36830000Y79375000D03*
X27940000Y86995000D03*
X27940000Y79375000D03*
X53022500Y37147500D03*
X60642500Y37147500D03*
X60642500Y34607500D03*
X53022500Y34607500D03*
X53022500Y25082500D03*
X60642500Y25082500D03*
X60642500Y22542500D03*
X53022500Y22542500D03*
X53657500Y13017500D03*
X61277500Y13017500D03*
X61277500Y10477500D03*
X53657500Y10477500D03*
D26*
X6350000Y66675000D03*
X12700000Y66675000D03*
X6350000Y59690000D03*
X12700000Y59690000D03*
X6350000Y52705000D03*
X12700000Y52705000D03*
D27*
X3175000Y65405000D03*
D28*
X3175000Y67945000D03*
D27*
X3175000Y58420000D03*
D28*
X3175000Y60960000D03*
D27*
X3175000Y51435000D03*
D28*
X3175000Y53975000D03*
D18*
X5715000Y19685000D03*
D17*
X5715000Y17145000D03*
X5715000Y14605000D03*
X5715000Y12065000D03*
D24*
X7826000Y18875000D03*
D25*
X7826000Y16875000D03*
X7826000Y14875000D03*
X7826000Y12875000D03*
D18*
X5715000Y46355000D03*
D17*
X5715000Y43815000D03*
X5715000Y41275000D03*
X5715000Y38735000D03*
D24*
X7826000Y45545000D03*
D25*
X7826000Y43545000D03*
X7826000Y41545000D03*
X7826000Y39545000D03*
D18*
X5715000Y33020000D03*
D17*
X5715000Y30480000D03*
X5715000Y27940000D03*
X5715000Y25400000D03*
D24*
X7826000Y32210000D03*
D25*
X7826000Y30210000D03*
X7826000Y28210000D03*
X7826000Y26210000D03*
D29*
X53800000Y60960000D03*
D30*
X47800000Y60960000D03*
D22*
X69215000Y38100000D03*
D23*
X69215000Y40640000D03*
X69215000Y43180000D03*
X69215000Y45720000D03*
X69215000Y48260000D03*
X69215000Y50800000D03*
D31*
X61277500Y4762500D03*
D32*
X58737500Y7302500D03*
X58737500Y4762500D03*
D31*
X61277500Y17462500D03*
D32*
X58737500Y20002500D03*
X58737500Y17462500D03*
D31*
X61658500Y29146500D03*
D32*
X59118500Y31686500D03*
X59118500Y29146500D03*
D31*
X28702000Y90424000D03*
D32*
X31242000Y92964000D03*
X28702000Y92964000D03*
M02*
