G04 #@! TF.FileFunction,Legend,Top*
%FSLAX46Y46*%
G04 Gerber Fmt 4.6, Leading zero omitted, Abs format (unit mm)*
G04 Created by KiCad (PCBNEW 4.0.4-stable) date 01/06/17 10:24:34*
%MOMM*%
%LPD*%
G01*
G04 APERTURE LIST*
%ADD10C,0.150000*%
%ADD11C,0.304800*%
%ADD12C,0.500000*%
%ADD13C,0.200000*%
%ADD14C,0.381000*%
%ADD15C,0.300000*%
%ADD16C,0.203200*%
%ADD17C,0.254000*%
%ADD18C,0.002540*%
%ADD19C,0.285750*%
%ADD20C,0.250000*%
%ADD21C,0.269240*%
G04 APERTURE END LIST*
D10*
D11*
X27486428Y2370667D02*
X27413856Y2467429D01*
X27268713Y2757714D01*
X27196142Y2951238D01*
X27123571Y3241524D01*
X27050999Y3725333D01*
X27050999Y4112381D01*
X27123571Y4596190D01*
X27196142Y4886476D01*
X27268713Y5080000D01*
X27413856Y5370286D01*
X27486428Y5467048D01*
X28937856Y3338286D02*
X28865285Y3241524D01*
X28647571Y3144762D01*
X28502428Y3144762D01*
X28284713Y3241524D01*
X28139571Y3435048D01*
X28066999Y3628571D01*
X27994428Y4015619D01*
X27994428Y4305905D01*
X28066999Y4692952D01*
X28139571Y4886476D01*
X28284713Y5080000D01*
X28502428Y5176762D01*
X28647571Y5176762D01*
X28865285Y5080000D01*
X28937856Y4983238D01*
X29445856Y2370667D02*
X29518428Y2467429D01*
X29663571Y2757714D01*
X29736142Y2951238D01*
X29808713Y3241524D01*
X29881285Y3725333D01*
X29881285Y4112381D01*
X29808713Y4596190D01*
X29736142Y4886476D01*
X29663571Y5080000D01*
X29518428Y5370286D01*
X29445856Y5467048D01*
X31695571Y4983238D02*
X31768142Y5080000D01*
X31913285Y5176762D01*
X32276142Y5176762D01*
X32421285Y5080000D01*
X32493856Y4983238D01*
X32566428Y4789714D01*
X32566428Y4596190D01*
X32493856Y4305905D01*
X31622999Y3144762D01*
X32566428Y3144762D01*
X33509857Y5176762D02*
X33655000Y5176762D01*
X33800143Y5080000D01*
X33872714Y4983238D01*
X33945285Y4789714D01*
X34017857Y4402667D01*
X34017857Y3918857D01*
X33945285Y3531810D01*
X33872714Y3338286D01*
X33800143Y3241524D01*
X33655000Y3144762D01*
X33509857Y3144762D01*
X33364714Y3241524D01*
X33292143Y3338286D01*
X33219571Y3531810D01*
X33147000Y3918857D01*
X33147000Y4402667D01*
X33219571Y4789714D01*
X33292143Y4983238D01*
X33364714Y5080000D01*
X33509857Y5176762D01*
X35759572Y5273524D02*
X34453286Y2660952D01*
X37065857Y3144762D02*
X36195000Y3144762D01*
X36630428Y3144762D02*
X36630428Y5176762D01*
X36485285Y4886476D01*
X36340143Y4692952D01*
X36195000Y4596190D01*
X37646429Y4983238D02*
X37719000Y5080000D01*
X37864143Y5176762D01*
X38227000Y5176762D01*
X38372143Y5080000D01*
X38444714Y4983238D01*
X38517286Y4789714D01*
X38517286Y4596190D01*
X38444714Y4305905D01*
X37573857Y3144762D01*
X38517286Y3144762D01*
X40259001Y5273524D02*
X38952715Y2660952D01*
X40694429Y4983238D02*
X40767000Y5080000D01*
X40912143Y5176762D01*
X41275000Y5176762D01*
X41420143Y5080000D01*
X41492714Y4983238D01*
X41565286Y4789714D01*
X41565286Y4596190D01*
X41492714Y4305905D01*
X40621857Y3144762D01*
X41565286Y3144762D01*
X42508715Y5176762D02*
X42653858Y5176762D01*
X42799001Y5080000D01*
X42871572Y4983238D01*
X42944143Y4789714D01*
X43016715Y4402667D01*
X43016715Y3918857D01*
X42944143Y3531810D01*
X42871572Y3338286D01*
X42799001Y3241524D01*
X42653858Y3144762D01*
X42508715Y3144762D01*
X42363572Y3241524D01*
X42291001Y3338286D01*
X42218429Y3531810D01*
X42145858Y3918857D01*
X42145858Y4402667D01*
X42218429Y4789714D01*
X42291001Y4983238D01*
X42363572Y5080000D01*
X42508715Y5176762D01*
X44468144Y3144762D02*
X43597287Y3144762D01*
X44032715Y3144762D02*
X44032715Y5176762D01*
X43887572Y4886476D01*
X43742430Y4692952D01*
X43597287Y4596190D01*
X45774430Y5176762D02*
X45484144Y5176762D01*
X45339001Y5080000D01*
X45266430Y4983238D01*
X45121287Y4692952D01*
X45048716Y4305905D01*
X45048716Y3531810D01*
X45121287Y3338286D01*
X45193859Y3241524D01*
X45339001Y3144762D01*
X45629287Y3144762D01*
X45774430Y3241524D01*
X45847001Y3338286D01*
X45919573Y3531810D01*
X45919573Y4015619D01*
X45847001Y4209143D01*
X45774430Y4305905D01*
X45629287Y4402667D01*
X45339001Y4402667D01*
X45193859Y4305905D01*
X45121287Y4209143D01*
X45048716Y4015619D01*
D12*
X27909332Y9056857D02*
X27909332Y10628286D01*
X27814094Y10914000D01*
X27623618Y11056857D01*
X27242666Y11056857D01*
X27052189Y10914000D01*
X27909332Y9199714D02*
X27718856Y9056857D01*
X27242666Y9056857D01*
X27052189Y9199714D01*
X26956951Y9485429D01*
X26956951Y9771143D01*
X27052189Y10056857D01*
X27242666Y10199714D01*
X27718856Y10199714D01*
X27909332Y10342571D01*
X28861713Y9056857D02*
X28861713Y11056857D01*
X28861713Y10485429D02*
X28956952Y10771143D01*
X29052190Y10914000D01*
X29242666Y11056857D01*
X29433142Y11056857D01*
X29814094Y11056857D02*
X30575999Y11056857D01*
X30099808Y12056857D02*
X30099808Y9485429D01*
X30195047Y9199714D01*
X30385523Y9056857D01*
X30575999Y9056857D01*
X32099808Y9056857D02*
X32099808Y12056857D01*
X32099808Y9199714D02*
X31909332Y9056857D01*
X31528380Y9056857D01*
X31337904Y9199714D01*
X31242665Y9342571D01*
X31147427Y9628286D01*
X31147427Y10485429D01*
X31242665Y10771143D01*
X31337904Y10914000D01*
X31528380Y11056857D01*
X31909332Y11056857D01*
X32099808Y10914000D01*
X33337904Y9056857D02*
X33147428Y9199714D01*
X33052189Y9342571D01*
X32956951Y9628286D01*
X32956951Y10485429D01*
X33052189Y10771143D01*
X33147428Y10914000D01*
X33337904Y11056857D01*
X33623618Y11056857D01*
X33814094Y10914000D01*
X33909332Y10771143D01*
X34004570Y10485429D01*
X34004570Y9628286D01*
X33909332Y9342571D01*
X33814094Y9199714D01*
X33623618Y9056857D01*
X33337904Y9056857D01*
X35718856Y9199714D02*
X35528380Y9056857D01*
X35147428Y9056857D01*
X34956952Y9199714D01*
X34861713Y9342571D01*
X34766475Y9628286D01*
X34766475Y10485429D01*
X34861713Y10771143D01*
X34956952Y10914000D01*
X35147428Y11056857D01*
X35528380Y11056857D01*
X35718856Y10914000D01*
X36480761Y9199714D02*
X36671238Y9056857D01*
X37052190Y9056857D01*
X37242666Y9199714D01*
X37337904Y9485429D01*
X37337904Y9628286D01*
X37242666Y9914000D01*
X37052190Y10056857D01*
X36766476Y10056857D01*
X36575999Y10199714D01*
X36480761Y10485429D01*
X36480761Y10628286D01*
X36575999Y10914000D01*
X36766476Y11056857D01*
X37052190Y11056857D01*
X37242666Y10914000D01*
X38195047Y9342571D02*
X38290286Y9199714D01*
X38195047Y9056857D01*
X38099809Y9199714D01*
X38195047Y9342571D01*
X38195047Y9056857D01*
X40004571Y9199714D02*
X39814095Y9056857D01*
X39433143Y9056857D01*
X39242667Y9199714D01*
X39147428Y9342571D01*
X39052190Y9628286D01*
X39052190Y10485429D01*
X39147428Y10771143D01*
X39242667Y10914000D01*
X39433143Y11056857D01*
X39814095Y11056857D01*
X40004571Y10914000D01*
X41147429Y9056857D02*
X40956953Y9199714D01*
X40861714Y9342571D01*
X40766476Y9628286D01*
X40766476Y10485429D01*
X40861714Y10771143D01*
X40956953Y10914000D01*
X41147429Y11056857D01*
X41433143Y11056857D01*
X41623619Y10914000D01*
X41718857Y10771143D01*
X41814095Y10485429D01*
X41814095Y9628286D01*
X41718857Y9342571D01*
X41623619Y9199714D01*
X41433143Y9056857D01*
X41147429Y9056857D01*
X42671238Y9342571D02*
X42766477Y9199714D01*
X42671238Y9056857D01*
X42576000Y9199714D01*
X42671238Y9342571D01*
X42671238Y9056857D01*
X44480762Y11056857D02*
X44480762Y9056857D01*
X43623619Y11056857D02*
X43623619Y9485429D01*
X43718858Y9199714D01*
X43909334Y9056857D01*
X44195048Y9056857D01*
X44385524Y9199714D01*
X44480762Y9342571D01*
X45433143Y9056857D02*
X45433143Y12056857D01*
X45623620Y10199714D02*
X46195048Y9056857D01*
X46195048Y11056857D02*
X45433143Y9914000D01*
D11*
X25617715Y6319762D02*
X25617715Y7674429D01*
X25617715Y7287381D02*
X25690287Y7480905D01*
X25762858Y7577667D01*
X25908001Y7674429D01*
X26053144Y7674429D01*
X27141716Y6416524D02*
X26996573Y6319762D01*
X26706287Y6319762D01*
X26561144Y6416524D01*
X26488573Y6610048D01*
X26488573Y7384143D01*
X26561144Y7577667D01*
X26706287Y7674429D01*
X26996573Y7674429D01*
X27141716Y7577667D01*
X27214287Y7384143D01*
X27214287Y7190619D01*
X26488573Y6997095D01*
X27867430Y7093857D02*
X29028573Y7093857D01*
X29754287Y6319762D02*
X29754287Y7674429D01*
X29754287Y8351762D02*
X29681716Y8255000D01*
X29754287Y8158238D01*
X29826859Y8255000D01*
X29754287Y8351762D01*
X29754287Y8158238D01*
X30480001Y7674429D02*
X30480001Y6319762D01*
X30480001Y7480905D02*
X30552573Y7577667D01*
X30697715Y7674429D01*
X30915430Y7674429D01*
X31060573Y7577667D01*
X31133144Y7384143D01*
X31133144Y6319762D01*
X31858858Y7674429D02*
X31858858Y6319762D01*
X31858858Y7480905D02*
X31931430Y7577667D01*
X32076572Y7674429D01*
X32294287Y7674429D01*
X32439430Y7577667D01*
X32512001Y7384143D01*
X32512001Y6319762D01*
X33455429Y6319762D02*
X33310287Y6416524D01*
X33237715Y6513286D01*
X33165144Y6706810D01*
X33165144Y7287381D01*
X33237715Y7480905D01*
X33310287Y7577667D01*
X33455429Y7674429D01*
X33673144Y7674429D01*
X33818287Y7577667D01*
X33890858Y7480905D01*
X33963429Y7287381D01*
X33963429Y6706810D01*
X33890858Y6513286D01*
X33818287Y6416524D01*
X33673144Y6319762D01*
X33455429Y6319762D01*
X34471429Y7674429D02*
X34834286Y6319762D01*
X35197144Y7674429D01*
X36430858Y6319762D02*
X36430858Y7384143D01*
X36358287Y7577667D01*
X36213144Y7674429D01*
X35922858Y7674429D01*
X35777715Y7577667D01*
X36430858Y6416524D02*
X36285715Y6319762D01*
X35922858Y6319762D01*
X35777715Y6416524D01*
X35705144Y6610048D01*
X35705144Y6803571D01*
X35777715Y6997095D01*
X35922858Y7093857D01*
X36285715Y7093857D01*
X36430858Y7190619D01*
X36938858Y7674429D02*
X37519429Y7674429D01*
X37156572Y8351762D02*
X37156572Y6610048D01*
X37229144Y6416524D01*
X37374286Y6319762D01*
X37519429Y6319762D01*
X38027429Y6319762D02*
X38027429Y7674429D01*
X38027429Y8351762D02*
X37954858Y8255000D01*
X38027429Y8158238D01*
X38100001Y8255000D01*
X38027429Y8351762D01*
X38027429Y8158238D01*
X38970857Y6319762D02*
X38825715Y6416524D01*
X38753143Y6513286D01*
X38680572Y6706810D01*
X38680572Y7287381D01*
X38753143Y7480905D01*
X38825715Y7577667D01*
X38970857Y7674429D01*
X39188572Y7674429D01*
X39333715Y7577667D01*
X39406286Y7480905D01*
X39478857Y7287381D01*
X39478857Y6706810D01*
X39406286Y6513286D01*
X39333715Y6416524D01*
X39188572Y6319762D01*
X38970857Y6319762D01*
X40132000Y7674429D02*
X40132000Y6319762D01*
X40132000Y7480905D02*
X40204572Y7577667D01*
X40349714Y7674429D01*
X40567429Y7674429D01*
X40712572Y7577667D01*
X40785143Y7384143D01*
X40785143Y6319762D01*
X41510857Y6513286D02*
X41583429Y6416524D01*
X41510857Y6319762D01*
X41438286Y6416524D01*
X41510857Y6513286D01*
X41510857Y6319762D01*
X42889714Y6416524D02*
X42744571Y6319762D01*
X42454285Y6319762D01*
X42309143Y6416524D01*
X42236571Y6513286D01*
X42164000Y6706810D01*
X42164000Y7287381D01*
X42236571Y7480905D01*
X42309143Y7577667D01*
X42454285Y7674429D01*
X42744571Y7674429D01*
X42889714Y7577667D01*
X43760571Y6319762D02*
X43615429Y6416524D01*
X43542857Y6513286D01*
X43470286Y6706810D01*
X43470286Y7287381D01*
X43542857Y7480905D01*
X43615429Y7577667D01*
X43760571Y7674429D01*
X43978286Y7674429D01*
X44123429Y7577667D01*
X44196000Y7480905D01*
X44268571Y7287381D01*
X44268571Y6706810D01*
X44196000Y6513286D01*
X44123429Y6416524D01*
X43978286Y6319762D01*
X43760571Y6319762D01*
X44921714Y6513286D02*
X44994286Y6416524D01*
X44921714Y6319762D01*
X44849143Y6416524D01*
X44921714Y6513286D01*
X44921714Y6319762D01*
X46300571Y7674429D02*
X46300571Y6319762D01*
X45647428Y7674429D02*
X45647428Y6610048D01*
X45720000Y6416524D01*
X45865142Y6319762D01*
X46082857Y6319762D01*
X46228000Y6416524D01*
X46300571Y6513286D01*
X47026285Y6319762D02*
X47026285Y8351762D01*
X47171428Y7093857D02*
X47606857Y6319762D01*
X47606857Y7674429D02*
X47026285Y6900333D01*
X21118286Y13050762D02*
X21118286Y15082762D01*
X21118286Y14115143D02*
X21989143Y14115143D01*
X21989143Y13050762D02*
X21989143Y15082762D01*
X23368000Y13050762D02*
X23368000Y14115143D01*
X23295429Y14308667D01*
X23150286Y14405429D01*
X22860000Y14405429D01*
X22714857Y14308667D01*
X23368000Y13147524D02*
X23222857Y13050762D01*
X22860000Y13050762D01*
X22714857Y13147524D01*
X22642286Y13341048D01*
X22642286Y13534571D01*
X22714857Y13728095D01*
X22860000Y13824857D01*
X23222857Y13824857D01*
X23368000Y13921619D01*
X24093714Y14405429D02*
X24093714Y13050762D01*
X24093714Y14211905D02*
X24166286Y14308667D01*
X24311428Y14405429D01*
X24529143Y14405429D01*
X24674286Y14308667D01*
X24746857Y14115143D01*
X24746857Y13050762D01*
X26125714Y13050762D02*
X26125714Y15082762D01*
X26125714Y13147524D02*
X25980571Y13050762D01*
X25690285Y13050762D01*
X25545143Y13147524D01*
X25472571Y13244286D01*
X25400000Y13437810D01*
X25400000Y14018381D01*
X25472571Y14211905D01*
X25545143Y14308667D01*
X25690285Y14405429D01*
X25980571Y14405429D01*
X26125714Y14308667D01*
X28883428Y13244286D02*
X28810857Y13147524D01*
X28593143Y13050762D01*
X28448000Y13050762D01*
X28230285Y13147524D01*
X28085143Y13341048D01*
X28012571Y13534571D01*
X27940000Y13921619D01*
X27940000Y14211905D01*
X28012571Y14598952D01*
X28085143Y14792476D01*
X28230285Y14986000D01*
X28448000Y15082762D01*
X28593143Y15082762D01*
X28810857Y14986000D01*
X28883428Y14889238D01*
X29536571Y13050762D02*
X29536571Y14405429D01*
X29536571Y14018381D02*
X29609143Y14211905D01*
X29681714Y14308667D01*
X29826857Y14405429D01*
X29972000Y14405429D01*
X31133143Y13050762D02*
X31133143Y14115143D01*
X31060572Y14308667D01*
X30915429Y14405429D01*
X30625143Y14405429D01*
X30480000Y14308667D01*
X31133143Y13147524D02*
X30988000Y13050762D01*
X30625143Y13050762D01*
X30480000Y13147524D01*
X30407429Y13341048D01*
X30407429Y13534571D01*
X30480000Y13728095D01*
X30625143Y13824857D01*
X30988000Y13824857D01*
X31133143Y13921619D01*
X31858857Y14405429D02*
X31858857Y13050762D01*
X31858857Y14211905D02*
X31931429Y14308667D01*
X32076571Y14405429D01*
X32294286Y14405429D01*
X32439429Y14308667D01*
X32512000Y14115143D01*
X32512000Y13050762D01*
X33237714Y13050762D02*
X33237714Y15082762D01*
X33382857Y13824857D02*
X33818286Y13050762D01*
X33818286Y14405429D02*
X33237714Y13631333D01*
X35632571Y13050762D02*
X35632571Y15082762D01*
X36213143Y15082762D01*
X36358285Y14986000D01*
X36430857Y14889238D01*
X36503428Y14695714D01*
X36503428Y14405429D01*
X36430857Y14211905D01*
X36358285Y14115143D01*
X36213143Y14018381D01*
X35632571Y14018381D01*
X37156571Y13050762D02*
X37156571Y14405429D01*
X37156571Y14018381D02*
X37229143Y14211905D01*
X37301714Y14308667D01*
X37446857Y14405429D01*
X37592000Y14405429D01*
X38317714Y13050762D02*
X38172572Y13147524D01*
X38100000Y13244286D01*
X38027429Y13437810D01*
X38027429Y14018381D01*
X38100000Y14211905D01*
X38172572Y14308667D01*
X38317714Y14405429D01*
X38535429Y14405429D01*
X38680572Y14308667D01*
X38753143Y14211905D01*
X38825714Y14018381D01*
X38825714Y13437810D01*
X38753143Y13244286D01*
X38680572Y13147524D01*
X38535429Y13050762D01*
X38317714Y13050762D01*
X39478857Y14405429D02*
X39478857Y12663714D01*
X39406286Y12470190D01*
X39261143Y12373429D01*
X39188571Y12373429D01*
X39478857Y15082762D02*
X39406286Y14986000D01*
X39478857Y14889238D01*
X39551429Y14986000D01*
X39478857Y15082762D01*
X39478857Y14889238D01*
X40785143Y13147524D02*
X40640000Y13050762D01*
X40349714Y13050762D01*
X40204571Y13147524D01*
X40132000Y13341048D01*
X40132000Y14115143D01*
X40204571Y14308667D01*
X40349714Y14405429D01*
X40640000Y14405429D01*
X40785143Y14308667D01*
X40857714Y14115143D01*
X40857714Y13921619D01*
X40132000Y13728095D01*
X42164000Y13147524D02*
X42018857Y13050762D01*
X41728571Y13050762D01*
X41583429Y13147524D01*
X41510857Y13244286D01*
X41438286Y13437810D01*
X41438286Y14018381D01*
X41510857Y14211905D01*
X41583429Y14308667D01*
X41728571Y14405429D01*
X42018857Y14405429D01*
X42164000Y14308667D01*
X42599429Y14405429D02*
X43180000Y14405429D01*
X42817143Y15082762D02*
X42817143Y13341048D01*
X42889715Y13147524D01*
X43034857Y13050762D01*
X43180000Y13050762D01*
X43905714Y13050762D02*
X43760572Y13147524D01*
X43688000Y13244286D01*
X43615429Y13437810D01*
X43615429Y14018381D01*
X43688000Y14211905D01*
X43760572Y14308667D01*
X43905714Y14405429D01*
X44123429Y14405429D01*
X44268572Y14308667D01*
X44341143Y14211905D01*
X44413714Y14018381D01*
X44413714Y13437810D01*
X44341143Y13244286D01*
X44268572Y13147524D01*
X44123429Y13050762D01*
X43905714Y13050762D01*
X45066857Y13050762D02*
X45066857Y14405429D01*
X45066857Y14018381D02*
X45139429Y14211905D01*
X45212000Y14308667D01*
X45357143Y14405429D01*
X45502286Y14405429D01*
X47171429Y13050762D02*
X47171429Y15082762D01*
X47752001Y15082762D01*
X47897143Y14986000D01*
X47969715Y14889238D01*
X48042286Y14695714D01*
X48042286Y14405429D01*
X47969715Y14211905D01*
X47897143Y14115143D01*
X47752001Y14018381D01*
X47171429Y14018381D01*
X49566286Y13244286D02*
X49493715Y13147524D01*
X49276001Y13050762D01*
X49130858Y13050762D01*
X48913143Y13147524D01*
X48768001Y13341048D01*
X48695429Y13534571D01*
X48622858Y13921619D01*
X48622858Y14211905D01*
X48695429Y14598952D01*
X48768001Y14792476D01*
X48913143Y14986000D01*
X49130858Y15082762D01*
X49276001Y15082762D01*
X49493715Y14986000D01*
X49566286Y14889238D01*
X50727429Y14115143D02*
X50945143Y14018381D01*
X51017715Y13921619D01*
X51090286Y13728095D01*
X51090286Y13437810D01*
X51017715Y13244286D01*
X50945143Y13147524D01*
X50800001Y13050762D01*
X50219429Y13050762D01*
X50219429Y15082762D01*
X50727429Y15082762D01*
X50872572Y14986000D01*
X50945143Y14889238D01*
X51017715Y14695714D01*
X51017715Y14502190D01*
X50945143Y14308667D01*
X50872572Y14211905D01*
X50727429Y14115143D01*
X50219429Y14115143D01*
D13*
X36195000Y90805000D02*
X34925000Y89535000D01*
X34925000Y89535000D02*
X33655000Y90805000D01*
X34925000Y94615000D02*
X34925000Y89535000D01*
X36830000Y96520000D02*
X36830000Y83185000D01*
X36830000Y83185000D02*
X27940000Y83185000D01*
X27940000Y83185000D02*
X25400000Y85725000D01*
X25400000Y85725000D02*
X25400000Y96520000D01*
X36830000Y96520000D02*
X36830000Y98425000D01*
X36830000Y98425000D02*
X26035000Y98425000D01*
X26035000Y98425000D02*
X25400000Y98425000D01*
X25400000Y98425000D02*
X25400000Y96520000D01*
X37465000Y95885000D02*
X37465000Y80645000D01*
X37465000Y80645000D02*
X24765000Y80645000D01*
X24765000Y80645000D02*
X24765000Y96520000D01*
X24765000Y96520000D02*
X37465000Y96520000D01*
X37465000Y96520000D02*
X37465000Y95885000D01*
X41910000Y74930000D02*
X20320000Y74930000D01*
X20320000Y74930000D02*
X20320000Y95885000D01*
X20320000Y95885000D02*
X41275000Y95885000D01*
X41275000Y95885000D02*
X41910000Y95885000D01*
X41910000Y95885000D02*
X41910000Y74930000D01*
X33909000Y20320000D02*
X21844000Y20320000D01*
X33909000Y62230000D02*
X21844000Y62230000D01*
D14*
X24384000Y29845000D02*
X24384000Y32385000D01*
X24384000Y32385000D02*
X26289000Y32385000D01*
X26289000Y32385000D02*
X26289000Y29845000D01*
X26289000Y29845000D02*
X24384000Y29845000D01*
X23114000Y29845000D02*
X27559000Y29845000D01*
X27559000Y29845000D02*
X27559000Y32385000D01*
X27559000Y32385000D02*
X23114000Y32385000D01*
X23114000Y32385000D02*
X23114000Y29845000D01*
X24384000Y57785000D02*
X24384000Y63500000D01*
X24384000Y63500000D02*
X30734000Y63500000D01*
X30734000Y63500000D02*
X30734000Y57785000D01*
X30734000Y57785000D02*
X24384000Y57785000D01*
X33909000Y20320000D02*
X33909000Y62230000D01*
X21844000Y62230000D02*
X21844000Y20320000D01*
X26289000Y20320000D02*
X26289000Y21590000D01*
X26289000Y21590000D02*
X28829000Y21590000D01*
X28829000Y21590000D02*
X28829000Y20320000D01*
D15*
X70000000Y100000000D02*
X5000000Y100000000D01*
X75000000Y5000000D02*
X75000000Y95000000D01*
X5000000Y0D02*
X70000000Y0D01*
X0Y95000000D02*
X0Y45000000D01*
X7828427Y95000000D02*
G75*
G03X7828427Y95000000I-2828427J0D01*
G01*
X7828427Y5000000D02*
G75*
G03X7828427Y5000000I-2828427J0D01*
G01*
X72828427Y5000000D02*
G75*
G03X72828427Y5000000I-2828427J0D01*
G01*
X72828427Y95000000D02*
G75*
G03X72828427Y95000000I-2828427J0D01*
G01*
X0Y45000000D02*
X0Y5000000D01*
X0Y5000000D02*
G75*
G03X5000000Y0I5000000J0D01*
G01*
X70000000Y0D02*
G75*
G03X75000000Y5000000I0J5000000D01*
G01*
X75000000Y95000000D02*
G75*
G03X70000000Y100000000I-5000000J0D01*
G01*
X5000000Y100000000D02*
G75*
G03X0Y95000000I0J-5000000D01*
G01*
X43815000Y95885000D02*
X62315000Y95885000D01*
X62315000Y95885000D02*
X62315000Y74385000D01*
X62315000Y74385000D02*
X43815000Y74385000D01*
X43815000Y74385000D02*
X43815000Y95885000D01*
X51435000Y86360000D02*
X46990000Y82550000D01*
X46990000Y82550000D02*
X60325000Y82550000D01*
X55880000Y89535000D02*
X51435000Y89535000D01*
X51435000Y89535000D02*
X51435000Y86360000D01*
X51435000Y86360000D02*
X55880000Y86360000D01*
X55880000Y89535000D02*
X55880000Y86360000D01*
X55880000Y86360000D02*
X60325000Y82550000D01*
D16*
X42037000Y29540200D02*
X45847000Y29540200D01*
D17*
X45849668Y29593003D02*
G75*
G03X42037000Y29591000I-1907668J2537997D01*
G01*
D11*
X13081000Y86741000D02*
X14097000Y86741000D01*
X14097000Y86741000D02*
X14097000Y92837000D01*
X14097000Y92837000D02*
X13081000Y92837000D01*
X13081000Y92837000D02*
X12065000Y92837000D01*
X12065000Y92837000D02*
X12065000Y86741000D01*
X12065000Y86741000D02*
X13081000Y86741000D01*
X14097000Y87249000D02*
X12065000Y87249000D01*
X12065000Y87503000D02*
X14097000Y87503000D01*
X18161000Y77724000D02*
X17145000Y77724000D01*
X17145000Y77724000D02*
X17145000Y71628000D01*
X17145000Y71628000D02*
X18161000Y71628000D01*
X18161000Y71628000D02*
X19177000Y71628000D01*
X19177000Y71628000D02*
X19177000Y77724000D01*
X19177000Y77724000D02*
X18161000Y77724000D01*
X17145000Y77216000D02*
X19177000Y77216000D01*
X19177000Y76962000D02*
X17145000Y76962000D01*
X25019000Y46990000D02*
X26035000Y46990000D01*
X26035000Y46990000D02*
X26035000Y53086000D01*
X26035000Y53086000D02*
X25019000Y53086000D01*
X25019000Y53086000D02*
X24003000Y53086000D01*
X24003000Y53086000D02*
X24003000Y46990000D01*
X24003000Y46990000D02*
X25019000Y46990000D01*
X26035000Y47498000D02*
X24003000Y47498000D01*
X24003000Y47752000D02*
X26035000Y47752000D01*
D15*
X10795000Y69850000D02*
X10795000Y80010000D01*
X3175000Y69850000D02*
X3175000Y80010000D01*
X10795000Y80010000D02*
X3175000Y80010000D01*
X3175000Y74930000D02*
X10795000Y74930000D01*
X10795000Y69850000D02*
X3175000Y69850000D01*
X64770000Y86995000D02*
X64770000Y76835000D01*
X72390000Y86995000D02*
X72390000Y76835000D01*
X64770000Y76835000D02*
X72390000Y76835000D01*
X72390000Y81915000D02*
X64770000Y81915000D01*
X64770000Y86995000D02*
X72390000Y86995000D01*
D13*
X15875000Y95885000D02*
X15875000Y91186000D01*
X18415000Y95885000D02*
X18415000Y91186000D01*
D11*
X15875000Y95885000D02*
X18415000Y95885000D01*
X18415000Y91186000D02*
X15875000Y91186000D01*
D10*
X42164000Y22860000D02*
X42164000Y27940000D01*
X42164000Y27940000D02*
X39624000Y27940000D01*
X39624000Y27940000D02*
X39624000Y22860000D01*
X39344000Y20040000D02*
X39344000Y21590000D01*
X39624000Y22860000D02*
X42164000Y22860000D01*
X42444000Y21590000D02*
X42444000Y20040000D01*
X42444000Y20040000D02*
X39344000Y20040000D01*
D15*
X73025000Y17780000D02*
X72390000Y17780000D01*
X72390000Y17780000D02*
X72390000Y24130000D01*
X72390000Y24130000D02*
X73025000Y24130000D01*
X67945000Y10795000D02*
G75*
G03X67945000Y10795000I-1270000J0D01*
G01*
X66675000Y26035000D02*
X73025000Y26035000D01*
X70485000Y20955000D02*
X73025000Y20955000D01*
X66675000Y15875000D02*
X73025000Y15875000D01*
X66675000Y10795000D02*
X66675000Y31115000D01*
X66675000Y31115000D02*
X73025000Y31115000D01*
X73025000Y31115000D02*
X73025000Y10795000D01*
X73025000Y10795000D02*
X66675000Y10795000D01*
X64770000Y66675000D02*
X64770000Y56515000D01*
X72390000Y66675000D02*
X72390000Y56515000D01*
X64770000Y56515000D02*
X72390000Y56515000D01*
X72390000Y61595000D02*
X64770000Y61595000D01*
X64770000Y66675000D02*
X72390000Y66675000D01*
X64770000Y76835000D02*
X64770000Y66675000D01*
X72390000Y76835000D02*
X72390000Y66675000D01*
X64770000Y66675000D02*
X72390000Y66675000D01*
X72390000Y71755000D02*
X64770000Y71755000D01*
X64770000Y76835000D02*
X72390000Y76835000D01*
X10795000Y80010000D02*
X10795000Y90170000D01*
X3175000Y80010000D02*
X3175000Y90170000D01*
X10795000Y90170000D02*
X3175000Y90170000D01*
X3175000Y85090000D02*
X10795000Y85090000D01*
X10795000Y80010000D02*
X3175000Y80010000D01*
D13*
X43942000Y25400000D02*
X43942000Y25654000D01*
X43942000Y20828000D02*
X43942000Y20574000D01*
X44958000Y25400000D02*
X43053000Y25400000D01*
X43053000Y25400000D02*
X43053000Y20828000D01*
X43053000Y20828000D02*
X44958000Y20828000D01*
X44958000Y20828000D02*
X44958000Y25400000D01*
X12700000Y77216000D02*
X12700000Y77470000D01*
X12700000Y72644000D02*
X12700000Y72390000D01*
X13716000Y77216000D02*
X11811000Y77216000D01*
X11811000Y77216000D02*
X11811000Y72644000D01*
X11811000Y72644000D02*
X13716000Y72644000D01*
X13716000Y72644000D02*
X13716000Y77216000D01*
X13970000Y31496000D02*
X13970000Y31750000D01*
X13970000Y26924000D02*
X13970000Y26670000D01*
X14986000Y31496000D02*
X13081000Y31496000D01*
X13081000Y31496000D02*
X13081000Y26924000D01*
X13081000Y26924000D02*
X14986000Y26924000D01*
X14986000Y26924000D02*
X14986000Y31496000D01*
X15240000Y77216000D02*
X15240000Y77470000D01*
X15240000Y72644000D02*
X15240000Y72390000D01*
X16256000Y77216000D02*
X14351000Y77216000D01*
X14351000Y77216000D02*
X14351000Y72644000D01*
X14351000Y72644000D02*
X16256000Y72644000D01*
X16256000Y72644000D02*
X16256000Y77216000D01*
X13970000Y44831000D02*
X13970000Y45085000D01*
X13970000Y40259000D02*
X13970000Y40005000D01*
X14986000Y44831000D02*
X13081000Y44831000D01*
X13081000Y44831000D02*
X13081000Y40259000D01*
X13081000Y40259000D02*
X14986000Y40259000D01*
X14986000Y40259000D02*
X14986000Y44831000D01*
X25019000Y36322000D02*
X25019000Y36068000D01*
X25019000Y40894000D02*
X25019000Y41148000D01*
X24003000Y36322000D02*
X25908000Y36322000D01*
X25908000Y36322000D02*
X25908000Y40894000D01*
X25908000Y40894000D02*
X24003000Y40894000D01*
X24003000Y40894000D02*
X24003000Y36322000D01*
X28067000Y46990000D02*
X28067000Y46736000D01*
X28067000Y51562000D02*
X28067000Y51816000D01*
X27051000Y46990000D02*
X28956000Y46990000D01*
X28956000Y46990000D02*
X28956000Y51562000D01*
X28956000Y51562000D02*
X27051000Y51562000D01*
X27051000Y51562000D02*
X27051000Y46990000D01*
X30480000Y85471000D02*
X30480000Y85725000D01*
X30480000Y80899000D02*
X30480000Y80645000D01*
X31496000Y85471000D02*
X29591000Y85471000D01*
X29591000Y85471000D02*
X29591000Y80899000D01*
X29591000Y80899000D02*
X31496000Y80899000D01*
X31496000Y80899000D02*
X31496000Y85471000D01*
X34290000Y85471000D02*
X34290000Y85725000D01*
X34290000Y80899000D02*
X34290000Y80645000D01*
X35306000Y85471000D02*
X33401000Y85471000D01*
X33401000Y85471000D02*
X33401000Y80899000D01*
X33401000Y80899000D02*
X35306000Y80899000D01*
X35306000Y80899000D02*
X35306000Y85471000D01*
X36830000Y85471000D02*
X36830000Y85725000D01*
X36830000Y80899000D02*
X36830000Y80645000D01*
X37846000Y85471000D02*
X35941000Y85471000D01*
X35941000Y85471000D02*
X35941000Y80899000D01*
X35941000Y80899000D02*
X37846000Y80899000D01*
X37846000Y80899000D02*
X37846000Y85471000D01*
X27940000Y85471000D02*
X27940000Y85725000D01*
X27940000Y80899000D02*
X27940000Y80645000D01*
X28956000Y85471000D02*
X27051000Y85471000D01*
X27051000Y85471000D02*
X27051000Y80899000D01*
X27051000Y80899000D02*
X28956000Y80899000D01*
X28956000Y80899000D02*
X28956000Y85471000D01*
X54546500Y37147500D02*
X54292500Y37147500D01*
X59118500Y37147500D02*
X59372500Y37147500D01*
X54546500Y38163500D02*
X54546500Y36258500D01*
X54546500Y36258500D02*
X59118500Y36258500D01*
X59118500Y36258500D02*
X59118500Y38163500D01*
X59118500Y38163500D02*
X54546500Y38163500D01*
X59118500Y34607500D02*
X59372500Y34607500D01*
X54546500Y34607500D02*
X54292500Y34607500D01*
X59118500Y33591500D02*
X59118500Y35496500D01*
X59118500Y35496500D02*
X54546500Y35496500D01*
X54546500Y35496500D02*
X54546500Y33591500D01*
X54546500Y33591500D02*
X59118500Y33591500D01*
X54546500Y25082500D02*
X54292500Y25082500D01*
X59118500Y25082500D02*
X59372500Y25082500D01*
X54546500Y26098500D02*
X54546500Y24193500D01*
X54546500Y24193500D02*
X59118500Y24193500D01*
X59118500Y24193500D02*
X59118500Y26098500D01*
X59118500Y26098500D02*
X54546500Y26098500D01*
X59118500Y22542500D02*
X59372500Y22542500D01*
X54546500Y22542500D02*
X54292500Y22542500D01*
X59118500Y21526500D02*
X59118500Y23431500D01*
X59118500Y23431500D02*
X54546500Y23431500D01*
X54546500Y23431500D02*
X54546500Y21526500D01*
X54546500Y21526500D02*
X59118500Y21526500D01*
X55181500Y13017500D02*
X54927500Y13017500D01*
X59753500Y13017500D02*
X60007500Y13017500D01*
X55181500Y14033500D02*
X55181500Y12128500D01*
X55181500Y12128500D02*
X59753500Y12128500D01*
X59753500Y12128500D02*
X59753500Y14033500D01*
X59753500Y14033500D02*
X55181500Y14033500D01*
X59753500Y10477500D02*
X60007500Y10477500D01*
X55181500Y10477500D02*
X54927500Y10477500D01*
X59753500Y9461500D02*
X59753500Y11366500D01*
X59753500Y11366500D02*
X55181500Y11366500D01*
X55181500Y11366500D02*
X55181500Y9461500D01*
X55181500Y9461500D02*
X59753500Y9461500D01*
D14*
X11430000Y65405000D02*
X11430000Y67945000D01*
X11430000Y67945000D02*
X8255000Y67945000D01*
X8255000Y67945000D02*
X7620000Y67945000D01*
X7620000Y67945000D02*
X7620000Y65405000D01*
X7620000Y65405000D02*
X11430000Y65405000D01*
X12700000Y64770000D02*
X12700000Y68580000D01*
X12700000Y68580000D02*
X6350000Y68580000D01*
X6350000Y68580000D02*
X6350000Y64770000D01*
X6350000Y64770000D02*
X12700000Y64770000D01*
X11430000Y58420000D02*
X11430000Y60960000D01*
X11430000Y60960000D02*
X8255000Y60960000D01*
X8255000Y60960000D02*
X7620000Y60960000D01*
X7620000Y60960000D02*
X7620000Y58420000D01*
X7620000Y58420000D02*
X11430000Y58420000D01*
X12700000Y57785000D02*
X12700000Y61595000D01*
X12700000Y61595000D02*
X6350000Y61595000D01*
X6350000Y61595000D02*
X6350000Y57785000D01*
X6350000Y57785000D02*
X12700000Y57785000D01*
X11430000Y51435000D02*
X11430000Y53975000D01*
X11430000Y53975000D02*
X8255000Y53975000D01*
X8255000Y53975000D02*
X7620000Y53975000D01*
X7620000Y53975000D02*
X7620000Y51435000D01*
X7620000Y51435000D02*
X11430000Y51435000D01*
X12700000Y50800000D02*
X12700000Y54610000D01*
X12700000Y54610000D02*
X6350000Y54610000D01*
X6350000Y54610000D02*
X6350000Y50800000D01*
X6350000Y50800000D02*
X12700000Y50800000D01*
D11*
X4445000Y64135000D02*
X1905000Y64135000D01*
X1905000Y64135000D02*
X1905000Y69215000D01*
X1905000Y69215000D02*
X4445000Y69215000D01*
X4445000Y69215000D02*
X4445000Y64135000D01*
X4445000Y57150000D02*
X1905000Y57150000D01*
X1905000Y57150000D02*
X1905000Y62230000D01*
X1905000Y62230000D02*
X4445000Y62230000D01*
X4445000Y62230000D02*
X4445000Y57150000D01*
X4445000Y50165000D02*
X1905000Y50165000D01*
X1905000Y50165000D02*
X1905000Y55245000D01*
X1905000Y55245000D02*
X4445000Y55245000D01*
X4445000Y55245000D02*
X4445000Y50165000D01*
D14*
X1715000Y19875000D02*
X2715000Y19875000D01*
X2715000Y19875000D02*
X2715000Y11875000D01*
X2715000Y11875000D02*
X1715000Y11875000D01*
X1715000Y21875000D02*
X1715000Y9875000D01*
X1715000Y9875000D02*
X9715000Y9875000D01*
X9715000Y21875000D02*
X9715000Y9875000D01*
X9715000Y21875000D02*
X1715000Y21875000D01*
X1715000Y46545000D02*
X2715000Y46545000D01*
X2715000Y46545000D02*
X2715000Y38545000D01*
X2715000Y38545000D02*
X1715000Y38545000D01*
X1715000Y48545000D02*
X1715000Y36545000D01*
X1715000Y36545000D02*
X9715000Y36545000D01*
X9715000Y48545000D02*
X9715000Y36545000D01*
X9715000Y48545000D02*
X1715000Y48545000D01*
X1715000Y33210000D02*
X2715000Y33210000D01*
X2715000Y33210000D02*
X2715000Y25210000D01*
X2715000Y25210000D02*
X1715000Y25210000D01*
X1715000Y35210000D02*
X1715000Y23210000D01*
X1715000Y23210000D02*
X9715000Y23210000D01*
X9715000Y35210000D02*
X9715000Y23210000D01*
X9715000Y35210000D02*
X1715000Y35210000D01*
D15*
X41550000Y57460000D02*
X41550000Y57960000D01*
X41550000Y57960000D02*
X43800000Y55960000D01*
X43800000Y55960000D02*
X44050000Y58210000D01*
X44050000Y58210000D02*
X43800000Y60960000D01*
X45300000Y52710000D02*
X41300000Y58460000D01*
X41300000Y58460000D02*
X42300000Y56460000D01*
X42300000Y56460000D02*
X41550000Y57460000D01*
X41550000Y57460000D02*
X42800000Y55210000D01*
X42800000Y55210000D02*
X42550000Y56210000D01*
X42550000Y56210000D02*
X44550000Y53460000D01*
X44550000Y53460000D02*
X43050000Y55210000D01*
X43050000Y55210000D02*
X42800000Y55460000D01*
X42800000Y55460000D02*
X43800000Y53960000D01*
X43800000Y53960000D02*
X44800000Y53210000D01*
X44800000Y53210000D02*
X45800000Y52460000D01*
X45800000Y52460000D02*
X44800000Y53960000D01*
X44800000Y53960000D02*
X43800000Y55210000D01*
X43800000Y55210000D02*
X41300000Y58710000D01*
X41300000Y58710000D02*
X42550000Y56210000D01*
X42550000Y56210000D02*
X43550000Y54710000D01*
X43550000Y54710000D02*
X45050000Y53960000D01*
X45050000Y53960000D02*
X45050000Y68460000D01*
X45050000Y68460000D02*
X44300000Y67460000D01*
X44300000Y67460000D02*
X44050000Y55710000D01*
X44050000Y55710000D02*
X44550000Y54710000D01*
X44550000Y54710000D02*
X44550000Y67210000D01*
X44550000Y67210000D02*
X44300000Y57460000D01*
X44300000Y57460000D02*
X45050000Y53960000D01*
X45050000Y53960000D02*
X44800000Y57210000D01*
X44800000Y57210000D02*
X43550000Y56210000D01*
X43550000Y56210000D02*
X43550000Y66460000D01*
X43550000Y66460000D02*
X44800000Y68710000D01*
X44800000Y68710000D02*
X43300000Y67210000D01*
X43300000Y67210000D02*
X42300000Y65710000D01*
X42300000Y65710000D02*
X41300000Y63210000D01*
X41300000Y63210000D02*
X41050000Y59460000D01*
X41050000Y59460000D02*
X41050000Y62210000D01*
X41050000Y62210000D02*
X41800000Y65210000D01*
X41800000Y65210000D02*
X43800000Y66710000D01*
X43800000Y66710000D02*
X43050000Y66460000D01*
X43050000Y66460000D02*
X44050000Y67710000D01*
X44050000Y67710000D02*
X45300000Y68710000D01*
X45300000Y68710000D02*
X45300000Y69210000D01*
X45300000Y69210000D02*
X44800000Y68710000D01*
X44800000Y68710000D02*
X43300000Y67210000D01*
X43300000Y67210000D02*
X42800000Y65960000D01*
X42800000Y65960000D02*
X44300000Y67210000D01*
X44300000Y67210000D02*
X44800000Y67460000D01*
X44800000Y67460000D02*
X44050000Y65710000D01*
X44050000Y65710000D02*
X43050000Y65710000D01*
X43050000Y65710000D02*
X43050000Y65960000D01*
X43050000Y65960000D02*
X43050000Y65460000D01*
X43050000Y65460000D02*
X42550000Y64960000D01*
X42550000Y64960000D02*
X41800000Y64210000D01*
X41800000Y64210000D02*
X42050000Y63960000D01*
X42050000Y63960000D02*
X42800000Y65710000D01*
X42800000Y65710000D02*
X43050000Y66460000D01*
X43050000Y66460000D02*
X45800000Y69460000D01*
X45800000Y69460000D02*
X44050000Y65460000D01*
X44050000Y65460000D02*
X44050000Y61960000D01*
X44050000Y61960000D02*
X44050000Y66210000D01*
X44050000Y66210000D02*
X44550000Y67460000D01*
X44550000Y67460000D02*
X43050000Y64960000D01*
X43050000Y64960000D02*
X43300000Y56710000D01*
X43300000Y56710000D02*
X43050000Y56710000D01*
X43050000Y56710000D02*
X43050000Y64960000D01*
X43050000Y64960000D02*
X42550000Y64210000D01*
X42550000Y64210000D02*
X42550000Y57460000D01*
X42550000Y57460000D02*
X41800000Y57960000D01*
X41800000Y57960000D02*
X42050000Y57960000D01*
X42050000Y57960000D02*
X42050000Y64210000D01*
X42050000Y64210000D02*
X41550000Y63210000D01*
X41550000Y63210000D02*
X41300000Y58460000D01*
X41300000Y58460000D02*
X41550000Y58460000D01*
X41550000Y58460000D02*
X41550000Y62460000D01*
X41550000Y62460000D02*
X41050000Y58960000D01*
X41050000Y58960000D02*
X44050000Y58210000D01*
X44050000Y58210000D02*
X44050000Y62210000D01*
X44050000Y62210000D02*
X42300000Y65710000D01*
X42300000Y65710000D02*
X44800000Y67960000D01*
X44800000Y67960000D02*
X43800000Y62210000D01*
X45800000Y52960000D02*
X45800000Y52460000D01*
X45800000Y68960000D02*
X45800000Y69460000D01*
X45550000Y52710000D02*
X45550000Y69210000D01*
X45300000Y52960000D02*
X41800000Y57460000D01*
X45300000Y68960000D02*
X41800000Y64460000D01*
X45800000Y68960000D02*
X41300000Y62960000D01*
X45800000Y52960000D02*
X41300000Y58960000D01*
X41300000Y58960000D02*
X41300000Y62960000D01*
X42300000Y56960000D02*
X42300000Y64960000D01*
X43300000Y55460000D02*
X43300000Y66460000D01*
X44300000Y54460000D02*
X44300000Y67460000D01*
X45300000Y53460000D02*
X45300000Y68460000D01*
X41800000Y57960000D02*
X41800000Y63960000D01*
X42800000Y65960000D02*
X42800000Y55960000D01*
X43800000Y54960000D02*
X43800000Y66960000D01*
X44800000Y67960000D02*
X44800000Y53960000D01*
X45800000Y52960000D02*
X45800000Y68960000D01*
X60800000Y60960000D02*
G75*
G03X60800000Y60960000I-10000000J0D01*
G01*
D18*
G36*
X21417280Y3815080D02*
X21351240Y3751580D01*
X21168360Y3591560D01*
X20970240Y3434080D01*
X20759420Y3284220D01*
X20538440Y3141980D01*
X20314920Y3009900D01*
X20088860Y2893060D01*
X19862800Y2791460D01*
X19817080Y2771140D01*
X19771360Y2753360D01*
X19720560Y2733040D01*
X19664680Y2712720D01*
X19608800Y2692400D01*
X19558000Y2672080D01*
X19512280Y2656840D01*
X19479260Y2646680D01*
X19458940Y2641600D01*
X19456400Y2641600D01*
X19451320Y2649220D01*
X19438620Y2677160D01*
X19415760Y2717800D01*
X19387820Y2776220D01*
X19349720Y2849880D01*
X19304000Y2938780D01*
X19253200Y3040380D01*
X19194780Y3154680D01*
X19131280Y3279140D01*
X19062700Y3418840D01*
X18986500Y3566160D01*
X18907760Y3726180D01*
X18821400Y3893820D01*
X18735040Y4071620D01*
X18641060Y4257040D01*
X18544540Y4450080D01*
X18445480Y4648200D01*
X18341340Y4853940D01*
X18237200Y5062220D01*
X18161000Y5212080D01*
X18054320Y5425440D01*
X17950180Y5636260D01*
X17848580Y5839460D01*
X17752060Y6035040D01*
X17655540Y6225540D01*
X17564100Y6408420D01*
X17477740Y6583680D01*
X17396460Y6748780D01*
X17317720Y6906260D01*
X17246600Y7051040D01*
X17178020Y7185660D01*
X17117060Y7310120D01*
X17063720Y7419340D01*
X17015460Y7518400D01*
X16974820Y7602220D01*
X16939260Y7670800D01*
X16913860Y7724140D01*
X16896080Y7762240D01*
X16885920Y7782560D01*
X16883380Y7787640D01*
X16903700Y7797800D01*
X16934180Y7815580D01*
X16969740Y7840980D01*
X17007840Y7868920D01*
X17040860Y7896860D01*
X17066260Y7917180D01*
X17117060Y7962900D01*
X17261840Y7825740D01*
X17282160Y7805420D01*
X17315180Y7774940D01*
X17360900Y7729220D01*
X17419320Y7673340D01*
X17490440Y7604760D01*
X17574260Y7526020D01*
X17665700Y7437120D01*
X17767300Y7338060D01*
X17879060Y7228840D01*
X18000980Y7112000D01*
X18127980Y6990080D01*
X18265140Y6858000D01*
X18407380Y6720840D01*
X18557240Y6576060D01*
X18712180Y6428740D01*
X18869660Y6273800D01*
X19034760Y6116320D01*
X19202400Y5956300D01*
X19370040Y5791200D01*
X19413220Y5750560D01*
X21417280Y3815080D01*
X21417280Y3815080D01*
X21417280Y3815080D01*
G37*
X21417280Y3815080D02*
X21351240Y3751580D01*
X21168360Y3591560D01*
X20970240Y3434080D01*
X20759420Y3284220D01*
X20538440Y3141980D01*
X20314920Y3009900D01*
X20088860Y2893060D01*
X19862800Y2791460D01*
X19817080Y2771140D01*
X19771360Y2753360D01*
X19720560Y2733040D01*
X19664680Y2712720D01*
X19608800Y2692400D01*
X19558000Y2672080D01*
X19512280Y2656840D01*
X19479260Y2646680D01*
X19458940Y2641600D01*
X19456400Y2641600D01*
X19451320Y2649220D01*
X19438620Y2677160D01*
X19415760Y2717800D01*
X19387820Y2776220D01*
X19349720Y2849880D01*
X19304000Y2938780D01*
X19253200Y3040380D01*
X19194780Y3154680D01*
X19131280Y3279140D01*
X19062700Y3418840D01*
X18986500Y3566160D01*
X18907760Y3726180D01*
X18821400Y3893820D01*
X18735040Y4071620D01*
X18641060Y4257040D01*
X18544540Y4450080D01*
X18445480Y4648200D01*
X18341340Y4853940D01*
X18237200Y5062220D01*
X18161000Y5212080D01*
X18054320Y5425440D01*
X17950180Y5636260D01*
X17848580Y5839460D01*
X17752060Y6035040D01*
X17655540Y6225540D01*
X17564100Y6408420D01*
X17477740Y6583680D01*
X17396460Y6748780D01*
X17317720Y6906260D01*
X17246600Y7051040D01*
X17178020Y7185660D01*
X17117060Y7310120D01*
X17063720Y7419340D01*
X17015460Y7518400D01*
X16974820Y7602220D01*
X16939260Y7670800D01*
X16913860Y7724140D01*
X16896080Y7762240D01*
X16885920Y7782560D01*
X16883380Y7787640D01*
X16903700Y7797800D01*
X16934180Y7815580D01*
X16969740Y7840980D01*
X17007840Y7868920D01*
X17040860Y7896860D01*
X17066260Y7917180D01*
X17117060Y7962900D01*
X17261840Y7825740D01*
X17282160Y7805420D01*
X17315180Y7774940D01*
X17360900Y7729220D01*
X17419320Y7673340D01*
X17490440Y7604760D01*
X17574260Y7526020D01*
X17665700Y7437120D01*
X17767300Y7338060D01*
X17879060Y7228840D01*
X18000980Y7112000D01*
X18127980Y6990080D01*
X18265140Y6858000D01*
X18407380Y6720840D01*
X18557240Y6576060D01*
X18712180Y6428740D01*
X18869660Y6273800D01*
X19034760Y6116320D01*
X19202400Y5956300D01*
X19370040Y5791200D01*
X19413220Y5750560D01*
X21417280Y3815080D01*
X21417280Y3815080D01*
G36*
X16347440Y7696200D02*
X16342360Y7660640D01*
X16339820Y7647940D01*
X16337280Y7617460D01*
X16332200Y7566660D01*
X16324580Y7498080D01*
X16316960Y7414260D01*
X16306800Y7315200D01*
X16294100Y7200900D01*
X16278860Y7073900D01*
X16266160Y6934200D01*
X16248380Y6781800D01*
X16233140Y6619240D01*
X16212820Y6443980D01*
X16195040Y6263640D01*
X16174720Y6070600D01*
X16154400Y5872480D01*
X16131540Y5669280D01*
X16111220Y5458460D01*
X16093440Y5290820D01*
X16065500Y5031740D01*
X16040100Y4792980D01*
X16017240Y4569460D01*
X15996920Y4366260D01*
X15976600Y4180840D01*
X15958820Y4010660D01*
X15941040Y3855720D01*
X15925800Y3713480D01*
X15913100Y3589020D01*
X15902940Y3474720D01*
X15890240Y3373120D01*
X15882620Y3286760D01*
X15872460Y3208020D01*
X15864840Y3139440D01*
X15859760Y3083560D01*
X15854680Y3035300D01*
X15849600Y2992120D01*
X15844520Y2959100D01*
X15841980Y2933700D01*
X15839440Y2913380D01*
X15836900Y2898140D01*
X15836900Y2885440D01*
X15834360Y2877820D01*
X15834360Y2872740D01*
X15831820Y2872740D01*
X15831820Y2870200D01*
X15829280Y2870200D01*
X15829280Y2870200D01*
X15819120Y2875280D01*
X15793720Y2887980D01*
X15758160Y2905760D01*
X15712440Y2928620D01*
X15681960Y2943860D01*
X15405100Y3101340D01*
X15140940Y3271520D01*
X14892020Y3454400D01*
X14655800Y3649980D01*
X14437360Y3858260D01*
X14409420Y3883660D01*
X14368780Y3926840D01*
X14333220Y3964940D01*
X14305280Y3997960D01*
X14284960Y4018280D01*
X14277340Y4028440D01*
X14277340Y4030980D01*
X14282420Y4038600D01*
X14295120Y4066540D01*
X14315440Y4109720D01*
X14343380Y4168140D01*
X14376400Y4241800D01*
X14417040Y4328160D01*
X14465300Y4429760D01*
X14518640Y4541520D01*
X14577060Y4665980D01*
X14640560Y4800600D01*
X14709140Y4942840D01*
X14780260Y5095240D01*
X14856460Y5257800D01*
X14935200Y5425440D01*
X15019020Y5598160D01*
X15102840Y5775960D01*
X15163800Y5902960D01*
X15250160Y6083300D01*
X15333980Y6261100D01*
X15415260Y6433820D01*
X15494000Y6598920D01*
X15567660Y6756400D01*
X15638780Y6906260D01*
X15707360Y7048500D01*
X15768320Y7178040D01*
X15826740Y7297420D01*
X15877540Y7406640D01*
X15923260Y7503160D01*
X15961360Y7586980D01*
X15994380Y7655560D01*
X16019780Y7708900D01*
X16037560Y7747000D01*
X16047720Y7769860D01*
X16050260Y7774940D01*
X16060420Y7774940D01*
X16083280Y7767320D01*
X16113760Y7757160D01*
X16154400Y7741920D01*
X16202660Y7729220D01*
X16253460Y7716520D01*
X16261080Y7713980D01*
X16347440Y7696200D01*
X16347440Y7696200D01*
X16347440Y7696200D01*
G37*
X16347440Y7696200D02*
X16342360Y7660640D01*
X16339820Y7647940D01*
X16337280Y7617460D01*
X16332200Y7566660D01*
X16324580Y7498080D01*
X16316960Y7414260D01*
X16306800Y7315200D01*
X16294100Y7200900D01*
X16278860Y7073900D01*
X16266160Y6934200D01*
X16248380Y6781800D01*
X16233140Y6619240D01*
X16212820Y6443980D01*
X16195040Y6263640D01*
X16174720Y6070600D01*
X16154400Y5872480D01*
X16131540Y5669280D01*
X16111220Y5458460D01*
X16093440Y5290820D01*
X16065500Y5031740D01*
X16040100Y4792980D01*
X16017240Y4569460D01*
X15996920Y4366260D01*
X15976600Y4180840D01*
X15958820Y4010660D01*
X15941040Y3855720D01*
X15925800Y3713480D01*
X15913100Y3589020D01*
X15902940Y3474720D01*
X15890240Y3373120D01*
X15882620Y3286760D01*
X15872460Y3208020D01*
X15864840Y3139440D01*
X15859760Y3083560D01*
X15854680Y3035300D01*
X15849600Y2992120D01*
X15844520Y2959100D01*
X15841980Y2933700D01*
X15839440Y2913380D01*
X15836900Y2898140D01*
X15836900Y2885440D01*
X15834360Y2877820D01*
X15834360Y2872740D01*
X15831820Y2872740D01*
X15831820Y2870200D01*
X15829280Y2870200D01*
X15829280Y2870200D01*
X15819120Y2875280D01*
X15793720Y2887980D01*
X15758160Y2905760D01*
X15712440Y2928620D01*
X15681960Y2943860D01*
X15405100Y3101340D01*
X15140940Y3271520D01*
X14892020Y3454400D01*
X14655800Y3649980D01*
X14437360Y3858260D01*
X14409420Y3883660D01*
X14368780Y3926840D01*
X14333220Y3964940D01*
X14305280Y3997960D01*
X14284960Y4018280D01*
X14277340Y4028440D01*
X14277340Y4030980D01*
X14282420Y4038600D01*
X14295120Y4066540D01*
X14315440Y4109720D01*
X14343380Y4168140D01*
X14376400Y4241800D01*
X14417040Y4328160D01*
X14465300Y4429760D01*
X14518640Y4541520D01*
X14577060Y4665980D01*
X14640560Y4800600D01*
X14709140Y4942840D01*
X14780260Y5095240D01*
X14856460Y5257800D01*
X14935200Y5425440D01*
X15019020Y5598160D01*
X15102840Y5775960D01*
X15163800Y5902960D01*
X15250160Y6083300D01*
X15333980Y6261100D01*
X15415260Y6433820D01*
X15494000Y6598920D01*
X15567660Y6756400D01*
X15638780Y6906260D01*
X15707360Y7048500D01*
X15768320Y7178040D01*
X15826740Y7297420D01*
X15877540Y7406640D01*
X15923260Y7503160D01*
X15961360Y7586980D01*
X15994380Y7655560D01*
X16019780Y7708900D01*
X16037560Y7747000D01*
X16047720Y7769860D01*
X16050260Y7774940D01*
X16060420Y7774940D01*
X16083280Y7767320D01*
X16113760Y7757160D01*
X16154400Y7741920D01*
X16202660Y7729220D01*
X16253460Y7716520D01*
X16261080Y7713980D01*
X16347440Y7696200D01*
X16347440Y7696200D01*
G36*
X15651480Y8145780D02*
X15651480Y8140700D01*
X15641320Y8135620D01*
X15618460Y8117840D01*
X15577820Y8094980D01*
X15524480Y8061960D01*
X15458440Y8021320D01*
X15382240Y7973060D01*
X15293340Y7919720D01*
X15199360Y7858760D01*
X15092680Y7795260D01*
X14983460Y7726680D01*
X14866620Y7655560D01*
X14744700Y7579360D01*
X14620240Y7503160D01*
X14493240Y7424420D01*
X14363700Y7343140D01*
X14234160Y7264400D01*
X14107160Y7185660D01*
X13982700Y7109460D01*
X13860780Y7033260D01*
X13743940Y6962140D01*
X13632180Y6893560D01*
X13528040Y6827520D01*
X13428980Y6769100D01*
X13342620Y6713220D01*
X13263880Y6664960D01*
X13197840Y6624320D01*
X13141960Y6591300D01*
X13101320Y6565900D01*
X13075920Y6550660D01*
X13065760Y6545580D01*
X13060680Y6550660D01*
X13055600Y6573520D01*
X13050520Y6606540D01*
X13047980Y6609080D01*
X13025120Y6794500D01*
X13007340Y6987540D01*
X12999720Y7193280D01*
X12997180Y7315200D01*
X12999720Y7381240D01*
X12999720Y7452360D01*
X13002260Y7526020D01*
X13004800Y7599680D01*
X13007340Y7665720D01*
X13009880Y7729220D01*
X13014960Y7780020D01*
X13017500Y7820660D01*
X13020040Y7843520D01*
X13022580Y7848600D01*
X13032740Y7851140D01*
X13060680Y7858760D01*
X13106400Y7868920D01*
X13167360Y7884160D01*
X13241020Y7899400D01*
X13327380Y7919720D01*
X13423900Y7942580D01*
X13530580Y7967980D01*
X13644880Y7993380D01*
X13766800Y8021320D01*
X13896340Y8051800D01*
X14025880Y8079740D01*
X14160500Y8110220D01*
X14295120Y8140700D01*
X14429740Y8173720D01*
X14564360Y8201660D01*
X14693900Y8232140D01*
X14818360Y8260080D01*
X14937740Y8288020D01*
X15052040Y8313420D01*
X15153640Y8336280D01*
X15247620Y8356600D01*
X15328900Y8376920D01*
X15397480Y8392160D01*
X15453360Y8402320D01*
X15491460Y8412480D01*
X15514320Y8417560D01*
X15514320Y8417560D01*
X15532100Y8420100D01*
X15544800Y8415020D01*
X15552420Y8399780D01*
X15562580Y8369300D01*
X15572740Y8336280D01*
X15590520Y8290560D01*
X15610840Y8244840D01*
X15618460Y8232140D01*
X15636240Y8194040D01*
X15646400Y8163560D01*
X15651480Y8145780D01*
X15651480Y8145780D01*
X15651480Y8145780D01*
G37*
X15651480Y8145780D02*
X15651480Y8140700D01*
X15641320Y8135620D01*
X15618460Y8117840D01*
X15577820Y8094980D01*
X15524480Y8061960D01*
X15458440Y8021320D01*
X15382240Y7973060D01*
X15293340Y7919720D01*
X15199360Y7858760D01*
X15092680Y7795260D01*
X14983460Y7726680D01*
X14866620Y7655560D01*
X14744700Y7579360D01*
X14620240Y7503160D01*
X14493240Y7424420D01*
X14363700Y7343140D01*
X14234160Y7264400D01*
X14107160Y7185660D01*
X13982700Y7109460D01*
X13860780Y7033260D01*
X13743940Y6962140D01*
X13632180Y6893560D01*
X13528040Y6827520D01*
X13428980Y6769100D01*
X13342620Y6713220D01*
X13263880Y6664960D01*
X13197840Y6624320D01*
X13141960Y6591300D01*
X13101320Y6565900D01*
X13075920Y6550660D01*
X13065760Y6545580D01*
X13060680Y6550660D01*
X13055600Y6573520D01*
X13050520Y6606540D01*
X13047980Y6609080D01*
X13025120Y6794500D01*
X13007340Y6987540D01*
X12999720Y7193280D01*
X12997180Y7315200D01*
X12999720Y7381240D01*
X12999720Y7452360D01*
X13002260Y7526020D01*
X13004800Y7599680D01*
X13007340Y7665720D01*
X13009880Y7729220D01*
X13014960Y7780020D01*
X13017500Y7820660D01*
X13020040Y7843520D01*
X13022580Y7848600D01*
X13032740Y7851140D01*
X13060680Y7858760D01*
X13106400Y7868920D01*
X13167360Y7884160D01*
X13241020Y7899400D01*
X13327380Y7919720D01*
X13423900Y7942580D01*
X13530580Y7967980D01*
X13644880Y7993380D01*
X13766800Y8021320D01*
X13896340Y8051800D01*
X14025880Y8079740D01*
X14160500Y8110220D01*
X14295120Y8140700D01*
X14429740Y8173720D01*
X14564360Y8201660D01*
X14693900Y8232140D01*
X14818360Y8260080D01*
X14937740Y8288020D01*
X15052040Y8313420D01*
X15153640Y8336280D01*
X15247620Y8356600D01*
X15328900Y8376920D01*
X15397480Y8392160D01*
X15453360Y8402320D01*
X15491460Y8412480D01*
X15514320Y8417560D01*
X15514320Y8417560D01*
X15532100Y8420100D01*
X15544800Y8415020D01*
X15552420Y8399780D01*
X15562580Y8369300D01*
X15572740Y8336280D01*
X15590520Y8290560D01*
X15610840Y8244840D01*
X15618460Y8232140D01*
X15636240Y8194040D01*
X15646400Y8163560D01*
X15651480Y8145780D01*
X15651480Y8145780D01*
G36*
X22908260Y7439660D02*
X22908260Y7388860D01*
X22905720Y7355840D01*
X22903180Y7335520D01*
X22900640Y7325360D01*
X22893020Y7322820D01*
X22890480Y7322820D01*
X22880320Y7325360D01*
X22849840Y7330440D01*
X22801580Y7340600D01*
X22735540Y7353300D01*
X22654260Y7368540D01*
X22557740Y7388860D01*
X22445980Y7411720D01*
X22318980Y7437120D01*
X22179280Y7465060D01*
X22026880Y7495540D01*
X21864320Y7528560D01*
X21689060Y7561580D01*
X21506180Y7599680D01*
X21313140Y7637780D01*
X21109940Y7678420D01*
X20901660Y7721600D01*
X20683220Y7764780D01*
X20459700Y7810500D01*
X20233640Y7856220D01*
X20157440Y7871460D01*
X19928840Y7917180D01*
X19702780Y7962900D01*
X19484340Y8008620D01*
X19270980Y8049260D01*
X19065240Y8092440D01*
X18869660Y8130540D01*
X18681700Y8168640D01*
X18503900Y8206740D01*
X18333720Y8239760D01*
X18178780Y8270240D01*
X18034000Y8300720D01*
X17901920Y8326120D01*
X17785080Y8351520D01*
X17680940Y8371840D01*
X17594580Y8389620D01*
X17520920Y8402320D01*
X17467580Y8415020D01*
X17429480Y8422640D01*
X17411700Y8425180D01*
X17409160Y8425180D01*
X17388840Y8430260D01*
X17381220Y8440420D01*
X17381220Y8458200D01*
X17383760Y8473440D01*
X17386300Y8501380D01*
X17388840Y8542020D01*
X17388840Y8592820D01*
X17388840Y8625840D01*
X17388840Y8737600D01*
X19895820Y9090660D01*
X20116800Y9121140D01*
X20335240Y9151620D01*
X20546060Y9182100D01*
X20749260Y9210040D01*
X20944840Y9237980D01*
X21132800Y9263380D01*
X21313140Y9288780D01*
X21480780Y9314180D01*
X21638260Y9334500D01*
X21785580Y9357360D01*
X21917660Y9375140D01*
X22037040Y9392920D01*
X22143720Y9408160D01*
X22232620Y9420860D01*
X22306280Y9431020D01*
X22364700Y9438640D01*
X22402800Y9443720D01*
X22425660Y9446260D01*
X22428200Y9448800D01*
X22440900Y9448800D01*
X22448520Y9443720D01*
X22458680Y9431020D01*
X22471380Y9408160D01*
X22489160Y9370060D01*
X22496780Y9349740D01*
X22593300Y9098280D01*
X22679660Y8834120D01*
X22755860Y8562340D01*
X22814280Y8285480D01*
X22857460Y8034020D01*
X22870160Y7932420D01*
X22882860Y7825740D01*
X22893020Y7719060D01*
X22900640Y7614920D01*
X22905720Y7520940D01*
X22908260Y7442200D01*
X22908260Y7439660D01*
X22908260Y7439660D01*
X22908260Y7439660D01*
G37*
X22908260Y7439660D02*
X22908260Y7388860D01*
X22905720Y7355840D01*
X22903180Y7335520D01*
X22900640Y7325360D01*
X22893020Y7322820D01*
X22890480Y7322820D01*
X22880320Y7325360D01*
X22849840Y7330440D01*
X22801580Y7340600D01*
X22735540Y7353300D01*
X22654260Y7368540D01*
X22557740Y7388860D01*
X22445980Y7411720D01*
X22318980Y7437120D01*
X22179280Y7465060D01*
X22026880Y7495540D01*
X21864320Y7528560D01*
X21689060Y7561580D01*
X21506180Y7599680D01*
X21313140Y7637780D01*
X21109940Y7678420D01*
X20901660Y7721600D01*
X20683220Y7764780D01*
X20459700Y7810500D01*
X20233640Y7856220D01*
X20157440Y7871460D01*
X19928840Y7917180D01*
X19702780Y7962900D01*
X19484340Y8008620D01*
X19270980Y8049260D01*
X19065240Y8092440D01*
X18869660Y8130540D01*
X18681700Y8168640D01*
X18503900Y8206740D01*
X18333720Y8239760D01*
X18178780Y8270240D01*
X18034000Y8300720D01*
X17901920Y8326120D01*
X17785080Y8351520D01*
X17680940Y8371840D01*
X17594580Y8389620D01*
X17520920Y8402320D01*
X17467580Y8415020D01*
X17429480Y8422640D01*
X17411700Y8425180D01*
X17409160Y8425180D01*
X17388840Y8430260D01*
X17381220Y8440420D01*
X17381220Y8458200D01*
X17383760Y8473440D01*
X17386300Y8501380D01*
X17388840Y8542020D01*
X17388840Y8592820D01*
X17388840Y8625840D01*
X17388840Y8737600D01*
X19895820Y9090660D01*
X20116800Y9121140D01*
X20335240Y9151620D01*
X20546060Y9182100D01*
X20749260Y9210040D01*
X20944840Y9237980D01*
X21132800Y9263380D01*
X21313140Y9288780D01*
X21480780Y9314180D01*
X21638260Y9334500D01*
X21785580Y9357360D01*
X21917660Y9375140D01*
X22037040Y9392920D01*
X22143720Y9408160D01*
X22232620Y9420860D01*
X22306280Y9431020D01*
X22364700Y9438640D01*
X22402800Y9443720D01*
X22425660Y9446260D01*
X22428200Y9448800D01*
X22440900Y9448800D01*
X22448520Y9443720D01*
X22458680Y9431020D01*
X22471380Y9408160D01*
X22489160Y9370060D01*
X22496780Y9349740D01*
X22593300Y9098280D01*
X22679660Y8834120D01*
X22755860Y8562340D01*
X22814280Y8285480D01*
X22857460Y8034020D01*
X22870160Y7932420D01*
X22882860Y7825740D01*
X22893020Y7719060D01*
X22900640Y7614920D01*
X22905720Y7520940D01*
X22908260Y7442200D01*
X22908260Y7439660D01*
X22908260Y7439660D01*
G36*
X16984980Y8628380D02*
X16974820Y8534400D01*
X16949420Y8442960D01*
X16908780Y8356600D01*
X16852900Y8277860D01*
X16784320Y8211820D01*
X16705580Y8155940D01*
X16616680Y8115300D01*
X16588740Y8107680D01*
X16527780Y8094980D01*
X16464280Y8087360D01*
X16410940Y8087360D01*
X16403320Y8087360D01*
X16296640Y8107680D01*
X16200120Y8145780D01*
X16113760Y8199120D01*
X16040100Y8265160D01*
X15979140Y8346440D01*
X15933420Y8440420D01*
X15925800Y8458200D01*
X15915640Y8496300D01*
X15908020Y8531860D01*
X15905480Y8572500D01*
X15902940Y8625840D01*
X15902940Y8636000D01*
X15905480Y8689340D01*
X15908020Y8729980D01*
X15913100Y8760460D01*
X15923260Y8793480D01*
X15930880Y8813800D01*
X15979140Y8910320D01*
X16040100Y8994140D01*
X16113760Y9060180D01*
X16197580Y9113520D01*
X16291560Y9149080D01*
X16390620Y9166860D01*
X16482060Y9169400D01*
X16581120Y9151620D01*
X16675100Y9118600D01*
X16758920Y9067800D01*
X16832580Y9004300D01*
X16893540Y8925560D01*
X16941800Y8836660D01*
X16972280Y8735060D01*
X16974820Y8724900D01*
X16984980Y8628380D01*
X16984980Y8628380D01*
X16984980Y8628380D01*
G37*
X16984980Y8628380D02*
X16974820Y8534400D01*
X16949420Y8442960D01*
X16908780Y8356600D01*
X16852900Y8277860D01*
X16784320Y8211820D01*
X16705580Y8155940D01*
X16616680Y8115300D01*
X16588740Y8107680D01*
X16527780Y8094980D01*
X16464280Y8087360D01*
X16410940Y8087360D01*
X16403320Y8087360D01*
X16296640Y8107680D01*
X16200120Y8145780D01*
X16113760Y8199120D01*
X16040100Y8265160D01*
X15979140Y8346440D01*
X15933420Y8440420D01*
X15925800Y8458200D01*
X15915640Y8496300D01*
X15908020Y8531860D01*
X15905480Y8572500D01*
X15902940Y8625840D01*
X15902940Y8636000D01*
X15905480Y8689340D01*
X15908020Y8729980D01*
X15913100Y8760460D01*
X15923260Y8793480D01*
X15930880Y8813800D01*
X15979140Y8910320D01*
X16040100Y8994140D01*
X16113760Y9060180D01*
X16197580Y9113520D01*
X16291560Y9149080D01*
X16390620Y9166860D01*
X16482060Y9169400D01*
X16581120Y9151620D01*
X16675100Y9118600D01*
X16758920Y9067800D01*
X16832580Y9004300D01*
X16893540Y8925560D01*
X16941800Y8836660D01*
X16972280Y8735060D01*
X16974820Y8724900D01*
X16984980Y8628380D01*
X16984980Y8628380D01*
G36*
X15735300Y9225280D02*
X15732760Y9217660D01*
X15720060Y9194800D01*
X15699740Y9164320D01*
X15689580Y9146540D01*
X15664180Y9105900D01*
X15638780Y9060180D01*
X15621000Y9024620D01*
X15618460Y9017000D01*
X15603220Y8986520D01*
X15590520Y8968740D01*
X15582900Y8961120D01*
X15572740Y8966200D01*
X15544800Y8976360D01*
X15501620Y8991600D01*
X15440660Y9011920D01*
X15367000Y9039860D01*
X15280640Y9070340D01*
X15184120Y9105900D01*
X15077440Y9144000D01*
X14960600Y9187180D01*
X14836140Y9232900D01*
X14706600Y9281160D01*
X14577060Y9326880D01*
X14442440Y9375140D01*
X14312900Y9423400D01*
X14190980Y9469120D01*
X14074140Y9509760D01*
X13967460Y9550400D01*
X13873480Y9583420D01*
X13787120Y9616440D01*
X13716000Y9641840D01*
X13657580Y9662160D01*
X13614400Y9677400D01*
X13589000Y9687560D01*
X13581380Y9690100D01*
X13581380Y9700260D01*
X13591540Y9720580D01*
X13609320Y9753600D01*
X13632180Y9794240D01*
X13655040Y9839960D01*
X13680440Y9885680D01*
X13705840Y9928860D01*
X13726160Y9959340D01*
X13756640Y10007600D01*
X13792200Y10063480D01*
X13832840Y10124440D01*
X13876020Y10187940D01*
X13921740Y10251440D01*
X13964920Y10312400D01*
X14008100Y10370820D01*
X14046200Y10424160D01*
X14081760Y10467340D01*
X14107160Y10502900D01*
X14127480Y10523220D01*
X14135100Y10530840D01*
X14145260Y10525760D01*
X14168120Y10507980D01*
X14201140Y10477500D01*
X14249400Y10439400D01*
X14307820Y10393680D01*
X14373860Y10340340D01*
X14450060Y10279380D01*
X14531340Y10213340D01*
X14617700Y10142220D01*
X14709140Y10068560D01*
X14803120Y9989820D01*
X14899640Y9913620D01*
X14996160Y9832340D01*
X15090140Y9756140D01*
X15184120Y9679940D01*
X15275560Y9603740D01*
X15361920Y9535160D01*
X15440660Y9469120D01*
X15514320Y9408160D01*
X15580360Y9354820D01*
X15633700Y9311640D01*
X15679420Y9273540D01*
X15712440Y9245600D01*
X15730220Y9230360D01*
X15735300Y9225280D01*
X15735300Y9225280D01*
X15735300Y9225280D01*
G37*
X15735300Y9225280D02*
X15732760Y9217660D01*
X15720060Y9194800D01*
X15699740Y9164320D01*
X15689580Y9146540D01*
X15664180Y9105900D01*
X15638780Y9060180D01*
X15621000Y9024620D01*
X15618460Y9017000D01*
X15603220Y8986520D01*
X15590520Y8968740D01*
X15582900Y8961120D01*
X15572740Y8966200D01*
X15544800Y8976360D01*
X15501620Y8991600D01*
X15440660Y9011920D01*
X15367000Y9039860D01*
X15280640Y9070340D01*
X15184120Y9105900D01*
X15077440Y9144000D01*
X14960600Y9187180D01*
X14836140Y9232900D01*
X14706600Y9281160D01*
X14577060Y9326880D01*
X14442440Y9375140D01*
X14312900Y9423400D01*
X14190980Y9469120D01*
X14074140Y9509760D01*
X13967460Y9550400D01*
X13873480Y9583420D01*
X13787120Y9616440D01*
X13716000Y9641840D01*
X13657580Y9662160D01*
X13614400Y9677400D01*
X13589000Y9687560D01*
X13581380Y9690100D01*
X13581380Y9700260D01*
X13591540Y9720580D01*
X13609320Y9753600D01*
X13632180Y9794240D01*
X13655040Y9839960D01*
X13680440Y9885680D01*
X13705840Y9928860D01*
X13726160Y9959340D01*
X13756640Y10007600D01*
X13792200Y10063480D01*
X13832840Y10124440D01*
X13876020Y10187940D01*
X13921740Y10251440D01*
X13964920Y10312400D01*
X14008100Y10370820D01*
X14046200Y10424160D01*
X14081760Y10467340D01*
X14107160Y10502900D01*
X14127480Y10523220D01*
X14135100Y10530840D01*
X14145260Y10525760D01*
X14168120Y10507980D01*
X14201140Y10477500D01*
X14249400Y10439400D01*
X14307820Y10393680D01*
X14373860Y10340340D01*
X14450060Y10279380D01*
X14531340Y10213340D01*
X14617700Y10142220D01*
X14709140Y10068560D01*
X14803120Y9989820D01*
X14899640Y9913620D01*
X14996160Y9832340D01*
X15090140Y9756140D01*
X15184120Y9679940D01*
X15275560Y9603740D01*
X15361920Y9535160D01*
X15440660Y9469120D01*
X15514320Y9408160D01*
X15580360Y9354820D01*
X15633700Y9311640D01*
X15679420Y9273540D01*
X15712440Y9245600D01*
X15730220Y9230360D01*
X15735300Y9225280D01*
X15735300Y9225280D01*
G36*
X20507960Y11625580D02*
X18867120Y10406380D01*
X18707100Y10287000D01*
X18549620Y10170160D01*
X18397220Y10055860D01*
X18252440Y9949180D01*
X18112740Y9845040D01*
X17980660Y9745980D01*
X17856200Y9654540D01*
X17739360Y9568180D01*
X17635220Y9489440D01*
X17538700Y9418320D01*
X17454880Y9357360D01*
X17381220Y9301480D01*
X17322800Y9258300D01*
X17274540Y9222740D01*
X17241520Y9199880D01*
X17223740Y9187180D01*
X17221200Y9184640D01*
X17211040Y9189720D01*
X17190720Y9207500D01*
X17162780Y9235440D01*
X17137380Y9260840D01*
X17104360Y9293860D01*
X17068800Y9326880D01*
X17043400Y9352280D01*
X17030700Y9362440D01*
X16997680Y9385300D01*
X17942560Y10789920D01*
X18044160Y10942320D01*
X18143220Y11089640D01*
X18239740Y11231880D01*
X18331180Y11366500D01*
X18417540Y11496040D01*
X18498820Y11617960D01*
X18575020Y11729720D01*
X18643600Y11831320D01*
X18707100Y11925300D01*
X18760440Y12006580D01*
X18806160Y12075160D01*
X18844260Y12131040D01*
X18872200Y12171680D01*
X18889980Y12199620D01*
X18897600Y12209780D01*
X18897600Y12212320D01*
X18902680Y12217400D01*
X18915380Y12219940D01*
X18935700Y12217400D01*
X18966180Y12212320D01*
X19014440Y12204700D01*
X19024600Y12202160D01*
X19164300Y12171680D01*
X19314160Y12131040D01*
X19474180Y12080240D01*
X19636740Y12026900D01*
X19801840Y11963400D01*
X19913600Y11920220D01*
X19959320Y11899900D01*
X20017740Y11874500D01*
X20083780Y11844020D01*
X20152360Y11811000D01*
X20223480Y11775440D01*
X20292060Y11742420D01*
X20355560Y11711940D01*
X20408900Y11684000D01*
X20449540Y11661140D01*
X20469860Y11648440D01*
X20507960Y11625580D01*
X20507960Y11625580D01*
X20507960Y11625580D01*
G37*
X20507960Y11625580D02*
X18867120Y10406380D01*
X18707100Y10287000D01*
X18549620Y10170160D01*
X18397220Y10055860D01*
X18252440Y9949180D01*
X18112740Y9845040D01*
X17980660Y9745980D01*
X17856200Y9654540D01*
X17739360Y9568180D01*
X17635220Y9489440D01*
X17538700Y9418320D01*
X17454880Y9357360D01*
X17381220Y9301480D01*
X17322800Y9258300D01*
X17274540Y9222740D01*
X17241520Y9199880D01*
X17223740Y9187180D01*
X17221200Y9184640D01*
X17211040Y9189720D01*
X17190720Y9207500D01*
X17162780Y9235440D01*
X17137380Y9260840D01*
X17104360Y9293860D01*
X17068800Y9326880D01*
X17043400Y9352280D01*
X17030700Y9362440D01*
X16997680Y9385300D01*
X17942560Y10789920D01*
X18044160Y10942320D01*
X18143220Y11089640D01*
X18239740Y11231880D01*
X18331180Y11366500D01*
X18417540Y11496040D01*
X18498820Y11617960D01*
X18575020Y11729720D01*
X18643600Y11831320D01*
X18707100Y11925300D01*
X18760440Y12006580D01*
X18806160Y12075160D01*
X18844260Y12131040D01*
X18872200Y12171680D01*
X18889980Y12199620D01*
X18897600Y12209780D01*
X18897600Y12212320D01*
X18902680Y12217400D01*
X18915380Y12219940D01*
X18935700Y12217400D01*
X18966180Y12212320D01*
X19014440Y12204700D01*
X19024600Y12202160D01*
X19164300Y12171680D01*
X19314160Y12131040D01*
X19474180Y12080240D01*
X19636740Y12026900D01*
X19801840Y11963400D01*
X19913600Y11920220D01*
X19959320Y11899900D01*
X20017740Y11874500D01*
X20083780Y11844020D01*
X20152360Y11811000D01*
X20223480Y11775440D01*
X20292060Y11742420D01*
X20355560Y11711940D01*
X20408900Y11684000D01*
X20449540Y11661140D01*
X20469860Y11648440D01*
X20507960Y11625580D01*
X20507960Y11625580D01*
G36*
X16548100Y12042140D02*
X16548100Y12016740D01*
X16548100Y11973560D01*
X16545560Y11912600D01*
X16545560Y11836400D01*
X16543020Y11747500D01*
X16540480Y11645900D01*
X16537940Y11534140D01*
X16535400Y11414760D01*
X16532860Y11287760D01*
X16530320Y11158220D01*
X16525240Y11023600D01*
X16522700Y10886440D01*
X16520160Y10749280D01*
X16517620Y10612120D01*
X16512540Y10480040D01*
X16510000Y10353040D01*
X16507460Y10231120D01*
X16504920Y10116820D01*
X16502380Y10012680D01*
X16499840Y9921240D01*
X16497300Y9842500D01*
X16494760Y9776460D01*
X16492220Y9728200D01*
X16492220Y9697720D01*
X16492220Y9695180D01*
X16487140Y9563100D01*
X16410940Y9555480D01*
X16360140Y9550400D01*
X16304260Y9540240D01*
X16263620Y9532620D01*
X16228060Y9522460D01*
X16200120Y9517380D01*
X16187420Y9517380D01*
X16187420Y9517380D01*
X16184880Y9527540D01*
X16177260Y9555480D01*
X16162020Y9598660D01*
X16144240Y9659620D01*
X16118840Y9733280D01*
X16090900Y9819640D01*
X16060420Y9916160D01*
X16024860Y10025380D01*
X15986760Y10144760D01*
X15946120Y10271760D01*
X15902940Y10403840D01*
X15857220Y10543540D01*
X15841980Y10586720D01*
X15796260Y10726420D01*
X15753080Y10863580D01*
X15712440Y10993120D01*
X15671800Y11112500D01*
X15636240Y11226800D01*
X15603220Y11328400D01*
X15575280Y11419840D01*
X15549880Y11496040D01*
X15529560Y11562080D01*
X15514320Y11610340D01*
X15504160Y11643360D01*
X15499080Y11661140D01*
X15499080Y11661140D01*
X15506700Y11668760D01*
X15532100Y11681460D01*
X15570200Y11701780D01*
X15618460Y11727180D01*
X15676880Y11760200D01*
X15745460Y11793220D01*
X15786100Y11813540D01*
X15948660Y11892280D01*
X16098520Y11960860D01*
X16235680Y12019280D01*
X16357600Y12067540D01*
X16464280Y12103100D01*
X16464280Y12103100D01*
X16548100Y12128500D01*
X16548100Y12042140D01*
X16548100Y12042140D01*
X16548100Y12042140D01*
G37*
X16548100Y12042140D02*
X16548100Y12016740D01*
X16548100Y11973560D01*
X16545560Y11912600D01*
X16545560Y11836400D01*
X16543020Y11747500D01*
X16540480Y11645900D01*
X16537940Y11534140D01*
X16535400Y11414760D01*
X16532860Y11287760D01*
X16530320Y11158220D01*
X16525240Y11023600D01*
X16522700Y10886440D01*
X16520160Y10749280D01*
X16517620Y10612120D01*
X16512540Y10480040D01*
X16510000Y10353040D01*
X16507460Y10231120D01*
X16504920Y10116820D01*
X16502380Y10012680D01*
X16499840Y9921240D01*
X16497300Y9842500D01*
X16494760Y9776460D01*
X16492220Y9728200D01*
X16492220Y9697720D01*
X16492220Y9695180D01*
X16487140Y9563100D01*
X16410940Y9555480D01*
X16360140Y9550400D01*
X16304260Y9540240D01*
X16263620Y9532620D01*
X16228060Y9522460D01*
X16200120Y9517380D01*
X16187420Y9517380D01*
X16187420Y9517380D01*
X16184880Y9527540D01*
X16177260Y9555480D01*
X16162020Y9598660D01*
X16144240Y9659620D01*
X16118840Y9733280D01*
X16090900Y9819640D01*
X16060420Y9916160D01*
X16024860Y10025380D01*
X15986760Y10144760D01*
X15946120Y10271760D01*
X15902940Y10403840D01*
X15857220Y10543540D01*
X15841980Y10586720D01*
X15796260Y10726420D01*
X15753080Y10863580D01*
X15712440Y10993120D01*
X15671800Y11112500D01*
X15636240Y11226800D01*
X15603220Y11328400D01*
X15575280Y11419840D01*
X15549880Y11496040D01*
X15529560Y11562080D01*
X15514320Y11610340D01*
X15504160Y11643360D01*
X15499080Y11661140D01*
X15499080Y11661140D01*
X15506700Y11668760D01*
X15532100Y11681460D01*
X15570200Y11701780D01*
X15618460Y11727180D01*
X15676880Y11760200D01*
X15745460Y11793220D01*
X15786100Y11813540D01*
X15948660Y11892280D01*
X16098520Y11960860D01*
X16235680Y12019280D01*
X16357600Y12067540D01*
X16464280Y12103100D01*
X16464280Y12103100D01*
X16548100Y12128500D01*
X16548100Y12042140D01*
X16548100Y12042140D01*
D15*
X70485000Y39370000D02*
X70485000Y52070000D01*
X70485000Y52070000D02*
X67945000Y52070000D01*
X67945000Y52070000D02*
X67945000Y39370000D01*
X67945000Y39370000D02*
X70485000Y39370000D01*
D10*
X67945000Y52070000D02*
X70485000Y52070000D01*
X67665000Y36550000D02*
X67665000Y38100000D01*
X67945000Y39370000D02*
X70485000Y39370000D01*
X70765000Y38100000D02*
X70765000Y36550000D01*
X70765000Y36550000D02*
X67665000Y36550000D01*
D11*
X62547500Y4762500D02*
X58737500Y8572500D01*
X58737500Y8572500D02*
X57467500Y8572500D01*
X57467500Y8572500D02*
X56197500Y7302500D01*
X56197500Y7302500D02*
X56197500Y4762500D01*
X56197500Y4762500D02*
X58737500Y2222500D01*
X58737500Y2222500D02*
X61277500Y2222500D01*
X61277500Y2222500D02*
X62547500Y3492500D01*
X62547500Y3492500D02*
X62547500Y4762500D01*
X62547500Y17462500D02*
X58737500Y21272500D01*
X58737500Y21272500D02*
X57467500Y21272500D01*
X57467500Y21272500D02*
X56197500Y20002500D01*
X56197500Y20002500D02*
X56197500Y17462500D01*
X56197500Y17462500D02*
X58737500Y14922500D01*
X58737500Y14922500D02*
X61277500Y14922500D01*
X61277500Y14922500D02*
X62547500Y16192500D01*
X62547500Y16192500D02*
X62547500Y17462500D01*
X62928500Y29146500D02*
X59118500Y32956500D01*
X59118500Y32956500D02*
X57848500Y32956500D01*
X57848500Y32956500D02*
X56578500Y31686500D01*
X56578500Y31686500D02*
X56578500Y29146500D01*
X56578500Y29146500D02*
X59118500Y26606500D01*
X59118500Y26606500D02*
X61658500Y26606500D01*
X61658500Y26606500D02*
X62928500Y27876500D01*
X62928500Y27876500D02*
X62928500Y29146500D01*
X28702000Y89154000D02*
X32512000Y92964000D01*
X32512000Y92964000D02*
X32512000Y94234000D01*
X32512000Y94234000D02*
X31242000Y95504000D01*
X31242000Y95504000D02*
X28702000Y95504000D01*
X28702000Y95504000D02*
X26162000Y92964000D01*
X26162000Y92964000D02*
X26162000Y90424000D01*
X26162000Y90424000D02*
X27432000Y89154000D01*
X27432000Y89154000D02*
X28702000Y89154000D01*
D13*
X27178000Y69596000D02*
X31877000Y69596000D01*
X27178000Y72136000D02*
X31877000Y72136000D01*
D11*
X27178000Y69596000D02*
X27178000Y72136000D01*
X31877000Y72136000D02*
X31877000Y69596000D01*
X23349857Y74621571D02*
X23349857Y73387857D01*
X23422429Y73242714D01*
X23495000Y73170143D01*
X23640143Y73097571D01*
X23930429Y73097571D01*
X24075571Y73170143D01*
X24148143Y73242714D01*
X24220714Y73387857D01*
X24220714Y74621571D01*
X25744714Y73097571D02*
X24873857Y73097571D01*
X25309285Y73097571D02*
X25309285Y74621571D01*
X25164142Y74403857D01*
X25019000Y74258714D01*
X24873857Y74186143D01*
X26379714Y76018571D02*
X26379714Y77542571D01*
X26742571Y77542571D01*
X26960286Y77470000D01*
X27105428Y77324857D01*
X27178000Y77179714D01*
X27250571Y76889429D01*
X27250571Y76671714D01*
X27178000Y76381429D01*
X27105428Y76236286D01*
X26960286Y76091143D01*
X26742571Y76018571D01*
X26379714Y76018571D01*
X28411714Y76816857D02*
X27903714Y76816857D01*
X27903714Y76018571D02*
X27903714Y77542571D01*
X28629428Y77542571D01*
X29210000Y76018571D02*
X29210000Y77542571D01*
X29790572Y77542571D01*
X29935714Y77470000D01*
X30008286Y77397429D01*
X30080857Y77252286D01*
X30080857Y77034571D01*
X30008286Y76889429D01*
X29935714Y76816857D01*
X29790572Y76744286D01*
X29210000Y76744286D01*
X30951714Y76018571D02*
X30806572Y76091143D01*
X30734000Y76236286D01*
X30734000Y77542571D01*
X32185429Y76018571D02*
X32185429Y76816857D01*
X32112858Y76962000D01*
X31967715Y77034571D01*
X31677429Y77034571D01*
X31532286Y76962000D01*
X32185429Y76091143D02*
X32040286Y76018571D01*
X31677429Y76018571D01*
X31532286Y76091143D01*
X31459715Y76236286D01*
X31459715Y76381429D01*
X31532286Y76526571D01*
X31677429Y76599143D01*
X32040286Y76599143D01*
X32185429Y76671714D01*
X32766000Y77034571D02*
X33128857Y76018571D01*
X33491715Y77034571D02*
X33128857Y76018571D01*
X32983715Y75655714D01*
X32911143Y75583143D01*
X32766000Y75510571D01*
X34652858Y76091143D02*
X34507715Y76018571D01*
X34217429Y76018571D01*
X34072286Y76091143D01*
X33999715Y76236286D01*
X33999715Y76816857D01*
X34072286Y76962000D01*
X34217429Y77034571D01*
X34507715Y77034571D01*
X34652858Y76962000D01*
X34725429Y76816857D01*
X34725429Y76671714D01*
X33999715Y76526571D01*
X35378572Y76018571D02*
X35378572Y77034571D01*
X35378572Y76744286D02*
X35451144Y76889429D01*
X35523715Y76962000D01*
X35668858Y77034571D01*
X35814001Y77034571D01*
D19*
X22479000Y20023667D02*
X22479000Y18753667D01*
X22424572Y18499667D01*
X22315715Y18330333D01*
X22152429Y18245667D01*
X22043572Y18245667D01*
X23622000Y18245667D02*
X22968857Y18245667D01*
X23295429Y18245667D02*
X23295429Y20023667D01*
X23186572Y19769667D01*
X23077714Y19600333D01*
X22968857Y19515667D01*
D11*
X31665333Y25865665D02*
X31665333Y26712331D01*
X32173333Y25696331D02*
X30395333Y26288998D01*
X32173333Y26881665D01*
X32173333Y28490331D02*
X31326667Y27897665D01*
X32173333Y27474331D02*
X30395333Y27474331D01*
X30395333Y28151665D01*
X30480000Y28320998D01*
X30564667Y28405665D01*
X30734000Y28490331D01*
X30988000Y28490331D01*
X31157333Y28405665D01*
X31242000Y28320998D01*
X31326667Y28151665D01*
X31326667Y27474331D01*
X32173333Y29252331D02*
X30395333Y29252331D01*
X30395333Y29675665D01*
X30480000Y29929665D01*
X30649333Y30098998D01*
X30818667Y30183665D01*
X31157333Y30268331D01*
X31411333Y30268331D01*
X31750000Y30183665D01*
X31919333Y30098998D01*
X32088667Y29929665D01*
X32173333Y29675665D01*
X32173333Y29252331D01*
X30395333Y31030331D02*
X31834667Y31030331D01*
X32004000Y31114998D01*
X32088667Y31199665D01*
X32173333Y31368998D01*
X32173333Y31707665D01*
X32088667Y31876998D01*
X32004000Y31961665D01*
X31834667Y32046331D01*
X30395333Y32046331D01*
X32173333Y32892998D02*
X30395333Y32892998D01*
X32173333Y33739665D02*
X30395333Y33739665D01*
X32173333Y34755665D01*
X30395333Y34755665D01*
X30395333Y35940999D02*
X30395333Y36279666D01*
X30480000Y36448999D01*
X30649333Y36618332D01*
X30988000Y36702999D01*
X31580667Y36702999D01*
X31919333Y36618332D01*
X32088667Y36448999D01*
X32173333Y36279666D01*
X32173333Y35940999D01*
X32088667Y35771666D01*
X31919333Y35602332D01*
X31580667Y35517666D01*
X30988000Y35517666D01*
X30649333Y35602332D01*
X30480000Y35771666D01*
X30395333Y35940999D01*
X32342667Y37041666D02*
X32342667Y38396333D01*
X32173333Y38819666D02*
X30395333Y38819666D01*
X32173333Y39835666D01*
X30395333Y39835666D01*
X31665333Y40597667D02*
X31665333Y41444333D01*
X32173333Y40428333D02*
X30395333Y41021000D01*
X32173333Y41613667D01*
X32173333Y42206333D02*
X30395333Y42206333D01*
X32173333Y43222333D01*
X30395333Y43222333D01*
X30395333Y44407667D02*
X30395333Y44746334D01*
X30480000Y44915667D01*
X30649333Y45085000D01*
X30988000Y45169667D01*
X31580667Y45169667D01*
X31919333Y45085000D01*
X32088667Y44915667D01*
X32173333Y44746334D01*
X32173333Y44407667D01*
X32088667Y44238334D01*
X31919333Y44069000D01*
X31580667Y43984334D01*
X30988000Y43984334D01*
X30649333Y44069000D01*
X30480000Y44238334D01*
X30395333Y44407667D01*
X32342667Y45508334D02*
X32342667Y46863001D01*
X32173333Y47286334D02*
X30395333Y47286334D01*
X31242000Y47286334D02*
X31242000Y48302334D01*
X32173333Y48302334D02*
X30395333Y48302334D01*
X31242000Y49149001D02*
X31242000Y49741668D01*
X32173333Y49995668D02*
X32173333Y49149001D01*
X30395333Y49149001D01*
X30395333Y49995668D01*
X31665333Y50673002D02*
X31665333Y51519668D01*
X32173333Y50503668D02*
X30395333Y51096335D01*
X32173333Y51689002D01*
X32173333Y52281668D02*
X30395333Y52281668D01*
X30395333Y52705002D01*
X30480000Y52959002D01*
X30649333Y53128335D01*
X30818667Y53213002D01*
X31157333Y53297668D01*
X31411333Y53297668D01*
X31750000Y53213002D01*
X31919333Y53128335D01*
X32088667Y52959002D01*
X32173333Y52705002D01*
X32173333Y52281668D01*
X31242000Y54059668D02*
X31242000Y54652335D01*
X32173333Y54906335D02*
X32173333Y54059668D01*
X30395333Y54059668D01*
X30395333Y54906335D01*
X32173333Y56684335D02*
X31326667Y56091669D01*
X32173333Y55668335D02*
X30395333Y55668335D01*
X30395333Y56345669D01*
X30480000Y56515002D01*
X30564667Y56599669D01*
X30734000Y56684335D01*
X30988000Y56684335D01*
X31157333Y56599669D01*
X31242000Y56515002D01*
X31326667Y56345669D01*
X31326667Y55668335D01*
X25635857Y61159571D02*
X25635857Y59925857D01*
X25708429Y59780714D01*
X25781000Y59708143D01*
X25926143Y59635571D01*
X26216429Y59635571D01*
X26361571Y59708143D01*
X26434143Y59780714D01*
X26506714Y59925857D01*
X26506714Y61159571D01*
X27159857Y59708143D02*
X27377571Y59635571D01*
X27740428Y59635571D01*
X27885571Y59708143D01*
X27958142Y59780714D01*
X28030714Y59925857D01*
X28030714Y60071000D01*
X27958142Y60216143D01*
X27885571Y60288714D01*
X27740428Y60361286D01*
X27450142Y60433857D01*
X27305000Y60506429D01*
X27232428Y60579000D01*
X27159857Y60724143D01*
X27159857Y60869286D01*
X27232428Y61014429D01*
X27305000Y61087000D01*
X27450142Y61159571D01*
X27813000Y61159571D01*
X28030714Y61087000D01*
X29191857Y60433857D02*
X29409571Y60361286D01*
X29482143Y60288714D01*
X29554714Y60143571D01*
X29554714Y59925857D01*
X29482143Y59780714D01*
X29409571Y59708143D01*
X29264429Y59635571D01*
X28683857Y59635571D01*
X28683857Y61159571D01*
X29191857Y61159571D01*
X29337000Y61087000D01*
X29409571Y61014429D01*
X29482143Y60869286D01*
X29482143Y60724143D01*
X29409571Y60579000D01*
X29337000Y60506429D01*
X29191857Y60433857D01*
X28683857Y60433857D01*
D10*
X44759714Y72953619D02*
X44759714Y73953619D01*
X45140667Y73953619D01*
X45235905Y73906000D01*
X45283524Y73858381D01*
X45331143Y73763143D01*
X45331143Y73620286D01*
X45283524Y73525048D01*
X45235905Y73477429D01*
X45140667Y73429810D01*
X44759714Y73429810D01*
X46283524Y72953619D02*
X45712095Y72953619D01*
X45997809Y72953619D02*
X45997809Y73953619D01*
X45902571Y73810762D01*
X45807333Y73715524D01*
X45712095Y73667905D01*
X47188286Y73953619D02*
X46712095Y73953619D01*
X46664476Y73477429D01*
X46712095Y73525048D01*
X46807333Y73572667D01*
X47045429Y73572667D01*
X47140667Y73525048D01*
X47188286Y73477429D01*
X47235905Y73382190D01*
X47235905Y73144095D01*
X47188286Y73048857D01*
X47140667Y73001238D01*
X47045429Y72953619D01*
X46807333Y72953619D01*
X46712095Y73001238D01*
X46664476Y73048857D01*
D11*
X45484143Y35378571D02*
X45484143Y36902571D01*
X45847000Y36902571D01*
X46064715Y36830000D01*
X46209857Y36684857D01*
X46282429Y36539714D01*
X46355000Y36249429D01*
X46355000Y36031714D01*
X46282429Y35741429D01*
X46209857Y35596286D01*
X46064715Y35451143D01*
X45847000Y35378571D01*
X45484143Y35378571D01*
X47806429Y35378571D02*
X46935572Y35378571D01*
X47371000Y35378571D02*
X47371000Y36902571D01*
X47225857Y36684857D01*
X47080715Y36539714D01*
X46935572Y36467143D01*
D10*
X41854429Y35052048D02*
X41854429Y35813953D01*
X42235381Y35433001D02*
X41473476Y35433001D01*
D16*
X13540619Y89420096D02*
X12524619Y89420096D01*
X12524619Y89662001D01*
X12573000Y89807143D01*
X12669762Y89903905D01*
X12766524Y89952286D01*
X12960048Y90000667D01*
X13105190Y90000667D01*
X13298714Y89952286D01*
X13395476Y89903905D01*
X13492238Y89807143D01*
X13540619Y89662001D01*
X13540619Y89420096D01*
X12621381Y90387715D02*
X12573000Y90436096D01*
X12524619Y90532858D01*
X12524619Y90774762D01*
X12573000Y90871524D01*
X12621381Y90919905D01*
X12718143Y90968286D01*
X12814905Y90968286D01*
X12960048Y90919905D01*
X13540619Y90339334D01*
X13540619Y90968286D01*
X18620619Y73545096D02*
X17604619Y73545096D01*
X17604619Y73787001D01*
X17653000Y73932143D01*
X17749762Y74028905D01*
X17846524Y74077286D01*
X18040048Y74125667D01*
X18185190Y74125667D01*
X18378714Y74077286D01*
X18475476Y74028905D01*
X18572238Y73932143D01*
X18620619Y73787001D01*
X18620619Y73545096D01*
X17604619Y74464334D02*
X17604619Y75093286D01*
X17991667Y74754620D01*
X17991667Y74899762D01*
X18040048Y74996524D01*
X18088429Y75044905D01*
X18185190Y75093286D01*
X18427095Y75093286D01*
X18523857Y75044905D01*
X18572238Y74996524D01*
X18620619Y74899762D01*
X18620619Y74609477D01*
X18572238Y74512715D01*
X18523857Y74464334D01*
X25478619Y49669096D02*
X24462619Y49669096D01*
X24462619Y49911001D01*
X24511000Y50056143D01*
X24607762Y50152905D01*
X24704524Y50201286D01*
X24898048Y50249667D01*
X25043190Y50249667D01*
X25236714Y50201286D01*
X25333476Y50152905D01*
X25430238Y50056143D01*
X25478619Y49911001D01*
X25478619Y49669096D01*
X24801286Y51120524D02*
X25478619Y51120524D01*
X24414238Y50878620D02*
X25139952Y50636715D01*
X25139952Y51265667D01*
D11*
X10341429Y70249143D02*
X8817429Y70249143D01*
X8817429Y70829715D01*
X8890000Y70974857D01*
X8962571Y71047429D01*
X9107714Y71120000D01*
X9325429Y71120000D01*
X9470571Y71047429D01*
X9543143Y70974857D01*
X9615714Y70829715D01*
X9615714Y70249143D01*
X9325429Y72426286D02*
X10341429Y72426286D01*
X8744857Y72063429D02*
X9833429Y71700572D01*
X9833429Y72644000D01*
D17*
X1669143Y73018953D02*
X1669143Y73357619D01*
X2467429Y73502762D02*
X2467429Y73018953D01*
X943429Y73018953D01*
X943429Y73502762D01*
X943429Y73841429D02*
X2467429Y74518762D01*
X943429Y74518762D02*
X2467429Y73841429D01*
X943429Y74760667D02*
X943429Y75341238D01*
X2467429Y75050953D02*
X943429Y75050953D01*
X2612571Y75438000D02*
X2612571Y76212095D01*
X943429Y76308857D02*
X2467429Y76647524D01*
X943429Y76986190D01*
D20*
X1786000Y70358096D02*
X1738381Y70262858D01*
X1738381Y70120001D01*
X1786000Y69977143D01*
X1881238Y69881905D01*
X1976476Y69834286D01*
X2166952Y69786667D01*
X2309810Y69786667D01*
X2500286Y69834286D01*
X2595524Y69881905D01*
X2690762Y69977143D01*
X2738381Y70120001D01*
X2738381Y70215239D01*
X2690762Y70358096D01*
X2643143Y70405715D01*
X2309810Y70405715D01*
X2309810Y70215239D01*
X2738381Y70834286D02*
X1738381Y70834286D01*
X2738381Y71405715D01*
X1738381Y71405715D01*
X2738381Y71881905D02*
X1738381Y71881905D01*
X1738381Y72120000D01*
X1786000Y72262858D01*
X1881238Y72358096D01*
X1976476Y72405715D01*
X2166952Y72453334D01*
X2309810Y72453334D01*
X2500286Y72405715D01*
X2595524Y72358096D01*
X2690762Y72262858D01*
X2738381Y72120000D01*
X2738381Y71881905D01*
D11*
X2140857Y77524429D02*
X2140857Y78685572D01*
X2721429Y78105001D02*
X1560286Y78105001D01*
X64316429Y77234143D02*
X62792429Y77234143D01*
X62792429Y77814715D01*
X62865000Y77959857D01*
X62937571Y78032429D01*
X63082714Y78105000D01*
X63300429Y78105000D01*
X63445571Y78032429D01*
X63518143Y77959857D01*
X63590714Y77814715D01*
X63590714Y77234143D01*
X63445571Y78975857D02*
X63373000Y78830715D01*
X63300429Y78758143D01*
X63155286Y78685572D01*
X63082714Y78685572D01*
X62937571Y78758143D01*
X62865000Y78830715D01*
X62792429Y78975857D01*
X62792429Y79266143D01*
X62865000Y79411286D01*
X62937571Y79483857D01*
X63082714Y79556429D01*
X63155286Y79556429D01*
X63300429Y79483857D01*
X63373000Y79411286D01*
X63445571Y79266143D01*
X63445571Y78975857D01*
X63518143Y78830715D01*
X63590714Y78758143D01*
X63735857Y78685572D01*
X64026143Y78685572D01*
X64171286Y78758143D01*
X64243857Y78830715D01*
X64316429Y78975857D01*
X64316429Y79266143D01*
X64243857Y79411286D01*
X64171286Y79483857D01*
X64026143Y79556429D01*
X63735857Y79556429D01*
X63590714Y79483857D01*
X63518143Y79411286D01*
X63445571Y79266143D01*
D17*
X74276857Y79973715D02*
X74349429Y80118858D01*
X74349429Y80360762D01*
X74276857Y80457524D01*
X74204286Y80505905D01*
X74059143Y80554286D01*
X73914000Y80554286D01*
X73768857Y80505905D01*
X73696286Y80457524D01*
X73623714Y80360762D01*
X73551143Y80167239D01*
X73478571Y80070477D01*
X73406000Y80022096D01*
X73260857Y79973715D01*
X73115714Y79973715D01*
X72970571Y80022096D01*
X72898000Y80070477D01*
X72825429Y80167239D01*
X72825429Y80409143D01*
X72898000Y80554286D01*
X74349429Y80989715D02*
X72825429Y80989715D01*
X72825429Y81376762D01*
X72898000Y81473524D01*
X72970571Y81521905D01*
X73115714Y81570286D01*
X73333429Y81570286D01*
X73478571Y81521905D01*
X73551143Y81473524D01*
X73623714Y81376762D01*
X73623714Y80989715D01*
X74349429Y82005715D02*
X72825429Y82005715D01*
X74349429Y82586286D02*
X73478571Y82150858D01*
X72825429Y82586286D02*
X73696286Y82005715D01*
D20*
X72906000Y83947096D02*
X72858381Y83851858D01*
X72858381Y83709001D01*
X72906000Y83566143D01*
X73001238Y83470905D01*
X73096476Y83423286D01*
X73286952Y83375667D01*
X73429810Y83375667D01*
X73620286Y83423286D01*
X73715524Y83470905D01*
X73810762Y83566143D01*
X73858381Y83709001D01*
X73858381Y83804239D01*
X73810762Y83947096D01*
X73763143Y83994715D01*
X73429810Y83994715D01*
X73429810Y83804239D01*
X73858381Y84423286D02*
X72858381Y84423286D01*
X73858381Y84994715D01*
X72858381Y84994715D01*
X73858381Y85470905D02*
X72858381Y85470905D01*
X72858381Y85709000D01*
X72906000Y85851858D01*
X73001238Y85947096D01*
X73096476Y85994715D01*
X73286952Y86042334D01*
X73429810Y86042334D01*
X73620286Y85994715D01*
X73715524Y85947096D01*
X73810762Y85851858D01*
X73858381Y85709000D01*
X73858381Y85470905D01*
D11*
X73514857Y78032429D02*
X73514857Y79193572D01*
X74095429Y78613001D02*
X72934286Y78613001D01*
D21*
X18463079Y88867101D02*
X16672379Y88867101D01*
X16672379Y89277372D01*
X16757650Y89379939D01*
X16842921Y89431223D01*
X17013464Y89482507D01*
X17269279Y89482507D01*
X17439821Y89431223D01*
X17525093Y89379939D01*
X17610364Y89277372D01*
X17610364Y88867101D01*
X18463079Y89995345D02*
X18463079Y90200480D01*
X18377807Y90303048D01*
X18292536Y90354332D01*
X18036721Y90456899D01*
X17695636Y90508183D01*
X17013464Y90508183D01*
X16842921Y90456899D01*
X16757650Y90405615D01*
X16672379Y90303048D01*
X16672379Y90097912D01*
X16757650Y89995345D01*
X16842921Y89944061D01*
X17013464Y89892777D01*
X17439821Y89892777D01*
X17610364Y89944061D01*
X17695636Y89995345D01*
X17780907Y90097912D01*
X17780907Y90303048D01*
X17695636Y90405615D01*
X17610364Y90456899D01*
X17439821Y90508183D01*
D17*
X14133286Y96592571D02*
X14133286Y98116571D01*
X14471952Y97028000D01*
X14810619Y98116571D01*
X14810619Y96592571D01*
X15294429Y96592571D02*
X15294429Y98116571D01*
X15681476Y98116571D01*
X15778238Y98044000D01*
X15826619Y97971429D01*
X15875000Y97826286D01*
X15875000Y97608571D01*
X15826619Y97463429D01*
X15778238Y97390857D01*
X15681476Y97318286D01*
X15294429Y97318286D01*
X16213667Y98116571D02*
X16842619Y98116571D01*
X16503953Y97536000D01*
X16649095Y97536000D01*
X16745857Y97463429D01*
X16794238Y97390857D01*
X16842619Y97245714D01*
X16842619Y96882857D01*
X16794238Y96737714D01*
X16745857Y96665143D01*
X16649095Y96592571D01*
X16358810Y96592571D01*
X16262048Y96665143D01*
X16213667Y96737714D01*
X17036143Y96447429D02*
X17810238Y96447429D01*
X18584333Y98044000D02*
X18487571Y98116571D01*
X18342428Y98116571D01*
X18197286Y98044000D01*
X18100524Y97898857D01*
X18052143Y97753714D01*
X18003762Y97463429D01*
X18003762Y97245714D01*
X18052143Y96955429D01*
X18100524Y96810286D01*
X18197286Y96665143D01*
X18342428Y96592571D01*
X18439190Y96592571D01*
X18584333Y96665143D01*
X18632714Y96737714D01*
X18632714Y97245714D01*
X18439190Y97245714D01*
X19068143Y96592571D02*
X19068143Y98116571D01*
X19648714Y96592571D01*
X19648714Y98116571D01*
X20132524Y96592571D02*
X20132524Y98116571D01*
X20374429Y98116571D01*
X20519571Y98044000D01*
X20616333Y97898857D01*
X20664714Y97753714D01*
X20713095Y97463429D01*
X20713095Y97245714D01*
X20664714Y96955429D01*
X20616333Y96810286D01*
X20519571Y96665143D01*
X20374429Y96592571D01*
X20132524Y96592571D01*
D10*
X39679714Y18597619D02*
X39679714Y19597619D01*
X40060667Y19597619D01*
X40155905Y19550000D01*
X40203524Y19502381D01*
X40251143Y19407143D01*
X40251143Y19264286D01*
X40203524Y19169048D01*
X40155905Y19121429D01*
X40060667Y19073810D01*
X39679714Y19073810D01*
X41203524Y18597619D02*
X40632095Y18597619D01*
X40917809Y18597619D02*
X40917809Y19597619D01*
X40822571Y19454762D01*
X40727333Y19359524D01*
X40632095Y19311905D01*
X41822571Y19597619D02*
X41917810Y19597619D01*
X42013048Y19550000D01*
X42060667Y19502381D01*
X42108286Y19407143D01*
X42155905Y19216667D01*
X42155905Y18978571D01*
X42108286Y18788095D01*
X42060667Y18692857D01*
X42013048Y18645238D01*
X41917810Y18597619D01*
X41822571Y18597619D01*
X41727333Y18645238D01*
X41679714Y18692857D01*
X41632095Y18788095D01*
X41584476Y18978571D01*
X41584476Y19216667D01*
X41632095Y19407143D01*
X41679714Y19502381D01*
X41727333Y19550000D01*
X41822571Y19597619D01*
D13*
X68243571Y8982143D02*
X68243571Y10182143D01*
X68548333Y10182143D01*
X68624524Y10125000D01*
X68662619Y10067857D01*
X68700714Y9953571D01*
X68700714Y9782143D01*
X68662619Y9667857D01*
X68624524Y9610714D01*
X68548333Y9553571D01*
X68243571Y9553571D01*
X69462619Y8982143D02*
X69005476Y8982143D01*
X69234047Y8982143D02*
X69234047Y10182143D01*
X69157857Y10010714D01*
X69081666Y9896429D01*
X69005476Y9839286D01*
X70224524Y8982143D02*
X69767381Y8982143D01*
X69995952Y8982143D02*
X69995952Y10182143D01*
X69919762Y10010714D01*
X69843571Y9896429D01*
X69767381Y9839286D01*
D17*
X66094429Y16503953D02*
X66094429Y16020144D01*
X64570429Y16020144D01*
X65296143Y16842620D02*
X65296143Y17181286D01*
X66094429Y17326429D02*
X66094429Y16842620D01*
X64570429Y16842620D01*
X64570429Y17326429D01*
X66094429Y17761858D02*
X64570429Y17761858D01*
X64570429Y18003763D01*
X64643000Y18148905D01*
X64788143Y18245667D01*
X64933286Y18294048D01*
X65223571Y18342429D01*
X65441286Y18342429D01*
X65731571Y18294048D01*
X65876714Y18245667D01*
X66021857Y18148905D01*
X66094429Y18003763D01*
X66094429Y17761858D01*
X66239571Y18535953D02*
X66239571Y19310048D01*
X65949286Y20132524D02*
X66021857Y20084143D01*
X66094429Y19939000D01*
X66094429Y19842238D01*
X66021857Y19697096D01*
X65876714Y19600334D01*
X65731571Y19551953D01*
X65441286Y19503572D01*
X65223571Y19503572D01*
X64933286Y19551953D01*
X64788143Y19600334D01*
X64643000Y19697096D01*
X64570429Y19842238D01*
X64570429Y19939000D01*
X64643000Y20084143D01*
X64715571Y20132524D01*
X64570429Y20761477D02*
X64570429Y20955000D01*
X64643000Y21051762D01*
X64788143Y21148524D01*
X65078429Y21196905D01*
X65586429Y21196905D01*
X65876714Y21148524D01*
X66021857Y21051762D01*
X66094429Y20955000D01*
X66094429Y20761477D01*
X66021857Y20664715D01*
X65876714Y20567953D01*
X65586429Y20519572D01*
X65078429Y20519572D01*
X64788143Y20567953D01*
X64643000Y20664715D01*
X64570429Y20761477D01*
X66094429Y21632334D02*
X64570429Y21632334D01*
X66094429Y22212905D01*
X64570429Y22212905D01*
X64570429Y22551572D02*
X64570429Y23132143D01*
X66094429Y22841858D02*
X64570429Y22841858D01*
X66094429Y24051381D02*
X65368714Y23712715D01*
X66094429Y23470810D02*
X64570429Y23470810D01*
X64570429Y23857857D01*
X64643000Y23954619D01*
X64715571Y24003000D01*
X64860714Y24051381D01*
X65078429Y24051381D01*
X65223571Y24003000D01*
X65296143Y23954619D01*
X65368714Y23857857D01*
X65368714Y23470810D01*
X64570429Y24680334D02*
X64570429Y24873857D01*
X64643000Y24970619D01*
X64788143Y25067381D01*
X65078429Y25115762D01*
X65586429Y25115762D01*
X65876714Y25067381D01*
X66021857Y24970619D01*
X66094429Y24873857D01*
X66094429Y24680334D01*
X66021857Y24583572D01*
X65876714Y24486810D01*
X65586429Y24438429D01*
X65078429Y24438429D01*
X64788143Y24486810D01*
X64643000Y24583572D01*
X64570429Y24680334D01*
X66094429Y26035000D02*
X66094429Y25551191D01*
X64570429Y25551191D01*
D11*
X64189429Y56950428D02*
X62665429Y56950428D01*
X62665429Y57531000D01*
X62738000Y57676142D01*
X62810571Y57748714D01*
X62955714Y57821285D01*
X63173429Y57821285D01*
X63318571Y57748714D01*
X63391143Y57676142D01*
X63463714Y57531000D01*
X63463714Y56950428D01*
X64189429Y59272714D02*
X64189429Y58401857D01*
X64189429Y58837285D02*
X62665429Y58837285D01*
X62883143Y58692142D01*
X63028286Y58547000D01*
X63100857Y58401857D01*
X62810571Y59853286D02*
X62738000Y59925857D01*
X62665429Y60071000D01*
X62665429Y60433857D01*
X62738000Y60579000D01*
X62810571Y60651571D01*
X62955714Y60724143D01*
X63100857Y60724143D01*
X63318571Y60651571D01*
X64189429Y59780714D01*
X64189429Y60724143D01*
D17*
X74276857Y58855429D02*
X74349429Y59000572D01*
X74349429Y59242476D01*
X74276857Y59339238D01*
X74204286Y59387619D01*
X74059143Y59436000D01*
X73914000Y59436000D01*
X73768857Y59387619D01*
X73696286Y59339238D01*
X73623714Y59242476D01*
X73551143Y59048953D01*
X73478571Y58952191D01*
X73406000Y58903810D01*
X73260857Y58855429D01*
X73115714Y58855429D01*
X72970571Y58903810D01*
X72898000Y58952191D01*
X72825429Y59048953D01*
X72825429Y59290857D01*
X72898000Y59436000D01*
X74349429Y59871429D02*
X72825429Y59871429D01*
X72825429Y60258476D01*
X72898000Y60355238D01*
X72970571Y60403619D01*
X73115714Y60452000D01*
X73333429Y60452000D01*
X73478571Y60403619D01*
X73551143Y60355238D01*
X73623714Y60258476D01*
X73623714Y59871429D01*
X74349429Y60887429D02*
X72825429Y60887429D01*
X74349429Y61468000D02*
X73478571Y61032572D01*
X72825429Y61468000D02*
X73696286Y60887429D01*
X74494571Y61661524D02*
X74494571Y62435619D01*
X74349429Y63161333D02*
X74349429Y62677524D01*
X72825429Y62677524D01*
D20*
X72906000Y64008096D02*
X72858381Y63912858D01*
X72858381Y63770001D01*
X72906000Y63627143D01*
X73001238Y63531905D01*
X73096476Y63484286D01*
X73286952Y63436667D01*
X73429810Y63436667D01*
X73620286Y63484286D01*
X73715524Y63531905D01*
X73810762Y63627143D01*
X73858381Y63770001D01*
X73858381Y63865239D01*
X73810762Y64008096D01*
X73763143Y64055715D01*
X73429810Y64055715D01*
X73429810Y63865239D01*
X73858381Y64484286D02*
X72858381Y64484286D01*
X73858381Y65055715D01*
X72858381Y65055715D01*
X73858381Y65531905D02*
X72858381Y65531905D01*
X72858381Y65770000D01*
X72906000Y65912858D01*
X73001238Y66008096D01*
X73096476Y66055715D01*
X73286952Y66103334D01*
X73429810Y66103334D01*
X73620286Y66055715D01*
X73715524Y66008096D01*
X73810762Y65912858D01*
X73858381Y65770000D01*
X73858381Y65531905D01*
D11*
X73387857Y56823429D02*
X73387857Y57984572D01*
X73968429Y57404001D02*
X72807286Y57404001D01*
X64316429Y67237428D02*
X62792429Y67237428D01*
X62792429Y67818000D01*
X62865000Y67963142D01*
X62937571Y68035714D01*
X63082714Y68108285D01*
X63300429Y68108285D01*
X63445571Y68035714D01*
X63518143Y67963142D01*
X63590714Y67818000D01*
X63590714Y67237428D01*
X64316429Y69559714D02*
X64316429Y68688857D01*
X64316429Y69124285D02*
X62792429Y69124285D01*
X63010143Y68979142D01*
X63155286Y68834000D01*
X63227857Y68688857D01*
X62792429Y70067714D02*
X62792429Y71011143D01*
X63373000Y70503143D01*
X63373000Y70720857D01*
X63445571Y70866000D01*
X63518143Y70938571D01*
X63663286Y71011143D01*
X64026143Y71011143D01*
X64171286Y70938571D01*
X64243857Y70866000D01*
X64316429Y70720857D01*
X64316429Y70285429D01*
X64243857Y70140286D01*
X64171286Y70067714D01*
D17*
X74276857Y69172667D02*
X74349429Y69317810D01*
X74349429Y69559714D01*
X74276857Y69656476D01*
X74204286Y69704857D01*
X74059143Y69753238D01*
X73914000Y69753238D01*
X73768857Y69704857D01*
X73696286Y69656476D01*
X73623714Y69559714D01*
X73551143Y69366191D01*
X73478571Y69269429D01*
X73406000Y69221048D01*
X73260857Y69172667D01*
X73115714Y69172667D01*
X72970571Y69221048D01*
X72898000Y69269429D01*
X72825429Y69366191D01*
X72825429Y69608095D01*
X72898000Y69753238D01*
X74349429Y70188667D02*
X72825429Y70188667D01*
X72825429Y70575714D01*
X72898000Y70672476D01*
X72970571Y70720857D01*
X73115714Y70769238D01*
X73333429Y70769238D01*
X73478571Y70720857D01*
X73551143Y70672476D01*
X73623714Y70575714D01*
X73623714Y70188667D01*
X74349429Y71204667D02*
X72825429Y71204667D01*
X74349429Y71785238D02*
X73478571Y71349810D01*
X72825429Y71785238D02*
X73696286Y71204667D01*
X74494571Y71978762D02*
X74494571Y72752857D01*
X74349429Y73575333D02*
X73623714Y73236667D01*
X74349429Y72994762D02*
X72825429Y72994762D01*
X72825429Y73381809D01*
X72898000Y73478571D01*
X72970571Y73526952D01*
X73115714Y73575333D01*
X73333429Y73575333D01*
X73478571Y73526952D01*
X73551143Y73478571D01*
X73623714Y73381809D01*
X73623714Y72994762D01*
D20*
X72906000Y74676096D02*
X72858381Y74580858D01*
X72858381Y74438001D01*
X72906000Y74295143D01*
X73001238Y74199905D01*
X73096476Y74152286D01*
X73286952Y74104667D01*
X73429810Y74104667D01*
X73620286Y74152286D01*
X73715524Y74199905D01*
X73810762Y74295143D01*
X73858381Y74438001D01*
X73858381Y74533239D01*
X73810762Y74676096D01*
X73763143Y74723715D01*
X73429810Y74723715D01*
X73429810Y74533239D01*
X73858381Y75152286D02*
X72858381Y75152286D01*
X73858381Y75723715D01*
X72858381Y75723715D01*
X73858381Y76199905D02*
X72858381Y76199905D01*
X72858381Y76438000D01*
X72906000Y76580858D01*
X73001238Y76676096D01*
X73096476Y76723715D01*
X73286952Y76771334D01*
X73429810Y76771334D01*
X73620286Y76723715D01*
X73715524Y76676096D01*
X73810762Y76580858D01*
X73858381Y76438000D01*
X73858381Y76199905D01*
D11*
X73514857Y67110429D02*
X73514857Y68271572D01*
X74095429Y67691001D02*
X72934286Y67691001D01*
X7674428Y90750571D02*
X7674428Y92274571D01*
X8255000Y92274571D01*
X8400142Y92202000D01*
X8472714Y92129429D01*
X8545285Y91984286D01*
X8545285Y91766571D01*
X8472714Y91621429D01*
X8400142Y91548857D01*
X8255000Y91476286D01*
X7674428Y91476286D01*
X9996714Y90750571D02*
X9125857Y90750571D01*
X9561285Y90750571D02*
X9561285Y92274571D01*
X9416142Y92056857D01*
X9271000Y91911714D01*
X9125857Y91839143D01*
X10722429Y90750571D02*
X11012714Y90750571D01*
X11157857Y90823143D01*
X11230429Y90895714D01*
X11375571Y91113429D01*
X11448143Y91403714D01*
X11448143Y91984286D01*
X11375571Y92129429D01*
X11303000Y92202000D01*
X11157857Y92274571D01*
X10867571Y92274571D01*
X10722429Y92202000D01*
X10649857Y92129429D01*
X10577286Y91984286D01*
X10577286Y91621429D01*
X10649857Y91476286D01*
X10722429Y91403714D01*
X10867571Y91331143D01*
X11157857Y91331143D01*
X11303000Y91403714D01*
X11375571Y91476286D01*
X11448143Y91621429D01*
D17*
X2467429Y83632524D02*
X943429Y83632524D01*
X943429Y84019571D01*
X1016000Y84116333D01*
X1088571Y84164714D01*
X1233714Y84213095D01*
X1451429Y84213095D01*
X1596571Y84164714D01*
X1669143Y84116333D01*
X1741714Y84019571D01*
X1741714Y83632524D01*
X943429Y84842048D02*
X943429Y85035571D01*
X1016000Y85132333D01*
X1161143Y85229095D01*
X1451429Y85277476D01*
X1959429Y85277476D01*
X2249714Y85229095D01*
X2394857Y85132333D01*
X2467429Y85035571D01*
X2467429Y84842048D01*
X2394857Y84745286D01*
X2249714Y84648524D01*
X1959429Y84600143D01*
X1451429Y84600143D01*
X1161143Y84648524D01*
X1016000Y84745286D01*
X943429Y84842048D01*
X943429Y85616143D02*
X2467429Y85858048D01*
X1378857Y86051571D01*
X2467429Y86245095D01*
X943429Y86487000D01*
X1669143Y86874048D02*
X1669143Y87212714D01*
X2467429Y87357857D02*
X2467429Y86874048D01*
X943429Y86874048D01*
X943429Y87357857D01*
X2467429Y88373857D02*
X1741714Y88035191D01*
X2467429Y87793286D02*
X943429Y87793286D01*
X943429Y88180333D01*
X1016000Y88277095D01*
X1088571Y88325476D01*
X1233714Y88373857D01*
X1451429Y88373857D01*
X1596571Y88325476D01*
X1669143Y88277095D01*
X1741714Y88180333D01*
X1741714Y87793286D01*
D20*
X1786000Y80899096D02*
X1738381Y80803858D01*
X1738381Y80661001D01*
X1786000Y80518143D01*
X1881238Y80422905D01*
X1976476Y80375286D01*
X2166952Y80327667D01*
X2309810Y80327667D01*
X2500286Y80375286D01*
X2595524Y80422905D01*
X2690762Y80518143D01*
X2738381Y80661001D01*
X2738381Y80756239D01*
X2690762Y80899096D01*
X2643143Y80946715D01*
X2309810Y80946715D01*
X2309810Y80756239D01*
X2738381Y81375286D02*
X1738381Y81375286D01*
X2738381Y81946715D01*
X1738381Y81946715D01*
X2738381Y82422905D02*
X1738381Y82422905D01*
X1738381Y82661000D01*
X1786000Y82803858D01*
X1881238Y82899096D01*
X1976476Y82946715D01*
X2166952Y82994334D01*
X2309810Y82994334D01*
X2500286Y82946715D01*
X2595524Y82899096D01*
X2690762Y82803858D01*
X2738381Y82661000D01*
X2738381Y82422905D01*
D11*
X2140857Y88827429D02*
X2140857Y89988572D01*
X2721429Y89408001D02*
X1560286Y89408001D01*
D16*
X44573976Y22902333D02*
X43908738Y22479000D01*
X44573976Y22176619D02*
X43176976Y22176619D01*
X43176976Y22660428D01*
X43243500Y22781381D01*
X43310024Y22841857D01*
X43443071Y22902333D01*
X43642643Y22902333D01*
X43775690Y22841857D01*
X43842214Y22781381D01*
X43908738Y22660428D01*
X43908738Y22176619D01*
X44573976Y24111857D02*
X44573976Y23386143D01*
X44573976Y23749000D02*
X43176976Y23749000D01*
X43376548Y23628048D01*
X43509595Y23507095D01*
X43576119Y23386143D01*
X13331976Y74718333D02*
X12666738Y74295000D01*
X13331976Y73992619D02*
X11934976Y73992619D01*
X11934976Y74476428D01*
X12001500Y74597381D01*
X12068024Y74657857D01*
X12201071Y74718333D01*
X12400643Y74718333D01*
X12533690Y74657857D01*
X12600214Y74597381D01*
X12666738Y74476428D01*
X12666738Y73992619D01*
X12068024Y75202143D02*
X12001500Y75262619D01*
X11934976Y75383571D01*
X11934976Y75685952D01*
X12001500Y75806905D01*
X12068024Y75867381D01*
X12201071Y75927857D01*
X12334119Y75927857D01*
X12533690Y75867381D01*
X13331976Y75141667D01*
X13331976Y75927857D01*
X14601976Y28998333D02*
X13936738Y28575000D01*
X14601976Y28272619D02*
X13204976Y28272619D01*
X13204976Y28756428D01*
X13271500Y28877381D01*
X13338024Y28937857D01*
X13471071Y28998333D01*
X13670643Y28998333D01*
X13803690Y28937857D01*
X13870214Y28877381D01*
X13936738Y28756428D01*
X13936738Y28272619D01*
X13204976Y29421667D02*
X13204976Y30207857D01*
X13737167Y29784524D01*
X13737167Y29965952D01*
X13803690Y30086905D01*
X13870214Y30147381D01*
X14003262Y30207857D01*
X14335881Y30207857D01*
X14468929Y30147381D01*
X14535452Y30086905D01*
X14601976Y29965952D01*
X14601976Y29603095D01*
X14535452Y29482143D01*
X14468929Y29421667D01*
X15871976Y74718333D02*
X15206738Y74295000D01*
X15871976Y73992619D02*
X14474976Y73992619D01*
X14474976Y74476428D01*
X14541500Y74597381D01*
X14608024Y74657857D01*
X14741071Y74718333D01*
X14940643Y74718333D01*
X15073690Y74657857D01*
X15140214Y74597381D01*
X15206738Y74476428D01*
X15206738Y73992619D01*
X14940643Y75806905D02*
X15871976Y75806905D01*
X14408452Y75504524D02*
X15406310Y75202143D01*
X15406310Y75988333D01*
X14601976Y42333333D02*
X13936738Y41910000D01*
X14601976Y41607619D02*
X13204976Y41607619D01*
X13204976Y42091428D01*
X13271500Y42212381D01*
X13338024Y42272857D01*
X13471071Y42333333D01*
X13670643Y42333333D01*
X13803690Y42272857D01*
X13870214Y42212381D01*
X13936738Y42091428D01*
X13936738Y41607619D01*
X13204976Y43482381D02*
X13204976Y42877619D01*
X13870214Y42817143D01*
X13803690Y42877619D01*
X13737167Y42998571D01*
X13737167Y43300952D01*
X13803690Y43421905D01*
X13870214Y43482381D01*
X14003262Y43542857D01*
X14335881Y43542857D01*
X14468929Y43482381D01*
X14535452Y43421905D01*
X14601976Y43300952D01*
X14601976Y42998571D01*
X14535452Y42877619D01*
X14468929Y42817143D01*
X25650976Y38396333D02*
X24985738Y37973000D01*
X25650976Y37670619D02*
X24253976Y37670619D01*
X24253976Y38154428D01*
X24320500Y38275381D01*
X24387024Y38335857D01*
X24520071Y38396333D01*
X24719643Y38396333D01*
X24852690Y38335857D01*
X24919214Y38275381D01*
X24985738Y38154428D01*
X24985738Y37670619D01*
X24253976Y39484905D02*
X24253976Y39243000D01*
X24320500Y39122048D01*
X24387024Y39061571D01*
X24586595Y38940619D01*
X24852690Y38880143D01*
X25384881Y38880143D01*
X25517929Y38940619D01*
X25584452Y39001095D01*
X25650976Y39122048D01*
X25650976Y39363952D01*
X25584452Y39484905D01*
X25517929Y39545381D01*
X25384881Y39605857D01*
X25052262Y39605857D01*
X24919214Y39545381D01*
X24852690Y39484905D01*
X24786167Y39363952D01*
X24786167Y39122048D01*
X24852690Y39001095D01*
X24919214Y38940619D01*
X25052262Y38880143D01*
X28698976Y49064333D02*
X28033738Y48641000D01*
X28698976Y48338619D02*
X27301976Y48338619D01*
X27301976Y48822428D01*
X27368500Y48943381D01*
X27435024Y49003857D01*
X27568071Y49064333D01*
X27767643Y49064333D01*
X27900690Y49003857D01*
X27967214Y48943381D01*
X28033738Y48822428D01*
X28033738Y48338619D01*
X27301976Y49487667D02*
X27301976Y50334333D01*
X28698976Y49790048D01*
X31111976Y82973333D02*
X30446738Y82550000D01*
X31111976Y82247619D02*
X29714976Y82247619D01*
X29714976Y82731428D01*
X29781500Y82852381D01*
X29848024Y82912857D01*
X29981071Y82973333D01*
X30180643Y82973333D01*
X30313690Y82912857D01*
X30380214Y82852381D01*
X30446738Y82731428D01*
X30446738Y82247619D01*
X30313690Y83699048D02*
X30247167Y83578095D01*
X30180643Y83517619D01*
X30047595Y83457143D01*
X29981071Y83457143D01*
X29848024Y83517619D01*
X29781500Y83578095D01*
X29714976Y83699048D01*
X29714976Y83940952D01*
X29781500Y84061905D01*
X29848024Y84122381D01*
X29981071Y84182857D01*
X30047595Y84182857D01*
X30180643Y84122381D01*
X30247167Y84061905D01*
X30313690Y83940952D01*
X30313690Y83699048D01*
X30380214Y83578095D01*
X30446738Y83517619D01*
X30579786Y83457143D01*
X30845881Y83457143D01*
X30978929Y83517619D01*
X31045452Y83578095D01*
X31111976Y83699048D01*
X31111976Y83940952D01*
X31045452Y84061905D01*
X30978929Y84122381D01*
X30845881Y84182857D01*
X30579786Y84182857D01*
X30446738Y84122381D01*
X30380214Y84061905D01*
X30313690Y83940952D01*
X34921976Y82973333D02*
X34256738Y82550000D01*
X34921976Y82247619D02*
X33524976Y82247619D01*
X33524976Y82731428D01*
X33591500Y82852381D01*
X33658024Y82912857D01*
X33791071Y82973333D01*
X33990643Y82973333D01*
X34123690Y82912857D01*
X34190214Y82852381D01*
X34256738Y82731428D01*
X34256738Y82247619D01*
X34921976Y83578095D02*
X34921976Y83820000D01*
X34855452Y83940952D01*
X34788929Y84001428D01*
X34589357Y84122381D01*
X34323262Y84182857D01*
X33791071Y84182857D01*
X33658024Y84122381D01*
X33591500Y84061905D01*
X33524976Y83940952D01*
X33524976Y83699048D01*
X33591500Y83578095D01*
X33658024Y83517619D01*
X33791071Y83457143D01*
X34123690Y83457143D01*
X34256738Y83517619D01*
X34323262Y83578095D01*
X34389786Y83699048D01*
X34389786Y83940952D01*
X34323262Y84061905D01*
X34256738Y84122381D01*
X34123690Y84182857D01*
X37461976Y82368571D02*
X36796738Y81945238D01*
X37461976Y81642857D02*
X36064976Y81642857D01*
X36064976Y82126666D01*
X36131500Y82247619D01*
X36198024Y82308095D01*
X36331071Y82368571D01*
X36530643Y82368571D01*
X36663690Y82308095D01*
X36730214Y82247619D01*
X36796738Y82126666D01*
X36796738Y81642857D01*
X37461976Y83578095D02*
X37461976Y82852381D01*
X37461976Y83215238D02*
X36064976Y83215238D01*
X36264548Y83094286D01*
X36397595Y82973333D01*
X36464119Y82852381D01*
X36064976Y84364286D02*
X36064976Y84485238D01*
X36131500Y84606190D01*
X36198024Y84666667D01*
X36331071Y84727143D01*
X36597167Y84787619D01*
X36929786Y84787619D01*
X37195881Y84727143D01*
X37328929Y84666667D01*
X37395452Y84606190D01*
X37461976Y84485238D01*
X37461976Y84364286D01*
X37395452Y84243333D01*
X37328929Y84182857D01*
X37195881Y84122381D01*
X36929786Y84061905D01*
X36597167Y84061905D01*
X36331071Y84122381D01*
X36198024Y84182857D01*
X36131500Y84243333D01*
X36064976Y84364286D01*
X28571976Y82368571D02*
X27906738Y81945238D01*
X28571976Y81642857D02*
X27174976Y81642857D01*
X27174976Y82126666D01*
X27241500Y82247619D01*
X27308024Y82308095D01*
X27441071Y82368571D01*
X27640643Y82368571D01*
X27773690Y82308095D01*
X27840214Y82247619D01*
X27906738Y82126666D01*
X27906738Y81642857D01*
X28571976Y83578095D02*
X28571976Y82852381D01*
X28571976Y83215238D02*
X27174976Y83215238D01*
X27374548Y83094286D01*
X27507595Y82973333D01*
X27574119Y82852381D01*
X28571976Y84787619D02*
X28571976Y84061905D01*
X28571976Y84424762D02*
X27174976Y84424762D01*
X27374548Y84303810D01*
X27507595Y84182857D01*
X27574119Y84061905D01*
X56016071Y36515524D02*
X55592738Y37180762D01*
X55290357Y36515524D02*
X55290357Y37912524D01*
X55774166Y37912524D01*
X55895119Y37846000D01*
X55955595Y37779476D01*
X56016071Y37646429D01*
X56016071Y37446857D01*
X55955595Y37313810D01*
X55895119Y37247286D01*
X55774166Y37180762D01*
X55290357Y37180762D01*
X57225595Y36515524D02*
X56499881Y36515524D01*
X56862738Y36515524D02*
X56862738Y37912524D01*
X56741786Y37712952D01*
X56620833Y37579905D01*
X56499881Y37513381D01*
X57709405Y37779476D02*
X57769881Y37846000D01*
X57890833Y37912524D01*
X58193214Y37912524D01*
X58314167Y37846000D01*
X58374643Y37779476D01*
X58435119Y37646429D01*
X58435119Y37513381D01*
X58374643Y37313810D01*
X57648929Y36515524D01*
X58435119Y36515524D01*
X56016071Y33975524D02*
X55592738Y34640762D01*
X55290357Y33975524D02*
X55290357Y35372524D01*
X55774166Y35372524D01*
X55895119Y35306000D01*
X55955595Y35239476D01*
X56016071Y35106429D01*
X56016071Y34906857D01*
X55955595Y34773810D01*
X55895119Y34707286D01*
X55774166Y34640762D01*
X55290357Y34640762D01*
X57225595Y33975524D02*
X56499881Y33975524D01*
X56862738Y33975524D02*
X56862738Y35372524D01*
X56741786Y35172952D01*
X56620833Y35039905D01*
X56499881Y34973381D01*
X57648929Y35372524D02*
X58435119Y35372524D01*
X58011786Y34840333D01*
X58193214Y34840333D01*
X58314167Y34773810D01*
X58374643Y34707286D01*
X58435119Y34574238D01*
X58435119Y34241619D01*
X58374643Y34108571D01*
X58314167Y34042048D01*
X58193214Y33975524D01*
X57830357Y33975524D01*
X57709405Y34042048D01*
X57648929Y34108571D01*
X56016071Y24450524D02*
X55592738Y25115762D01*
X55290357Y24450524D02*
X55290357Y25847524D01*
X55774166Y25847524D01*
X55895119Y25781000D01*
X55955595Y25714476D01*
X56016071Y25581429D01*
X56016071Y25381857D01*
X55955595Y25248810D01*
X55895119Y25182286D01*
X55774166Y25115762D01*
X55290357Y25115762D01*
X57225595Y24450524D02*
X56499881Y24450524D01*
X56862738Y24450524D02*
X56862738Y25847524D01*
X56741786Y25647952D01*
X56620833Y25514905D01*
X56499881Y25448381D01*
X58314167Y25381857D02*
X58314167Y24450524D01*
X58011786Y25914048D02*
X57709405Y24916190D01*
X58495595Y24916190D01*
X56016071Y21910524D02*
X55592738Y22575762D01*
X55290357Y21910524D02*
X55290357Y23307524D01*
X55774166Y23307524D01*
X55895119Y23241000D01*
X55955595Y23174476D01*
X56016071Y23041429D01*
X56016071Y22841857D01*
X55955595Y22708810D01*
X55895119Y22642286D01*
X55774166Y22575762D01*
X55290357Y22575762D01*
X57225595Y21910524D02*
X56499881Y21910524D01*
X56862738Y21910524D02*
X56862738Y23307524D01*
X56741786Y23107952D01*
X56620833Y22974905D01*
X56499881Y22908381D01*
X58374643Y23307524D02*
X57769881Y23307524D01*
X57709405Y22642286D01*
X57769881Y22708810D01*
X57890833Y22775333D01*
X58193214Y22775333D01*
X58314167Y22708810D01*
X58374643Y22642286D01*
X58435119Y22509238D01*
X58435119Y22176619D01*
X58374643Y22043571D01*
X58314167Y21977048D01*
X58193214Y21910524D01*
X57890833Y21910524D01*
X57769881Y21977048D01*
X57709405Y22043571D01*
X56651071Y12385524D02*
X56227738Y13050762D01*
X55925357Y12385524D02*
X55925357Y13782524D01*
X56409166Y13782524D01*
X56530119Y13716000D01*
X56590595Y13649476D01*
X56651071Y13516429D01*
X56651071Y13316857D01*
X56590595Y13183810D01*
X56530119Y13117286D01*
X56409166Y13050762D01*
X55925357Y13050762D01*
X57860595Y12385524D02*
X57134881Y12385524D01*
X57497738Y12385524D02*
X57497738Y13782524D01*
X57376786Y13582952D01*
X57255833Y13449905D01*
X57134881Y13383381D01*
X58949167Y13782524D02*
X58707262Y13782524D01*
X58586310Y13716000D01*
X58525833Y13649476D01*
X58404881Y13449905D01*
X58344405Y13183810D01*
X58344405Y12651619D01*
X58404881Y12518571D01*
X58465357Y12452048D01*
X58586310Y12385524D01*
X58828214Y12385524D01*
X58949167Y12452048D01*
X59009643Y12518571D01*
X59070119Y12651619D01*
X59070119Y12984238D01*
X59009643Y13117286D01*
X58949167Y13183810D01*
X58828214Y13250333D01*
X58586310Y13250333D01*
X58465357Y13183810D01*
X58404881Y13117286D01*
X58344405Y12984238D01*
X56651071Y9845524D02*
X56227738Y10510762D01*
X55925357Y9845524D02*
X55925357Y11242524D01*
X56409166Y11242524D01*
X56530119Y11176000D01*
X56590595Y11109476D01*
X56651071Y10976429D01*
X56651071Y10776857D01*
X56590595Y10643810D01*
X56530119Y10577286D01*
X56409166Y10510762D01*
X55925357Y10510762D01*
X57860595Y9845524D02*
X57134881Y9845524D01*
X57497738Y9845524D02*
X57497738Y11242524D01*
X57376786Y11042952D01*
X57255833Y10909905D01*
X57134881Y10843381D01*
X58283929Y11242524D02*
X59130595Y11242524D01*
X58586310Y9845524D01*
X8170334Y63088762D02*
X8315477Y63040381D01*
X8557381Y63040381D01*
X8654143Y63088762D01*
X8702524Y63137143D01*
X8750905Y63233905D01*
X8750905Y63330667D01*
X8702524Y63427429D01*
X8654143Y63475810D01*
X8557381Y63524190D01*
X8363858Y63572571D01*
X8267096Y63620952D01*
X8218715Y63669333D01*
X8170334Y63766095D01*
X8170334Y63862857D01*
X8218715Y63959619D01*
X8267096Y64008000D01*
X8363858Y64056381D01*
X8605762Y64056381D01*
X8750905Y64008000D01*
X9089572Y64056381D02*
X9331477Y63040381D01*
X9525000Y63766095D01*
X9718524Y63040381D01*
X9960429Y64056381D01*
X10879667Y63040381D02*
X10299096Y63040381D01*
X10589382Y63040381D02*
X10589382Y64056381D01*
X10492620Y63911238D01*
X10395858Y63814476D01*
X10299096Y63766095D01*
X8170334Y56103762D02*
X8315477Y56055381D01*
X8557381Y56055381D01*
X8654143Y56103762D01*
X8702524Y56152143D01*
X8750905Y56248905D01*
X8750905Y56345667D01*
X8702524Y56442429D01*
X8654143Y56490810D01*
X8557381Y56539190D01*
X8363858Y56587571D01*
X8267096Y56635952D01*
X8218715Y56684333D01*
X8170334Y56781095D01*
X8170334Y56877857D01*
X8218715Y56974619D01*
X8267096Y57023000D01*
X8363858Y57071381D01*
X8605762Y57071381D01*
X8750905Y57023000D01*
X9089572Y57071381D02*
X9331477Y56055381D01*
X9525000Y56781095D01*
X9718524Y56055381D01*
X9960429Y57071381D01*
X10299096Y56974619D02*
X10347477Y57023000D01*
X10444239Y57071381D01*
X10686143Y57071381D01*
X10782905Y57023000D01*
X10831286Y56974619D01*
X10879667Y56877857D01*
X10879667Y56781095D01*
X10831286Y56635952D01*
X10250715Y56055381D01*
X10879667Y56055381D01*
X8170334Y49118762D02*
X8315477Y49070381D01*
X8557381Y49070381D01*
X8654143Y49118762D01*
X8702524Y49167143D01*
X8750905Y49263905D01*
X8750905Y49360667D01*
X8702524Y49457429D01*
X8654143Y49505810D01*
X8557381Y49554190D01*
X8363858Y49602571D01*
X8267096Y49650952D01*
X8218715Y49699333D01*
X8170334Y49796095D01*
X8170334Y49892857D01*
X8218715Y49989619D01*
X8267096Y50038000D01*
X8363858Y50086381D01*
X8605762Y50086381D01*
X8750905Y50038000D01*
X9089572Y50086381D02*
X9331477Y49070381D01*
X9525000Y49796095D01*
X9718524Y49070381D01*
X9960429Y50086381D01*
X10250715Y50086381D02*
X10879667Y50086381D01*
X10541001Y49699333D01*
X10686143Y49699333D01*
X10782905Y49650952D01*
X10831286Y49602571D01*
X10879667Y49505810D01*
X10879667Y49263905D01*
X10831286Y49167143D01*
X10782905Y49118762D01*
X10686143Y49070381D01*
X10395858Y49070381D01*
X10299096Y49118762D01*
X10250715Y49167143D01*
D10*
X1341429Y67564048D02*
X1341429Y68325953D01*
X1722381Y67945001D02*
X960476Y67945001D01*
X1341429Y60579048D02*
X1341429Y61340953D01*
X1722381Y60960001D02*
X960476Y60960001D01*
X1341429Y53594048D02*
X1341429Y54355953D01*
X1722381Y53975001D02*
X960476Y53975001D01*
D13*
X10204524Y10125143D02*
X10204524Y11325143D01*
X10509286Y11325143D01*
X10585477Y11268000D01*
X10623572Y11210857D01*
X10661667Y11096571D01*
X10661667Y10925143D01*
X10623572Y10810857D01*
X10585477Y10753714D01*
X10509286Y10696571D01*
X10204524Y10696571D01*
X11385477Y11325143D02*
X11004524Y11325143D01*
X10966429Y10753714D01*
X11004524Y10810857D01*
X11080715Y10868000D01*
X11271191Y10868000D01*
X11347381Y10810857D01*
X11385477Y10753714D01*
X11423572Y10639429D01*
X11423572Y10353714D01*
X11385477Y10239429D01*
X11347381Y10182286D01*
X11271191Y10125143D01*
X11080715Y10125143D01*
X11004524Y10182286D01*
X10966429Y10239429D01*
D17*
X12046857Y14163524D02*
X12119429Y14308667D01*
X12119429Y14550571D01*
X12046857Y14647333D01*
X11974286Y14695714D01*
X11829143Y14744095D01*
X11684000Y14744095D01*
X11538857Y14695714D01*
X11466286Y14647333D01*
X11393714Y14550571D01*
X11321143Y14357048D01*
X11248571Y14260286D01*
X11176000Y14211905D01*
X11030857Y14163524D01*
X10885714Y14163524D01*
X10740571Y14211905D01*
X10668000Y14260286D01*
X10595429Y14357048D01*
X10595429Y14598952D01*
X10668000Y14744095D01*
X11321143Y15179524D02*
X11321143Y15518190D01*
X12119429Y15663333D02*
X12119429Y15179524D01*
X10595429Y15179524D01*
X10595429Y15663333D01*
X12119429Y16679333D02*
X11393714Y16340667D01*
X12119429Y16098762D02*
X10595429Y16098762D01*
X10595429Y16485809D01*
X10668000Y16582571D01*
X10740571Y16630952D01*
X10885714Y16679333D01*
X11103429Y16679333D01*
X11248571Y16630952D01*
X11321143Y16582571D01*
X11393714Y16485809D01*
X11393714Y16098762D01*
X12119429Y17114762D02*
X10595429Y17114762D01*
X11684000Y17550191D02*
X11684000Y18034000D01*
X12119429Y17453429D02*
X10595429Y17792096D01*
X12119429Y18130762D01*
X12119429Y18953238D02*
X12119429Y18469429D01*
X10595429Y18469429D01*
D13*
X10077524Y36795143D02*
X10077524Y37995143D01*
X10382286Y37995143D01*
X10458477Y37938000D01*
X10496572Y37880857D01*
X10534667Y37766571D01*
X10534667Y37595143D01*
X10496572Y37480857D01*
X10458477Y37423714D01*
X10382286Y37366571D01*
X10077524Y37366571D01*
X11220381Y37995143D02*
X11068000Y37995143D01*
X10991810Y37938000D01*
X10953715Y37880857D01*
X10877524Y37709429D01*
X10839429Y37480857D01*
X10839429Y37023714D01*
X10877524Y36909429D01*
X10915619Y36852286D01*
X10991810Y36795143D01*
X11144191Y36795143D01*
X11220381Y36852286D01*
X11258477Y36909429D01*
X11296572Y37023714D01*
X11296572Y37309429D01*
X11258477Y37423714D01*
X11220381Y37480857D01*
X11144191Y37538000D01*
X10991810Y37538000D01*
X10915619Y37480857D01*
X10877524Y37423714D01*
X10839429Y37309429D01*
D17*
X12119429Y39230905D02*
X10595429Y39230905D01*
X12119429Y40295286D02*
X11393714Y39956620D01*
X12119429Y39714715D02*
X10595429Y39714715D01*
X10595429Y40101762D01*
X10668000Y40198524D01*
X10740571Y40246905D01*
X10885714Y40295286D01*
X11103429Y40295286D01*
X11248571Y40246905D01*
X11321143Y40198524D01*
X11393714Y40101762D01*
X11393714Y39714715D01*
X12264571Y40488810D02*
X12264571Y41262905D01*
X11321143Y41843476D02*
X11321143Y41504810D01*
X12119429Y41504810D02*
X10595429Y41504810D01*
X10595429Y41988619D01*
X12119429Y42956238D02*
X11393714Y42617572D01*
X12119429Y42375667D02*
X10595429Y42375667D01*
X10595429Y42762714D01*
X10668000Y42859476D01*
X10740571Y42907857D01*
X10885714Y42956238D01*
X11103429Y42956238D01*
X11248571Y42907857D01*
X11321143Y42859476D01*
X11393714Y42762714D01*
X11393714Y42375667D01*
X11684000Y43343286D02*
X11684000Y43827095D01*
X12119429Y43246524D02*
X10595429Y43585191D01*
X12119429Y43923857D01*
X12119429Y44262524D02*
X10595429Y44262524D01*
X11684000Y44601190D01*
X10595429Y44939857D01*
X12119429Y44939857D01*
X11321143Y45423667D02*
X11321143Y45762333D01*
X12119429Y45907476D02*
X12119429Y45423667D01*
X10595429Y45423667D01*
X10595429Y45907476D01*
D13*
X10077524Y23333143D02*
X10077524Y24533143D01*
X10382286Y24533143D01*
X10458477Y24476000D01*
X10496572Y24418857D01*
X10534667Y24304571D01*
X10534667Y24133143D01*
X10496572Y24018857D01*
X10458477Y23961714D01*
X10382286Y23904571D01*
X10077524Y23904571D01*
X10801334Y24533143D02*
X11334667Y24533143D01*
X10991810Y23333143D01*
D17*
X12119429Y25968476D02*
X10595429Y25968476D01*
X12119429Y27032857D02*
X11393714Y26694191D01*
X12119429Y26452286D02*
X10595429Y26452286D01*
X10595429Y26839333D01*
X10668000Y26936095D01*
X10740571Y26984476D01*
X10885714Y27032857D01*
X11103429Y27032857D01*
X11248571Y26984476D01*
X11321143Y26936095D01*
X11393714Y26839333D01*
X11393714Y26452286D01*
X12264571Y27226381D02*
X12264571Y28000476D01*
X12119429Y28242381D02*
X10595429Y28242381D01*
X11684000Y28581047D01*
X10595429Y28919714D01*
X12119429Y28919714D01*
X10595429Y29403524D02*
X11829143Y29403524D01*
X11974286Y29451905D01*
X12046857Y29500286D01*
X12119429Y29597048D01*
X12119429Y29790571D01*
X12046857Y29887333D01*
X11974286Y29935714D01*
X11829143Y29984095D01*
X10595429Y29984095D01*
X12046857Y30419524D02*
X12119429Y30564667D01*
X12119429Y30806571D01*
X12046857Y30903333D01*
X11974286Y30951714D01*
X11829143Y31000095D01*
X11684000Y31000095D01*
X11538857Y30951714D01*
X11466286Y30903333D01*
X11393714Y30806571D01*
X11321143Y30613048D01*
X11248571Y30516286D01*
X11176000Y30467905D01*
X11030857Y30419524D01*
X10885714Y30419524D01*
X10740571Y30467905D01*
X10668000Y30516286D01*
X10595429Y30613048D01*
X10595429Y30854952D01*
X10668000Y31000095D01*
X12119429Y31435524D02*
X10595429Y31435524D01*
X11974286Y32499905D02*
X12046857Y32451524D01*
X12119429Y32306381D01*
X12119429Y32209619D01*
X12046857Y32064477D01*
X11901714Y31967715D01*
X11756571Y31919334D01*
X11466286Y31870953D01*
X11248571Y31870953D01*
X10958286Y31919334D01*
X10813143Y31967715D01*
X10668000Y32064477D01*
X10595429Y32209619D01*
X10595429Y32306381D01*
X10668000Y32451524D01*
X10740571Y32499905D01*
D11*
X58674000Y51652714D02*
X58601429Y51580143D01*
X58383715Y51507571D01*
X58238572Y51507571D01*
X58020857Y51580143D01*
X57875715Y51725286D01*
X57803143Y51870429D01*
X57730572Y52160714D01*
X57730572Y52378429D01*
X57803143Y52668714D01*
X57875715Y52813857D01*
X58020857Y52959000D01*
X58238572Y53031571D01*
X58383715Y53031571D01*
X58601429Y52959000D01*
X58674000Y52886429D01*
X59182000Y53031571D02*
X60125429Y53031571D01*
X59617429Y52451000D01*
X59835143Y52451000D01*
X59980286Y52378429D01*
X60052857Y52305857D01*
X60125429Y52160714D01*
X60125429Y51797857D01*
X60052857Y51652714D01*
X59980286Y51580143D01*
X59835143Y51507571D01*
X59399715Y51507571D01*
X59254572Y51580143D01*
X59182000Y51652714D01*
D16*
X56388000Y56632929D02*
X55880000Y56632929D01*
X56134000Y56632929D02*
X56134000Y57775929D01*
X56049334Y57612643D01*
X55964667Y57503786D01*
X55880000Y57449357D01*
X57065334Y57231643D02*
X56769001Y57231643D01*
X56769001Y56632929D02*
X56769001Y57775929D01*
X57192334Y57775929D01*
D12*
X59097619Y67531429D02*
X61002381Y67531429D01*
X60050000Y66579048D02*
X60050000Y68483810D01*
D11*
X66729429Y36884428D02*
X65205429Y36884428D01*
X65205429Y37465000D01*
X65278000Y37610142D01*
X65350571Y37682714D01*
X65495714Y37755285D01*
X65713429Y37755285D01*
X65858571Y37682714D01*
X65931143Y37610142D01*
X66003714Y37465000D01*
X66003714Y36884428D01*
X66729429Y39206714D02*
X66729429Y38335857D01*
X66729429Y38771285D02*
X65205429Y38771285D01*
X65423143Y38626142D01*
X65568286Y38481000D01*
X65640857Y38335857D01*
X65713429Y40513000D02*
X66729429Y40513000D01*
X65132857Y40150143D02*
X66221429Y39787286D01*
X66221429Y40730714D01*
X73006857Y39769143D02*
X73079429Y39986857D01*
X73079429Y40349714D01*
X73006857Y40494857D01*
X72934286Y40567428D01*
X72789143Y40640000D01*
X72644000Y40640000D01*
X72498857Y40567428D01*
X72426286Y40494857D01*
X72353714Y40349714D01*
X72281143Y40059428D01*
X72208571Y39914286D01*
X72136000Y39841714D01*
X71990857Y39769143D01*
X71845714Y39769143D01*
X71700571Y39841714D01*
X71628000Y39914286D01*
X71555429Y40059428D01*
X71555429Y40422286D01*
X71628000Y40640000D01*
X71555429Y41075429D02*
X71555429Y41946286D01*
X73079429Y41510857D02*
X71555429Y41510857D01*
X72281143Y42454286D02*
X72281143Y42962286D01*
X73079429Y43180000D02*
X73079429Y42454286D01*
X71555429Y42454286D01*
X71555429Y43180000D01*
X73079429Y43833143D02*
X71555429Y43833143D01*
X71555429Y44413715D01*
X71628000Y44558857D01*
X71700571Y44631429D01*
X71845714Y44704000D01*
X72063429Y44704000D01*
X72208571Y44631429D01*
X72281143Y44558857D01*
X72353714Y44413715D01*
X72353714Y43833143D01*
X73079429Y45357143D02*
X71555429Y45357143D01*
X71555429Y45937715D01*
X71628000Y46082857D01*
X71700571Y46155429D01*
X71845714Y46228000D01*
X72063429Y46228000D01*
X72208571Y46155429D01*
X72281143Y46082857D01*
X72353714Y45937715D01*
X72353714Y45357143D01*
X72281143Y46881143D02*
X72281143Y47389143D01*
X73079429Y47606857D02*
X73079429Y46881143D01*
X71555429Y46881143D01*
X71555429Y47606857D01*
X73079429Y49130857D02*
X72353714Y48622857D01*
X73079429Y48260000D02*
X71555429Y48260000D01*
X71555429Y48840572D01*
X71628000Y48985714D01*
X71700571Y49058286D01*
X71845714Y49130857D01*
X72063429Y49130857D01*
X72208571Y49058286D01*
X72281143Y48985714D01*
X72353714Y48840572D01*
X72353714Y48260000D01*
D16*
X61960881Y8094738D02*
X61912500Y7997976D01*
X61815738Y7901214D01*
X61670595Y7756071D01*
X61622214Y7659310D01*
X61622214Y7562548D01*
X61864119Y7610929D02*
X61815738Y7514167D01*
X61718976Y7417405D01*
X61525452Y7369024D01*
X61186786Y7369024D01*
X60993262Y7417405D01*
X60896500Y7514167D01*
X60848119Y7610929D01*
X60848119Y7804452D01*
X60896500Y7901214D01*
X60993262Y7997976D01*
X61186786Y8046357D01*
X61525452Y8046357D01*
X61718976Y7997976D01*
X61815738Y7901214D01*
X61864119Y7804452D01*
X61864119Y7610929D01*
X61186786Y8917214D02*
X61864119Y8917214D01*
X60799738Y8675310D02*
X61525452Y8433405D01*
X61525452Y9062357D01*
X54854929Y3510643D02*
X54903310Y3655786D01*
X54951690Y3704167D01*
X55048452Y3752548D01*
X55193595Y3752548D01*
X55290357Y3704167D01*
X55338738Y3655786D01*
X55387119Y3559024D01*
X55387119Y3171977D01*
X54371119Y3171977D01*
X54371119Y3510643D01*
X54419500Y3607405D01*
X54467881Y3655786D01*
X54564643Y3704167D01*
X54661405Y3704167D01*
X54758167Y3655786D01*
X54806548Y3607405D01*
X54854929Y3510643D01*
X54854929Y3171977D01*
X55290357Y4768548D02*
X55338738Y4720167D01*
X55387119Y4575024D01*
X55387119Y4478262D01*
X55338738Y4333120D01*
X55241976Y4236358D01*
X55145214Y4187977D01*
X54951690Y4139596D01*
X54806548Y4139596D01*
X54613024Y4187977D01*
X54516262Y4236358D01*
X54419500Y4333120D01*
X54371119Y4478262D01*
X54371119Y4575024D01*
X54419500Y4720167D01*
X54467881Y4768548D01*
X54371119Y5639405D02*
X54371119Y5445882D01*
X54419500Y5349120D01*
X54467881Y5300739D01*
X54613024Y5203977D01*
X54806548Y5155596D01*
X55193595Y5155596D01*
X55290357Y5203977D01*
X55338738Y5252358D01*
X55387119Y5349120D01*
X55387119Y5542643D01*
X55338738Y5639405D01*
X55290357Y5687786D01*
X55193595Y5736167D01*
X54951690Y5736167D01*
X54854929Y5687786D01*
X54806548Y5639405D01*
X54758167Y5542643D01*
X54758167Y5349120D01*
X54806548Y5252358D01*
X54854929Y5203977D01*
X54951690Y5155596D01*
X54371119Y6074834D02*
X54371119Y6703786D01*
X54758167Y6365120D01*
X54758167Y6510262D01*
X54806548Y6607024D01*
X54854929Y6655405D01*
X54951690Y6703786D01*
X55193595Y6703786D01*
X55290357Y6655405D01*
X55338738Y6607024D01*
X55387119Y6510262D01*
X55387119Y6219977D01*
X55338738Y6123215D01*
X55290357Y6074834D01*
X55387119Y7187596D02*
X55387119Y7381120D01*
X55338738Y7477881D01*
X55290357Y7526262D01*
X55145214Y7623024D01*
X54951690Y7671405D01*
X54564643Y7671405D01*
X54467881Y7623024D01*
X54419500Y7574643D01*
X54371119Y7477881D01*
X54371119Y7284358D01*
X54419500Y7187596D01*
X54467881Y7139215D01*
X54564643Y7090834D01*
X54806548Y7090834D01*
X54903310Y7139215D01*
X54951690Y7187596D01*
X55000071Y7284358D01*
X55000071Y7477881D01*
X54951690Y7574643D01*
X54903310Y7623024D01*
X54806548Y7671405D01*
X62278381Y19969238D02*
X62230000Y19872476D01*
X62133238Y19775714D01*
X61988095Y19630571D01*
X61939714Y19533810D01*
X61939714Y19437048D01*
X62181619Y19485429D02*
X62133238Y19388667D01*
X62036476Y19291905D01*
X61842952Y19243524D01*
X61504286Y19243524D01*
X61310762Y19291905D01*
X61214000Y19388667D01*
X61165619Y19485429D01*
X61165619Y19678952D01*
X61214000Y19775714D01*
X61310762Y19872476D01*
X61504286Y19920857D01*
X61842952Y19920857D01*
X62036476Y19872476D01*
X62133238Y19775714D01*
X62181619Y19678952D01*
X62181619Y19485429D01*
X61165619Y20259524D02*
X61165619Y20888476D01*
X61552667Y20549810D01*
X61552667Y20694952D01*
X61601048Y20791714D01*
X61649429Y20840095D01*
X61746190Y20888476D01*
X61988095Y20888476D01*
X62084857Y20840095D01*
X62133238Y20791714D01*
X62181619Y20694952D01*
X62181619Y20404667D01*
X62133238Y20307905D01*
X62084857Y20259524D01*
X54854929Y16210643D02*
X54903310Y16355786D01*
X54951690Y16404167D01*
X55048452Y16452548D01*
X55193595Y16452548D01*
X55290357Y16404167D01*
X55338738Y16355786D01*
X55387119Y16259024D01*
X55387119Y15871977D01*
X54371119Y15871977D01*
X54371119Y16210643D01*
X54419500Y16307405D01*
X54467881Y16355786D01*
X54564643Y16404167D01*
X54661405Y16404167D01*
X54758167Y16355786D01*
X54806548Y16307405D01*
X54854929Y16210643D01*
X54854929Y15871977D01*
X55290357Y17468548D02*
X55338738Y17420167D01*
X55387119Y17275024D01*
X55387119Y17178262D01*
X55338738Y17033120D01*
X55241976Y16936358D01*
X55145214Y16887977D01*
X54951690Y16839596D01*
X54806548Y16839596D01*
X54613024Y16887977D01*
X54516262Y16936358D01*
X54419500Y17033120D01*
X54371119Y17178262D01*
X54371119Y17275024D01*
X54419500Y17420167D01*
X54467881Y17468548D01*
X54371119Y18339405D02*
X54371119Y18145882D01*
X54419500Y18049120D01*
X54467881Y18000739D01*
X54613024Y17903977D01*
X54806548Y17855596D01*
X55193595Y17855596D01*
X55290357Y17903977D01*
X55338738Y17952358D01*
X55387119Y18049120D01*
X55387119Y18242643D01*
X55338738Y18339405D01*
X55290357Y18387786D01*
X55193595Y18436167D01*
X54951690Y18436167D01*
X54854929Y18387786D01*
X54806548Y18339405D01*
X54758167Y18242643D01*
X54758167Y18049120D01*
X54806548Y17952358D01*
X54854929Y17903977D01*
X54951690Y17855596D01*
X54371119Y18774834D02*
X54371119Y19403786D01*
X54758167Y19065120D01*
X54758167Y19210262D01*
X54806548Y19307024D01*
X54854929Y19355405D01*
X54951690Y19403786D01*
X55193595Y19403786D01*
X55290357Y19355405D01*
X55338738Y19307024D01*
X55387119Y19210262D01*
X55387119Y18919977D01*
X55338738Y18823215D01*
X55290357Y18774834D01*
X55387119Y19887596D02*
X55387119Y20081120D01*
X55338738Y20177881D01*
X55290357Y20226262D01*
X55145214Y20323024D01*
X54951690Y20371405D01*
X54564643Y20371405D01*
X54467881Y20323024D01*
X54419500Y20274643D01*
X54371119Y20177881D01*
X54371119Y19984358D01*
X54419500Y19887596D01*
X54467881Y19839215D01*
X54564643Y19790834D01*
X54806548Y19790834D01*
X54903310Y19839215D01*
X54951690Y19887596D01*
X55000071Y19984358D01*
X55000071Y20177881D01*
X54951690Y20274643D01*
X54903310Y20323024D01*
X54806548Y20371405D01*
X62341881Y32478738D02*
X62293500Y32381976D01*
X62196738Y32285214D01*
X62051595Y32140071D01*
X62003214Y32043310D01*
X62003214Y31946548D01*
X62245119Y31994929D02*
X62196738Y31898167D01*
X62099976Y31801405D01*
X61906452Y31753024D01*
X61567786Y31753024D01*
X61374262Y31801405D01*
X61277500Y31898167D01*
X61229119Y31994929D01*
X61229119Y32188452D01*
X61277500Y32285214D01*
X61374262Y32381976D01*
X61567786Y32430357D01*
X61906452Y32430357D01*
X62099976Y32381976D01*
X62196738Y32285214D01*
X62245119Y32188452D01*
X62245119Y31994929D01*
X61325881Y32817405D02*
X61277500Y32865786D01*
X61229119Y32962548D01*
X61229119Y33204452D01*
X61277500Y33301214D01*
X61325881Y33349595D01*
X61422643Y33397976D01*
X61519405Y33397976D01*
X61664548Y33349595D01*
X62245119Y32769024D01*
X62245119Y33397976D01*
X55235929Y27894643D02*
X55284310Y28039786D01*
X55332690Y28088167D01*
X55429452Y28136548D01*
X55574595Y28136548D01*
X55671357Y28088167D01*
X55719738Y28039786D01*
X55768119Y27943024D01*
X55768119Y27555977D01*
X54752119Y27555977D01*
X54752119Y27894643D01*
X54800500Y27991405D01*
X54848881Y28039786D01*
X54945643Y28088167D01*
X55042405Y28088167D01*
X55139167Y28039786D01*
X55187548Y27991405D01*
X55235929Y27894643D01*
X55235929Y27555977D01*
X55671357Y29152548D02*
X55719738Y29104167D01*
X55768119Y28959024D01*
X55768119Y28862262D01*
X55719738Y28717120D01*
X55622976Y28620358D01*
X55526214Y28571977D01*
X55332690Y28523596D01*
X55187548Y28523596D01*
X54994024Y28571977D01*
X54897262Y28620358D01*
X54800500Y28717120D01*
X54752119Y28862262D01*
X54752119Y28959024D01*
X54800500Y29104167D01*
X54848881Y29152548D01*
X54752119Y30023405D02*
X54752119Y29829882D01*
X54800500Y29733120D01*
X54848881Y29684739D01*
X54994024Y29587977D01*
X55187548Y29539596D01*
X55574595Y29539596D01*
X55671357Y29587977D01*
X55719738Y29636358D01*
X55768119Y29733120D01*
X55768119Y29926643D01*
X55719738Y30023405D01*
X55671357Y30071786D01*
X55574595Y30120167D01*
X55332690Y30120167D01*
X55235929Y30071786D01*
X55187548Y30023405D01*
X55139167Y29926643D01*
X55139167Y29733120D01*
X55187548Y29636358D01*
X55235929Y29587977D01*
X55332690Y29539596D01*
X54752119Y30458834D02*
X54752119Y31087786D01*
X55139167Y30749120D01*
X55139167Y30894262D01*
X55187548Y30991024D01*
X55235929Y31039405D01*
X55332690Y31087786D01*
X55574595Y31087786D01*
X55671357Y31039405D01*
X55719738Y30991024D01*
X55768119Y30894262D01*
X55768119Y30603977D01*
X55719738Y30507215D01*
X55671357Y30458834D01*
X55768119Y31571596D02*
X55768119Y31765120D01*
X55719738Y31861881D01*
X55671357Y31910262D01*
X55526214Y32007024D01*
X55332690Y32055405D01*
X54945643Y32055405D01*
X54848881Y32007024D01*
X54800500Y31958643D01*
X54752119Y31861881D01*
X54752119Y31668358D01*
X54800500Y31571596D01*
X54848881Y31523215D01*
X54945643Y31474834D01*
X55187548Y31474834D01*
X55284310Y31523215D01*
X55332690Y31571596D01*
X55381071Y31668358D01*
X55381071Y31861881D01*
X55332690Y31958643D01*
X55284310Y32007024D01*
X55187548Y32055405D01*
X32034238Y89740619D02*
X31937476Y89789000D01*
X31840714Y89885762D01*
X31695571Y90030905D01*
X31598810Y90079286D01*
X31502048Y90079286D01*
X31550429Y89837381D02*
X31453667Y89885762D01*
X31356905Y89982524D01*
X31308524Y90176048D01*
X31308524Y90514714D01*
X31356905Y90708238D01*
X31453667Y90805000D01*
X31550429Y90853381D01*
X31743952Y90853381D01*
X31840714Y90805000D01*
X31937476Y90708238D01*
X31985857Y90514714D01*
X31985857Y90176048D01*
X31937476Y89982524D01*
X31840714Y89885762D01*
X31743952Y89837381D01*
X31550429Y89837381D01*
X32953476Y89837381D02*
X32372905Y89837381D01*
X32663191Y89837381D02*
X32663191Y90853381D01*
X32566429Y90708238D01*
X32469667Y90611476D01*
X32372905Y90563095D01*
X27450143Y96846571D02*
X27595286Y96798190D01*
X27643667Y96749810D01*
X27692048Y96653048D01*
X27692048Y96507905D01*
X27643667Y96411143D01*
X27595286Y96362762D01*
X27498524Y96314381D01*
X27111477Y96314381D01*
X27111477Y97330381D01*
X27450143Y97330381D01*
X27546905Y97282000D01*
X27595286Y97233619D01*
X27643667Y97136857D01*
X27643667Y97040095D01*
X27595286Y96943333D01*
X27546905Y96894952D01*
X27450143Y96846571D01*
X27111477Y96846571D01*
X28708048Y96411143D02*
X28659667Y96362762D01*
X28514524Y96314381D01*
X28417762Y96314381D01*
X28272620Y96362762D01*
X28175858Y96459524D01*
X28127477Y96556286D01*
X28079096Y96749810D01*
X28079096Y96894952D01*
X28127477Y97088476D01*
X28175858Y97185238D01*
X28272620Y97282000D01*
X28417762Y97330381D01*
X28514524Y97330381D01*
X28659667Y97282000D01*
X28708048Y97233619D01*
X29578905Y97330381D02*
X29385382Y97330381D01*
X29288620Y97282000D01*
X29240239Y97233619D01*
X29143477Y97088476D01*
X29095096Y96894952D01*
X29095096Y96507905D01*
X29143477Y96411143D01*
X29191858Y96362762D01*
X29288620Y96314381D01*
X29482143Y96314381D01*
X29578905Y96362762D01*
X29627286Y96411143D01*
X29675667Y96507905D01*
X29675667Y96749810D01*
X29627286Y96846571D01*
X29578905Y96894952D01*
X29482143Y96943333D01*
X29288620Y96943333D01*
X29191858Y96894952D01*
X29143477Y96846571D01*
X29095096Y96749810D01*
X30014334Y97330381D02*
X30643286Y97330381D01*
X30304620Y96943333D01*
X30449762Y96943333D01*
X30546524Y96894952D01*
X30594905Y96846571D01*
X30643286Y96749810D01*
X30643286Y96507905D01*
X30594905Y96411143D01*
X30546524Y96362762D01*
X30449762Y96314381D01*
X30159477Y96314381D01*
X30062715Y96362762D01*
X30014334Y96411143D01*
X31127096Y96314381D02*
X31320620Y96314381D01*
X31417381Y96362762D01*
X31465762Y96411143D01*
X31562524Y96556286D01*
X31610905Y96749810D01*
X31610905Y97136857D01*
X31562524Y97233619D01*
X31514143Y97282000D01*
X31417381Y97330381D01*
X31223858Y97330381D01*
X31127096Y97282000D01*
X31078715Y97233619D01*
X31030334Y97136857D01*
X31030334Y96894952D01*
X31078715Y96798190D01*
X31127096Y96749810D01*
X31223858Y96701429D01*
X31417381Y96701429D01*
X31514143Y96749810D01*
X31562524Y96798190D01*
X31610905Y96894952D01*
D21*
X32474263Y70055921D02*
X32474263Y71846621D01*
X32884534Y71846621D01*
X32987101Y71761350D01*
X33038385Y71676079D01*
X33089669Y71505536D01*
X33089669Y71249721D01*
X33038385Y71079179D01*
X32987101Y70993907D01*
X32884534Y70908636D01*
X32474263Y70908636D01*
X34115345Y70055921D02*
X33499939Y70055921D01*
X33807642Y70055921D02*
X33807642Y71846621D01*
X33705074Y71590807D01*
X33602507Y71420264D01*
X33499939Y71334993D01*
X35038453Y71846621D02*
X34833318Y71846621D01*
X34730750Y71761350D01*
X34679467Y71676079D01*
X34576899Y71420264D01*
X34525615Y71079179D01*
X34525615Y70397007D01*
X34576899Y70226464D01*
X34628183Y70141193D01*
X34730750Y70055921D01*
X34935886Y70055921D01*
X35038453Y70141193D01*
X35089737Y70226464D01*
X35141021Y70397007D01*
X35141021Y70823364D01*
X35089737Y70993907D01*
X35038453Y71079179D01*
X34935886Y71164450D01*
X34730750Y71164450D01*
X34628183Y71079179D01*
X34576899Y70993907D01*
X34525615Y70823364D01*
D17*
X29113239Y69160571D02*
X29451906Y67636571D01*
X29790572Y69160571D01*
X29887334Y67491429D02*
X30661429Y67491429D01*
X31483905Y67636571D02*
X31145239Y68362286D01*
X30903334Y67636571D02*
X30903334Y69160571D01*
X31290381Y69160571D01*
X31387143Y69088000D01*
X31435524Y69015429D01*
X31483905Y68870286D01*
X31483905Y68652571D01*
X31435524Y68507429D01*
X31387143Y68434857D01*
X31290381Y68362286D01*
X30903334Y68362286D01*
X31919334Y68434857D02*
X32258000Y68434857D01*
X32403143Y67636571D02*
X31919334Y67636571D01*
X31919334Y69160571D01*
X32403143Y69160571D01*
X33177238Y68434857D02*
X32838572Y68434857D01*
X32838572Y67636571D02*
X32838572Y69160571D01*
X33322381Y69160571D01*
M02*
