G04 #@! TF.FileFunction,Copper,L1,Top,Signal*
%FSLAX46Y46*%
G04 Gerber Fmt 4.6, Leading zero omitted, Abs format (unit mm)*
G04 Created by KiCad (PCBNEW 4.0.4-stable) date 01/06/17 10:24:34*
%MOMM*%
%LPD*%
G01*
G04 APERTURE LIST*
%ADD10C,0.150000*%
%ADD11C,1.900000*%
%ADD12R,2.286000X1.574800*%
%ADD13O,2.286000X1.574800*%
%ADD14O,1.727200X2.032000*%
%ADD15R,1.727200X2.032000*%
%ADD16C,2.032000*%
%ADD17R,2.032000X2.032000*%
%ADD18C,2.540000*%
%ADD19R,2.499360X2.499360*%
%ADD20C,2.499360*%
%ADD21R,2.032000X1.727200*%
%ADD22O,2.032000X1.727200*%
%ADD23R,1.500000X1.500000*%
%ADD24C,1.500000*%
%ADD25C,2.400300*%
%ADD26R,1.800860X1.800860*%
%ADD27C,1.800860*%
%ADD28R,1.600000X2.800000*%
%ADD29O,1.600000X2.800000*%
%ADD30R,1.905000X1.905000*%
%ADD31C,1.905000*%
%ADD32C,0.889000*%
%ADD33C,1.270000*%
%ADD34C,0.762000*%
%ADD35C,0.254000*%
G04 APERTURE END LIST*
D10*
D11*
X40640000Y76835000D03*
X40640000Y79375000D03*
X40640000Y81915000D03*
X40640000Y84455000D03*
X40640000Y86995000D03*
X40640000Y89535000D03*
X40640000Y92075000D03*
X40640000Y94615000D03*
X22225000Y94615000D03*
X22225000Y92075000D03*
X22225000Y89535000D03*
X22225000Y86995000D03*
X22225000Y84455000D03*
X22225000Y81915000D03*
X22225000Y79375000D03*
X22225000Y76835000D03*
D12*
X35560000Y22860000D03*
D13*
X35560000Y25400000D03*
X35560000Y27940000D03*
X35560000Y30480000D03*
X35560000Y33020000D03*
X35560000Y35560000D03*
X35560000Y38100000D03*
X35560000Y40640000D03*
X35560000Y43180000D03*
X35560000Y45720000D03*
X35560000Y48260000D03*
X35560000Y50800000D03*
X35560000Y53340000D03*
X35560000Y55880000D03*
X35560000Y58420000D03*
X20320000Y58420000D03*
X20320000Y55880000D03*
X20320000Y53340000D03*
X20320000Y50800000D03*
X20320000Y48260000D03*
X20320000Y45720000D03*
X20320000Y43180000D03*
X20320000Y40640000D03*
X20320000Y38100000D03*
X20320000Y35560000D03*
X20320000Y33020000D03*
X20320000Y30480000D03*
X20320000Y27940000D03*
X20320000Y25400000D03*
X20320000Y22860000D03*
D14*
X58420000Y94615000D03*
D15*
X47625000Y94615000D03*
D14*
X60880000Y94455000D03*
X55880000Y94615000D03*
X45085000Y94615000D03*
X60325000Y75565000D03*
X57785000Y75565000D03*
X47625000Y75565000D03*
X45085000Y75565000D03*
D16*
X43942000Y33655000D03*
D17*
X43942000Y31115000D03*
D18*
X13081000Y85090000D03*
X13081000Y94488000D03*
X18161000Y79375000D03*
X18161000Y69977000D03*
X25019000Y45339000D03*
X25019000Y54737000D03*
D19*
X6985000Y72390000D03*
D20*
X6985000Y77470000D03*
D19*
X68580000Y84455000D03*
D20*
X68580000Y79375000D03*
D17*
X17145000Y94615000D03*
X17145000Y92456000D03*
D21*
X40894000Y21590000D03*
D22*
X40894000Y24130000D03*
X40894000Y26670000D03*
D17*
X70485000Y13335000D03*
D16*
X70485000Y18415000D03*
X70485000Y23495000D03*
X70485000Y28575000D03*
D23*
X68374000Y17955000D03*
D24*
X68374000Y19955000D03*
X68374000Y21955000D03*
X68374000Y23955000D03*
D19*
X68580000Y64135000D03*
D20*
X68580000Y59055000D03*
D19*
X68580000Y74295000D03*
D20*
X68580000Y69215000D03*
D19*
X6985000Y82550000D03*
D20*
X6985000Y87630000D03*
D16*
X43942000Y26924000D03*
X43942000Y19304000D03*
X12700000Y78740000D03*
X12700000Y71120000D03*
X13970000Y33020000D03*
X13970000Y25400000D03*
X15240000Y78740000D03*
X15240000Y71120000D03*
X13970000Y46355000D03*
X13970000Y38735000D03*
X25019000Y34798000D03*
X25019000Y42418000D03*
X28067000Y45466000D03*
X28067000Y53086000D03*
X30480000Y86995000D03*
X30480000Y79375000D03*
X34290000Y86995000D03*
X34290000Y79375000D03*
X36830000Y86995000D03*
X36830000Y79375000D03*
X27940000Y86995000D03*
X27940000Y79375000D03*
X53022500Y37147500D03*
X60642500Y37147500D03*
X60642500Y34607500D03*
X53022500Y34607500D03*
X53022500Y25082500D03*
X60642500Y25082500D03*
X60642500Y22542500D03*
X53022500Y22542500D03*
X53657500Y13017500D03*
X61277500Y13017500D03*
X61277500Y10477500D03*
X53657500Y10477500D03*
D25*
X6350000Y66675000D03*
X12700000Y66675000D03*
X6350000Y59690000D03*
X12700000Y59690000D03*
X6350000Y52705000D03*
X12700000Y52705000D03*
D26*
X3175000Y65405000D03*
D27*
X3175000Y67945000D03*
D26*
X3175000Y58420000D03*
D27*
X3175000Y60960000D03*
D26*
X3175000Y51435000D03*
D27*
X3175000Y53975000D03*
D17*
X5715000Y19685000D03*
D16*
X5715000Y17145000D03*
X5715000Y14605000D03*
X5715000Y12065000D03*
D23*
X7826000Y18875000D03*
D24*
X7826000Y16875000D03*
X7826000Y14875000D03*
X7826000Y12875000D03*
D17*
X5715000Y46355000D03*
D16*
X5715000Y43815000D03*
X5715000Y41275000D03*
X5715000Y38735000D03*
D23*
X7826000Y45545000D03*
D24*
X7826000Y43545000D03*
X7826000Y41545000D03*
X7826000Y39545000D03*
D17*
X5715000Y33020000D03*
D16*
X5715000Y30480000D03*
X5715000Y27940000D03*
X5715000Y25400000D03*
D23*
X7826000Y32210000D03*
D24*
X7826000Y30210000D03*
X7826000Y28210000D03*
X7826000Y26210000D03*
D28*
X53800000Y60960000D03*
D29*
X47800000Y60960000D03*
D21*
X69215000Y38100000D03*
D22*
X69215000Y40640000D03*
X69215000Y43180000D03*
X69215000Y45720000D03*
X69215000Y48260000D03*
X69215000Y50800000D03*
D30*
X61277500Y4762500D03*
D31*
X58737500Y7302500D03*
X58737500Y4762500D03*
D30*
X61277500Y17462500D03*
D31*
X58737500Y20002500D03*
X58737500Y17462500D03*
D30*
X61658500Y29146500D03*
D31*
X59118500Y31686500D03*
X59118500Y29146500D03*
D30*
X28702000Y90424000D03*
D31*
X31242000Y92964000D03*
X28702000Y92964000D03*
D17*
X28448000Y70866000D03*
X30607000Y70866000D03*
D32*
X47625000Y86360000D03*
X56515000Y37084000D03*
X33274000Y73152000D03*
X27051000Y66802000D03*
X28321000Y68199000D03*
X57785000Y88138000D03*
D33*
X47625000Y94615000D02*
X47625000Y86360000D01*
X25336500Y63627000D02*
X49403000Y63627000D01*
X52070000Y60960000D02*
X53800000Y60960000D01*
X49403000Y63627000D02*
X52070000Y60960000D01*
X13081000Y85090000D02*
X17399000Y85090000D01*
X20320000Y73914000D02*
X25336500Y68897500D01*
X20320000Y82169000D02*
X20320000Y73914000D01*
X17399000Y85090000D02*
X20320000Y82169000D01*
X25336500Y68897500D02*
X25336500Y63627000D01*
D34*
X25336500Y63627000D02*
X25400000Y63627000D01*
X25400000Y63627000D02*
X25336500Y63627000D01*
X40894000Y26670000D02*
X40513000Y26670000D01*
X40513000Y26670000D02*
X37846000Y24003000D01*
X37846000Y24003000D02*
X37846000Y21590000D01*
X37846000Y21590000D02*
X36830000Y20574000D01*
X36830000Y20574000D02*
X29845000Y20574000D01*
X29845000Y20574000D02*
X26289000Y24130000D01*
X26289000Y24130000D02*
X26289000Y30480000D01*
X25336500Y68897500D02*
X25336500Y63627000D01*
X25336500Y63627000D02*
X25336500Y61531500D01*
X25336500Y61531500D02*
X22987000Y59182000D01*
X22987000Y59182000D02*
X22987000Y53721000D01*
X22987000Y53721000D02*
X30480000Y46228000D01*
X30480000Y46228000D02*
X30480000Y34671000D01*
X30480000Y34671000D02*
X26289000Y30480000D01*
X26289000Y30480000D02*
X20955000Y30480000D01*
X13970000Y33020000D02*
X11684000Y33020000D01*
X11684000Y33020000D02*
X11811000Y33020000D01*
X11811000Y33020000D02*
X11684000Y33020000D01*
X7826000Y12875000D02*
X9573000Y12875000D01*
X9573000Y12875000D02*
X11684000Y14986000D01*
X11684000Y14986000D02*
X11684000Y33020000D01*
X11684000Y33020000D02*
X11684000Y35941000D01*
X11684000Y45085000D02*
X12954000Y46355000D01*
X11684000Y35941000D02*
X11684000Y45085000D01*
X12954000Y46355000D02*
X13970000Y46355000D01*
D33*
X62420500Y42989500D02*
X56515000Y37084000D01*
X63881000Y28448000D02*
X63881000Y41529000D01*
X47800000Y57610000D02*
X47800000Y60960000D01*
X63881000Y41529000D02*
X62420500Y42989500D01*
X62420500Y42989500D02*
X47800000Y57610000D01*
X61658500Y29146500D02*
X63182500Y29146500D01*
X63182500Y29146500D02*
X63881000Y28448000D01*
X63881000Y28448000D02*
X63881000Y5461000D01*
X61277500Y17462500D02*
X63881000Y17462500D01*
X63881000Y5461000D02*
X63182500Y4762500D01*
X63182500Y4762500D02*
X61277500Y4762500D01*
X25019000Y54737000D02*
X25019000Y54864000D01*
X25019000Y54864000D02*
X31115000Y60960000D01*
X31115000Y60960000D02*
X47800000Y60960000D01*
D34*
X63754000Y17399000D02*
X63881000Y17399000D01*
X63817500Y17399000D02*
X63754000Y17399000D01*
X63881000Y17462500D02*
X63817500Y17399000D01*
X63182500Y4762500D02*
X61277500Y4762500D01*
X63881000Y5461000D02*
X63182500Y4762500D01*
X63881000Y28448000D02*
X63881000Y17399000D01*
X63881000Y17399000D02*
X63881000Y5461000D01*
X63182500Y29146500D02*
X63881000Y28448000D01*
X47800000Y60960000D02*
X31115000Y60960000D01*
X6985000Y82550000D02*
X6985000Y82804000D01*
X6985000Y82804000D02*
X13716000Y89535000D01*
X17145000Y90170000D02*
X17145000Y92456000D01*
X16510000Y89535000D02*
X17145000Y90170000D01*
X13716000Y89535000D02*
X16510000Y89535000D01*
X31115000Y60960000D02*
X25019000Y54864000D01*
X20320000Y48260000D02*
X19812000Y48260000D01*
X19812000Y48260000D02*
X17399000Y50673000D01*
X17399000Y50673000D02*
X17399000Y64897000D01*
X17399000Y64897000D02*
X16510000Y65786000D01*
X12700000Y71120000D02*
X12700000Y69596000D01*
X12700000Y69596000D02*
X16510000Y65786000D01*
X30607000Y75819000D02*
X30607000Y79248000D01*
X33274000Y73152000D02*
X30607000Y75819000D01*
X30607000Y79248000D02*
X30480000Y79375000D01*
X53657500Y13017500D02*
X53149500Y13017500D01*
X53149500Y13017500D02*
X49911000Y16256000D01*
X49911000Y16256000D02*
X49911000Y45720000D01*
X49911000Y45720000D02*
X44831000Y50800000D01*
X44831000Y50800000D02*
X35560000Y50800000D01*
X35560000Y53340000D02*
X44196000Y53340000D01*
X51181000Y26924000D02*
X53022500Y25082500D01*
X51181000Y46355000D02*
X51181000Y26924000D01*
X44196000Y53340000D02*
X51181000Y46355000D01*
X35560000Y55880000D02*
X43434000Y55880000D01*
X53022500Y46291500D02*
X53022500Y37147500D01*
X43434000Y55880000D02*
X53022500Y46291500D01*
X30480000Y70739000D02*
X30480000Y67310000D01*
X29972000Y66802000D02*
X30480000Y67310000D01*
X29972000Y66802000D02*
X27051000Y66802000D01*
X30480000Y70739000D02*
X30607000Y70866000D01*
X28321000Y68199000D02*
X28448000Y68326000D01*
X28448000Y68326000D02*
X28448000Y70866000D01*
X20320000Y33020000D02*
X18415000Y33020000D01*
X15748000Y35687000D02*
X15748000Y48006000D01*
X18415000Y33020000D02*
X15748000Y35687000D01*
X20955000Y33020000D02*
X20193000Y33020000D01*
X15748000Y48006000D02*
X12700000Y51054000D01*
X12700000Y51054000D02*
X12700000Y52705000D01*
X16891000Y47625000D02*
X16891000Y48260000D01*
X14859000Y50292000D02*
X14859000Y52451000D01*
X16891000Y48260000D02*
X14859000Y50292000D01*
X20320000Y35560000D02*
X18542000Y35560000D01*
X14859000Y57531000D02*
X12700000Y59690000D01*
X14859000Y52451000D02*
X14859000Y57531000D01*
X16891000Y37211000D02*
X16891000Y47625000D01*
X18542000Y35560000D02*
X16891000Y37211000D01*
X19812000Y35560000D02*
X20955000Y35560000D01*
X20955000Y35560000D02*
X20066000Y35560000D01*
X17907000Y46990000D02*
X17907000Y48641000D01*
X15875000Y50673000D02*
X15875000Y52451000D01*
X17907000Y48641000D02*
X15875000Y50673000D01*
X20320000Y38100000D02*
X19050000Y38100000D01*
X15875000Y63500000D02*
X12700000Y66675000D01*
X15875000Y52451000D02*
X15875000Y63500000D01*
X17907000Y39243000D02*
X17907000Y46990000D01*
X19050000Y38100000D02*
X17907000Y39243000D01*
X20955000Y38100000D02*
X20574000Y38100000D01*
X12700000Y66675000D02*
X13462000Y66675000D01*
X22225000Y92075000D02*
X26416000Y92075000D01*
X27305000Y92964000D02*
X28702000Y92964000D01*
X26416000Y92075000D02*
X27305000Y92964000D01*
X17145000Y94615000D02*
X18923000Y94615000D01*
X18923000Y94615000D02*
X21463000Y92075000D01*
X21463000Y92075000D02*
X22225000Y92075000D01*
X40005000Y84455000D02*
X51308000Y84455000D01*
X55880000Y89027000D02*
X55880000Y94615000D01*
X51308000Y84455000D02*
X55880000Y89027000D01*
X60880000Y91233000D02*
X60880000Y94455000D01*
X57785000Y88138000D02*
X60880000Y91233000D01*
D35*
G36*
X71355919Y98876097D02*
X72735805Y98053052D01*
X73695686Y96764601D01*
X74107203Y95136589D01*
X74104500Y95123000D01*
X74104500Y5161303D01*
X73765704Y3458062D01*
X72846951Y2083051D01*
X71471938Y1164296D01*
X69768697Y825500D01*
X5161303Y825500D01*
X3458062Y1164296D01*
X2083051Y2083049D01*
X1164296Y3458062D01*
X941689Y4577185D01*
X2864630Y4577185D01*
X3188980Y3792200D01*
X3789041Y3191091D01*
X4573459Y2865372D01*
X5422815Y2864630D01*
X6207800Y3188980D01*
X6808909Y3789041D01*
X7134628Y4573459D01*
X7135370Y5422815D01*
X6811020Y6207800D01*
X6210959Y6808909D01*
X5779391Y6988112D01*
X57149725Y6988112D01*
X57390898Y6404428D01*
X57762435Y6032243D01*
X57392468Y5662921D01*
X57150276Y5079659D01*
X57149725Y4448112D01*
X57390898Y3864428D01*
X57837079Y3417468D01*
X58420341Y3175276D01*
X59051888Y3174725D01*
X59635572Y3415898D01*
X59752553Y3532675D01*
X59786673Y3450302D01*
X59965301Y3271673D01*
X60198690Y3175000D01*
X60991750Y3175000D01*
X61150500Y3333750D01*
X61150500Y4635500D01*
X61404500Y4635500D01*
X61404500Y3333750D01*
X61563250Y3175000D01*
X62356310Y3175000D01*
X62589699Y3271673D01*
X62768327Y3450302D01*
X62865000Y3683691D01*
X62865000Y4476750D01*
X62764565Y4577185D01*
X67864630Y4577185D01*
X68188980Y3792200D01*
X68789041Y3191091D01*
X69573459Y2865372D01*
X70422815Y2864630D01*
X71207800Y3188980D01*
X71808909Y3789041D01*
X72134628Y4573459D01*
X72135370Y5422815D01*
X71811020Y6207800D01*
X71210959Y6808909D01*
X70426541Y7134628D01*
X69577185Y7135370D01*
X68792200Y6811020D01*
X68191091Y6210959D01*
X67865372Y5426541D01*
X67864630Y4577185D01*
X62764565Y4577185D01*
X62706250Y4635500D01*
X61404500Y4635500D01*
X61150500Y4635500D01*
X61130500Y4635500D01*
X61130500Y4889500D01*
X61150500Y4889500D01*
X61150500Y6191250D01*
X61404500Y6191250D01*
X61404500Y4889500D01*
X62706250Y4889500D01*
X62865000Y5048250D01*
X62865000Y5841309D01*
X62768327Y6074698D01*
X62589699Y6253327D01*
X62356310Y6350000D01*
X61563250Y6350000D01*
X61404500Y6191250D01*
X61150500Y6191250D01*
X60991750Y6350000D01*
X60198690Y6350000D01*
X59965301Y6253327D01*
X59786673Y6074698D01*
X59752663Y5992590D01*
X59712565Y6032757D01*
X60082532Y6402079D01*
X60324724Y6985341D01*
X60325275Y7616888D01*
X60084102Y8200572D01*
X59637921Y8647532D01*
X59054659Y8889724D01*
X58423112Y8890275D01*
X57839428Y8649102D01*
X57392468Y8202921D01*
X57150276Y7619659D01*
X57149725Y6988112D01*
X5779391Y6988112D01*
X5426541Y7134628D01*
X4577185Y7135370D01*
X3792200Y6811020D01*
X3191091Y6210959D01*
X2865372Y5426541D01*
X2864630Y4577185D01*
X941689Y4577185D01*
X825500Y5161303D01*
X825500Y9313393D01*
X52672998Y9313393D01*
X52773620Y9044878D01*
X53389142Y8815684D01*
X54045519Y8839486D01*
X54541380Y9044878D01*
X54642002Y9313393D01*
X53657500Y10297895D01*
X52672998Y9313393D01*
X825500Y9313393D01*
X825500Y16818037D01*
X4063714Y16818037D01*
X4314534Y16211005D01*
X4650132Y15874821D01*
X4316166Y15541437D01*
X4064287Y14934845D01*
X4063714Y14278037D01*
X4314534Y13671005D01*
X4650132Y13334821D01*
X4316166Y13001437D01*
X4064287Y12394845D01*
X4063714Y11738037D01*
X4314534Y11131005D01*
X4778563Y10666166D01*
X5385155Y10414287D01*
X6041963Y10413714D01*
X6648995Y10664534D01*
X6730460Y10745858D01*
X51995684Y10745858D01*
X52019486Y10089481D01*
X52224878Y9593620D01*
X52493393Y9492998D01*
X53477895Y10477500D01*
X53837105Y10477500D01*
X54821607Y9492998D01*
X55090122Y9593620D01*
X55319316Y10209142D01*
X55295514Y10865519D01*
X55090122Y11361380D01*
X54821607Y11462002D01*
X53837105Y10477500D01*
X53477895Y10477500D01*
X52493393Y11462002D01*
X52224878Y11361380D01*
X51995684Y10745858D01*
X6730460Y10745858D01*
X7113834Y11128563D01*
X7305971Y11591279D01*
X7549298Y11490241D01*
X8100285Y11489760D01*
X8609515Y11700169D01*
X8768623Y11859000D01*
X9573000Y11859000D01*
X9897300Y11923507D01*
X9961807Y11936338D01*
X10291420Y12156580D01*
X12402421Y14267580D01*
X12622662Y14597193D01*
X12689251Y14931963D01*
X12700000Y14986000D01*
X12700000Y18139893D01*
X42957498Y18139893D01*
X43058120Y17871378D01*
X43673642Y17642184D01*
X44330019Y17665986D01*
X44825880Y17871378D01*
X44926502Y18139893D01*
X43942000Y19124395D01*
X42957498Y18139893D01*
X12700000Y18139893D01*
X12700000Y22860000D01*
X18507167Y22860000D01*
X18615441Y22315671D01*
X18923778Y21854211D01*
X19385238Y21545874D01*
X19929567Y21437600D01*
X20710433Y21437600D01*
X21254762Y21545874D01*
X21716222Y21854211D01*
X22024559Y22315671D01*
X22132833Y22860000D01*
X22024559Y23404329D01*
X21716222Y23865789D01*
X21321170Y24129754D01*
X21337262Y24134475D01*
X21771191Y24484014D01*
X22038327Y24973004D01*
X22055010Y25052940D01*
X21932852Y25273000D01*
X20447000Y25273000D01*
X20447000Y25253000D01*
X20193000Y25253000D01*
X20193000Y25273000D01*
X18707148Y25273000D01*
X18584990Y25052940D01*
X18601673Y24973004D01*
X18868809Y24484014D01*
X19302738Y24134475D01*
X19318830Y24129754D01*
X18923778Y23865789D01*
X18615441Y23404329D01*
X18507167Y22860000D01*
X12700000Y22860000D01*
X12700000Y24335311D01*
X13033563Y24001166D01*
X13640155Y23749287D01*
X14296963Y23748714D01*
X14903995Y23999534D01*
X15368834Y24463563D01*
X15620713Y25070155D01*
X15621286Y25726963D01*
X15370466Y26333995D01*
X14906437Y26798834D01*
X14299845Y27050713D01*
X13643037Y27051286D01*
X13036005Y26800466D01*
X12700000Y26465047D01*
X12700000Y31955311D01*
X13033563Y31621166D01*
X13640155Y31369287D01*
X14296963Y31368714D01*
X14903995Y31619534D01*
X15368834Y32083563D01*
X15620713Y32690155D01*
X15621286Y33346963D01*
X15370466Y33953995D01*
X14906437Y34418834D01*
X14299845Y34670713D01*
X13643037Y34671286D01*
X13036005Y34420466D01*
X12700000Y34085047D01*
X12700000Y37670311D01*
X13033563Y37336166D01*
X13640155Y37084287D01*
X14296963Y37083714D01*
X14732000Y37263467D01*
X14732000Y35687000D01*
X14760457Y35543937D01*
X14809338Y35298193D01*
X15029580Y34968580D01*
X17696580Y32301579D01*
X18026193Y32081338D01*
X18415000Y32004000D01*
X18939060Y32004000D01*
X19319199Y31750000D01*
X18923778Y31485789D01*
X18615441Y31024329D01*
X18507167Y30480000D01*
X18615441Y29935671D01*
X18923778Y29474211D01*
X19319199Y29210000D01*
X18923778Y28945789D01*
X18615441Y28484329D01*
X18507167Y27940000D01*
X18615441Y27395671D01*
X18923778Y26934211D01*
X19318830Y26670246D01*
X19302738Y26665525D01*
X18868809Y26315986D01*
X18601673Y25826996D01*
X18584990Y25747060D01*
X18707148Y25527000D01*
X20193000Y25527000D01*
X20193000Y25547000D01*
X20447000Y25547000D01*
X20447000Y25527000D01*
X21932852Y25527000D01*
X22055010Y25747060D01*
X22038327Y25826996D01*
X21771191Y26315986D01*
X21337262Y26665525D01*
X21321170Y26670246D01*
X21716222Y26934211D01*
X22024559Y27395671D01*
X22132833Y27940000D01*
X22024559Y28484329D01*
X21716222Y28945789D01*
X21320801Y29210000D01*
X21700940Y29464000D01*
X25273000Y29464000D01*
X25273000Y24130000D01*
X25325555Y23865789D01*
X25350338Y23741193D01*
X25570580Y23411580D01*
X29126579Y19855580D01*
X29282632Y19751309D01*
X29456194Y19635338D01*
X29845000Y19558000D01*
X36830000Y19558000D01*
X36902182Y19572358D01*
X42280184Y19572358D01*
X42303986Y18915981D01*
X42509378Y18420120D01*
X42777893Y18319498D01*
X43762395Y19304000D01*
X44121605Y19304000D01*
X45106107Y18319498D01*
X45374622Y18420120D01*
X45603816Y19035642D01*
X45580014Y19692019D01*
X45374622Y20187880D01*
X45106107Y20288502D01*
X44121605Y19304000D01*
X43762395Y19304000D01*
X42777893Y20288502D01*
X42509378Y20187880D01*
X42280184Y19572358D01*
X36902182Y19572358D01*
X37154300Y19622507D01*
X37218807Y19635338D01*
X37548420Y19855580D01*
X38564421Y20871580D01*
X38784662Y21201193D01*
X38805160Y21304250D01*
X39243000Y21304250D01*
X39243000Y20600090D01*
X39339673Y20366701D01*
X39518302Y20188073D01*
X39751691Y20091400D01*
X40608250Y20091400D01*
X40767000Y20250150D01*
X40767000Y21463000D01*
X41021000Y21463000D01*
X41021000Y20250150D01*
X41179750Y20091400D01*
X42036309Y20091400D01*
X42269698Y20188073D01*
X42448327Y20366701D01*
X42490330Y20468107D01*
X42957498Y20468107D01*
X43942000Y19483605D01*
X44926502Y20468107D01*
X44825880Y20736622D01*
X44210358Y20965816D01*
X43553981Y20942014D01*
X43058120Y20736622D01*
X42957498Y20468107D01*
X42490330Y20468107D01*
X42545000Y20600090D01*
X42545000Y21304250D01*
X42386250Y21463000D01*
X41021000Y21463000D01*
X40767000Y21463000D01*
X39401750Y21463000D01*
X39243000Y21304250D01*
X38805160Y21304250D01*
X38813770Y21347532D01*
X38862000Y21590000D01*
X38862000Y23582160D01*
X39243702Y23963862D01*
X39324729Y23556511D01*
X39649585Y23070330D01*
X39671780Y23055500D01*
X39518302Y22991927D01*
X39339673Y22813299D01*
X39243000Y22579910D01*
X39243000Y21875750D01*
X39401750Y21717000D01*
X40767000Y21717000D01*
X40767000Y21737000D01*
X41021000Y21737000D01*
X41021000Y21717000D01*
X42386250Y21717000D01*
X42545000Y21875750D01*
X42545000Y22579910D01*
X42448327Y22813299D01*
X42269698Y22991927D01*
X42116220Y23055500D01*
X42138415Y23070330D01*
X42463271Y23556511D01*
X42577345Y24130000D01*
X42463271Y24703489D01*
X42138415Y25189670D01*
X41823634Y25400000D01*
X42138415Y25610330D01*
X42463271Y26096511D01*
X42474403Y26152475D01*
X42541534Y25990005D01*
X43005563Y25525166D01*
X43612155Y25273287D01*
X44268963Y25272714D01*
X44875995Y25523534D01*
X45340834Y25987563D01*
X45592713Y26594155D01*
X45593286Y27250963D01*
X45342466Y27857995D01*
X44878437Y28322834D01*
X44271845Y28574713D01*
X43615037Y28575286D01*
X43008005Y28324466D01*
X42543166Y27860437D01*
X42354551Y27406201D01*
X42138415Y27729670D01*
X41652234Y28054526D01*
X41078745Y28168600D01*
X40709255Y28168600D01*
X40135766Y28054526D01*
X39649585Y27729670D01*
X39324729Y27243489D01*
X39244051Y26837891D01*
X37265236Y24859076D01*
X37372833Y25400000D01*
X37264559Y25944329D01*
X36956222Y26405789D01*
X36560801Y26670000D01*
X36956222Y26934211D01*
X37264559Y27395671D01*
X37372833Y27940000D01*
X37264559Y28484329D01*
X36956222Y28945789D01*
X36561170Y29209754D01*
X36577262Y29214475D01*
X37011191Y29564014D01*
X37278327Y30053004D01*
X37295010Y30132940D01*
X37172852Y30353000D01*
X35687000Y30353000D01*
X35687000Y30333000D01*
X35433000Y30333000D01*
X35433000Y30353000D01*
X33947148Y30353000D01*
X33824990Y30132940D01*
X33841673Y30053004D01*
X34108809Y29564014D01*
X34542738Y29214475D01*
X34558830Y29209754D01*
X34163778Y28945789D01*
X33855441Y28484329D01*
X33747167Y27940000D01*
X33855441Y27395671D01*
X34163778Y26934211D01*
X34559199Y26670000D01*
X34163778Y26405789D01*
X33855441Y25944329D01*
X33747167Y25400000D01*
X33855441Y24855671D01*
X34163778Y24394211D01*
X34335460Y24279497D01*
X34181683Y24250562D01*
X33965559Y24111490D01*
X33820569Y23899290D01*
X33769560Y23647400D01*
X33769560Y22072600D01*
X33813838Y21837283D01*
X33952910Y21621159D01*
X33998513Y21590000D01*
X30265841Y21590000D01*
X27305000Y24550840D01*
X27305000Y30059160D01*
X31198420Y33952579D01*
X31418662Y34282193D01*
X31446166Y34420466D01*
X31496000Y34671000D01*
X31496000Y46228000D01*
X31418662Y46616806D01*
X31322047Y46761400D01*
X31198420Y46946421D01*
X26222948Y51921893D01*
X27082498Y51921893D01*
X27183120Y51653378D01*
X27798642Y51424184D01*
X28455019Y51447986D01*
X28950880Y51653378D01*
X29051502Y51921893D01*
X28067000Y52906395D01*
X27082498Y51921893D01*
X26222948Y51921893D01*
X25305983Y52838857D01*
X25447632Y52842564D01*
X26055480Y53094343D01*
X26187172Y53389223D01*
X25019000Y54557395D01*
X25004858Y54543252D01*
X24825253Y54722857D01*
X24839395Y54737000D01*
X25198605Y54737000D01*
X26366777Y53568828D01*
X26508633Y53632180D01*
X26405184Y53354358D01*
X26428986Y52697981D01*
X26634378Y52202120D01*
X26902893Y52101498D01*
X27887395Y53086000D01*
X28246605Y53086000D01*
X29231107Y52101498D01*
X29499622Y52202120D01*
X29728816Y52817642D01*
X29705014Y53474019D01*
X29499622Y53969880D01*
X29231107Y54070502D01*
X28246605Y53086000D01*
X27887395Y53086000D01*
X27873253Y53100142D01*
X28052858Y53279747D01*
X28067000Y53265605D01*
X29051502Y54250107D01*
X28950880Y54518622D01*
X28335358Y54747816D01*
X27678981Y54724014D01*
X27183120Y54518622D01*
X27082499Y54250109D01*
X26968259Y54364349D01*
X26884235Y54280325D01*
X26933261Y54408036D01*
X26913436Y55165632D01*
X26661657Y55773480D01*
X26366777Y55905172D01*
X25198605Y54737000D01*
X24839395Y54737000D01*
X24825253Y54751142D01*
X25004858Y54930747D01*
X25019000Y54916605D01*
X26187172Y56084777D01*
X26055480Y56379657D01*
X25347964Y56651261D01*
X24590368Y56631436D01*
X24003000Y56388140D01*
X24003000Y58420000D01*
X33747167Y58420000D01*
X33855441Y57875671D01*
X34163778Y57414211D01*
X34559199Y57150000D01*
X34163778Y56885789D01*
X33855441Y56424329D01*
X33747167Y55880000D01*
X33855441Y55335671D01*
X34163778Y54874211D01*
X34559199Y54610000D01*
X34163778Y54345789D01*
X33855441Y53884329D01*
X33747167Y53340000D01*
X33855441Y52795671D01*
X34163778Y52334211D01*
X34559199Y52070000D01*
X34163778Y51805789D01*
X33855441Y51344329D01*
X33747167Y50800000D01*
X33855441Y50255671D01*
X34163778Y49794211D01*
X34559199Y49530000D01*
X34163778Y49265789D01*
X33855441Y48804329D01*
X33747167Y48260000D01*
X33855441Y47715671D01*
X34163778Y47254211D01*
X34559199Y46990000D01*
X34163778Y46725789D01*
X33855441Y46264329D01*
X33747167Y45720000D01*
X33855441Y45175671D01*
X34163778Y44714211D01*
X34559199Y44450000D01*
X34163778Y44185789D01*
X33855441Y43724329D01*
X33747167Y43180000D01*
X33855441Y42635671D01*
X34163778Y42174211D01*
X34559199Y41910000D01*
X34163778Y41645789D01*
X33855441Y41184329D01*
X33747167Y40640000D01*
X33855441Y40095671D01*
X34163778Y39634211D01*
X34559199Y39370000D01*
X34163778Y39105789D01*
X33855441Y38644329D01*
X33747167Y38100000D01*
X33855441Y37555671D01*
X34163778Y37094211D01*
X34559199Y36830000D01*
X34163778Y36565789D01*
X33855441Y36104329D01*
X33747167Y35560000D01*
X33855441Y35015671D01*
X34163778Y34554211D01*
X34559199Y34290000D01*
X34163778Y34025789D01*
X33855441Y33564329D01*
X33747167Y33020000D01*
X33855441Y32475671D01*
X34163778Y32014211D01*
X34558830Y31750246D01*
X34542738Y31745525D01*
X34108809Y31395986D01*
X33841673Y30906996D01*
X33824990Y30827060D01*
X33947148Y30607000D01*
X35433000Y30607000D01*
X35433000Y30627000D01*
X35687000Y30627000D01*
X35687000Y30607000D01*
X37172852Y30607000D01*
X37295010Y30827060D01*
X37278327Y30906996D01*
X37011191Y31395986D01*
X36577262Y31745525D01*
X36561170Y31750246D01*
X36956222Y32014211D01*
X37034257Y32131000D01*
X42278560Y32131000D01*
X42278560Y30099000D01*
X42322838Y29863683D01*
X42461910Y29647559D01*
X42674110Y29502569D01*
X42926000Y29451560D01*
X44958000Y29451560D01*
X45193317Y29495838D01*
X45409441Y29634910D01*
X45554431Y29847110D01*
X45605440Y30099000D01*
X45605440Y32131000D01*
X45561162Y32366317D01*
X45422090Y32582441D01*
X45292900Y32670713D01*
X45340834Y32718563D01*
X45592713Y33325155D01*
X45593286Y33981963D01*
X45342466Y34588995D01*
X44878437Y35053834D01*
X44271845Y35305713D01*
X43615037Y35306286D01*
X43008005Y35055466D01*
X42543166Y34591437D01*
X42291287Y33984845D01*
X42290714Y33328037D01*
X42541534Y32721005D01*
X42591872Y32670579D01*
X42474559Y32595090D01*
X42329569Y32382890D01*
X42278560Y32131000D01*
X37034257Y32131000D01*
X37264559Y32475671D01*
X37372833Y33020000D01*
X37264559Y33564329D01*
X36956222Y34025789D01*
X36560801Y34290000D01*
X36956222Y34554211D01*
X37264559Y35015671D01*
X37372833Y35560000D01*
X37264559Y36104329D01*
X36956222Y36565789D01*
X36560801Y36830000D01*
X36956222Y37094211D01*
X37264559Y37555671D01*
X37372833Y38100000D01*
X37264559Y38644329D01*
X36956222Y39105789D01*
X36560801Y39370000D01*
X36956222Y39634211D01*
X37264559Y40095671D01*
X37372833Y40640000D01*
X37264559Y41184329D01*
X36956222Y41645789D01*
X36560801Y41910000D01*
X36956222Y42174211D01*
X37264559Y42635671D01*
X37372833Y43180000D01*
X37264559Y43724329D01*
X36956222Y44185789D01*
X36560801Y44450000D01*
X36956222Y44714211D01*
X37264559Y45175671D01*
X37372833Y45720000D01*
X37264559Y46264329D01*
X36956222Y46725789D01*
X36560801Y46990000D01*
X36956222Y47254211D01*
X37264559Y47715671D01*
X37372833Y48260000D01*
X37264559Y48804329D01*
X36956222Y49265789D01*
X36560801Y49530000D01*
X36940940Y49784000D01*
X44410160Y49784000D01*
X48895000Y45299159D01*
X48895000Y16256000D01*
X48936282Y16048461D01*
X48972338Y15867193D01*
X49192580Y15537580D01*
X52006243Y12723916D01*
X52006214Y12690537D01*
X52257034Y12083505D01*
X52679866Y11659935D01*
X52672998Y11641607D01*
X53657500Y10657105D01*
X54642002Y11641607D01*
X54634953Y11660417D01*
X55056334Y12081063D01*
X55308213Y12687655D01*
X55308215Y12690537D01*
X59626214Y12690537D01*
X59877034Y12083505D01*
X60212632Y11747321D01*
X59878666Y11413937D01*
X59626787Y10807345D01*
X59626214Y10150537D01*
X59877034Y9543505D01*
X60341063Y9078666D01*
X60947655Y8826787D01*
X61604463Y8826214D01*
X62211495Y9077034D01*
X62676334Y9541063D01*
X62928213Y10147655D01*
X62928786Y10804463D01*
X62677966Y11411495D01*
X62342368Y11747679D01*
X62676334Y12081063D01*
X62928213Y12687655D01*
X62928786Y13344463D01*
X62677966Y13951495D01*
X62279158Y14351000D01*
X68821560Y14351000D01*
X68821560Y12319000D01*
X68865838Y12083683D01*
X69004910Y11867559D01*
X69217110Y11722569D01*
X69469000Y11671560D01*
X71501000Y11671560D01*
X71736317Y11715838D01*
X71952441Y11854910D01*
X72097431Y12067110D01*
X72148440Y12319000D01*
X72148440Y14351000D01*
X72104162Y14586317D01*
X71965090Y14802441D01*
X71752890Y14947431D01*
X71501000Y14998440D01*
X69469000Y14998440D01*
X69233683Y14954162D01*
X69017559Y14815090D01*
X68872569Y14602890D01*
X68821560Y14351000D01*
X62279158Y14351000D01*
X62213937Y14416334D01*
X61607345Y14668213D01*
X60950537Y14668786D01*
X60343505Y14417966D01*
X59878666Y13953937D01*
X59626787Y13347345D01*
X59626214Y12690537D01*
X55308215Y12690537D01*
X55308786Y13344463D01*
X55057966Y13951495D01*
X54593937Y14416334D01*
X53987345Y14668213D01*
X53330537Y14668786D01*
X53050686Y14553154D01*
X50927000Y16676840D01*
X50927000Y19688112D01*
X57149725Y19688112D01*
X57390898Y19104428D01*
X57762435Y18732243D01*
X57392468Y18362921D01*
X57150276Y17779659D01*
X57149725Y17148112D01*
X57390898Y16564428D01*
X57837079Y16117468D01*
X58420341Y15875276D01*
X59051888Y15874725D01*
X59635572Y16115898D01*
X59752553Y16232675D01*
X59786673Y16150302D01*
X59965301Y15971673D01*
X60198690Y15875000D01*
X60991750Y15875000D01*
X61150500Y16033750D01*
X61150500Y17335500D01*
X61404500Y17335500D01*
X61404500Y16033750D01*
X61563250Y15875000D01*
X62356310Y15875000D01*
X62589699Y15971673D01*
X62768327Y16150302D01*
X62865000Y16383691D01*
X62865000Y17176750D01*
X62706250Y17335500D01*
X61404500Y17335500D01*
X61150500Y17335500D01*
X61130500Y17335500D01*
X61130500Y17589500D01*
X61150500Y17589500D01*
X61150500Y18891250D01*
X61404500Y18891250D01*
X61404500Y17589500D01*
X62706250Y17589500D01*
X62865000Y17748250D01*
X62865000Y18541309D01*
X62797197Y18705000D01*
X66976560Y18705000D01*
X66976560Y17205000D01*
X67020838Y16969683D01*
X67159910Y16753559D01*
X67372110Y16608569D01*
X67624000Y16557560D01*
X69124000Y16557560D01*
X69359317Y16601838D01*
X69575441Y16740910D01*
X69716008Y16946637D01*
X70155155Y16764287D01*
X70811963Y16763714D01*
X71418995Y17014534D01*
X71883834Y17478563D01*
X72135713Y18085155D01*
X72136286Y18741963D01*
X71885466Y19348995D01*
X71421437Y19813834D01*
X70814845Y20065713D01*
X70158037Y20066286D01*
X69758954Y19901388D01*
X69759240Y20229285D01*
X69548831Y20738515D01*
X69332687Y20955036D01*
X69547461Y21169436D01*
X69758759Y21678298D01*
X69759047Y22008765D01*
X70155155Y21844287D01*
X70811963Y21843714D01*
X71418995Y22094534D01*
X71883834Y22558563D01*
X72135713Y23165155D01*
X72136286Y23821963D01*
X71885466Y24428995D01*
X71421437Y24893834D01*
X70814845Y25145713D01*
X70158037Y25146286D01*
X69551005Y24895466D01*
X69471441Y24816040D01*
X69159564Y25128461D01*
X68650702Y25339759D01*
X68099715Y25340240D01*
X67590485Y25129831D01*
X67200539Y24740564D01*
X66989241Y24231702D01*
X66988760Y23680715D01*
X67199169Y23171485D01*
X67415313Y22954964D01*
X67200539Y22740564D01*
X66989241Y22231702D01*
X66988760Y21680715D01*
X67199169Y21171485D01*
X67415313Y20954964D01*
X67200539Y20740564D01*
X66989241Y20231702D01*
X66988760Y19680715D01*
X67194362Y19183120D01*
X67172559Y19169090D01*
X67027569Y18956890D01*
X66976560Y18705000D01*
X62797197Y18705000D01*
X62768327Y18774698D01*
X62589699Y18953327D01*
X62356310Y19050000D01*
X61563250Y19050000D01*
X61404500Y18891250D01*
X61150500Y18891250D01*
X60991750Y19050000D01*
X60198690Y19050000D01*
X59965301Y18953327D01*
X59786673Y18774698D01*
X59752663Y18692590D01*
X59712565Y18732757D01*
X60082532Y19102079D01*
X60324724Y19685341D01*
X60325275Y20316888D01*
X60084102Y20900572D01*
X59937270Y21047661D01*
X60312655Y20891787D01*
X60969463Y20891214D01*
X61576495Y21142034D01*
X62041334Y21606063D01*
X62293213Y22212655D01*
X62293786Y22869463D01*
X62042966Y23476495D01*
X61707368Y23812679D01*
X62041334Y24146063D01*
X62293213Y24752655D01*
X62293786Y25409463D01*
X62042966Y26016495D01*
X61578937Y26481334D01*
X60972345Y26733213D01*
X60315537Y26733786D01*
X59708505Y26482966D01*
X59243666Y26018937D01*
X58991787Y25412345D01*
X58991214Y24755537D01*
X59242034Y24148505D01*
X59577632Y23812321D01*
X59243666Y23478937D01*
X58991787Y22872345D01*
X58991214Y22215537D01*
X59242034Y21608505D01*
X59406714Y21443538D01*
X59054659Y21589724D01*
X58423112Y21590275D01*
X57839428Y21349102D01*
X57392468Y20902921D01*
X57150276Y20319659D01*
X57149725Y19688112D01*
X50927000Y19688112D01*
X50927000Y21378393D01*
X52037998Y21378393D01*
X52138620Y21109878D01*
X52754142Y20880684D01*
X53410519Y20904486D01*
X53906380Y21109878D01*
X54007002Y21378393D01*
X53022500Y22362895D01*
X52037998Y21378393D01*
X50927000Y21378393D01*
X50927000Y22810858D01*
X51360684Y22810858D01*
X51384486Y22154481D01*
X51589878Y21658620D01*
X51858393Y21557998D01*
X52842895Y22542500D01*
X53202105Y22542500D01*
X54186607Y21557998D01*
X54455122Y21658620D01*
X54684316Y22274142D01*
X54660514Y22930519D01*
X54455122Y23426380D01*
X54186607Y23527002D01*
X53202105Y22542500D01*
X52842895Y22542500D01*
X51858393Y23527002D01*
X51589878Y23426380D01*
X51360684Y22810858D01*
X50927000Y22810858D01*
X50927000Y25741160D01*
X51371686Y25296474D01*
X51371214Y24755537D01*
X51622034Y24148505D01*
X52044866Y23724935D01*
X52037998Y23706607D01*
X53022500Y22722105D01*
X54007002Y23706607D01*
X53999953Y23725417D01*
X54421334Y24146063D01*
X54673213Y24752655D01*
X54673786Y25409463D01*
X54422966Y26016495D01*
X53958937Y26481334D01*
X53352345Y26733213D01*
X52808153Y26733688D01*
X52197000Y27344840D01*
X52197000Y31372112D01*
X57530725Y31372112D01*
X57771898Y30788428D01*
X58143435Y30416243D01*
X57773468Y30046921D01*
X57531276Y29463659D01*
X57530725Y28832112D01*
X57771898Y28248428D01*
X58218079Y27801468D01*
X58801341Y27559276D01*
X59432888Y27558725D01*
X60016572Y27799898D01*
X60133553Y27916675D01*
X60167673Y27834302D01*
X60346301Y27655673D01*
X60579690Y27559000D01*
X61372750Y27559000D01*
X61531500Y27717750D01*
X61531500Y29019500D01*
X61785500Y29019500D01*
X61785500Y27717750D01*
X61944250Y27559000D01*
X62737310Y27559000D01*
X62970699Y27655673D01*
X63149327Y27834302D01*
X63246000Y28067691D01*
X63246000Y28248037D01*
X68833714Y28248037D01*
X69084534Y27641005D01*
X69548563Y27176166D01*
X70155155Y26924287D01*
X70811963Y26923714D01*
X71418995Y27174534D01*
X71883834Y27638563D01*
X72135713Y28245155D01*
X72136286Y28901963D01*
X71885466Y29508995D01*
X71421437Y29973834D01*
X70814845Y30225713D01*
X70158037Y30226286D01*
X69551005Y29975466D01*
X69086166Y29511437D01*
X68834287Y28904845D01*
X68833714Y28248037D01*
X63246000Y28248037D01*
X63246000Y28860750D01*
X63087250Y29019500D01*
X61785500Y29019500D01*
X61531500Y29019500D01*
X61511500Y29019500D01*
X61511500Y29273500D01*
X61531500Y29273500D01*
X61531500Y30575250D01*
X61785500Y30575250D01*
X61785500Y29273500D01*
X63087250Y29273500D01*
X63246000Y29432250D01*
X63246000Y30225309D01*
X63149327Y30458698D01*
X62970699Y30637327D01*
X62737310Y30734000D01*
X61944250Y30734000D01*
X61785500Y30575250D01*
X61531500Y30575250D01*
X61372750Y30734000D01*
X60579690Y30734000D01*
X60346301Y30637327D01*
X60167673Y30458698D01*
X60133663Y30376590D01*
X60093565Y30416757D01*
X60463532Y30786079D01*
X60705724Y31369341D01*
X60706275Y32000888D01*
X60465102Y32584572D01*
X60018921Y33031532D01*
X59435659Y33273724D01*
X58804112Y33274275D01*
X58220428Y33033102D01*
X57773468Y32586921D01*
X57531276Y32003659D01*
X57530725Y31372112D01*
X52197000Y31372112D01*
X52197000Y33153140D01*
X52754142Y32945684D01*
X53410519Y32969486D01*
X53906380Y33174878D01*
X54007002Y33443393D01*
X53022500Y34427895D01*
X53008358Y34413752D01*
X52828753Y34593357D01*
X52842895Y34607500D01*
X53202105Y34607500D01*
X54186607Y33622998D01*
X54455122Y33723620D01*
X54684316Y34339142D01*
X54660514Y34995519D01*
X54455122Y35491380D01*
X54186607Y35592002D01*
X53202105Y34607500D01*
X52842895Y34607500D01*
X52828753Y34621642D01*
X53008358Y34801247D01*
X53022500Y34787105D01*
X54007002Y35771607D01*
X53999953Y35790417D01*
X54421334Y36211063D01*
X54673213Y36817655D01*
X54673215Y36820537D01*
X58991214Y36820537D01*
X59242034Y36213505D01*
X59577632Y35877321D01*
X59243666Y35543937D01*
X58991787Y34937345D01*
X58991214Y34280537D01*
X59242034Y33673505D01*
X59706063Y33208666D01*
X60312655Y32956787D01*
X60969463Y32956214D01*
X61576495Y33207034D01*
X62041334Y33671063D01*
X62293213Y34277655D01*
X62293786Y34934463D01*
X62042966Y35541495D01*
X61707368Y35877679D01*
X62041334Y36211063D01*
X62293213Y36817655D01*
X62293786Y37474463D01*
X62042966Y38081495D01*
X61578937Y38546334D01*
X60972345Y38798213D01*
X60315537Y38798786D01*
X59708505Y38547966D01*
X59243666Y38083937D01*
X58991787Y37477345D01*
X58991214Y36820537D01*
X54673215Y36820537D01*
X54673786Y37474463D01*
X54422966Y38081495D01*
X54038500Y38466632D01*
X54038500Y46291500D01*
X53961162Y46680306D01*
X53961162Y46680307D01*
X53740921Y47009920D01*
X52490841Y48260000D01*
X67531655Y48260000D01*
X67645729Y47686511D01*
X67970585Y47200330D01*
X68285366Y46990000D01*
X67970585Y46779670D01*
X67645729Y46293489D01*
X67531655Y45720000D01*
X67645729Y45146511D01*
X67970585Y44660330D01*
X68285366Y44450000D01*
X67970585Y44239670D01*
X67645729Y43753489D01*
X67531655Y43180000D01*
X67645729Y42606511D01*
X67970585Y42120330D01*
X68285366Y41910000D01*
X67970585Y41699670D01*
X67645729Y41213489D01*
X67531655Y40640000D01*
X67645729Y40066511D01*
X67970585Y39580330D01*
X67984913Y39570757D01*
X67963683Y39566762D01*
X67747559Y39427690D01*
X67602569Y39215490D01*
X67551560Y38963600D01*
X67551560Y37236400D01*
X67595838Y37001083D01*
X67734910Y36784959D01*
X67947110Y36639969D01*
X68199000Y36588960D01*
X70231000Y36588960D01*
X70466317Y36633238D01*
X70682441Y36772310D01*
X70827431Y36984510D01*
X70878440Y37236400D01*
X70878440Y38963600D01*
X70834162Y39198917D01*
X70695090Y39415041D01*
X70482890Y39560031D01*
X70441561Y39568400D01*
X70459415Y39580330D01*
X70784271Y40066511D01*
X70898345Y40640000D01*
X70784271Y41213489D01*
X70459415Y41699670D01*
X70144634Y41910000D01*
X70459415Y42120330D01*
X70784271Y42606511D01*
X70898345Y43180000D01*
X70784271Y43753489D01*
X70459415Y44239670D01*
X70144634Y44450000D01*
X70459415Y44660330D01*
X70784271Y45146511D01*
X70898345Y45720000D01*
X70784271Y46293489D01*
X70459415Y46779670D01*
X70144634Y46990000D01*
X70459415Y47200330D01*
X70784271Y47686511D01*
X70898345Y48260000D01*
X70784271Y48833489D01*
X70459415Y49319670D01*
X70149931Y49526461D01*
X70565732Y49897964D01*
X70819709Y50425209D01*
X70822358Y50440974D01*
X70701217Y50673000D01*
X69342000Y50673000D01*
X69342000Y50653000D01*
X69088000Y50653000D01*
X69088000Y50673000D01*
X67728783Y50673000D01*
X67607642Y50440974D01*
X67610291Y50425209D01*
X67864268Y49897964D01*
X68280069Y49526461D01*
X67970585Y49319670D01*
X67645729Y48833489D01*
X67531655Y48260000D01*
X52490841Y48260000D01*
X49591815Y51159026D01*
X67607642Y51159026D01*
X67728783Y50927000D01*
X69088000Y50927000D01*
X69088000Y52140924D01*
X69342000Y52140924D01*
X69342000Y50927000D01*
X70701217Y50927000D01*
X70822358Y51159026D01*
X70819709Y51174791D01*
X70565732Y51702036D01*
X70129320Y52091954D01*
X69576913Y52285184D01*
X69342000Y52140924D01*
X69088000Y52140924D01*
X68853087Y52285184D01*
X68300680Y52091954D01*
X67864268Y51702036D01*
X67610291Y51174791D01*
X67607642Y51159026D01*
X49591815Y51159026D01*
X44152420Y56598420D01*
X43822807Y56818662D01*
X43758300Y56831493D01*
X43434000Y56896000D01*
X36940940Y56896000D01*
X36560801Y57150000D01*
X36956222Y57414211D01*
X37264559Y57875671D01*
X37372833Y58420000D01*
X37320766Y58681759D01*
X66694994Y58681759D01*
X66981314Y57988809D01*
X67511021Y57458178D01*
X68203469Y57170648D01*
X68953241Y57169994D01*
X69646191Y57456314D01*
X70176822Y57986021D01*
X70464352Y58678469D01*
X70465006Y59428241D01*
X70178686Y60121191D01*
X69648979Y60651822D01*
X68956531Y60939352D01*
X68206759Y60940006D01*
X67513809Y60653686D01*
X66983178Y60123979D01*
X66695648Y59431531D01*
X66694994Y58681759D01*
X37320766Y58681759D01*
X37264559Y58964329D01*
X36956222Y59425789D01*
X36494762Y59734126D01*
X35950433Y59842400D01*
X35169567Y59842400D01*
X34625238Y59734126D01*
X34163778Y59425789D01*
X33855441Y58964329D01*
X33747167Y58420000D01*
X24003000Y58420000D01*
X24003000Y58761160D01*
X26054921Y60813080D01*
X26068231Y60833000D01*
X46365000Y60833000D01*
X46365000Y60233000D01*
X46522834Y59693517D01*
X46875104Y59255500D01*
X47368181Y58985633D01*
X47450961Y58968096D01*
X47673000Y59090085D01*
X47673000Y60833000D01*
X47927000Y60833000D01*
X47927000Y59090085D01*
X48149039Y58968096D01*
X48231819Y58985633D01*
X48724896Y59255500D01*
X49077166Y59693517D01*
X49235000Y60233000D01*
X49235000Y60833000D01*
X47927000Y60833000D01*
X47673000Y60833000D01*
X46365000Y60833000D01*
X26068231Y60833000D01*
X26275162Y61142693D01*
X26287993Y61207200D01*
X26352500Y61531500D01*
X26352500Y62357000D01*
X46627801Y62357000D01*
X46522834Y62226483D01*
X46365000Y61687000D01*
X46365000Y61087000D01*
X47673000Y61087000D01*
X47673000Y61107000D01*
X47927000Y61107000D01*
X47927000Y61087000D01*
X49235000Y61087000D01*
X49235000Y61687000D01*
X49105991Y62127957D01*
X51171972Y60061977D01*
X51171974Y60061974D01*
X51569015Y59796680D01*
X51583992Y59786673D01*
X52070000Y59689999D01*
X52070005Y59690000D01*
X52352560Y59690000D01*
X52352560Y59560000D01*
X52396838Y59324683D01*
X52535910Y59108559D01*
X52748110Y58963569D01*
X53000000Y58912560D01*
X54600000Y58912560D01*
X54835317Y58956838D01*
X55051441Y59095910D01*
X55196431Y59308110D01*
X55247440Y59560000D01*
X55247440Y62360000D01*
X55203162Y62595317D01*
X55064090Y62811441D01*
X54851890Y62956431D01*
X54600000Y63007440D01*
X53000000Y63007440D01*
X52764683Y62963162D01*
X52548559Y62824090D01*
X52403569Y62611890D01*
X52371672Y62454379D01*
X50301026Y64525026D01*
X49889008Y64800327D01*
X49403000Y64897001D01*
X49402995Y64897000D01*
X26606500Y64897000D01*
X26606500Y65384680D01*
X66682880Y65384680D01*
X66682880Y62885320D01*
X66727158Y62650003D01*
X66866230Y62433879D01*
X67078430Y62288889D01*
X67330320Y62237880D01*
X69829680Y62237880D01*
X70064997Y62282158D01*
X70281121Y62421230D01*
X70426111Y62633430D01*
X70477120Y62885320D01*
X70477120Y65384680D01*
X70432842Y65619997D01*
X70293770Y65836121D01*
X70081570Y65981111D01*
X69829680Y66032120D01*
X67330320Y66032120D01*
X67095003Y65987842D01*
X66878879Y65848770D01*
X66733889Y65636570D01*
X66682880Y65384680D01*
X26606500Y65384680D01*
X26606500Y65817707D01*
X26835332Y65722687D01*
X27264784Y65722313D01*
X27418918Y65786000D01*
X29972000Y65786000D01*
X30296300Y65850507D01*
X30360807Y65863338D01*
X30690420Y66083580D01*
X31198420Y66591579D01*
X31418661Y66921193D01*
X31418662Y66921194D01*
X31496000Y67310000D01*
X31496000Y68841759D01*
X66694994Y68841759D01*
X66981314Y68148809D01*
X67511021Y67618178D01*
X68203469Y67330648D01*
X68953241Y67329994D01*
X69646191Y67616314D01*
X70176822Y68146021D01*
X70464352Y68838469D01*
X70465006Y69588241D01*
X70178686Y70281191D01*
X69648979Y70811822D01*
X68956531Y71099352D01*
X68206759Y71100006D01*
X67513809Y70813686D01*
X66983178Y70283979D01*
X66695648Y69591531D01*
X66694994Y68841759D01*
X31496000Y68841759D01*
X31496000Y69202560D01*
X31623000Y69202560D01*
X31858317Y69246838D01*
X32074441Y69385910D01*
X32219431Y69598110D01*
X32270440Y69850000D01*
X32270440Y71882000D01*
X32226162Y72117317D01*
X32087090Y72333441D01*
X31874890Y72478431D01*
X31623000Y72529440D01*
X29591000Y72529440D01*
X29525169Y72517053D01*
X29464000Y72529440D01*
X27432000Y72529440D01*
X27196683Y72485162D01*
X26980559Y72346090D01*
X26835569Y72133890D01*
X26784560Y71882000D01*
X26784560Y69850000D01*
X26828838Y69614683D01*
X26967910Y69398559D01*
X27180110Y69253569D01*
X27432000Y69202560D01*
X27432000Y68836863D01*
X27406378Y68811286D01*
X27241687Y68414668D01*
X27241313Y67985216D01*
X27287885Y67872503D01*
X27266668Y67881313D01*
X26837216Y67881687D01*
X26606500Y67786357D01*
X26606500Y68897500D01*
X26509827Y69383508D01*
X26234526Y69795526D01*
X26234523Y69795528D01*
X21590000Y74440052D01*
X21590000Y75382463D01*
X21908341Y75250276D01*
X22538893Y75249725D01*
X23121657Y75490519D01*
X23567914Y75935997D01*
X23809724Y76518341D01*
X23810275Y77148893D01*
X23569481Y77731657D01*
X23196529Y78105261D01*
X23567914Y78475997D01*
X23805445Y79048037D01*
X26288714Y79048037D01*
X26539534Y78441005D01*
X27003563Y77976166D01*
X27610155Y77724287D01*
X28266963Y77723714D01*
X28873995Y77974534D01*
X29210179Y78310132D01*
X29543563Y77976166D01*
X29591000Y77956468D01*
X29591000Y75819000D01*
X29655507Y75494700D01*
X29668338Y75430193D01*
X29888580Y75100580D01*
X32295265Y72693894D01*
X32358311Y72541311D01*
X32661714Y72237378D01*
X33058332Y72072687D01*
X33487784Y72072313D01*
X33884689Y72236311D01*
X34188622Y72539714D01*
X34353313Y72936332D01*
X34353687Y73365784D01*
X34189689Y73762689D01*
X33886286Y74066622D01*
X33732262Y74130579D01*
X31623000Y76239840D01*
X31623000Y78183175D01*
X31878834Y78438563D01*
X32130713Y79045155D01*
X32130715Y79048037D01*
X32638714Y79048037D01*
X32889534Y78441005D01*
X33353563Y77976166D01*
X33960155Y77724287D01*
X34616963Y77723714D01*
X35223995Y77974534D01*
X35560179Y78310132D01*
X35893563Y77976166D01*
X36500155Y77724287D01*
X37156963Y77723714D01*
X37763995Y77974534D01*
X38228834Y78438563D01*
X38480713Y79045155D01*
X38481286Y79701963D01*
X38230466Y80308995D01*
X37766437Y80773834D01*
X37159845Y81025713D01*
X36503037Y81026286D01*
X35896005Y80775466D01*
X35559821Y80439868D01*
X35226437Y80773834D01*
X34619845Y81025713D01*
X33963037Y81026286D01*
X33356005Y80775466D01*
X32891166Y80311437D01*
X32639287Y79704845D01*
X32638714Y79048037D01*
X32130715Y79048037D01*
X32131286Y79701963D01*
X31880466Y80308995D01*
X31416437Y80773834D01*
X30809845Y81025713D01*
X30153037Y81026286D01*
X29546005Y80775466D01*
X29209821Y80439868D01*
X28876437Y80773834D01*
X28269845Y81025713D01*
X27613037Y81026286D01*
X27006005Y80775466D01*
X26541166Y80311437D01*
X26289287Y79704845D01*
X26288714Y79048037D01*
X23805445Y79048037D01*
X23809724Y79058341D01*
X23810275Y79688893D01*
X23569481Y80271657D01*
X23196529Y80645261D01*
X23567914Y81015997D01*
X23809724Y81598341D01*
X23810275Y82228893D01*
X23569481Y82811657D01*
X23196529Y83185261D01*
X23567914Y83555997D01*
X23809724Y84138341D01*
X23810000Y84455000D01*
X38989000Y84455000D01*
X39066338Y84066194D01*
X39117019Y83990345D01*
X39295519Y83558343D01*
X39668471Y83184739D01*
X39297086Y82814003D01*
X39055276Y82231659D01*
X39054725Y81601107D01*
X39295519Y81018343D01*
X39668471Y80644739D01*
X39297086Y80274003D01*
X39055276Y79691659D01*
X39054725Y79061107D01*
X39295519Y78478343D01*
X39668471Y78104739D01*
X39297086Y77734003D01*
X39055276Y77151659D01*
X39054725Y76521107D01*
X39295519Y75938343D01*
X39740997Y75492086D01*
X40323341Y75250276D01*
X40953893Y75249725D01*
X41536657Y75490519D01*
X41796336Y75749745D01*
X43586400Y75749745D01*
X43586400Y75380255D01*
X43700474Y74806766D01*
X44025330Y74320585D01*
X44511511Y73995729D01*
X45085000Y73881655D01*
X45658489Y73995729D01*
X46144670Y74320585D01*
X46355000Y74635366D01*
X46565330Y74320585D01*
X47051511Y73995729D01*
X47625000Y73881655D01*
X48198489Y73995729D01*
X48684670Y74320585D01*
X49009526Y74806766D01*
X49123600Y75380255D01*
X49123600Y75749745D01*
X56286400Y75749745D01*
X56286400Y75380255D01*
X56400474Y74806766D01*
X56725330Y74320585D01*
X57211511Y73995729D01*
X57785000Y73881655D01*
X58358489Y73995729D01*
X58844670Y74320585D01*
X59055000Y74635366D01*
X59265330Y74320585D01*
X59751511Y73995729D01*
X60325000Y73881655D01*
X60898489Y73995729D01*
X61384670Y74320585D01*
X61709526Y74806766D01*
X61823600Y75380255D01*
X61823600Y75544680D01*
X66682880Y75544680D01*
X66682880Y73045320D01*
X66727158Y72810003D01*
X66866230Y72593879D01*
X67078430Y72448889D01*
X67330320Y72397880D01*
X69829680Y72397880D01*
X70064997Y72442158D01*
X70281121Y72581230D01*
X70426111Y72793430D01*
X70477120Y73045320D01*
X70477120Y75544680D01*
X70432842Y75779997D01*
X70293770Y75996121D01*
X70081570Y76141111D01*
X69829680Y76192120D01*
X67330320Y76192120D01*
X67095003Y76147842D01*
X66878879Y76008770D01*
X66733889Y75796570D01*
X66682880Y75544680D01*
X61823600Y75544680D01*
X61823600Y75749745D01*
X61709526Y76323234D01*
X61384670Y76809415D01*
X60898489Y77134271D01*
X60325000Y77248345D01*
X59751511Y77134271D01*
X59265330Y76809415D01*
X59055000Y76494634D01*
X58844670Y76809415D01*
X58358489Y77134271D01*
X57785000Y77248345D01*
X57211511Y77134271D01*
X56725330Y76809415D01*
X56400474Y76323234D01*
X56286400Y75749745D01*
X49123600Y75749745D01*
X49009526Y76323234D01*
X48684670Y76809415D01*
X48198489Y77134271D01*
X47625000Y77248345D01*
X47051511Y77134271D01*
X46565330Y76809415D01*
X46355000Y76494634D01*
X46144670Y76809415D01*
X45658489Y77134271D01*
X45085000Y77248345D01*
X44511511Y77134271D01*
X44025330Y76809415D01*
X43700474Y76323234D01*
X43586400Y75749745D01*
X41796336Y75749745D01*
X41982914Y75935997D01*
X42224724Y76518341D01*
X42225275Y77148893D01*
X41984481Y77731657D01*
X41611529Y78105261D01*
X41982914Y78475997D01*
X42201229Y79001759D01*
X66694994Y79001759D01*
X66981314Y78308809D01*
X67511021Y77778178D01*
X68203469Y77490648D01*
X68953241Y77489994D01*
X69646191Y77776314D01*
X70176822Y78306021D01*
X70464352Y78998469D01*
X70465006Y79748241D01*
X70178686Y80441191D01*
X69648979Y80971822D01*
X68956531Y81259352D01*
X68206759Y81260006D01*
X67513809Y80973686D01*
X66983178Y80443979D01*
X66695648Y79751531D01*
X66694994Y79001759D01*
X42201229Y79001759D01*
X42224724Y79058341D01*
X42225275Y79688893D01*
X41984481Y80271657D01*
X41611529Y80645261D01*
X41982914Y81015997D01*
X42224724Y81598341D01*
X42225275Y82228893D01*
X41984481Y82811657D01*
X41611529Y83185261D01*
X41865712Y83439000D01*
X51308000Y83439000D01*
X51632300Y83503507D01*
X51696807Y83516338D01*
X52026420Y83736580D01*
X53994520Y85704680D01*
X66682880Y85704680D01*
X66682880Y83205320D01*
X66727158Y82970003D01*
X66866230Y82753879D01*
X67078430Y82608889D01*
X67330320Y82557880D01*
X69829680Y82557880D01*
X70064997Y82602158D01*
X70281121Y82741230D01*
X70426111Y82953430D01*
X70477120Y83205320D01*
X70477120Y85704680D01*
X70432842Y85939997D01*
X70293770Y86156121D01*
X70081570Y86301111D01*
X69829680Y86352120D01*
X67330320Y86352120D01*
X67095003Y86307842D01*
X66878879Y86168770D01*
X66733889Y85956570D01*
X66682880Y85704680D01*
X53994520Y85704680D01*
X56214056Y87924216D01*
X56705313Y87924216D01*
X56869311Y87527311D01*
X57172714Y87223378D01*
X57569332Y87058687D01*
X57998784Y87058313D01*
X58395689Y87222311D01*
X58699622Y87525714D01*
X58763579Y87679739D01*
X61598421Y90514580D01*
X61818662Y90844193D01*
X61861389Y91059000D01*
X61896000Y91233000D01*
X61896000Y93181406D01*
X61939670Y93210585D01*
X62264526Y93696766D01*
X62378600Y94270255D01*
X62378600Y94577185D01*
X67864630Y94577185D01*
X68188980Y93792200D01*
X68789041Y93191091D01*
X69573459Y92865372D01*
X70422815Y92864630D01*
X71207800Y93188980D01*
X71808909Y93789041D01*
X72134628Y94573459D01*
X72135370Y95422815D01*
X71811020Y96207800D01*
X71210959Y96808909D01*
X70426541Y97134628D01*
X69577185Y97135370D01*
X68792200Y96811020D01*
X68191091Y96210959D01*
X67865372Y95426541D01*
X67864630Y94577185D01*
X62378600Y94577185D01*
X62378600Y94639745D01*
X62264526Y95213234D01*
X61939670Y95699415D01*
X61453489Y96024271D01*
X60880000Y96138345D01*
X60306511Y96024271D01*
X59820330Y95699415D01*
X59708934Y95532700D01*
X59322036Y95965732D01*
X58794791Y96219709D01*
X58779026Y96222358D01*
X58547000Y96101217D01*
X58547000Y94742000D01*
X58567000Y94742000D01*
X58567000Y94488000D01*
X58547000Y94488000D01*
X58547000Y93128783D01*
X58779026Y93007642D01*
X58794791Y93010291D01*
X59322036Y93264268D01*
X59586603Y93560382D01*
X59820330Y93210585D01*
X59864000Y93181406D01*
X59864000Y91653841D01*
X57326896Y89116736D01*
X57174311Y89053689D01*
X56870378Y88750286D01*
X56705687Y88353668D01*
X56705313Y87924216D01*
X56214056Y87924216D01*
X56598420Y88308579D01*
X56779593Y88579724D01*
X56818662Y88638194D01*
X56896000Y89027000D01*
X56896000Y93341406D01*
X56939670Y93370585D01*
X57146461Y93680069D01*
X57517964Y93264268D01*
X58045209Y93010291D01*
X58060974Y93007642D01*
X58293000Y93128783D01*
X58293000Y94488000D01*
X58273000Y94488000D01*
X58273000Y94742000D01*
X58293000Y94742000D01*
X58293000Y96101217D01*
X58060974Y96222358D01*
X58045209Y96219709D01*
X57517964Y95965732D01*
X57146461Y95549931D01*
X56939670Y95859415D01*
X56453489Y96184271D01*
X55880000Y96298345D01*
X55306511Y96184271D01*
X54820330Y95859415D01*
X54495474Y95373234D01*
X54381400Y94799745D01*
X54381400Y94430255D01*
X54495474Y93856766D01*
X54820330Y93370585D01*
X54864000Y93341406D01*
X54864000Y89447841D01*
X50887160Y85471000D01*
X48529057Y85471000D01*
X48798327Y85873992D01*
X48895000Y86360000D01*
X48895000Y93105927D01*
X48940041Y93134910D01*
X49085031Y93347110D01*
X49136040Y93599000D01*
X49136040Y95631000D01*
X49091762Y95866317D01*
X48952690Y96082441D01*
X48740490Y96227431D01*
X48488600Y96278440D01*
X46761400Y96278440D01*
X46526083Y96234162D01*
X46309959Y96095090D01*
X46164969Y95882890D01*
X46145768Y95788073D01*
X45987036Y95965732D01*
X45459791Y96219709D01*
X45444026Y96222358D01*
X45212000Y96101217D01*
X45212000Y94742000D01*
X45232000Y94742000D01*
X45232000Y94488000D01*
X45212000Y94488000D01*
X45212000Y93128783D01*
X45444026Y93007642D01*
X45459791Y93010291D01*
X45987036Y93264268D01*
X46143907Y93439845D01*
X46158238Y93363683D01*
X46297310Y93147559D01*
X46355000Y93108141D01*
X46355000Y86360000D01*
X46451673Y85873992D01*
X46720943Y85471000D01*
X41865346Y85471000D01*
X41611529Y85725261D01*
X41982914Y86095997D01*
X42224724Y86678341D01*
X42225275Y87308893D01*
X41984481Y87891657D01*
X41611529Y88265261D01*
X41982914Y88635997D01*
X42224724Y89218341D01*
X42225275Y89848893D01*
X41984481Y90431657D01*
X41611529Y90805261D01*
X41982914Y91175997D01*
X42224724Y91758341D01*
X42225275Y92388893D01*
X41984481Y92971657D01*
X41611529Y93345261D01*
X41982914Y93715997D01*
X42205932Y94253087D01*
X43599816Y94253087D01*
X43793046Y93700680D01*
X44182964Y93264268D01*
X44710209Y93010291D01*
X44725974Y93007642D01*
X44958000Y93128783D01*
X44958000Y94488000D01*
X43744076Y94488000D01*
X43599816Y94253087D01*
X42205932Y94253087D01*
X42224724Y94298341D01*
X42225275Y94928893D01*
X42205434Y94976913D01*
X43599816Y94976913D01*
X43744076Y94742000D01*
X44958000Y94742000D01*
X44958000Y96101217D01*
X44725974Y96222358D01*
X44710209Y96219709D01*
X44182964Y95965732D01*
X43793046Y95529320D01*
X43599816Y94976913D01*
X42205434Y94976913D01*
X41984481Y95511657D01*
X41539003Y95957914D01*
X40956659Y96199724D01*
X40326107Y96200275D01*
X39743343Y95959481D01*
X39297086Y95514003D01*
X39055276Y94931659D01*
X39054725Y94301107D01*
X39295519Y93718343D01*
X39668471Y93344739D01*
X39297086Y92974003D01*
X39055276Y92391659D01*
X39054725Y91761107D01*
X39295519Y91178343D01*
X39668471Y90804739D01*
X39297086Y90434003D01*
X39055276Y89851659D01*
X39054725Y89221107D01*
X39295519Y88638343D01*
X39668471Y88264739D01*
X39297086Y87894003D01*
X39055276Y87311659D01*
X39054725Y86681107D01*
X39295519Y86098343D01*
X39668471Y85724739D01*
X39297086Y85354003D01*
X39116254Y84918510D01*
X39066338Y84843806D01*
X38989000Y84455000D01*
X23810000Y84455000D01*
X23810275Y84768893D01*
X23569481Y85351657D01*
X23196529Y85725261D01*
X23302345Y85830893D01*
X26955498Y85830893D01*
X27056120Y85562378D01*
X27671642Y85333184D01*
X28328019Y85356986D01*
X28823880Y85562378D01*
X28924502Y85830893D01*
X27940000Y86815395D01*
X26955498Y85830893D01*
X23302345Y85830893D01*
X23567914Y86095997D01*
X23809724Y86678341D01*
X23810235Y87263358D01*
X26278184Y87263358D01*
X26301986Y86606981D01*
X26507378Y86111120D01*
X26775893Y86010498D01*
X27760395Y86995000D01*
X28119605Y86995000D01*
X29104107Y86010498D01*
X29122917Y86017547D01*
X29543563Y85596166D01*
X30150155Y85344287D01*
X30806963Y85343714D01*
X31413995Y85594534D01*
X31878834Y86058563D01*
X32130713Y86665155D01*
X32130715Y86668037D01*
X32638714Y86668037D01*
X32889534Y86061005D01*
X33353563Y85596166D01*
X33960155Y85344287D01*
X34616963Y85343714D01*
X35223995Y85594534D01*
X35560179Y85930132D01*
X35893563Y85596166D01*
X36500155Y85344287D01*
X37156963Y85343714D01*
X37763995Y85594534D01*
X38228834Y86058563D01*
X38480713Y86665155D01*
X38481286Y87321963D01*
X38230466Y87928995D01*
X37766437Y88393834D01*
X37159845Y88645713D01*
X36503037Y88646286D01*
X35896005Y88395466D01*
X35559821Y88059868D01*
X35226437Y88393834D01*
X34619845Y88645713D01*
X33963037Y88646286D01*
X33356005Y88395466D01*
X32891166Y87931437D01*
X32639287Y87324845D01*
X32638714Y86668037D01*
X32130715Y86668037D01*
X32131286Y87321963D01*
X31880466Y87928995D01*
X31416437Y88393834D01*
X30809845Y88645713D01*
X30153037Y88646286D01*
X29546005Y88395466D01*
X29122435Y87972634D01*
X29104107Y87979502D01*
X28119605Y86995000D01*
X27760395Y86995000D01*
X26775893Y87979502D01*
X26507378Y87878880D01*
X26278184Y87263358D01*
X23810235Y87263358D01*
X23810275Y87308893D01*
X23569481Y87891657D01*
X23302498Y88159107D01*
X26955498Y88159107D01*
X27940000Y87174605D01*
X28924502Y88159107D01*
X28823880Y88427622D01*
X28208358Y88656816D01*
X27551981Y88633014D01*
X27056120Y88427622D01*
X26955498Y88159107D01*
X23302498Y88159107D01*
X23196529Y88265261D01*
X23567914Y88635997D01*
X23809724Y89218341D01*
X23810275Y89848893D01*
X23690715Y90138250D01*
X27114500Y90138250D01*
X27114500Y89345190D01*
X27211173Y89111801D01*
X27389802Y88933173D01*
X27623191Y88836500D01*
X28416250Y88836500D01*
X28575000Y88995250D01*
X28575000Y90297000D01*
X28829000Y90297000D01*
X28829000Y88995250D01*
X28987750Y88836500D01*
X29780809Y88836500D01*
X30014198Y88933173D01*
X30192827Y89111801D01*
X30289500Y89345190D01*
X30289500Y90138250D01*
X30130750Y90297000D01*
X28829000Y90297000D01*
X28575000Y90297000D01*
X27273250Y90297000D01*
X27114500Y90138250D01*
X23690715Y90138250D01*
X23569481Y90431657D01*
X23196529Y90805261D01*
X23450712Y91059000D01*
X26416000Y91059000D01*
X26740300Y91123507D01*
X26804807Y91136338D01*
X27114500Y91343270D01*
X27114500Y90709750D01*
X27273250Y90551000D01*
X28575000Y90551000D01*
X28575000Y90571000D01*
X28829000Y90571000D01*
X28829000Y90551000D01*
X30130750Y90551000D01*
X30289500Y90709750D01*
X30289500Y91502810D01*
X30192827Y91736199D01*
X30014198Y91914827D01*
X29932090Y91948837D01*
X29972257Y91988935D01*
X30341579Y91618968D01*
X30924841Y91376776D01*
X31556388Y91376225D01*
X32140072Y91617398D01*
X32587032Y92063579D01*
X32829224Y92646841D01*
X32829775Y93278388D01*
X32588602Y93862072D01*
X32142421Y94309032D01*
X31559159Y94551224D01*
X30927612Y94551775D01*
X30343928Y94310602D01*
X29971743Y93939065D01*
X29602421Y94309032D01*
X29019159Y94551224D01*
X28387612Y94551775D01*
X27803928Y94310602D01*
X27472749Y93980000D01*
X27305000Y93980000D01*
X26980700Y93915493D01*
X26916193Y93902662D01*
X26586580Y93682421D01*
X25995160Y93091000D01*
X23450346Y93091000D01*
X23196529Y93345261D01*
X23567914Y93715997D01*
X23809724Y94298341D01*
X23810275Y94928893D01*
X23569481Y95511657D01*
X23124003Y95957914D01*
X22541659Y96199724D01*
X21911107Y96200275D01*
X21328343Y95959481D01*
X20882086Y95514003D01*
X20640276Y94931659D01*
X20639755Y94335086D01*
X19641420Y95333420D01*
X19311807Y95553662D01*
X19237185Y95568505D01*
X18923000Y95631000D01*
X18808440Y95631000D01*
X18764162Y95866317D01*
X18625090Y96082441D01*
X18412890Y96227431D01*
X18161000Y96278440D01*
X16129000Y96278440D01*
X15893683Y96234162D01*
X15677559Y96095090D01*
X15532569Y95882890D01*
X15481560Y95631000D01*
X15481560Y93599000D01*
X15494000Y93532887D01*
X15494000Y92741750D01*
X15652750Y92583000D01*
X17018000Y92583000D01*
X17018000Y92603000D01*
X17272000Y92603000D01*
X17272000Y92583000D01*
X18637250Y92583000D01*
X18796000Y92741750D01*
X18796000Y93305160D01*
X20744579Y91356580D01*
X20830630Y91299082D01*
X20880519Y91178343D01*
X21253471Y90804739D01*
X20882086Y90434003D01*
X20640276Y89851659D01*
X20639725Y89221107D01*
X20880519Y88638343D01*
X21253471Y88264739D01*
X20882086Y87894003D01*
X20640276Y87311659D01*
X20639725Y86681107D01*
X20880519Y86098343D01*
X21253471Y85724739D01*
X20882086Y85354003D01*
X20640276Y84771659D01*
X20639725Y84141107D01*
X20880519Y83558343D01*
X21253471Y83184739D01*
X21176824Y83108227D01*
X18297026Y85988026D01*
X17885008Y86263327D01*
X17399000Y86360001D01*
X17398995Y86360000D01*
X14504944Y86360000D01*
X14161505Y86704039D01*
X13461590Y86994668D01*
X12703735Y86995330D01*
X12003314Y86705922D01*
X11466961Y86170505D01*
X11176332Y85470590D01*
X11175670Y84712735D01*
X11465078Y84012314D01*
X12000495Y83475961D01*
X12700410Y83185332D01*
X13458265Y83184670D01*
X14158686Y83474078D01*
X14505213Y83820000D01*
X16872948Y83820000D01*
X19050000Y81642949D01*
X19050000Y81068559D01*
X18541590Y81279668D01*
X17783735Y81280330D01*
X17083314Y80990922D01*
X16546961Y80455505D01*
X16345249Y79969727D01*
X16176437Y80138834D01*
X15569845Y80390713D01*
X14913037Y80391286D01*
X14306005Y80140466D01*
X13969821Y79804868D01*
X13636437Y80138834D01*
X13029845Y80390713D01*
X12373037Y80391286D01*
X11766005Y80140466D01*
X11301166Y79676437D01*
X11049287Y79069845D01*
X11048714Y78413037D01*
X11299534Y77806005D01*
X11763563Y77341166D01*
X12370155Y77089287D01*
X13026963Y77088714D01*
X13633995Y77339534D01*
X13970179Y77675132D01*
X14303563Y77341166D01*
X14910155Y77089287D01*
X15566963Y77088714D01*
X16173995Y77339534D01*
X16638834Y77803563D01*
X16756086Y78085937D01*
X17080495Y77760961D01*
X17780410Y77470332D01*
X18538265Y77469670D01*
X19050000Y77681115D01*
X19050000Y73914005D01*
X19049999Y73914000D01*
X19146673Y73427992D01*
X19421974Y73015974D01*
X24066500Y68371449D01*
X24066500Y63627000D01*
X24163173Y63140992D01*
X24320500Y62905535D01*
X24320500Y61952341D01*
X22268580Y59900420D01*
X22048338Y59570807D01*
X22036322Y59510395D01*
X21971000Y59182000D01*
X21971000Y59044486D01*
X21716222Y59425789D01*
X21254762Y59734126D01*
X20710433Y59842400D01*
X19929567Y59842400D01*
X19385238Y59734126D01*
X18923778Y59425789D01*
X18615441Y58964329D01*
X18507167Y58420000D01*
X18615441Y57875671D01*
X18923778Y57414211D01*
X19319199Y57150000D01*
X18923778Y56885789D01*
X18615441Y56424329D01*
X18507167Y55880000D01*
X18615441Y55335671D01*
X18923778Y54874211D01*
X19319199Y54610000D01*
X18923778Y54345789D01*
X18615441Y53884329D01*
X18507167Y53340000D01*
X18615441Y52795671D01*
X18923778Y52334211D01*
X19319199Y52070000D01*
X18923778Y51805789D01*
X18615441Y51344329D01*
X18540627Y50968213D01*
X18415000Y51093840D01*
X18415000Y64897000D01*
X18337662Y65285806D01*
X18337662Y65285807D01*
X18117421Y65615420D01*
X17228423Y66504417D01*
X17228421Y66504420D01*
X15103618Y68629223D01*
X16992828Y68629223D01*
X17124520Y68334343D01*
X17832036Y68062739D01*
X18589632Y68082564D01*
X19197480Y68334343D01*
X19329172Y68629223D01*
X18161000Y69797395D01*
X16992828Y68629223D01*
X15103618Y68629223D01*
X13823816Y69909024D01*
X13870766Y69955893D01*
X14255498Y69955893D01*
X14356120Y69687378D01*
X14971642Y69458184D01*
X15628019Y69481986D01*
X16123880Y69687378D01*
X16224501Y69955891D01*
X16256744Y69923648D01*
X16266564Y69548368D01*
X16518343Y68940520D01*
X16813223Y68808828D01*
X17981395Y69977000D01*
X18340605Y69977000D01*
X19508777Y68808828D01*
X19803657Y68940520D01*
X20075261Y69648036D01*
X20055436Y70405632D01*
X19803657Y71013480D01*
X19508777Y71145172D01*
X18340605Y69977000D01*
X17981395Y69977000D01*
X17967253Y69991142D01*
X18146858Y70170747D01*
X18161000Y70156605D01*
X19329172Y71324777D01*
X19197480Y71619657D01*
X18489964Y71891261D01*
X17732368Y71871436D01*
X17124520Y71619657D01*
X16992829Y71324779D01*
X16880589Y71437019D01*
X16878014Y71508019D01*
X16672622Y72003880D01*
X16404107Y72104502D01*
X15419605Y71120000D01*
X15433748Y71105857D01*
X15254143Y70926252D01*
X15240000Y70940395D01*
X14255498Y69955893D01*
X13870766Y69955893D01*
X14057565Y70142366D01*
X14075893Y70135498D01*
X15060395Y71120000D01*
X14075893Y72104502D01*
X14057083Y72097453D01*
X13870755Y72284107D01*
X14255498Y72284107D01*
X15240000Y71299605D01*
X16224502Y72284107D01*
X16123880Y72552622D01*
X15508358Y72781816D01*
X14851981Y72758014D01*
X14356120Y72552622D01*
X14255498Y72284107D01*
X13870755Y72284107D01*
X13636437Y72518834D01*
X13029845Y72770713D01*
X12373037Y72771286D01*
X11766005Y72520466D01*
X11301166Y72056437D01*
X11049287Y71449845D01*
X11048714Y70793037D01*
X11299534Y70186005D01*
X11684000Y69800868D01*
X11684000Y69596000D01*
X11726267Y69383508D01*
X11761338Y69207193D01*
X11981580Y68877580D01*
X12348702Y68510457D01*
X12336568Y68510468D01*
X11661829Y68231672D01*
X11145142Y67715886D01*
X10865169Y67041635D01*
X10864532Y66311568D01*
X11143328Y65636829D01*
X11659114Y65120142D01*
X12333365Y64840169D01*
X13063432Y64839532D01*
X13088337Y64849823D01*
X14859000Y63079159D01*
X14859000Y58967841D01*
X14525631Y59301209D01*
X14534831Y59323365D01*
X14535468Y60053432D01*
X14256672Y60728171D01*
X13740886Y61244858D01*
X13066635Y61524831D01*
X12336568Y61525468D01*
X11661829Y61246672D01*
X11145142Y60730886D01*
X10865169Y60056635D01*
X10864532Y59326568D01*
X11143328Y58651829D01*
X11659114Y58135142D01*
X12333365Y57855169D01*
X13063432Y57854532D01*
X13088337Y57864823D01*
X13843000Y57110159D01*
X13843000Y54157566D01*
X13740886Y54259858D01*
X13066635Y54539831D01*
X12336568Y54540468D01*
X11661829Y54261672D01*
X11145142Y53745886D01*
X10865169Y53071635D01*
X10864532Y52341568D01*
X11143328Y51666829D01*
X11659114Y51150142D01*
X11684000Y51139808D01*
X11684000Y51054000D01*
X11734524Y50800000D01*
X11761338Y50665193D01*
X11981580Y50335580D01*
X14319684Y47997475D01*
X14299845Y48005713D01*
X13643037Y48006286D01*
X13036005Y47755466D01*
X12575436Y47295699D01*
X12565194Y47293662D01*
X12470160Y47230162D01*
X12235579Y47073420D01*
X10965580Y45803420D01*
X10745338Y45473807D01*
X10745338Y45473806D01*
X10668000Y45085000D01*
X10668000Y15406841D01*
X9152160Y13891000D01*
X8800679Y13891000D01*
X8999461Y14089436D01*
X9210759Y14598298D01*
X9211240Y15149285D01*
X9000831Y15658515D01*
X8784687Y15875036D01*
X8999461Y16089436D01*
X9210759Y16598298D01*
X9211240Y17149285D01*
X9002793Y17653767D01*
X9114327Y17765302D01*
X9211000Y17998691D01*
X9211000Y18589250D01*
X9052250Y18748000D01*
X7953000Y18748000D01*
X7953000Y18728000D01*
X7699000Y18728000D01*
X7699000Y18748000D01*
X7679000Y18748000D01*
X7679000Y19002000D01*
X7699000Y19002000D01*
X7699000Y20101250D01*
X7953000Y20101250D01*
X7953000Y19002000D01*
X9052250Y19002000D01*
X9211000Y19160750D01*
X9211000Y19751309D01*
X9114327Y19984698D01*
X8935699Y20163327D01*
X8702310Y20260000D01*
X8111750Y20260000D01*
X7953000Y20101250D01*
X7699000Y20101250D01*
X7540250Y20260000D01*
X7366000Y20260000D01*
X7366000Y20827309D01*
X7269327Y21060698D01*
X7090699Y21239327D01*
X6857310Y21336000D01*
X6000750Y21336000D01*
X5842000Y21177250D01*
X5842000Y19812000D01*
X5862000Y19812000D01*
X5862000Y19558000D01*
X5842000Y19558000D01*
X5842000Y19538000D01*
X5588000Y19538000D01*
X5588000Y19558000D01*
X4222750Y19558000D01*
X4064000Y19399250D01*
X4064000Y18542691D01*
X4160673Y18309302D01*
X4339301Y18130673D01*
X4357808Y18123007D01*
X4316166Y18081437D01*
X4064287Y17474845D01*
X4063714Y16818037D01*
X825500Y16818037D01*
X825500Y20827309D01*
X4064000Y20827309D01*
X4064000Y19970750D01*
X4222750Y19812000D01*
X5588000Y19812000D01*
X5588000Y21177250D01*
X5429250Y21336000D01*
X4572690Y21336000D01*
X4339301Y21239327D01*
X4160673Y21060698D01*
X4064000Y20827309D01*
X825500Y20827309D01*
X825500Y25073037D01*
X4063714Y25073037D01*
X4314534Y24466005D01*
X4778563Y24001166D01*
X5385155Y23749287D01*
X6041963Y23748714D01*
X6648995Y23999534D01*
X7113834Y24463563D01*
X7305971Y24926279D01*
X7549298Y24825241D01*
X8100285Y24824760D01*
X8609515Y25035169D01*
X8999461Y25424436D01*
X9210759Y25933298D01*
X9211240Y26484285D01*
X9000831Y26993515D01*
X8611564Y27383461D01*
X8374494Y27481901D01*
X7826000Y28030395D01*
X7811858Y28016252D01*
X7632253Y28195857D01*
X7646395Y28210000D01*
X8005605Y28210000D01*
X8797517Y27418088D01*
X9038460Y27486077D01*
X9223201Y28005171D01*
X9195230Y28555448D01*
X9038460Y28933923D01*
X8797517Y29001912D01*
X8005605Y28210000D01*
X7646395Y28210000D01*
X7229015Y28627380D01*
X7147622Y28823880D01*
X6963529Y28892866D01*
X6854483Y29001912D01*
X6613540Y28933923D01*
X6461600Y28506995D01*
X5894605Y27940000D01*
X5908748Y27925857D01*
X5729143Y27746252D01*
X5715000Y27760395D01*
X4730498Y26775893D01*
X4737547Y26757083D01*
X4316166Y26336437D01*
X4064287Y25729845D01*
X4063714Y25073037D01*
X825500Y25073037D01*
X825500Y28208358D01*
X4053184Y28208358D01*
X4076986Y27551981D01*
X4282378Y27056120D01*
X4550893Y26955498D01*
X5535395Y27940000D01*
X4550893Y28924502D01*
X4282378Y28823880D01*
X4053184Y28208358D01*
X825500Y28208358D01*
X825500Y30153037D01*
X4063714Y30153037D01*
X4314534Y29546005D01*
X4737366Y29122435D01*
X4730498Y29104107D01*
X5715000Y28119605D01*
X6699502Y29104107D01*
X6692453Y29122917D01*
X6823559Y29253794D01*
X7040436Y29036539D01*
X7277506Y28938099D01*
X7826000Y28389605D01*
X8374428Y28938033D01*
X8609515Y29035169D01*
X8999461Y29424436D01*
X9210759Y29933298D01*
X9211240Y30484285D01*
X9002793Y30988767D01*
X9114327Y31100302D01*
X9211000Y31333691D01*
X9211000Y31924250D01*
X9052250Y32083000D01*
X7953000Y32083000D01*
X7953000Y32063000D01*
X7699000Y32063000D01*
X7699000Y32083000D01*
X7679000Y32083000D01*
X7679000Y32337000D01*
X7699000Y32337000D01*
X7699000Y33436250D01*
X7953000Y33436250D01*
X7953000Y32337000D01*
X9052250Y32337000D01*
X9211000Y32495750D01*
X9211000Y33086309D01*
X9114327Y33319698D01*
X8935699Y33498327D01*
X8702310Y33595000D01*
X8111750Y33595000D01*
X7953000Y33436250D01*
X7699000Y33436250D01*
X7540250Y33595000D01*
X7366000Y33595000D01*
X7366000Y34162309D01*
X7269327Y34395698D01*
X7090699Y34574327D01*
X6857310Y34671000D01*
X6000750Y34671000D01*
X5842000Y34512250D01*
X5842000Y33147000D01*
X5862000Y33147000D01*
X5862000Y32893000D01*
X5842000Y32893000D01*
X5842000Y32873000D01*
X5588000Y32873000D01*
X5588000Y32893000D01*
X4222750Y32893000D01*
X4064000Y32734250D01*
X4064000Y31877691D01*
X4160673Y31644302D01*
X4339301Y31465673D01*
X4357808Y31458007D01*
X4316166Y31416437D01*
X4064287Y30809845D01*
X4063714Y30153037D01*
X825500Y30153037D01*
X825500Y34162309D01*
X4064000Y34162309D01*
X4064000Y33305750D01*
X4222750Y33147000D01*
X5588000Y33147000D01*
X5588000Y34512250D01*
X5429250Y34671000D01*
X4572690Y34671000D01*
X4339301Y34574327D01*
X4160673Y34395698D01*
X4064000Y34162309D01*
X825500Y34162309D01*
X825500Y38408037D01*
X4063714Y38408037D01*
X4314534Y37801005D01*
X4778563Y37336166D01*
X5385155Y37084287D01*
X6041963Y37083714D01*
X6648995Y37334534D01*
X7113834Y37798563D01*
X7305971Y38261279D01*
X7549298Y38160241D01*
X8100285Y38159760D01*
X8609515Y38370169D01*
X8999461Y38759436D01*
X9210759Y39268298D01*
X9211240Y39819285D01*
X9000831Y40328515D01*
X8611564Y40718461D01*
X8374494Y40816901D01*
X7826000Y41365395D01*
X7811858Y41351252D01*
X7632253Y41530857D01*
X7646395Y41545000D01*
X8005605Y41545000D01*
X8797517Y40753088D01*
X9038460Y40821077D01*
X9223201Y41340171D01*
X9195230Y41890448D01*
X9038460Y42268923D01*
X8797517Y42336912D01*
X8005605Y41545000D01*
X7646395Y41545000D01*
X7229015Y41962380D01*
X7147622Y42158880D01*
X6963529Y42227866D01*
X6854483Y42336912D01*
X6613540Y42268923D01*
X6461600Y41841995D01*
X5894605Y41275000D01*
X5908748Y41260857D01*
X5729143Y41081252D01*
X5715000Y41095395D01*
X4730498Y40110893D01*
X4737547Y40092083D01*
X4316166Y39671437D01*
X4064287Y39064845D01*
X4063714Y38408037D01*
X825500Y38408037D01*
X825500Y41543358D01*
X4053184Y41543358D01*
X4076986Y40886981D01*
X4282378Y40391120D01*
X4550893Y40290498D01*
X5535395Y41275000D01*
X4550893Y42259502D01*
X4282378Y42158880D01*
X4053184Y41543358D01*
X825500Y41543358D01*
X825500Y43488037D01*
X4063714Y43488037D01*
X4314534Y42881005D01*
X4737366Y42457435D01*
X4730498Y42439107D01*
X5715000Y41454605D01*
X6699502Y42439107D01*
X6692453Y42457917D01*
X6823559Y42588794D01*
X7040436Y42371539D01*
X7277506Y42273099D01*
X7826000Y41724605D01*
X8374428Y42273033D01*
X8609515Y42370169D01*
X8999461Y42759436D01*
X9210759Y43268298D01*
X9211240Y43819285D01*
X9002793Y44323767D01*
X9114327Y44435302D01*
X9211000Y44668691D01*
X9211000Y45259250D01*
X9052250Y45418000D01*
X7953000Y45418000D01*
X7953000Y45398000D01*
X7699000Y45398000D01*
X7699000Y45418000D01*
X7679000Y45418000D01*
X7679000Y45672000D01*
X7699000Y45672000D01*
X7699000Y46771250D01*
X7953000Y46771250D01*
X7953000Y45672000D01*
X9052250Y45672000D01*
X9211000Y45830750D01*
X9211000Y46421309D01*
X9114327Y46654698D01*
X8935699Y46833327D01*
X8702310Y46930000D01*
X8111750Y46930000D01*
X7953000Y46771250D01*
X7699000Y46771250D01*
X7540250Y46930000D01*
X7366000Y46930000D01*
X7366000Y47497309D01*
X7269327Y47730698D01*
X7090699Y47909327D01*
X6857310Y48006000D01*
X6000750Y48006000D01*
X5842000Y47847250D01*
X5842000Y46482000D01*
X5862000Y46482000D01*
X5862000Y46228000D01*
X5842000Y46228000D01*
X5842000Y46208000D01*
X5588000Y46208000D01*
X5588000Y46228000D01*
X4222750Y46228000D01*
X4064000Y46069250D01*
X4064000Y45212691D01*
X4160673Y44979302D01*
X4339301Y44800673D01*
X4357808Y44793007D01*
X4316166Y44751437D01*
X4064287Y44144845D01*
X4063714Y43488037D01*
X825500Y43488037D01*
X825500Y47497309D01*
X4064000Y47497309D01*
X4064000Y46640750D01*
X4222750Y46482000D01*
X5588000Y46482000D01*
X5588000Y47847250D01*
X5429250Y48006000D01*
X4572690Y48006000D01*
X4339301Y47909327D01*
X4160673Y47730698D01*
X4064000Y47497309D01*
X825500Y47497309D01*
X825500Y51149250D01*
X1639570Y51149250D01*
X1639570Y50408261D01*
X1736243Y50174872D01*
X1914871Y49996243D01*
X2148260Y49899570D01*
X2889250Y49899570D01*
X3048000Y50058320D01*
X3048000Y51308000D01*
X3302000Y51308000D01*
X3302000Y50058320D01*
X3460750Y49899570D01*
X4201740Y49899570D01*
X4435129Y49996243D01*
X4613757Y50174872D01*
X4710430Y50408261D01*
X4710430Y51149250D01*
X4551680Y51308000D01*
X3302000Y51308000D01*
X3048000Y51308000D01*
X1798320Y51308000D01*
X1639570Y51149250D01*
X825500Y51149250D01*
X825500Y51407716D01*
X5232321Y51407716D01*
X5355474Y51120088D01*
X6037697Y50860144D01*
X6767466Y50881062D01*
X7344526Y51120088D01*
X7467679Y51407716D01*
X6350000Y52525395D01*
X5232321Y51407716D01*
X825500Y51407716D01*
X825500Y53670924D01*
X1639304Y53670924D01*
X1872567Y53106385D01*
X2049232Y52929411D01*
X1914871Y52873757D01*
X1736243Y52695128D01*
X1639570Y52461739D01*
X1639570Y51720750D01*
X1798320Y51562000D01*
X3048000Y51562000D01*
X3048000Y51582000D01*
X3302000Y51582000D01*
X3302000Y51562000D01*
X4551680Y51562000D01*
X4710430Y51720750D01*
X4710430Y51842430D01*
X4765088Y51710474D01*
X5052716Y51587321D01*
X6170395Y52705000D01*
X6529605Y52705000D01*
X7647284Y51587321D01*
X7934912Y51710474D01*
X8194856Y52392697D01*
X8173938Y53122466D01*
X7934912Y53699526D01*
X7647284Y53822679D01*
X6529605Y52705000D01*
X6170395Y52705000D01*
X5052716Y53822679D01*
X4765088Y53699526D01*
X4505144Y53017303D01*
X4511446Y52797439D01*
X4435129Y52873757D01*
X4300867Y52929370D01*
X4475915Y53104113D01*
X4710163Y53668244D01*
X4710454Y54002284D01*
X5232321Y54002284D01*
X6350000Y52884605D01*
X7467679Y54002284D01*
X7344526Y54289912D01*
X6662303Y54549856D01*
X5932534Y54528938D01*
X5355474Y54289912D01*
X5232321Y54002284D01*
X4710454Y54002284D01*
X4710696Y54279076D01*
X4477433Y54843615D01*
X4045887Y55275915D01*
X3481756Y55510163D01*
X2870924Y55510696D01*
X2306385Y55277433D01*
X1874085Y54845887D01*
X1639837Y54281756D01*
X1639304Y53670924D01*
X825500Y53670924D01*
X825500Y58134250D01*
X1639570Y58134250D01*
X1639570Y57393261D01*
X1736243Y57159872D01*
X1914871Y56981243D01*
X2148260Y56884570D01*
X2889250Y56884570D01*
X3048000Y57043320D01*
X3048000Y58293000D01*
X3302000Y58293000D01*
X3302000Y57043320D01*
X3460750Y56884570D01*
X4201740Y56884570D01*
X4435129Y56981243D01*
X4613757Y57159872D01*
X4710430Y57393261D01*
X4710430Y58134250D01*
X4551680Y58293000D01*
X3302000Y58293000D01*
X3048000Y58293000D01*
X1798320Y58293000D01*
X1639570Y58134250D01*
X825500Y58134250D01*
X825500Y58392716D01*
X5232321Y58392716D01*
X5355474Y58105088D01*
X6037697Y57845144D01*
X6767466Y57866062D01*
X7344526Y58105088D01*
X7467679Y58392716D01*
X6350000Y59510395D01*
X5232321Y58392716D01*
X825500Y58392716D01*
X825500Y60655924D01*
X1639304Y60655924D01*
X1872567Y60091385D01*
X2049232Y59914411D01*
X1914871Y59858757D01*
X1736243Y59680128D01*
X1639570Y59446739D01*
X1639570Y58705750D01*
X1798320Y58547000D01*
X3048000Y58547000D01*
X3048000Y58567000D01*
X3302000Y58567000D01*
X3302000Y58547000D01*
X4551680Y58547000D01*
X4710430Y58705750D01*
X4710430Y58827430D01*
X4765088Y58695474D01*
X5052716Y58572321D01*
X6170395Y59690000D01*
X6529605Y59690000D01*
X7647284Y58572321D01*
X7934912Y58695474D01*
X8194856Y59377697D01*
X8173938Y60107466D01*
X7934912Y60684526D01*
X7647284Y60807679D01*
X6529605Y59690000D01*
X6170395Y59690000D01*
X5052716Y60807679D01*
X4765088Y60684526D01*
X4505144Y60002303D01*
X4511446Y59782439D01*
X4435129Y59858757D01*
X4300867Y59914370D01*
X4475915Y60089113D01*
X4710163Y60653244D01*
X4710454Y60987284D01*
X5232321Y60987284D01*
X6350000Y59869605D01*
X7467679Y60987284D01*
X7344526Y61274912D01*
X6662303Y61534856D01*
X5932534Y61513938D01*
X5355474Y61274912D01*
X5232321Y60987284D01*
X4710454Y60987284D01*
X4710696Y61264076D01*
X4477433Y61828615D01*
X4045887Y62260915D01*
X3481756Y62495163D01*
X2870924Y62495696D01*
X2306385Y62262433D01*
X1874085Y61830887D01*
X1639837Y61266756D01*
X1639304Y60655924D01*
X825500Y60655924D01*
X825500Y65119250D01*
X1639570Y65119250D01*
X1639570Y64378261D01*
X1736243Y64144872D01*
X1914871Y63966243D01*
X2148260Y63869570D01*
X2889250Y63869570D01*
X3048000Y64028320D01*
X3048000Y65278000D01*
X3302000Y65278000D01*
X3302000Y64028320D01*
X3460750Y63869570D01*
X4201740Y63869570D01*
X4435129Y63966243D01*
X4613757Y64144872D01*
X4710430Y64378261D01*
X4710430Y65119250D01*
X4551680Y65278000D01*
X3302000Y65278000D01*
X3048000Y65278000D01*
X1798320Y65278000D01*
X1639570Y65119250D01*
X825500Y65119250D01*
X825500Y65377716D01*
X5232321Y65377716D01*
X5355474Y65090088D01*
X6037697Y64830144D01*
X6767466Y64851062D01*
X7344526Y65090088D01*
X7467679Y65377716D01*
X6350000Y66495395D01*
X5232321Y65377716D01*
X825500Y65377716D01*
X825500Y67640924D01*
X1639304Y67640924D01*
X1872567Y67076385D01*
X2049232Y66899411D01*
X1914871Y66843757D01*
X1736243Y66665128D01*
X1639570Y66431739D01*
X1639570Y65690750D01*
X1798320Y65532000D01*
X3048000Y65532000D01*
X3048000Y65552000D01*
X3302000Y65552000D01*
X3302000Y65532000D01*
X4551680Y65532000D01*
X4710430Y65690750D01*
X4710430Y65812430D01*
X4765088Y65680474D01*
X5052716Y65557321D01*
X6170395Y66675000D01*
X6529605Y66675000D01*
X7647284Y65557321D01*
X7934912Y65680474D01*
X8194856Y66362697D01*
X8173938Y67092466D01*
X7934912Y67669526D01*
X7647284Y67792679D01*
X6529605Y66675000D01*
X6170395Y66675000D01*
X5052716Y67792679D01*
X4765088Y67669526D01*
X4505144Y66987303D01*
X4511446Y66767439D01*
X4435129Y66843757D01*
X4300867Y66899370D01*
X4475915Y67074113D01*
X4710163Y67638244D01*
X4710454Y67972284D01*
X5232321Y67972284D01*
X6350000Y66854605D01*
X7467679Y67972284D01*
X7344526Y68259912D01*
X6662303Y68519856D01*
X5932534Y68498938D01*
X5355474Y68259912D01*
X5232321Y67972284D01*
X4710454Y67972284D01*
X4710696Y68249076D01*
X4477433Y68813615D01*
X4045887Y69245915D01*
X3481756Y69480163D01*
X2870924Y69480696D01*
X2306385Y69247433D01*
X1874085Y68815887D01*
X1639837Y68251756D01*
X1639304Y67640924D01*
X825500Y67640924D01*
X825500Y72104250D01*
X5100320Y72104250D01*
X5100320Y71014011D01*
X5196993Y70780622D01*
X5375621Y70601993D01*
X5609010Y70505320D01*
X6699250Y70505320D01*
X6858000Y70664070D01*
X6858000Y72263000D01*
X7112000Y72263000D01*
X7112000Y70664070D01*
X7270750Y70505320D01*
X8360990Y70505320D01*
X8594379Y70601993D01*
X8773007Y70780622D01*
X8869680Y71014011D01*
X8869680Y72104250D01*
X8710930Y72263000D01*
X7112000Y72263000D01*
X6858000Y72263000D01*
X5259070Y72263000D01*
X5100320Y72104250D01*
X825500Y72104250D01*
X825500Y73765989D01*
X5100320Y73765989D01*
X5100320Y72675750D01*
X5259070Y72517000D01*
X6858000Y72517000D01*
X6858000Y74115930D01*
X7112000Y74115930D01*
X7112000Y72517000D01*
X8710930Y72517000D01*
X8869680Y72675750D01*
X8869680Y73765989D01*
X8773007Y73999378D01*
X8594379Y74178007D01*
X8360990Y74274680D01*
X7270750Y74274680D01*
X7112000Y74115930D01*
X6858000Y74115930D01*
X6699250Y74274680D01*
X5609010Y74274680D01*
X5375621Y74178007D01*
X5196993Y73999378D01*
X5100320Y73765989D01*
X825500Y73765989D01*
X825500Y77096759D01*
X5099994Y77096759D01*
X5386314Y76403809D01*
X5916021Y75873178D01*
X6608469Y75585648D01*
X7358241Y75584994D01*
X8051191Y75871314D01*
X8581822Y76401021D01*
X8869352Y77093469D01*
X8870006Y77843241D01*
X8583686Y78536191D01*
X8053979Y79066822D01*
X7361531Y79354352D01*
X6611759Y79355006D01*
X5918809Y79068686D01*
X5388178Y78538979D01*
X5100648Y77846531D01*
X5099994Y77096759D01*
X825500Y77096759D01*
X825500Y82264250D01*
X5100320Y82264250D01*
X5100320Y81174011D01*
X5196993Y80940622D01*
X5375621Y80761993D01*
X5609010Y80665320D01*
X6699250Y80665320D01*
X6858000Y80824070D01*
X6858000Y82423000D01*
X7112000Y82423000D01*
X7112000Y80824070D01*
X7270750Y80665320D01*
X8360990Y80665320D01*
X8594379Y80761993D01*
X8773007Y80940622D01*
X8869680Y81174011D01*
X8869680Y82264250D01*
X8710930Y82423000D01*
X7112000Y82423000D01*
X6858000Y82423000D01*
X5259070Y82423000D01*
X5100320Y82264250D01*
X825500Y82264250D01*
X825500Y83925989D01*
X5100320Y83925989D01*
X5100320Y82835750D01*
X5259070Y82677000D01*
X6858000Y82677000D01*
X6858000Y84275930D01*
X7112000Y84275930D01*
X7112000Y82677000D01*
X8710930Y82677000D01*
X8869680Y82835750D01*
X8869680Y83925989D01*
X8773007Y84159378D01*
X8594379Y84338007D01*
X8360990Y84434680D01*
X7270750Y84434680D01*
X7112000Y84275930D01*
X6858000Y84275930D01*
X6699250Y84434680D01*
X5609010Y84434680D01*
X5375621Y84338007D01*
X5196993Y84159378D01*
X5100320Y83925989D01*
X825500Y83925989D01*
X825500Y87256759D01*
X5099994Y87256759D01*
X5386314Y86563809D01*
X5916021Y86033178D01*
X6608469Y85745648D01*
X7358241Y85744994D01*
X8051191Y86031314D01*
X8581822Y86561021D01*
X8869352Y87253469D01*
X8870006Y88003241D01*
X8583686Y88696191D01*
X8053979Y89226822D01*
X7361531Y89514352D01*
X6611759Y89515006D01*
X5918809Y89228686D01*
X5388178Y88698979D01*
X5100648Y88006531D01*
X5099994Y87256759D01*
X825500Y87256759D01*
X825500Y92170250D01*
X15494000Y92170250D01*
X15494000Y91313691D01*
X15590673Y91080302D01*
X15769301Y90901673D01*
X16002690Y90805000D01*
X16859250Y90805000D01*
X17018000Y90963750D01*
X17018000Y92329000D01*
X17272000Y92329000D01*
X17272000Y90963750D01*
X17430750Y90805000D01*
X18287310Y90805000D01*
X18520699Y90901673D01*
X18699327Y91080302D01*
X18796000Y91313691D01*
X18796000Y92170250D01*
X18637250Y92329000D01*
X17272000Y92329000D01*
X17018000Y92329000D01*
X15652750Y92329000D01*
X15494000Y92170250D01*
X825500Y92170250D01*
X825500Y94577185D01*
X2864630Y94577185D01*
X3188980Y93792200D01*
X3789041Y93191091D01*
X4573459Y92865372D01*
X5422815Y92864630D01*
X6207800Y93188980D01*
X6808909Y93789041D01*
X6942488Y94110735D01*
X11175670Y94110735D01*
X11465078Y93410314D01*
X12000495Y92873961D01*
X12700410Y92583332D01*
X13458265Y92582670D01*
X14158686Y92872078D01*
X14695039Y93407495D01*
X14985668Y94107410D01*
X14986330Y94865265D01*
X14696922Y95565686D01*
X14161505Y96102039D01*
X13461590Y96392668D01*
X12703735Y96393330D01*
X12003314Y96103922D01*
X11466961Y95568505D01*
X11176332Y94868590D01*
X11175670Y94110735D01*
X6942488Y94110735D01*
X7134628Y94573459D01*
X7135370Y95422815D01*
X6811020Y96207800D01*
X6210959Y96808909D01*
X5426541Y97134628D01*
X4577185Y97135370D01*
X3792200Y96811020D01*
X3191091Y96210959D01*
X2865372Y95426541D01*
X2864630Y94577185D01*
X825500Y94577185D01*
X825500Y94681998D01*
X1072903Y96374919D01*
X1895948Y97754805D01*
X3184399Y98714686D01*
X4801717Y99123500D01*
X69662998Y99123500D01*
X71355919Y98876097D01*
X71355919Y98876097D01*
G37*
X71355919Y98876097D02*
X72735805Y98053052D01*
X73695686Y96764601D01*
X74107203Y95136589D01*
X74104500Y95123000D01*
X74104500Y5161303D01*
X73765704Y3458062D01*
X72846951Y2083051D01*
X71471938Y1164296D01*
X69768697Y825500D01*
X5161303Y825500D01*
X3458062Y1164296D01*
X2083051Y2083049D01*
X1164296Y3458062D01*
X941689Y4577185D01*
X2864630Y4577185D01*
X3188980Y3792200D01*
X3789041Y3191091D01*
X4573459Y2865372D01*
X5422815Y2864630D01*
X6207800Y3188980D01*
X6808909Y3789041D01*
X7134628Y4573459D01*
X7135370Y5422815D01*
X6811020Y6207800D01*
X6210959Y6808909D01*
X5779391Y6988112D01*
X57149725Y6988112D01*
X57390898Y6404428D01*
X57762435Y6032243D01*
X57392468Y5662921D01*
X57150276Y5079659D01*
X57149725Y4448112D01*
X57390898Y3864428D01*
X57837079Y3417468D01*
X58420341Y3175276D01*
X59051888Y3174725D01*
X59635572Y3415898D01*
X59752553Y3532675D01*
X59786673Y3450302D01*
X59965301Y3271673D01*
X60198690Y3175000D01*
X60991750Y3175000D01*
X61150500Y3333750D01*
X61150500Y4635500D01*
X61404500Y4635500D01*
X61404500Y3333750D01*
X61563250Y3175000D01*
X62356310Y3175000D01*
X62589699Y3271673D01*
X62768327Y3450302D01*
X62865000Y3683691D01*
X62865000Y4476750D01*
X62764565Y4577185D01*
X67864630Y4577185D01*
X68188980Y3792200D01*
X68789041Y3191091D01*
X69573459Y2865372D01*
X70422815Y2864630D01*
X71207800Y3188980D01*
X71808909Y3789041D01*
X72134628Y4573459D01*
X72135370Y5422815D01*
X71811020Y6207800D01*
X71210959Y6808909D01*
X70426541Y7134628D01*
X69577185Y7135370D01*
X68792200Y6811020D01*
X68191091Y6210959D01*
X67865372Y5426541D01*
X67864630Y4577185D01*
X62764565Y4577185D01*
X62706250Y4635500D01*
X61404500Y4635500D01*
X61150500Y4635500D01*
X61130500Y4635500D01*
X61130500Y4889500D01*
X61150500Y4889500D01*
X61150500Y6191250D01*
X61404500Y6191250D01*
X61404500Y4889500D01*
X62706250Y4889500D01*
X62865000Y5048250D01*
X62865000Y5841309D01*
X62768327Y6074698D01*
X62589699Y6253327D01*
X62356310Y6350000D01*
X61563250Y6350000D01*
X61404500Y6191250D01*
X61150500Y6191250D01*
X60991750Y6350000D01*
X60198690Y6350000D01*
X59965301Y6253327D01*
X59786673Y6074698D01*
X59752663Y5992590D01*
X59712565Y6032757D01*
X60082532Y6402079D01*
X60324724Y6985341D01*
X60325275Y7616888D01*
X60084102Y8200572D01*
X59637921Y8647532D01*
X59054659Y8889724D01*
X58423112Y8890275D01*
X57839428Y8649102D01*
X57392468Y8202921D01*
X57150276Y7619659D01*
X57149725Y6988112D01*
X5779391Y6988112D01*
X5426541Y7134628D01*
X4577185Y7135370D01*
X3792200Y6811020D01*
X3191091Y6210959D01*
X2865372Y5426541D01*
X2864630Y4577185D01*
X941689Y4577185D01*
X825500Y5161303D01*
X825500Y9313393D01*
X52672998Y9313393D01*
X52773620Y9044878D01*
X53389142Y8815684D01*
X54045519Y8839486D01*
X54541380Y9044878D01*
X54642002Y9313393D01*
X53657500Y10297895D01*
X52672998Y9313393D01*
X825500Y9313393D01*
X825500Y16818037D01*
X4063714Y16818037D01*
X4314534Y16211005D01*
X4650132Y15874821D01*
X4316166Y15541437D01*
X4064287Y14934845D01*
X4063714Y14278037D01*
X4314534Y13671005D01*
X4650132Y13334821D01*
X4316166Y13001437D01*
X4064287Y12394845D01*
X4063714Y11738037D01*
X4314534Y11131005D01*
X4778563Y10666166D01*
X5385155Y10414287D01*
X6041963Y10413714D01*
X6648995Y10664534D01*
X6730460Y10745858D01*
X51995684Y10745858D01*
X52019486Y10089481D01*
X52224878Y9593620D01*
X52493393Y9492998D01*
X53477895Y10477500D01*
X53837105Y10477500D01*
X54821607Y9492998D01*
X55090122Y9593620D01*
X55319316Y10209142D01*
X55295514Y10865519D01*
X55090122Y11361380D01*
X54821607Y11462002D01*
X53837105Y10477500D01*
X53477895Y10477500D01*
X52493393Y11462002D01*
X52224878Y11361380D01*
X51995684Y10745858D01*
X6730460Y10745858D01*
X7113834Y11128563D01*
X7305971Y11591279D01*
X7549298Y11490241D01*
X8100285Y11489760D01*
X8609515Y11700169D01*
X8768623Y11859000D01*
X9573000Y11859000D01*
X9897300Y11923507D01*
X9961807Y11936338D01*
X10291420Y12156580D01*
X12402421Y14267580D01*
X12622662Y14597193D01*
X12689251Y14931963D01*
X12700000Y14986000D01*
X12700000Y18139893D01*
X42957498Y18139893D01*
X43058120Y17871378D01*
X43673642Y17642184D01*
X44330019Y17665986D01*
X44825880Y17871378D01*
X44926502Y18139893D01*
X43942000Y19124395D01*
X42957498Y18139893D01*
X12700000Y18139893D01*
X12700000Y22860000D01*
X18507167Y22860000D01*
X18615441Y22315671D01*
X18923778Y21854211D01*
X19385238Y21545874D01*
X19929567Y21437600D01*
X20710433Y21437600D01*
X21254762Y21545874D01*
X21716222Y21854211D01*
X22024559Y22315671D01*
X22132833Y22860000D01*
X22024559Y23404329D01*
X21716222Y23865789D01*
X21321170Y24129754D01*
X21337262Y24134475D01*
X21771191Y24484014D01*
X22038327Y24973004D01*
X22055010Y25052940D01*
X21932852Y25273000D01*
X20447000Y25273000D01*
X20447000Y25253000D01*
X20193000Y25253000D01*
X20193000Y25273000D01*
X18707148Y25273000D01*
X18584990Y25052940D01*
X18601673Y24973004D01*
X18868809Y24484014D01*
X19302738Y24134475D01*
X19318830Y24129754D01*
X18923778Y23865789D01*
X18615441Y23404329D01*
X18507167Y22860000D01*
X12700000Y22860000D01*
X12700000Y24335311D01*
X13033563Y24001166D01*
X13640155Y23749287D01*
X14296963Y23748714D01*
X14903995Y23999534D01*
X15368834Y24463563D01*
X15620713Y25070155D01*
X15621286Y25726963D01*
X15370466Y26333995D01*
X14906437Y26798834D01*
X14299845Y27050713D01*
X13643037Y27051286D01*
X13036005Y26800466D01*
X12700000Y26465047D01*
X12700000Y31955311D01*
X13033563Y31621166D01*
X13640155Y31369287D01*
X14296963Y31368714D01*
X14903995Y31619534D01*
X15368834Y32083563D01*
X15620713Y32690155D01*
X15621286Y33346963D01*
X15370466Y33953995D01*
X14906437Y34418834D01*
X14299845Y34670713D01*
X13643037Y34671286D01*
X13036005Y34420466D01*
X12700000Y34085047D01*
X12700000Y37670311D01*
X13033563Y37336166D01*
X13640155Y37084287D01*
X14296963Y37083714D01*
X14732000Y37263467D01*
X14732000Y35687000D01*
X14760457Y35543937D01*
X14809338Y35298193D01*
X15029580Y34968580D01*
X17696580Y32301579D01*
X18026193Y32081338D01*
X18415000Y32004000D01*
X18939060Y32004000D01*
X19319199Y31750000D01*
X18923778Y31485789D01*
X18615441Y31024329D01*
X18507167Y30480000D01*
X18615441Y29935671D01*
X18923778Y29474211D01*
X19319199Y29210000D01*
X18923778Y28945789D01*
X18615441Y28484329D01*
X18507167Y27940000D01*
X18615441Y27395671D01*
X18923778Y26934211D01*
X19318830Y26670246D01*
X19302738Y26665525D01*
X18868809Y26315986D01*
X18601673Y25826996D01*
X18584990Y25747060D01*
X18707148Y25527000D01*
X20193000Y25527000D01*
X20193000Y25547000D01*
X20447000Y25547000D01*
X20447000Y25527000D01*
X21932852Y25527000D01*
X22055010Y25747060D01*
X22038327Y25826996D01*
X21771191Y26315986D01*
X21337262Y26665525D01*
X21321170Y26670246D01*
X21716222Y26934211D01*
X22024559Y27395671D01*
X22132833Y27940000D01*
X22024559Y28484329D01*
X21716222Y28945789D01*
X21320801Y29210000D01*
X21700940Y29464000D01*
X25273000Y29464000D01*
X25273000Y24130000D01*
X25325555Y23865789D01*
X25350338Y23741193D01*
X25570580Y23411580D01*
X29126579Y19855580D01*
X29282632Y19751309D01*
X29456194Y19635338D01*
X29845000Y19558000D01*
X36830000Y19558000D01*
X36902182Y19572358D01*
X42280184Y19572358D01*
X42303986Y18915981D01*
X42509378Y18420120D01*
X42777893Y18319498D01*
X43762395Y19304000D01*
X44121605Y19304000D01*
X45106107Y18319498D01*
X45374622Y18420120D01*
X45603816Y19035642D01*
X45580014Y19692019D01*
X45374622Y20187880D01*
X45106107Y20288502D01*
X44121605Y19304000D01*
X43762395Y19304000D01*
X42777893Y20288502D01*
X42509378Y20187880D01*
X42280184Y19572358D01*
X36902182Y19572358D01*
X37154300Y19622507D01*
X37218807Y19635338D01*
X37548420Y19855580D01*
X38564421Y20871580D01*
X38784662Y21201193D01*
X38805160Y21304250D01*
X39243000Y21304250D01*
X39243000Y20600090D01*
X39339673Y20366701D01*
X39518302Y20188073D01*
X39751691Y20091400D01*
X40608250Y20091400D01*
X40767000Y20250150D01*
X40767000Y21463000D01*
X41021000Y21463000D01*
X41021000Y20250150D01*
X41179750Y20091400D01*
X42036309Y20091400D01*
X42269698Y20188073D01*
X42448327Y20366701D01*
X42490330Y20468107D01*
X42957498Y20468107D01*
X43942000Y19483605D01*
X44926502Y20468107D01*
X44825880Y20736622D01*
X44210358Y20965816D01*
X43553981Y20942014D01*
X43058120Y20736622D01*
X42957498Y20468107D01*
X42490330Y20468107D01*
X42545000Y20600090D01*
X42545000Y21304250D01*
X42386250Y21463000D01*
X41021000Y21463000D01*
X40767000Y21463000D01*
X39401750Y21463000D01*
X39243000Y21304250D01*
X38805160Y21304250D01*
X38813770Y21347532D01*
X38862000Y21590000D01*
X38862000Y23582160D01*
X39243702Y23963862D01*
X39324729Y23556511D01*
X39649585Y23070330D01*
X39671780Y23055500D01*
X39518302Y22991927D01*
X39339673Y22813299D01*
X39243000Y22579910D01*
X39243000Y21875750D01*
X39401750Y21717000D01*
X40767000Y21717000D01*
X40767000Y21737000D01*
X41021000Y21737000D01*
X41021000Y21717000D01*
X42386250Y21717000D01*
X42545000Y21875750D01*
X42545000Y22579910D01*
X42448327Y22813299D01*
X42269698Y22991927D01*
X42116220Y23055500D01*
X42138415Y23070330D01*
X42463271Y23556511D01*
X42577345Y24130000D01*
X42463271Y24703489D01*
X42138415Y25189670D01*
X41823634Y25400000D01*
X42138415Y25610330D01*
X42463271Y26096511D01*
X42474403Y26152475D01*
X42541534Y25990005D01*
X43005563Y25525166D01*
X43612155Y25273287D01*
X44268963Y25272714D01*
X44875995Y25523534D01*
X45340834Y25987563D01*
X45592713Y26594155D01*
X45593286Y27250963D01*
X45342466Y27857995D01*
X44878437Y28322834D01*
X44271845Y28574713D01*
X43615037Y28575286D01*
X43008005Y28324466D01*
X42543166Y27860437D01*
X42354551Y27406201D01*
X42138415Y27729670D01*
X41652234Y28054526D01*
X41078745Y28168600D01*
X40709255Y28168600D01*
X40135766Y28054526D01*
X39649585Y27729670D01*
X39324729Y27243489D01*
X39244051Y26837891D01*
X37265236Y24859076D01*
X37372833Y25400000D01*
X37264559Y25944329D01*
X36956222Y26405789D01*
X36560801Y26670000D01*
X36956222Y26934211D01*
X37264559Y27395671D01*
X37372833Y27940000D01*
X37264559Y28484329D01*
X36956222Y28945789D01*
X36561170Y29209754D01*
X36577262Y29214475D01*
X37011191Y29564014D01*
X37278327Y30053004D01*
X37295010Y30132940D01*
X37172852Y30353000D01*
X35687000Y30353000D01*
X35687000Y30333000D01*
X35433000Y30333000D01*
X35433000Y30353000D01*
X33947148Y30353000D01*
X33824990Y30132940D01*
X33841673Y30053004D01*
X34108809Y29564014D01*
X34542738Y29214475D01*
X34558830Y29209754D01*
X34163778Y28945789D01*
X33855441Y28484329D01*
X33747167Y27940000D01*
X33855441Y27395671D01*
X34163778Y26934211D01*
X34559199Y26670000D01*
X34163778Y26405789D01*
X33855441Y25944329D01*
X33747167Y25400000D01*
X33855441Y24855671D01*
X34163778Y24394211D01*
X34335460Y24279497D01*
X34181683Y24250562D01*
X33965559Y24111490D01*
X33820569Y23899290D01*
X33769560Y23647400D01*
X33769560Y22072600D01*
X33813838Y21837283D01*
X33952910Y21621159D01*
X33998513Y21590000D01*
X30265841Y21590000D01*
X27305000Y24550840D01*
X27305000Y30059160D01*
X31198420Y33952579D01*
X31418662Y34282193D01*
X31446166Y34420466D01*
X31496000Y34671000D01*
X31496000Y46228000D01*
X31418662Y46616806D01*
X31322047Y46761400D01*
X31198420Y46946421D01*
X26222948Y51921893D01*
X27082498Y51921893D01*
X27183120Y51653378D01*
X27798642Y51424184D01*
X28455019Y51447986D01*
X28950880Y51653378D01*
X29051502Y51921893D01*
X28067000Y52906395D01*
X27082498Y51921893D01*
X26222948Y51921893D01*
X25305983Y52838857D01*
X25447632Y52842564D01*
X26055480Y53094343D01*
X26187172Y53389223D01*
X25019000Y54557395D01*
X25004858Y54543252D01*
X24825253Y54722857D01*
X24839395Y54737000D01*
X25198605Y54737000D01*
X26366777Y53568828D01*
X26508633Y53632180D01*
X26405184Y53354358D01*
X26428986Y52697981D01*
X26634378Y52202120D01*
X26902893Y52101498D01*
X27887395Y53086000D01*
X28246605Y53086000D01*
X29231107Y52101498D01*
X29499622Y52202120D01*
X29728816Y52817642D01*
X29705014Y53474019D01*
X29499622Y53969880D01*
X29231107Y54070502D01*
X28246605Y53086000D01*
X27887395Y53086000D01*
X27873253Y53100142D01*
X28052858Y53279747D01*
X28067000Y53265605D01*
X29051502Y54250107D01*
X28950880Y54518622D01*
X28335358Y54747816D01*
X27678981Y54724014D01*
X27183120Y54518622D01*
X27082499Y54250109D01*
X26968259Y54364349D01*
X26884235Y54280325D01*
X26933261Y54408036D01*
X26913436Y55165632D01*
X26661657Y55773480D01*
X26366777Y55905172D01*
X25198605Y54737000D01*
X24839395Y54737000D01*
X24825253Y54751142D01*
X25004858Y54930747D01*
X25019000Y54916605D01*
X26187172Y56084777D01*
X26055480Y56379657D01*
X25347964Y56651261D01*
X24590368Y56631436D01*
X24003000Y56388140D01*
X24003000Y58420000D01*
X33747167Y58420000D01*
X33855441Y57875671D01*
X34163778Y57414211D01*
X34559199Y57150000D01*
X34163778Y56885789D01*
X33855441Y56424329D01*
X33747167Y55880000D01*
X33855441Y55335671D01*
X34163778Y54874211D01*
X34559199Y54610000D01*
X34163778Y54345789D01*
X33855441Y53884329D01*
X33747167Y53340000D01*
X33855441Y52795671D01*
X34163778Y52334211D01*
X34559199Y52070000D01*
X34163778Y51805789D01*
X33855441Y51344329D01*
X33747167Y50800000D01*
X33855441Y50255671D01*
X34163778Y49794211D01*
X34559199Y49530000D01*
X34163778Y49265789D01*
X33855441Y48804329D01*
X33747167Y48260000D01*
X33855441Y47715671D01*
X34163778Y47254211D01*
X34559199Y46990000D01*
X34163778Y46725789D01*
X33855441Y46264329D01*
X33747167Y45720000D01*
X33855441Y45175671D01*
X34163778Y44714211D01*
X34559199Y44450000D01*
X34163778Y44185789D01*
X33855441Y43724329D01*
X33747167Y43180000D01*
X33855441Y42635671D01*
X34163778Y42174211D01*
X34559199Y41910000D01*
X34163778Y41645789D01*
X33855441Y41184329D01*
X33747167Y40640000D01*
X33855441Y40095671D01*
X34163778Y39634211D01*
X34559199Y39370000D01*
X34163778Y39105789D01*
X33855441Y38644329D01*
X33747167Y38100000D01*
X33855441Y37555671D01*
X34163778Y37094211D01*
X34559199Y36830000D01*
X34163778Y36565789D01*
X33855441Y36104329D01*
X33747167Y35560000D01*
X33855441Y35015671D01*
X34163778Y34554211D01*
X34559199Y34290000D01*
X34163778Y34025789D01*
X33855441Y33564329D01*
X33747167Y33020000D01*
X33855441Y32475671D01*
X34163778Y32014211D01*
X34558830Y31750246D01*
X34542738Y31745525D01*
X34108809Y31395986D01*
X33841673Y30906996D01*
X33824990Y30827060D01*
X33947148Y30607000D01*
X35433000Y30607000D01*
X35433000Y30627000D01*
X35687000Y30627000D01*
X35687000Y30607000D01*
X37172852Y30607000D01*
X37295010Y30827060D01*
X37278327Y30906996D01*
X37011191Y31395986D01*
X36577262Y31745525D01*
X36561170Y31750246D01*
X36956222Y32014211D01*
X37034257Y32131000D01*
X42278560Y32131000D01*
X42278560Y30099000D01*
X42322838Y29863683D01*
X42461910Y29647559D01*
X42674110Y29502569D01*
X42926000Y29451560D01*
X44958000Y29451560D01*
X45193317Y29495838D01*
X45409441Y29634910D01*
X45554431Y29847110D01*
X45605440Y30099000D01*
X45605440Y32131000D01*
X45561162Y32366317D01*
X45422090Y32582441D01*
X45292900Y32670713D01*
X45340834Y32718563D01*
X45592713Y33325155D01*
X45593286Y33981963D01*
X45342466Y34588995D01*
X44878437Y35053834D01*
X44271845Y35305713D01*
X43615037Y35306286D01*
X43008005Y35055466D01*
X42543166Y34591437D01*
X42291287Y33984845D01*
X42290714Y33328037D01*
X42541534Y32721005D01*
X42591872Y32670579D01*
X42474559Y32595090D01*
X42329569Y32382890D01*
X42278560Y32131000D01*
X37034257Y32131000D01*
X37264559Y32475671D01*
X37372833Y33020000D01*
X37264559Y33564329D01*
X36956222Y34025789D01*
X36560801Y34290000D01*
X36956222Y34554211D01*
X37264559Y35015671D01*
X37372833Y35560000D01*
X37264559Y36104329D01*
X36956222Y36565789D01*
X36560801Y36830000D01*
X36956222Y37094211D01*
X37264559Y37555671D01*
X37372833Y38100000D01*
X37264559Y38644329D01*
X36956222Y39105789D01*
X36560801Y39370000D01*
X36956222Y39634211D01*
X37264559Y40095671D01*
X37372833Y40640000D01*
X37264559Y41184329D01*
X36956222Y41645789D01*
X36560801Y41910000D01*
X36956222Y42174211D01*
X37264559Y42635671D01*
X37372833Y43180000D01*
X37264559Y43724329D01*
X36956222Y44185789D01*
X36560801Y44450000D01*
X36956222Y44714211D01*
X37264559Y45175671D01*
X37372833Y45720000D01*
X37264559Y46264329D01*
X36956222Y46725789D01*
X36560801Y46990000D01*
X36956222Y47254211D01*
X37264559Y47715671D01*
X37372833Y48260000D01*
X37264559Y48804329D01*
X36956222Y49265789D01*
X36560801Y49530000D01*
X36940940Y49784000D01*
X44410160Y49784000D01*
X48895000Y45299159D01*
X48895000Y16256000D01*
X48936282Y16048461D01*
X48972338Y15867193D01*
X49192580Y15537580D01*
X52006243Y12723916D01*
X52006214Y12690537D01*
X52257034Y12083505D01*
X52679866Y11659935D01*
X52672998Y11641607D01*
X53657500Y10657105D01*
X54642002Y11641607D01*
X54634953Y11660417D01*
X55056334Y12081063D01*
X55308213Y12687655D01*
X55308215Y12690537D01*
X59626214Y12690537D01*
X59877034Y12083505D01*
X60212632Y11747321D01*
X59878666Y11413937D01*
X59626787Y10807345D01*
X59626214Y10150537D01*
X59877034Y9543505D01*
X60341063Y9078666D01*
X60947655Y8826787D01*
X61604463Y8826214D01*
X62211495Y9077034D01*
X62676334Y9541063D01*
X62928213Y10147655D01*
X62928786Y10804463D01*
X62677966Y11411495D01*
X62342368Y11747679D01*
X62676334Y12081063D01*
X62928213Y12687655D01*
X62928786Y13344463D01*
X62677966Y13951495D01*
X62279158Y14351000D01*
X68821560Y14351000D01*
X68821560Y12319000D01*
X68865838Y12083683D01*
X69004910Y11867559D01*
X69217110Y11722569D01*
X69469000Y11671560D01*
X71501000Y11671560D01*
X71736317Y11715838D01*
X71952441Y11854910D01*
X72097431Y12067110D01*
X72148440Y12319000D01*
X72148440Y14351000D01*
X72104162Y14586317D01*
X71965090Y14802441D01*
X71752890Y14947431D01*
X71501000Y14998440D01*
X69469000Y14998440D01*
X69233683Y14954162D01*
X69017559Y14815090D01*
X68872569Y14602890D01*
X68821560Y14351000D01*
X62279158Y14351000D01*
X62213937Y14416334D01*
X61607345Y14668213D01*
X60950537Y14668786D01*
X60343505Y14417966D01*
X59878666Y13953937D01*
X59626787Y13347345D01*
X59626214Y12690537D01*
X55308215Y12690537D01*
X55308786Y13344463D01*
X55057966Y13951495D01*
X54593937Y14416334D01*
X53987345Y14668213D01*
X53330537Y14668786D01*
X53050686Y14553154D01*
X50927000Y16676840D01*
X50927000Y19688112D01*
X57149725Y19688112D01*
X57390898Y19104428D01*
X57762435Y18732243D01*
X57392468Y18362921D01*
X57150276Y17779659D01*
X57149725Y17148112D01*
X57390898Y16564428D01*
X57837079Y16117468D01*
X58420341Y15875276D01*
X59051888Y15874725D01*
X59635572Y16115898D01*
X59752553Y16232675D01*
X59786673Y16150302D01*
X59965301Y15971673D01*
X60198690Y15875000D01*
X60991750Y15875000D01*
X61150500Y16033750D01*
X61150500Y17335500D01*
X61404500Y17335500D01*
X61404500Y16033750D01*
X61563250Y15875000D01*
X62356310Y15875000D01*
X62589699Y15971673D01*
X62768327Y16150302D01*
X62865000Y16383691D01*
X62865000Y17176750D01*
X62706250Y17335500D01*
X61404500Y17335500D01*
X61150500Y17335500D01*
X61130500Y17335500D01*
X61130500Y17589500D01*
X61150500Y17589500D01*
X61150500Y18891250D01*
X61404500Y18891250D01*
X61404500Y17589500D01*
X62706250Y17589500D01*
X62865000Y17748250D01*
X62865000Y18541309D01*
X62797197Y18705000D01*
X66976560Y18705000D01*
X66976560Y17205000D01*
X67020838Y16969683D01*
X67159910Y16753559D01*
X67372110Y16608569D01*
X67624000Y16557560D01*
X69124000Y16557560D01*
X69359317Y16601838D01*
X69575441Y16740910D01*
X69716008Y16946637D01*
X70155155Y16764287D01*
X70811963Y16763714D01*
X71418995Y17014534D01*
X71883834Y17478563D01*
X72135713Y18085155D01*
X72136286Y18741963D01*
X71885466Y19348995D01*
X71421437Y19813834D01*
X70814845Y20065713D01*
X70158037Y20066286D01*
X69758954Y19901388D01*
X69759240Y20229285D01*
X69548831Y20738515D01*
X69332687Y20955036D01*
X69547461Y21169436D01*
X69758759Y21678298D01*
X69759047Y22008765D01*
X70155155Y21844287D01*
X70811963Y21843714D01*
X71418995Y22094534D01*
X71883834Y22558563D01*
X72135713Y23165155D01*
X72136286Y23821963D01*
X71885466Y24428995D01*
X71421437Y24893834D01*
X70814845Y25145713D01*
X70158037Y25146286D01*
X69551005Y24895466D01*
X69471441Y24816040D01*
X69159564Y25128461D01*
X68650702Y25339759D01*
X68099715Y25340240D01*
X67590485Y25129831D01*
X67200539Y24740564D01*
X66989241Y24231702D01*
X66988760Y23680715D01*
X67199169Y23171485D01*
X67415313Y22954964D01*
X67200539Y22740564D01*
X66989241Y22231702D01*
X66988760Y21680715D01*
X67199169Y21171485D01*
X67415313Y20954964D01*
X67200539Y20740564D01*
X66989241Y20231702D01*
X66988760Y19680715D01*
X67194362Y19183120D01*
X67172559Y19169090D01*
X67027569Y18956890D01*
X66976560Y18705000D01*
X62797197Y18705000D01*
X62768327Y18774698D01*
X62589699Y18953327D01*
X62356310Y19050000D01*
X61563250Y19050000D01*
X61404500Y18891250D01*
X61150500Y18891250D01*
X60991750Y19050000D01*
X60198690Y19050000D01*
X59965301Y18953327D01*
X59786673Y18774698D01*
X59752663Y18692590D01*
X59712565Y18732757D01*
X60082532Y19102079D01*
X60324724Y19685341D01*
X60325275Y20316888D01*
X60084102Y20900572D01*
X59937270Y21047661D01*
X60312655Y20891787D01*
X60969463Y20891214D01*
X61576495Y21142034D01*
X62041334Y21606063D01*
X62293213Y22212655D01*
X62293786Y22869463D01*
X62042966Y23476495D01*
X61707368Y23812679D01*
X62041334Y24146063D01*
X62293213Y24752655D01*
X62293786Y25409463D01*
X62042966Y26016495D01*
X61578937Y26481334D01*
X60972345Y26733213D01*
X60315537Y26733786D01*
X59708505Y26482966D01*
X59243666Y26018937D01*
X58991787Y25412345D01*
X58991214Y24755537D01*
X59242034Y24148505D01*
X59577632Y23812321D01*
X59243666Y23478937D01*
X58991787Y22872345D01*
X58991214Y22215537D01*
X59242034Y21608505D01*
X59406714Y21443538D01*
X59054659Y21589724D01*
X58423112Y21590275D01*
X57839428Y21349102D01*
X57392468Y20902921D01*
X57150276Y20319659D01*
X57149725Y19688112D01*
X50927000Y19688112D01*
X50927000Y21378393D01*
X52037998Y21378393D01*
X52138620Y21109878D01*
X52754142Y20880684D01*
X53410519Y20904486D01*
X53906380Y21109878D01*
X54007002Y21378393D01*
X53022500Y22362895D01*
X52037998Y21378393D01*
X50927000Y21378393D01*
X50927000Y22810858D01*
X51360684Y22810858D01*
X51384486Y22154481D01*
X51589878Y21658620D01*
X51858393Y21557998D01*
X52842895Y22542500D01*
X53202105Y22542500D01*
X54186607Y21557998D01*
X54455122Y21658620D01*
X54684316Y22274142D01*
X54660514Y22930519D01*
X54455122Y23426380D01*
X54186607Y23527002D01*
X53202105Y22542500D01*
X52842895Y22542500D01*
X51858393Y23527002D01*
X51589878Y23426380D01*
X51360684Y22810858D01*
X50927000Y22810858D01*
X50927000Y25741160D01*
X51371686Y25296474D01*
X51371214Y24755537D01*
X51622034Y24148505D01*
X52044866Y23724935D01*
X52037998Y23706607D01*
X53022500Y22722105D01*
X54007002Y23706607D01*
X53999953Y23725417D01*
X54421334Y24146063D01*
X54673213Y24752655D01*
X54673786Y25409463D01*
X54422966Y26016495D01*
X53958937Y26481334D01*
X53352345Y26733213D01*
X52808153Y26733688D01*
X52197000Y27344840D01*
X52197000Y31372112D01*
X57530725Y31372112D01*
X57771898Y30788428D01*
X58143435Y30416243D01*
X57773468Y30046921D01*
X57531276Y29463659D01*
X57530725Y28832112D01*
X57771898Y28248428D01*
X58218079Y27801468D01*
X58801341Y27559276D01*
X59432888Y27558725D01*
X60016572Y27799898D01*
X60133553Y27916675D01*
X60167673Y27834302D01*
X60346301Y27655673D01*
X60579690Y27559000D01*
X61372750Y27559000D01*
X61531500Y27717750D01*
X61531500Y29019500D01*
X61785500Y29019500D01*
X61785500Y27717750D01*
X61944250Y27559000D01*
X62737310Y27559000D01*
X62970699Y27655673D01*
X63149327Y27834302D01*
X63246000Y28067691D01*
X63246000Y28248037D01*
X68833714Y28248037D01*
X69084534Y27641005D01*
X69548563Y27176166D01*
X70155155Y26924287D01*
X70811963Y26923714D01*
X71418995Y27174534D01*
X71883834Y27638563D01*
X72135713Y28245155D01*
X72136286Y28901963D01*
X71885466Y29508995D01*
X71421437Y29973834D01*
X70814845Y30225713D01*
X70158037Y30226286D01*
X69551005Y29975466D01*
X69086166Y29511437D01*
X68834287Y28904845D01*
X68833714Y28248037D01*
X63246000Y28248037D01*
X63246000Y28860750D01*
X63087250Y29019500D01*
X61785500Y29019500D01*
X61531500Y29019500D01*
X61511500Y29019500D01*
X61511500Y29273500D01*
X61531500Y29273500D01*
X61531500Y30575250D01*
X61785500Y30575250D01*
X61785500Y29273500D01*
X63087250Y29273500D01*
X63246000Y29432250D01*
X63246000Y30225309D01*
X63149327Y30458698D01*
X62970699Y30637327D01*
X62737310Y30734000D01*
X61944250Y30734000D01*
X61785500Y30575250D01*
X61531500Y30575250D01*
X61372750Y30734000D01*
X60579690Y30734000D01*
X60346301Y30637327D01*
X60167673Y30458698D01*
X60133663Y30376590D01*
X60093565Y30416757D01*
X60463532Y30786079D01*
X60705724Y31369341D01*
X60706275Y32000888D01*
X60465102Y32584572D01*
X60018921Y33031532D01*
X59435659Y33273724D01*
X58804112Y33274275D01*
X58220428Y33033102D01*
X57773468Y32586921D01*
X57531276Y32003659D01*
X57530725Y31372112D01*
X52197000Y31372112D01*
X52197000Y33153140D01*
X52754142Y32945684D01*
X53410519Y32969486D01*
X53906380Y33174878D01*
X54007002Y33443393D01*
X53022500Y34427895D01*
X53008358Y34413752D01*
X52828753Y34593357D01*
X52842895Y34607500D01*
X53202105Y34607500D01*
X54186607Y33622998D01*
X54455122Y33723620D01*
X54684316Y34339142D01*
X54660514Y34995519D01*
X54455122Y35491380D01*
X54186607Y35592002D01*
X53202105Y34607500D01*
X52842895Y34607500D01*
X52828753Y34621642D01*
X53008358Y34801247D01*
X53022500Y34787105D01*
X54007002Y35771607D01*
X53999953Y35790417D01*
X54421334Y36211063D01*
X54673213Y36817655D01*
X54673215Y36820537D01*
X58991214Y36820537D01*
X59242034Y36213505D01*
X59577632Y35877321D01*
X59243666Y35543937D01*
X58991787Y34937345D01*
X58991214Y34280537D01*
X59242034Y33673505D01*
X59706063Y33208666D01*
X60312655Y32956787D01*
X60969463Y32956214D01*
X61576495Y33207034D01*
X62041334Y33671063D01*
X62293213Y34277655D01*
X62293786Y34934463D01*
X62042966Y35541495D01*
X61707368Y35877679D01*
X62041334Y36211063D01*
X62293213Y36817655D01*
X62293786Y37474463D01*
X62042966Y38081495D01*
X61578937Y38546334D01*
X60972345Y38798213D01*
X60315537Y38798786D01*
X59708505Y38547966D01*
X59243666Y38083937D01*
X58991787Y37477345D01*
X58991214Y36820537D01*
X54673215Y36820537D01*
X54673786Y37474463D01*
X54422966Y38081495D01*
X54038500Y38466632D01*
X54038500Y46291500D01*
X53961162Y46680306D01*
X53961162Y46680307D01*
X53740921Y47009920D01*
X52490841Y48260000D01*
X67531655Y48260000D01*
X67645729Y47686511D01*
X67970585Y47200330D01*
X68285366Y46990000D01*
X67970585Y46779670D01*
X67645729Y46293489D01*
X67531655Y45720000D01*
X67645729Y45146511D01*
X67970585Y44660330D01*
X68285366Y44450000D01*
X67970585Y44239670D01*
X67645729Y43753489D01*
X67531655Y43180000D01*
X67645729Y42606511D01*
X67970585Y42120330D01*
X68285366Y41910000D01*
X67970585Y41699670D01*
X67645729Y41213489D01*
X67531655Y40640000D01*
X67645729Y40066511D01*
X67970585Y39580330D01*
X67984913Y39570757D01*
X67963683Y39566762D01*
X67747559Y39427690D01*
X67602569Y39215490D01*
X67551560Y38963600D01*
X67551560Y37236400D01*
X67595838Y37001083D01*
X67734910Y36784959D01*
X67947110Y36639969D01*
X68199000Y36588960D01*
X70231000Y36588960D01*
X70466317Y36633238D01*
X70682441Y36772310D01*
X70827431Y36984510D01*
X70878440Y37236400D01*
X70878440Y38963600D01*
X70834162Y39198917D01*
X70695090Y39415041D01*
X70482890Y39560031D01*
X70441561Y39568400D01*
X70459415Y39580330D01*
X70784271Y40066511D01*
X70898345Y40640000D01*
X70784271Y41213489D01*
X70459415Y41699670D01*
X70144634Y41910000D01*
X70459415Y42120330D01*
X70784271Y42606511D01*
X70898345Y43180000D01*
X70784271Y43753489D01*
X70459415Y44239670D01*
X70144634Y44450000D01*
X70459415Y44660330D01*
X70784271Y45146511D01*
X70898345Y45720000D01*
X70784271Y46293489D01*
X70459415Y46779670D01*
X70144634Y46990000D01*
X70459415Y47200330D01*
X70784271Y47686511D01*
X70898345Y48260000D01*
X70784271Y48833489D01*
X70459415Y49319670D01*
X70149931Y49526461D01*
X70565732Y49897964D01*
X70819709Y50425209D01*
X70822358Y50440974D01*
X70701217Y50673000D01*
X69342000Y50673000D01*
X69342000Y50653000D01*
X69088000Y50653000D01*
X69088000Y50673000D01*
X67728783Y50673000D01*
X67607642Y50440974D01*
X67610291Y50425209D01*
X67864268Y49897964D01*
X68280069Y49526461D01*
X67970585Y49319670D01*
X67645729Y48833489D01*
X67531655Y48260000D01*
X52490841Y48260000D01*
X49591815Y51159026D01*
X67607642Y51159026D01*
X67728783Y50927000D01*
X69088000Y50927000D01*
X69088000Y52140924D01*
X69342000Y52140924D01*
X69342000Y50927000D01*
X70701217Y50927000D01*
X70822358Y51159026D01*
X70819709Y51174791D01*
X70565732Y51702036D01*
X70129320Y52091954D01*
X69576913Y52285184D01*
X69342000Y52140924D01*
X69088000Y52140924D01*
X68853087Y52285184D01*
X68300680Y52091954D01*
X67864268Y51702036D01*
X67610291Y51174791D01*
X67607642Y51159026D01*
X49591815Y51159026D01*
X44152420Y56598420D01*
X43822807Y56818662D01*
X43758300Y56831493D01*
X43434000Y56896000D01*
X36940940Y56896000D01*
X36560801Y57150000D01*
X36956222Y57414211D01*
X37264559Y57875671D01*
X37372833Y58420000D01*
X37320766Y58681759D01*
X66694994Y58681759D01*
X66981314Y57988809D01*
X67511021Y57458178D01*
X68203469Y57170648D01*
X68953241Y57169994D01*
X69646191Y57456314D01*
X70176822Y57986021D01*
X70464352Y58678469D01*
X70465006Y59428241D01*
X70178686Y60121191D01*
X69648979Y60651822D01*
X68956531Y60939352D01*
X68206759Y60940006D01*
X67513809Y60653686D01*
X66983178Y60123979D01*
X66695648Y59431531D01*
X66694994Y58681759D01*
X37320766Y58681759D01*
X37264559Y58964329D01*
X36956222Y59425789D01*
X36494762Y59734126D01*
X35950433Y59842400D01*
X35169567Y59842400D01*
X34625238Y59734126D01*
X34163778Y59425789D01*
X33855441Y58964329D01*
X33747167Y58420000D01*
X24003000Y58420000D01*
X24003000Y58761160D01*
X26054921Y60813080D01*
X26068231Y60833000D01*
X46365000Y60833000D01*
X46365000Y60233000D01*
X46522834Y59693517D01*
X46875104Y59255500D01*
X47368181Y58985633D01*
X47450961Y58968096D01*
X47673000Y59090085D01*
X47673000Y60833000D01*
X47927000Y60833000D01*
X47927000Y59090085D01*
X48149039Y58968096D01*
X48231819Y58985633D01*
X48724896Y59255500D01*
X49077166Y59693517D01*
X49235000Y60233000D01*
X49235000Y60833000D01*
X47927000Y60833000D01*
X47673000Y60833000D01*
X46365000Y60833000D01*
X26068231Y60833000D01*
X26275162Y61142693D01*
X26287993Y61207200D01*
X26352500Y61531500D01*
X26352500Y62357000D01*
X46627801Y62357000D01*
X46522834Y62226483D01*
X46365000Y61687000D01*
X46365000Y61087000D01*
X47673000Y61087000D01*
X47673000Y61107000D01*
X47927000Y61107000D01*
X47927000Y61087000D01*
X49235000Y61087000D01*
X49235000Y61687000D01*
X49105991Y62127957D01*
X51171972Y60061977D01*
X51171974Y60061974D01*
X51569015Y59796680D01*
X51583992Y59786673D01*
X52070000Y59689999D01*
X52070005Y59690000D01*
X52352560Y59690000D01*
X52352560Y59560000D01*
X52396838Y59324683D01*
X52535910Y59108559D01*
X52748110Y58963569D01*
X53000000Y58912560D01*
X54600000Y58912560D01*
X54835317Y58956838D01*
X55051441Y59095910D01*
X55196431Y59308110D01*
X55247440Y59560000D01*
X55247440Y62360000D01*
X55203162Y62595317D01*
X55064090Y62811441D01*
X54851890Y62956431D01*
X54600000Y63007440D01*
X53000000Y63007440D01*
X52764683Y62963162D01*
X52548559Y62824090D01*
X52403569Y62611890D01*
X52371672Y62454379D01*
X50301026Y64525026D01*
X49889008Y64800327D01*
X49403000Y64897001D01*
X49402995Y64897000D01*
X26606500Y64897000D01*
X26606500Y65384680D01*
X66682880Y65384680D01*
X66682880Y62885320D01*
X66727158Y62650003D01*
X66866230Y62433879D01*
X67078430Y62288889D01*
X67330320Y62237880D01*
X69829680Y62237880D01*
X70064997Y62282158D01*
X70281121Y62421230D01*
X70426111Y62633430D01*
X70477120Y62885320D01*
X70477120Y65384680D01*
X70432842Y65619997D01*
X70293770Y65836121D01*
X70081570Y65981111D01*
X69829680Y66032120D01*
X67330320Y66032120D01*
X67095003Y65987842D01*
X66878879Y65848770D01*
X66733889Y65636570D01*
X66682880Y65384680D01*
X26606500Y65384680D01*
X26606500Y65817707D01*
X26835332Y65722687D01*
X27264784Y65722313D01*
X27418918Y65786000D01*
X29972000Y65786000D01*
X30296300Y65850507D01*
X30360807Y65863338D01*
X30690420Y66083580D01*
X31198420Y66591579D01*
X31418661Y66921193D01*
X31418662Y66921194D01*
X31496000Y67310000D01*
X31496000Y68841759D01*
X66694994Y68841759D01*
X66981314Y68148809D01*
X67511021Y67618178D01*
X68203469Y67330648D01*
X68953241Y67329994D01*
X69646191Y67616314D01*
X70176822Y68146021D01*
X70464352Y68838469D01*
X70465006Y69588241D01*
X70178686Y70281191D01*
X69648979Y70811822D01*
X68956531Y71099352D01*
X68206759Y71100006D01*
X67513809Y70813686D01*
X66983178Y70283979D01*
X66695648Y69591531D01*
X66694994Y68841759D01*
X31496000Y68841759D01*
X31496000Y69202560D01*
X31623000Y69202560D01*
X31858317Y69246838D01*
X32074441Y69385910D01*
X32219431Y69598110D01*
X32270440Y69850000D01*
X32270440Y71882000D01*
X32226162Y72117317D01*
X32087090Y72333441D01*
X31874890Y72478431D01*
X31623000Y72529440D01*
X29591000Y72529440D01*
X29525169Y72517053D01*
X29464000Y72529440D01*
X27432000Y72529440D01*
X27196683Y72485162D01*
X26980559Y72346090D01*
X26835569Y72133890D01*
X26784560Y71882000D01*
X26784560Y69850000D01*
X26828838Y69614683D01*
X26967910Y69398559D01*
X27180110Y69253569D01*
X27432000Y69202560D01*
X27432000Y68836863D01*
X27406378Y68811286D01*
X27241687Y68414668D01*
X27241313Y67985216D01*
X27287885Y67872503D01*
X27266668Y67881313D01*
X26837216Y67881687D01*
X26606500Y67786357D01*
X26606500Y68897500D01*
X26509827Y69383508D01*
X26234526Y69795526D01*
X26234523Y69795528D01*
X21590000Y74440052D01*
X21590000Y75382463D01*
X21908341Y75250276D01*
X22538893Y75249725D01*
X23121657Y75490519D01*
X23567914Y75935997D01*
X23809724Y76518341D01*
X23810275Y77148893D01*
X23569481Y77731657D01*
X23196529Y78105261D01*
X23567914Y78475997D01*
X23805445Y79048037D01*
X26288714Y79048037D01*
X26539534Y78441005D01*
X27003563Y77976166D01*
X27610155Y77724287D01*
X28266963Y77723714D01*
X28873995Y77974534D01*
X29210179Y78310132D01*
X29543563Y77976166D01*
X29591000Y77956468D01*
X29591000Y75819000D01*
X29655507Y75494700D01*
X29668338Y75430193D01*
X29888580Y75100580D01*
X32295265Y72693894D01*
X32358311Y72541311D01*
X32661714Y72237378D01*
X33058332Y72072687D01*
X33487784Y72072313D01*
X33884689Y72236311D01*
X34188622Y72539714D01*
X34353313Y72936332D01*
X34353687Y73365784D01*
X34189689Y73762689D01*
X33886286Y74066622D01*
X33732262Y74130579D01*
X31623000Y76239840D01*
X31623000Y78183175D01*
X31878834Y78438563D01*
X32130713Y79045155D01*
X32130715Y79048037D01*
X32638714Y79048037D01*
X32889534Y78441005D01*
X33353563Y77976166D01*
X33960155Y77724287D01*
X34616963Y77723714D01*
X35223995Y77974534D01*
X35560179Y78310132D01*
X35893563Y77976166D01*
X36500155Y77724287D01*
X37156963Y77723714D01*
X37763995Y77974534D01*
X38228834Y78438563D01*
X38480713Y79045155D01*
X38481286Y79701963D01*
X38230466Y80308995D01*
X37766437Y80773834D01*
X37159845Y81025713D01*
X36503037Y81026286D01*
X35896005Y80775466D01*
X35559821Y80439868D01*
X35226437Y80773834D01*
X34619845Y81025713D01*
X33963037Y81026286D01*
X33356005Y80775466D01*
X32891166Y80311437D01*
X32639287Y79704845D01*
X32638714Y79048037D01*
X32130715Y79048037D01*
X32131286Y79701963D01*
X31880466Y80308995D01*
X31416437Y80773834D01*
X30809845Y81025713D01*
X30153037Y81026286D01*
X29546005Y80775466D01*
X29209821Y80439868D01*
X28876437Y80773834D01*
X28269845Y81025713D01*
X27613037Y81026286D01*
X27006005Y80775466D01*
X26541166Y80311437D01*
X26289287Y79704845D01*
X26288714Y79048037D01*
X23805445Y79048037D01*
X23809724Y79058341D01*
X23810275Y79688893D01*
X23569481Y80271657D01*
X23196529Y80645261D01*
X23567914Y81015997D01*
X23809724Y81598341D01*
X23810275Y82228893D01*
X23569481Y82811657D01*
X23196529Y83185261D01*
X23567914Y83555997D01*
X23809724Y84138341D01*
X23810000Y84455000D01*
X38989000Y84455000D01*
X39066338Y84066194D01*
X39117019Y83990345D01*
X39295519Y83558343D01*
X39668471Y83184739D01*
X39297086Y82814003D01*
X39055276Y82231659D01*
X39054725Y81601107D01*
X39295519Y81018343D01*
X39668471Y80644739D01*
X39297086Y80274003D01*
X39055276Y79691659D01*
X39054725Y79061107D01*
X39295519Y78478343D01*
X39668471Y78104739D01*
X39297086Y77734003D01*
X39055276Y77151659D01*
X39054725Y76521107D01*
X39295519Y75938343D01*
X39740997Y75492086D01*
X40323341Y75250276D01*
X40953893Y75249725D01*
X41536657Y75490519D01*
X41796336Y75749745D01*
X43586400Y75749745D01*
X43586400Y75380255D01*
X43700474Y74806766D01*
X44025330Y74320585D01*
X44511511Y73995729D01*
X45085000Y73881655D01*
X45658489Y73995729D01*
X46144670Y74320585D01*
X46355000Y74635366D01*
X46565330Y74320585D01*
X47051511Y73995729D01*
X47625000Y73881655D01*
X48198489Y73995729D01*
X48684670Y74320585D01*
X49009526Y74806766D01*
X49123600Y75380255D01*
X49123600Y75749745D01*
X56286400Y75749745D01*
X56286400Y75380255D01*
X56400474Y74806766D01*
X56725330Y74320585D01*
X57211511Y73995729D01*
X57785000Y73881655D01*
X58358489Y73995729D01*
X58844670Y74320585D01*
X59055000Y74635366D01*
X59265330Y74320585D01*
X59751511Y73995729D01*
X60325000Y73881655D01*
X60898489Y73995729D01*
X61384670Y74320585D01*
X61709526Y74806766D01*
X61823600Y75380255D01*
X61823600Y75544680D01*
X66682880Y75544680D01*
X66682880Y73045320D01*
X66727158Y72810003D01*
X66866230Y72593879D01*
X67078430Y72448889D01*
X67330320Y72397880D01*
X69829680Y72397880D01*
X70064997Y72442158D01*
X70281121Y72581230D01*
X70426111Y72793430D01*
X70477120Y73045320D01*
X70477120Y75544680D01*
X70432842Y75779997D01*
X70293770Y75996121D01*
X70081570Y76141111D01*
X69829680Y76192120D01*
X67330320Y76192120D01*
X67095003Y76147842D01*
X66878879Y76008770D01*
X66733889Y75796570D01*
X66682880Y75544680D01*
X61823600Y75544680D01*
X61823600Y75749745D01*
X61709526Y76323234D01*
X61384670Y76809415D01*
X60898489Y77134271D01*
X60325000Y77248345D01*
X59751511Y77134271D01*
X59265330Y76809415D01*
X59055000Y76494634D01*
X58844670Y76809415D01*
X58358489Y77134271D01*
X57785000Y77248345D01*
X57211511Y77134271D01*
X56725330Y76809415D01*
X56400474Y76323234D01*
X56286400Y75749745D01*
X49123600Y75749745D01*
X49009526Y76323234D01*
X48684670Y76809415D01*
X48198489Y77134271D01*
X47625000Y77248345D01*
X47051511Y77134271D01*
X46565330Y76809415D01*
X46355000Y76494634D01*
X46144670Y76809415D01*
X45658489Y77134271D01*
X45085000Y77248345D01*
X44511511Y77134271D01*
X44025330Y76809415D01*
X43700474Y76323234D01*
X43586400Y75749745D01*
X41796336Y75749745D01*
X41982914Y75935997D01*
X42224724Y76518341D01*
X42225275Y77148893D01*
X41984481Y77731657D01*
X41611529Y78105261D01*
X41982914Y78475997D01*
X42201229Y79001759D01*
X66694994Y79001759D01*
X66981314Y78308809D01*
X67511021Y77778178D01*
X68203469Y77490648D01*
X68953241Y77489994D01*
X69646191Y77776314D01*
X70176822Y78306021D01*
X70464352Y78998469D01*
X70465006Y79748241D01*
X70178686Y80441191D01*
X69648979Y80971822D01*
X68956531Y81259352D01*
X68206759Y81260006D01*
X67513809Y80973686D01*
X66983178Y80443979D01*
X66695648Y79751531D01*
X66694994Y79001759D01*
X42201229Y79001759D01*
X42224724Y79058341D01*
X42225275Y79688893D01*
X41984481Y80271657D01*
X41611529Y80645261D01*
X41982914Y81015997D01*
X42224724Y81598341D01*
X42225275Y82228893D01*
X41984481Y82811657D01*
X41611529Y83185261D01*
X41865712Y83439000D01*
X51308000Y83439000D01*
X51632300Y83503507D01*
X51696807Y83516338D01*
X52026420Y83736580D01*
X53994520Y85704680D01*
X66682880Y85704680D01*
X66682880Y83205320D01*
X66727158Y82970003D01*
X66866230Y82753879D01*
X67078430Y82608889D01*
X67330320Y82557880D01*
X69829680Y82557880D01*
X70064997Y82602158D01*
X70281121Y82741230D01*
X70426111Y82953430D01*
X70477120Y83205320D01*
X70477120Y85704680D01*
X70432842Y85939997D01*
X70293770Y86156121D01*
X70081570Y86301111D01*
X69829680Y86352120D01*
X67330320Y86352120D01*
X67095003Y86307842D01*
X66878879Y86168770D01*
X66733889Y85956570D01*
X66682880Y85704680D01*
X53994520Y85704680D01*
X56214056Y87924216D01*
X56705313Y87924216D01*
X56869311Y87527311D01*
X57172714Y87223378D01*
X57569332Y87058687D01*
X57998784Y87058313D01*
X58395689Y87222311D01*
X58699622Y87525714D01*
X58763579Y87679739D01*
X61598421Y90514580D01*
X61818662Y90844193D01*
X61861389Y91059000D01*
X61896000Y91233000D01*
X61896000Y93181406D01*
X61939670Y93210585D01*
X62264526Y93696766D01*
X62378600Y94270255D01*
X62378600Y94577185D01*
X67864630Y94577185D01*
X68188980Y93792200D01*
X68789041Y93191091D01*
X69573459Y92865372D01*
X70422815Y92864630D01*
X71207800Y93188980D01*
X71808909Y93789041D01*
X72134628Y94573459D01*
X72135370Y95422815D01*
X71811020Y96207800D01*
X71210959Y96808909D01*
X70426541Y97134628D01*
X69577185Y97135370D01*
X68792200Y96811020D01*
X68191091Y96210959D01*
X67865372Y95426541D01*
X67864630Y94577185D01*
X62378600Y94577185D01*
X62378600Y94639745D01*
X62264526Y95213234D01*
X61939670Y95699415D01*
X61453489Y96024271D01*
X60880000Y96138345D01*
X60306511Y96024271D01*
X59820330Y95699415D01*
X59708934Y95532700D01*
X59322036Y95965732D01*
X58794791Y96219709D01*
X58779026Y96222358D01*
X58547000Y96101217D01*
X58547000Y94742000D01*
X58567000Y94742000D01*
X58567000Y94488000D01*
X58547000Y94488000D01*
X58547000Y93128783D01*
X58779026Y93007642D01*
X58794791Y93010291D01*
X59322036Y93264268D01*
X59586603Y93560382D01*
X59820330Y93210585D01*
X59864000Y93181406D01*
X59864000Y91653841D01*
X57326896Y89116736D01*
X57174311Y89053689D01*
X56870378Y88750286D01*
X56705687Y88353668D01*
X56705313Y87924216D01*
X56214056Y87924216D01*
X56598420Y88308579D01*
X56779593Y88579724D01*
X56818662Y88638194D01*
X56896000Y89027000D01*
X56896000Y93341406D01*
X56939670Y93370585D01*
X57146461Y93680069D01*
X57517964Y93264268D01*
X58045209Y93010291D01*
X58060974Y93007642D01*
X58293000Y93128783D01*
X58293000Y94488000D01*
X58273000Y94488000D01*
X58273000Y94742000D01*
X58293000Y94742000D01*
X58293000Y96101217D01*
X58060974Y96222358D01*
X58045209Y96219709D01*
X57517964Y95965732D01*
X57146461Y95549931D01*
X56939670Y95859415D01*
X56453489Y96184271D01*
X55880000Y96298345D01*
X55306511Y96184271D01*
X54820330Y95859415D01*
X54495474Y95373234D01*
X54381400Y94799745D01*
X54381400Y94430255D01*
X54495474Y93856766D01*
X54820330Y93370585D01*
X54864000Y93341406D01*
X54864000Y89447841D01*
X50887160Y85471000D01*
X48529057Y85471000D01*
X48798327Y85873992D01*
X48895000Y86360000D01*
X48895000Y93105927D01*
X48940041Y93134910D01*
X49085031Y93347110D01*
X49136040Y93599000D01*
X49136040Y95631000D01*
X49091762Y95866317D01*
X48952690Y96082441D01*
X48740490Y96227431D01*
X48488600Y96278440D01*
X46761400Y96278440D01*
X46526083Y96234162D01*
X46309959Y96095090D01*
X46164969Y95882890D01*
X46145768Y95788073D01*
X45987036Y95965732D01*
X45459791Y96219709D01*
X45444026Y96222358D01*
X45212000Y96101217D01*
X45212000Y94742000D01*
X45232000Y94742000D01*
X45232000Y94488000D01*
X45212000Y94488000D01*
X45212000Y93128783D01*
X45444026Y93007642D01*
X45459791Y93010291D01*
X45987036Y93264268D01*
X46143907Y93439845D01*
X46158238Y93363683D01*
X46297310Y93147559D01*
X46355000Y93108141D01*
X46355000Y86360000D01*
X46451673Y85873992D01*
X46720943Y85471000D01*
X41865346Y85471000D01*
X41611529Y85725261D01*
X41982914Y86095997D01*
X42224724Y86678341D01*
X42225275Y87308893D01*
X41984481Y87891657D01*
X41611529Y88265261D01*
X41982914Y88635997D01*
X42224724Y89218341D01*
X42225275Y89848893D01*
X41984481Y90431657D01*
X41611529Y90805261D01*
X41982914Y91175997D01*
X42224724Y91758341D01*
X42225275Y92388893D01*
X41984481Y92971657D01*
X41611529Y93345261D01*
X41982914Y93715997D01*
X42205932Y94253087D01*
X43599816Y94253087D01*
X43793046Y93700680D01*
X44182964Y93264268D01*
X44710209Y93010291D01*
X44725974Y93007642D01*
X44958000Y93128783D01*
X44958000Y94488000D01*
X43744076Y94488000D01*
X43599816Y94253087D01*
X42205932Y94253087D01*
X42224724Y94298341D01*
X42225275Y94928893D01*
X42205434Y94976913D01*
X43599816Y94976913D01*
X43744076Y94742000D01*
X44958000Y94742000D01*
X44958000Y96101217D01*
X44725974Y96222358D01*
X44710209Y96219709D01*
X44182964Y95965732D01*
X43793046Y95529320D01*
X43599816Y94976913D01*
X42205434Y94976913D01*
X41984481Y95511657D01*
X41539003Y95957914D01*
X40956659Y96199724D01*
X40326107Y96200275D01*
X39743343Y95959481D01*
X39297086Y95514003D01*
X39055276Y94931659D01*
X39054725Y94301107D01*
X39295519Y93718343D01*
X39668471Y93344739D01*
X39297086Y92974003D01*
X39055276Y92391659D01*
X39054725Y91761107D01*
X39295519Y91178343D01*
X39668471Y90804739D01*
X39297086Y90434003D01*
X39055276Y89851659D01*
X39054725Y89221107D01*
X39295519Y88638343D01*
X39668471Y88264739D01*
X39297086Y87894003D01*
X39055276Y87311659D01*
X39054725Y86681107D01*
X39295519Y86098343D01*
X39668471Y85724739D01*
X39297086Y85354003D01*
X39116254Y84918510D01*
X39066338Y84843806D01*
X38989000Y84455000D01*
X23810000Y84455000D01*
X23810275Y84768893D01*
X23569481Y85351657D01*
X23196529Y85725261D01*
X23302345Y85830893D01*
X26955498Y85830893D01*
X27056120Y85562378D01*
X27671642Y85333184D01*
X28328019Y85356986D01*
X28823880Y85562378D01*
X28924502Y85830893D01*
X27940000Y86815395D01*
X26955498Y85830893D01*
X23302345Y85830893D01*
X23567914Y86095997D01*
X23809724Y86678341D01*
X23810235Y87263358D01*
X26278184Y87263358D01*
X26301986Y86606981D01*
X26507378Y86111120D01*
X26775893Y86010498D01*
X27760395Y86995000D01*
X28119605Y86995000D01*
X29104107Y86010498D01*
X29122917Y86017547D01*
X29543563Y85596166D01*
X30150155Y85344287D01*
X30806963Y85343714D01*
X31413995Y85594534D01*
X31878834Y86058563D01*
X32130713Y86665155D01*
X32130715Y86668037D01*
X32638714Y86668037D01*
X32889534Y86061005D01*
X33353563Y85596166D01*
X33960155Y85344287D01*
X34616963Y85343714D01*
X35223995Y85594534D01*
X35560179Y85930132D01*
X35893563Y85596166D01*
X36500155Y85344287D01*
X37156963Y85343714D01*
X37763995Y85594534D01*
X38228834Y86058563D01*
X38480713Y86665155D01*
X38481286Y87321963D01*
X38230466Y87928995D01*
X37766437Y88393834D01*
X37159845Y88645713D01*
X36503037Y88646286D01*
X35896005Y88395466D01*
X35559821Y88059868D01*
X35226437Y88393834D01*
X34619845Y88645713D01*
X33963037Y88646286D01*
X33356005Y88395466D01*
X32891166Y87931437D01*
X32639287Y87324845D01*
X32638714Y86668037D01*
X32130715Y86668037D01*
X32131286Y87321963D01*
X31880466Y87928995D01*
X31416437Y88393834D01*
X30809845Y88645713D01*
X30153037Y88646286D01*
X29546005Y88395466D01*
X29122435Y87972634D01*
X29104107Y87979502D01*
X28119605Y86995000D01*
X27760395Y86995000D01*
X26775893Y87979502D01*
X26507378Y87878880D01*
X26278184Y87263358D01*
X23810235Y87263358D01*
X23810275Y87308893D01*
X23569481Y87891657D01*
X23302498Y88159107D01*
X26955498Y88159107D01*
X27940000Y87174605D01*
X28924502Y88159107D01*
X28823880Y88427622D01*
X28208358Y88656816D01*
X27551981Y88633014D01*
X27056120Y88427622D01*
X26955498Y88159107D01*
X23302498Y88159107D01*
X23196529Y88265261D01*
X23567914Y88635997D01*
X23809724Y89218341D01*
X23810275Y89848893D01*
X23690715Y90138250D01*
X27114500Y90138250D01*
X27114500Y89345190D01*
X27211173Y89111801D01*
X27389802Y88933173D01*
X27623191Y88836500D01*
X28416250Y88836500D01*
X28575000Y88995250D01*
X28575000Y90297000D01*
X28829000Y90297000D01*
X28829000Y88995250D01*
X28987750Y88836500D01*
X29780809Y88836500D01*
X30014198Y88933173D01*
X30192827Y89111801D01*
X30289500Y89345190D01*
X30289500Y90138250D01*
X30130750Y90297000D01*
X28829000Y90297000D01*
X28575000Y90297000D01*
X27273250Y90297000D01*
X27114500Y90138250D01*
X23690715Y90138250D01*
X23569481Y90431657D01*
X23196529Y90805261D01*
X23450712Y91059000D01*
X26416000Y91059000D01*
X26740300Y91123507D01*
X26804807Y91136338D01*
X27114500Y91343270D01*
X27114500Y90709750D01*
X27273250Y90551000D01*
X28575000Y90551000D01*
X28575000Y90571000D01*
X28829000Y90571000D01*
X28829000Y90551000D01*
X30130750Y90551000D01*
X30289500Y90709750D01*
X30289500Y91502810D01*
X30192827Y91736199D01*
X30014198Y91914827D01*
X29932090Y91948837D01*
X29972257Y91988935D01*
X30341579Y91618968D01*
X30924841Y91376776D01*
X31556388Y91376225D01*
X32140072Y91617398D01*
X32587032Y92063579D01*
X32829224Y92646841D01*
X32829775Y93278388D01*
X32588602Y93862072D01*
X32142421Y94309032D01*
X31559159Y94551224D01*
X30927612Y94551775D01*
X30343928Y94310602D01*
X29971743Y93939065D01*
X29602421Y94309032D01*
X29019159Y94551224D01*
X28387612Y94551775D01*
X27803928Y94310602D01*
X27472749Y93980000D01*
X27305000Y93980000D01*
X26980700Y93915493D01*
X26916193Y93902662D01*
X26586580Y93682421D01*
X25995160Y93091000D01*
X23450346Y93091000D01*
X23196529Y93345261D01*
X23567914Y93715997D01*
X23809724Y94298341D01*
X23810275Y94928893D01*
X23569481Y95511657D01*
X23124003Y95957914D01*
X22541659Y96199724D01*
X21911107Y96200275D01*
X21328343Y95959481D01*
X20882086Y95514003D01*
X20640276Y94931659D01*
X20639755Y94335086D01*
X19641420Y95333420D01*
X19311807Y95553662D01*
X19237185Y95568505D01*
X18923000Y95631000D01*
X18808440Y95631000D01*
X18764162Y95866317D01*
X18625090Y96082441D01*
X18412890Y96227431D01*
X18161000Y96278440D01*
X16129000Y96278440D01*
X15893683Y96234162D01*
X15677559Y96095090D01*
X15532569Y95882890D01*
X15481560Y95631000D01*
X15481560Y93599000D01*
X15494000Y93532887D01*
X15494000Y92741750D01*
X15652750Y92583000D01*
X17018000Y92583000D01*
X17018000Y92603000D01*
X17272000Y92603000D01*
X17272000Y92583000D01*
X18637250Y92583000D01*
X18796000Y92741750D01*
X18796000Y93305160D01*
X20744579Y91356580D01*
X20830630Y91299082D01*
X20880519Y91178343D01*
X21253471Y90804739D01*
X20882086Y90434003D01*
X20640276Y89851659D01*
X20639725Y89221107D01*
X20880519Y88638343D01*
X21253471Y88264739D01*
X20882086Y87894003D01*
X20640276Y87311659D01*
X20639725Y86681107D01*
X20880519Y86098343D01*
X21253471Y85724739D01*
X20882086Y85354003D01*
X20640276Y84771659D01*
X20639725Y84141107D01*
X20880519Y83558343D01*
X21253471Y83184739D01*
X21176824Y83108227D01*
X18297026Y85988026D01*
X17885008Y86263327D01*
X17399000Y86360001D01*
X17398995Y86360000D01*
X14504944Y86360000D01*
X14161505Y86704039D01*
X13461590Y86994668D01*
X12703735Y86995330D01*
X12003314Y86705922D01*
X11466961Y86170505D01*
X11176332Y85470590D01*
X11175670Y84712735D01*
X11465078Y84012314D01*
X12000495Y83475961D01*
X12700410Y83185332D01*
X13458265Y83184670D01*
X14158686Y83474078D01*
X14505213Y83820000D01*
X16872948Y83820000D01*
X19050000Y81642949D01*
X19050000Y81068559D01*
X18541590Y81279668D01*
X17783735Y81280330D01*
X17083314Y80990922D01*
X16546961Y80455505D01*
X16345249Y79969727D01*
X16176437Y80138834D01*
X15569845Y80390713D01*
X14913037Y80391286D01*
X14306005Y80140466D01*
X13969821Y79804868D01*
X13636437Y80138834D01*
X13029845Y80390713D01*
X12373037Y80391286D01*
X11766005Y80140466D01*
X11301166Y79676437D01*
X11049287Y79069845D01*
X11048714Y78413037D01*
X11299534Y77806005D01*
X11763563Y77341166D01*
X12370155Y77089287D01*
X13026963Y77088714D01*
X13633995Y77339534D01*
X13970179Y77675132D01*
X14303563Y77341166D01*
X14910155Y77089287D01*
X15566963Y77088714D01*
X16173995Y77339534D01*
X16638834Y77803563D01*
X16756086Y78085937D01*
X17080495Y77760961D01*
X17780410Y77470332D01*
X18538265Y77469670D01*
X19050000Y77681115D01*
X19050000Y73914005D01*
X19049999Y73914000D01*
X19146673Y73427992D01*
X19421974Y73015974D01*
X24066500Y68371449D01*
X24066500Y63627000D01*
X24163173Y63140992D01*
X24320500Y62905535D01*
X24320500Y61952341D01*
X22268580Y59900420D01*
X22048338Y59570807D01*
X22036322Y59510395D01*
X21971000Y59182000D01*
X21971000Y59044486D01*
X21716222Y59425789D01*
X21254762Y59734126D01*
X20710433Y59842400D01*
X19929567Y59842400D01*
X19385238Y59734126D01*
X18923778Y59425789D01*
X18615441Y58964329D01*
X18507167Y58420000D01*
X18615441Y57875671D01*
X18923778Y57414211D01*
X19319199Y57150000D01*
X18923778Y56885789D01*
X18615441Y56424329D01*
X18507167Y55880000D01*
X18615441Y55335671D01*
X18923778Y54874211D01*
X19319199Y54610000D01*
X18923778Y54345789D01*
X18615441Y53884329D01*
X18507167Y53340000D01*
X18615441Y52795671D01*
X18923778Y52334211D01*
X19319199Y52070000D01*
X18923778Y51805789D01*
X18615441Y51344329D01*
X18540627Y50968213D01*
X18415000Y51093840D01*
X18415000Y64897000D01*
X18337662Y65285806D01*
X18337662Y65285807D01*
X18117421Y65615420D01*
X17228423Y66504417D01*
X17228421Y66504420D01*
X15103618Y68629223D01*
X16992828Y68629223D01*
X17124520Y68334343D01*
X17832036Y68062739D01*
X18589632Y68082564D01*
X19197480Y68334343D01*
X19329172Y68629223D01*
X18161000Y69797395D01*
X16992828Y68629223D01*
X15103618Y68629223D01*
X13823816Y69909024D01*
X13870766Y69955893D01*
X14255498Y69955893D01*
X14356120Y69687378D01*
X14971642Y69458184D01*
X15628019Y69481986D01*
X16123880Y69687378D01*
X16224501Y69955891D01*
X16256744Y69923648D01*
X16266564Y69548368D01*
X16518343Y68940520D01*
X16813223Y68808828D01*
X17981395Y69977000D01*
X18340605Y69977000D01*
X19508777Y68808828D01*
X19803657Y68940520D01*
X20075261Y69648036D01*
X20055436Y70405632D01*
X19803657Y71013480D01*
X19508777Y71145172D01*
X18340605Y69977000D01*
X17981395Y69977000D01*
X17967253Y69991142D01*
X18146858Y70170747D01*
X18161000Y70156605D01*
X19329172Y71324777D01*
X19197480Y71619657D01*
X18489964Y71891261D01*
X17732368Y71871436D01*
X17124520Y71619657D01*
X16992829Y71324779D01*
X16880589Y71437019D01*
X16878014Y71508019D01*
X16672622Y72003880D01*
X16404107Y72104502D01*
X15419605Y71120000D01*
X15433748Y71105857D01*
X15254143Y70926252D01*
X15240000Y70940395D01*
X14255498Y69955893D01*
X13870766Y69955893D01*
X14057565Y70142366D01*
X14075893Y70135498D01*
X15060395Y71120000D01*
X14075893Y72104502D01*
X14057083Y72097453D01*
X13870755Y72284107D01*
X14255498Y72284107D01*
X15240000Y71299605D01*
X16224502Y72284107D01*
X16123880Y72552622D01*
X15508358Y72781816D01*
X14851981Y72758014D01*
X14356120Y72552622D01*
X14255498Y72284107D01*
X13870755Y72284107D01*
X13636437Y72518834D01*
X13029845Y72770713D01*
X12373037Y72771286D01*
X11766005Y72520466D01*
X11301166Y72056437D01*
X11049287Y71449845D01*
X11048714Y70793037D01*
X11299534Y70186005D01*
X11684000Y69800868D01*
X11684000Y69596000D01*
X11726267Y69383508D01*
X11761338Y69207193D01*
X11981580Y68877580D01*
X12348702Y68510457D01*
X12336568Y68510468D01*
X11661829Y68231672D01*
X11145142Y67715886D01*
X10865169Y67041635D01*
X10864532Y66311568D01*
X11143328Y65636829D01*
X11659114Y65120142D01*
X12333365Y64840169D01*
X13063432Y64839532D01*
X13088337Y64849823D01*
X14859000Y63079159D01*
X14859000Y58967841D01*
X14525631Y59301209D01*
X14534831Y59323365D01*
X14535468Y60053432D01*
X14256672Y60728171D01*
X13740886Y61244858D01*
X13066635Y61524831D01*
X12336568Y61525468D01*
X11661829Y61246672D01*
X11145142Y60730886D01*
X10865169Y60056635D01*
X10864532Y59326568D01*
X11143328Y58651829D01*
X11659114Y58135142D01*
X12333365Y57855169D01*
X13063432Y57854532D01*
X13088337Y57864823D01*
X13843000Y57110159D01*
X13843000Y54157566D01*
X13740886Y54259858D01*
X13066635Y54539831D01*
X12336568Y54540468D01*
X11661829Y54261672D01*
X11145142Y53745886D01*
X10865169Y53071635D01*
X10864532Y52341568D01*
X11143328Y51666829D01*
X11659114Y51150142D01*
X11684000Y51139808D01*
X11684000Y51054000D01*
X11734524Y50800000D01*
X11761338Y50665193D01*
X11981580Y50335580D01*
X14319684Y47997475D01*
X14299845Y48005713D01*
X13643037Y48006286D01*
X13036005Y47755466D01*
X12575436Y47295699D01*
X12565194Y47293662D01*
X12470160Y47230162D01*
X12235579Y47073420D01*
X10965580Y45803420D01*
X10745338Y45473807D01*
X10745338Y45473806D01*
X10668000Y45085000D01*
X10668000Y15406841D01*
X9152160Y13891000D01*
X8800679Y13891000D01*
X8999461Y14089436D01*
X9210759Y14598298D01*
X9211240Y15149285D01*
X9000831Y15658515D01*
X8784687Y15875036D01*
X8999461Y16089436D01*
X9210759Y16598298D01*
X9211240Y17149285D01*
X9002793Y17653767D01*
X9114327Y17765302D01*
X9211000Y17998691D01*
X9211000Y18589250D01*
X9052250Y18748000D01*
X7953000Y18748000D01*
X7953000Y18728000D01*
X7699000Y18728000D01*
X7699000Y18748000D01*
X7679000Y18748000D01*
X7679000Y19002000D01*
X7699000Y19002000D01*
X7699000Y20101250D01*
X7953000Y20101250D01*
X7953000Y19002000D01*
X9052250Y19002000D01*
X9211000Y19160750D01*
X9211000Y19751309D01*
X9114327Y19984698D01*
X8935699Y20163327D01*
X8702310Y20260000D01*
X8111750Y20260000D01*
X7953000Y20101250D01*
X7699000Y20101250D01*
X7540250Y20260000D01*
X7366000Y20260000D01*
X7366000Y20827309D01*
X7269327Y21060698D01*
X7090699Y21239327D01*
X6857310Y21336000D01*
X6000750Y21336000D01*
X5842000Y21177250D01*
X5842000Y19812000D01*
X5862000Y19812000D01*
X5862000Y19558000D01*
X5842000Y19558000D01*
X5842000Y19538000D01*
X5588000Y19538000D01*
X5588000Y19558000D01*
X4222750Y19558000D01*
X4064000Y19399250D01*
X4064000Y18542691D01*
X4160673Y18309302D01*
X4339301Y18130673D01*
X4357808Y18123007D01*
X4316166Y18081437D01*
X4064287Y17474845D01*
X4063714Y16818037D01*
X825500Y16818037D01*
X825500Y20827309D01*
X4064000Y20827309D01*
X4064000Y19970750D01*
X4222750Y19812000D01*
X5588000Y19812000D01*
X5588000Y21177250D01*
X5429250Y21336000D01*
X4572690Y21336000D01*
X4339301Y21239327D01*
X4160673Y21060698D01*
X4064000Y20827309D01*
X825500Y20827309D01*
X825500Y25073037D01*
X4063714Y25073037D01*
X4314534Y24466005D01*
X4778563Y24001166D01*
X5385155Y23749287D01*
X6041963Y23748714D01*
X6648995Y23999534D01*
X7113834Y24463563D01*
X7305971Y24926279D01*
X7549298Y24825241D01*
X8100285Y24824760D01*
X8609515Y25035169D01*
X8999461Y25424436D01*
X9210759Y25933298D01*
X9211240Y26484285D01*
X9000831Y26993515D01*
X8611564Y27383461D01*
X8374494Y27481901D01*
X7826000Y28030395D01*
X7811858Y28016252D01*
X7632253Y28195857D01*
X7646395Y28210000D01*
X8005605Y28210000D01*
X8797517Y27418088D01*
X9038460Y27486077D01*
X9223201Y28005171D01*
X9195230Y28555448D01*
X9038460Y28933923D01*
X8797517Y29001912D01*
X8005605Y28210000D01*
X7646395Y28210000D01*
X7229015Y28627380D01*
X7147622Y28823880D01*
X6963529Y28892866D01*
X6854483Y29001912D01*
X6613540Y28933923D01*
X6461600Y28506995D01*
X5894605Y27940000D01*
X5908748Y27925857D01*
X5729143Y27746252D01*
X5715000Y27760395D01*
X4730498Y26775893D01*
X4737547Y26757083D01*
X4316166Y26336437D01*
X4064287Y25729845D01*
X4063714Y25073037D01*
X825500Y25073037D01*
X825500Y28208358D01*
X4053184Y28208358D01*
X4076986Y27551981D01*
X4282378Y27056120D01*
X4550893Y26955498D01*
X5535395Y27940000D01*
X4550893Y28924502D01*
X4282378Y28823880D01*
X4053184Y28208358D01*
X825500Y28208358D01*
X825500Y30153037D01*
X4063714Y30153037D01*
X4314534Y29546005D01*
X4737366Y29122435D01*
X4730498Y29104107D01*
X5715000Y28119605D01*
X6699502Y29104107D01*
X6692453Y29122917D01*
X6823559Y29253794D01*
X7040436Y29036539D01*
X7277506Y28938099D01*
X7826000Y28389605D01*
X8374428Y28938033D01*
X8609515Y29035169D01*
X8999461Y29424436D01*
X9210759Y29933298D01*
X9211240Y30484285D01*
X9002793Y30988767D01*
X9114327Y31100302D01*
X9211000Y31333691D01*
X9211000Y31924250D01*
X9052250Y32083000D01*
X7953000Y32083000D01*
X7953000Y32063000D01*
X7699000Y32063000D01*
X7699000Y32083000D01*
X7679000Y32083000D01*
X7679000Y32337000D01*
X7699000Y32337000D01*
X7699000Y33436250D01*
X7953000Y33436250D01*
X7953000Y32337000D01*
X9052250Y32337000D01*
X9211000Y32495750D01*
X9211000Y33086309D01*
X9114327Y33319698D01*
X8935699Y33498327D01*
X8702310Y33595000D01*
X8111750Y33595000D01*
X7953000Y33436250D01*
X7699000Y33436250D01*
X7540250Y33595000D01*
X7366000Y33595000D01*
X7366000Y34162309D01*
X7269327Y34395698D01*
X7090699Y34574327D01*
X6857310Y34671000D01*
X6000750Y34671000D01*
X5842000Y34512250D01*
X5842000Y33147000D01*
X5862000Y33147000D01*
X5862000Y32893000D01*
X5842000Y32893000D01*
X5842000Y32873000D01*
X5588000Y32873000D01*
X5588000Y32893000D01*
X4222750Y32893000D01*
X4064000Y32734250D01*
X4064000Y31877691D01*
X4160673Y31644302D01*
X4339301Y31465673D01*
X4357808Y31458007D01*
X4316166Y31416437D01*
X4064287Y30809845D01*
X4063714Y30153037D01*
X825500Y30153037D01*
X825500Y34162309D01*
X4064000Y34162309D01*
X4064000Y33305750D01*
X4222750Y33147000D01*
X5588000Y33147000D01*
X5588000Y34512250D01*
X5429250Y34671000D01*
X4572690Y34671000D01*
X4339301Y34574327D01*
X4160673Y34395698D01*
X4064000Y34162309D01*
X825500Y34162309D01*
X825500Y38408037D01*
X4063714Y38408037D01*
X4314534Y37801005D01*
X4778563Y37336166D01*
X5385155Y37084287D01*
X6041963Y37083714D01*
X6648995Y37334534D01*
X7113834Y37798563D01*
X7305971Y38261279D01*
X7549298Y38160241D01*
X8100285Y38159760D01*
X8609515Y38370169D01*
X8999461Y38759436D01*
X9210759Y39268298D01*
X9211240Y39819285D01*
X9000831Y40328515D01*
X8611564Y40718461D01*
X8374494Y40816901D01*
X7826000Y41365395D01*
X7811858Y41351252D01*
X7632253Y41530857D01*
X7646395Y41545000D01*
X8005605Y41545000D01*
X8797517Y40753088D01*
X9038460Y40821077D01*
X9223201Y41340171D01*
X9195230Y41890448D01*
X9038460Y42268923D01*
X8797517Y42336912D01*
X8005605Y41545000D01*
X7646395Y41545000D01*
X7229015Y41962380D01*
X7147622Y42158880D01*
X6963529Y42227866D01*
X6854483Y42336912D01*
X6613540Y42268923D01*
X6461600Y41841995D01*
X5894605Y41275000D01*
X5908748Y41260857D01*
X5729143Y41081252D01*
X5715000Y41095395D01*
X4730498Y40110893D01*
X4737547Y40092083D01*
X4316166Y39671437D01*
X4064287Y39064845D01*
X4063714Y38408037D01*
X825500Y38408037D01*
X825500Y41543358D01*
X4053184Y41543358D01*
X4076986Y40886981D01*
X4282378Y40391120D01*
X4550893Y40290498D01*
X5535395Y41275000D01*
X4550893Y42259502D01*
X4282378Y42158880D01*
X4053184Y41543358D01*
X825500Y41543358D01*
X825500Y43488037D01*
X4063714Y43488037D01*
X4314534Y42881005D01*
X4737366Y42457435D01*
X4730498Y42439107D01*
X5715000Y41454605D01*
X6699502Y42439107D01*
X6692453Y42457917D01*
X6823559Y42588794D01*
X7040436Y42371539D01*
X7277506Y42273099D01*
X7826000Y41724605D01*
X8374428Y42273033D01*
X8609515Y42370169D01*
X8999461Y42759436D01*
X9210759Y43268298D01*
X9211240Y43819285D01*
X9002793Y44323767D01*
X9114327Y44435302D01*
X9211000Y44668691D01*
X9211000Y45259250D01*
X9052250Y45418000D01*
X7953000Y45418000D01*
X7953000Y45398000D01*
X7699000Y45398000D01*
X7699000Y45418000D01*
X7679000Y45418000D01*
X7679000Y45672000D01*
X7699000Y45672000D01*
X7699000Y46771250D01*
X7953000Y46771250D01*
X7953000Y45672000D01*
X9052250Y45672000D01*
X9211000Y45830750D01*
X9211000Y46421309D01*
X9114327Y46654698D01*
X8935699Y46833327D01*
X8702310Y46930000D01*
X8111750Y46930000D01*
X7953000Y46771250D01*
X7699000Y46771250D01*
X7540250Y46930000D01*
X7366000Y46930000D01*
X7366000Y47497309D01*
X7269327Y47730698D01*
X7090699Y47909327D01*
X6857310Y48006000D01*
X6000750Y48006000D01*
X5842000Y47847250D01*
X5842000Y46482000D01*
X5862000Y46482000D01*
X5862000Y46228000D01*
X5842000Y46228000D01*
X5842000Y46208000D01*
X5588000Y46208000D01*
X5588000Y46228000D01*
X4222750Y46228000D01*
X4064000Y46069250D01*
X4064000Y45212691D01*
X4160673Y44979302D01*
X4339301Y44800673D01*
X4357808Y44793007D01*
X4316166Y44751437D01*
X4064287Y44144845D01*
X4063714Y43488037D01*
X825500Y43488037D01*
X825500Y47497309D01*
X4064000Y47497309D01*
X4064000Y46640750D01*
X4222750Y46482000D01*
X5588000Y46482000D01*
X5588000Y47847250D01*
X5429250Y48006000D01*
X4572690Y48006000D01*
X4339301Y47909327D01*
X4160673Y47730698D01*
X4064000Y47497309D01*
X825500Y47497309D01*
X825500Y51149250D01*
X1639570Y51149250D01*
X1639570Y50408261D01*
X1736243Y50174872D01*
X1914871Y49996243D01*
X2148260Y49899570D01*
X2889250Y49899570D01*
X3048000Y50058320D01*
X3048000Y51308000D01*
X3302000Y51308000D01*
X3302000Y50058320D01*
X3460750Y49899570D01*
X4201740Y49899570D01*
X4435129Y49996243D01*
X4613757Y50174872D01*
X4710430Y50408261D01*
X4710430Y51149250D01*
X4551680Y51308000D01*
X3302000Y51308000D01*
X3048000Y51308000D01*
X1798320Y51308000D01*
X1639570Y51149250D01*
X825500Y51149250D01*
X825500Y51407716D01*
X5232321Y51407716D01*
X5355474Y51120088D01*
X6037697Y50860144D01*
X6767466Y50881062D01*
X7344526Y51120088D01*
X7467679Y51407716D01*
X6350000Y52525395D01*
X5232321Y51407716D01*
X825500Y51407716D01*
X825500Y53670924D01*
X1639304Y53670924D01*
X1872567Y53106385D01*
X2049232Y52929411D01*
X1914871Y52873757D01*
X1736243Y52695128D01*
X1639570Y52461739D01*
X1639570Y51720750D01*
X1798320Y51562000D01*
X3048000Y51562000D01*
X3048000Y51582000D01*
X3302000Y51582000D01*
X3302000Y51562000D01*
X4551680Y51562000D01*
X4710430Y51720750D01*
X4710430Y51842430D01*
X4765088Y51710474D01*
X5052716Y51587321D01*
X6170395Y52705000D01*
X6529605Y52705000D01*
X7647284Y51587321D01*
X7934912Y51710474D01*
X8194856Y52392697D01*
X8173938Y53122466D01*
X7934912Y53699526D01*
X7647284Y53822679D01*
X6529605Y52705000D01*
X6170395Y52705000D01*
X5052716Y53822679D01*
X4765088Y53699526D01*
X4505144Y53017303D01*
X4511446Y52797439D01*
X4435129Y52873757D01*
X4300867Y52929370D01*
X4475915Y53104113D01*
X4710163Y53668244D01*
X4710454Y54002284D01*
X5232321Y54002284D01*
X6350000Y52884605D01*
X7467679Y54002284D01*
X7344526Y54289912D01*
X6662303Y54549856D01*
X5932534Y54528938D01*
X5355474Y54289912D01*
X5232321Y54002284D01*
X4710454Y54002284D01*
X4710696Y54279076D01*
X4477433Y54843615D01*
X4045887Y55275915D01*
X3481756Y55510163D01*
X2870924Y55510696D01*
X2306385Y55277433D01*
X1874085Y54845887D01*
X1639837Y54281756D01*
X1639304Y53670924D01*
X825500Y53670924D01*
X825500Y58134250D01*
X1639570Y58134250D01*
X1639570Y57393261D01*
X1736243Y57159872D01*
X1914871Y56981243D01*
X2148260Y56884570D01*
X2889250Y56884570D01*
X3048000Y57043320D01*
X3048000Y58293000D01*
X3302000Y58293000D01*
X3302000Y57043320D01*
X3460750Y56884570D01*
X4201740Y56884570D01*
X4435129Y56981243D01*
X4613757Y57159872D01*
X4710430Y57393261D01*
X4710430Y58134250D01*
X4551680Y58293000D01*
X3302000Y58293000D01*
X3048000Y58293000D01*
X1798320Y58293000D01*
X1639570Y58134250D01*
X825500Y58134250D01*
X825500Y58392716D01*
X5232321Y58392716D01*
X5355474Y58105088D01*
X6037697Y57845144D01*
X6767466Y57866062D01*
X7344526Y58105088D01*
X7467679Y58392716D01*
X6350000Y59510395D01*
X5232321Y58392716D01*
X825500Y58392716D01*
X825500Y60655924D01*
X1639304Y60655924D01*
X1872567Y60091385D01*
X2049232Y59914411D01*
X1914871Y59858757D01*
X1736243Y59680128D01*
X1639570Y59446739D01*
X1639570Y58705750D01*
X1798320Y58547000D01*
X3048000Y58547000D01*
X3048000Y58567000D01*
X3302000Y58567000D01*
X3302000Y58547000D01*
X4551680Y58547000D01*
X4710430Y58705750D01*
X4710430Y58827430D01*
X4765088Y58695474D01*
X5052716Y58572321D01*
X6170395Y59690000D01*
X6529605Y59690000D01*
X7647284Y58572321D01*
X7934912Y58695474D01*
X8194856Y59377697D01*
X8173938Y60107466D01*
X7934912Y60684526D01*
X7647284Y60807679D01*
X6529605Y59690000D01*
X6170395Y59690000D01*
X5052716Y60807679D01*
X4765088Y60684526D01*
X4505144Y60002303D01*
X4511446Y59782439D01*
X4435129Y59858757D01*
X4300867Y59914370D01*
X4475915Y60089113D01*
X4710163Y60653244D01*
X4710454Y60987284D01*
X5232321Y60987284D01*
X6350000Y59869605D01*
X7467679Y60987284D01*
X7344526Y61274912D01*
X6662303Y61534856D01*
X5932534Y61513938D01*
X5355474Y61274912D01*
X5232321Y60987284D01*
X4710454Y60987284D01*
X4710696Y61264076D01*
X4477433Y61828615D01*
X4045887Y62260915D01*
X3481756Y62495163D01*
X2870924Y62495696D01*
X2306385Y62262433D01*
X1874085Y61830887D01*
X1639837Y61266756D01*
X1639304Y60655924D01*
X825500Y60655924D01*
X825500Y65119250D01*
X1639570Y65119250D01*
X1639570Y64378261D01*
X1736243Y64144872D01*
X1914871Y63966243D01*
X2148260Y63869570D01*
X2889250Y63869570D01*
X3048000Y64028320D01*
X3048000Y65278000D01*
X3302000Y65278000D01*
X3302000Y64028320D01*
X3460750Y63869570D01*
X4201740Y63869570D01*
X4435129Y63966243D01*
X4613757Y64144872D01*
X4710430Y64378261D01*
X4710430Y65119250D01*
X4551680Y65278000D01*
X3302000Y65278000D01*
X3048000Y65278000D01*
X1798320Y65278000D01*
X1639570Y65119250D01*
X825500Y65119250D01*
X825500Y65377716D01*
X5232321Y65377716D01*
X5355474Y65090088D01*
X6037697Y64830144D01*
X6767466Y64851062D01*
X7344526Y65090088D01*
X7467679Y65377716D01*
X6350000Y66495395D01*
X5232321Y65377716D01*
X825500Y65377716D01*
X825500Y67640924D01*
X1639304Y67640924D01*
X1872567Y67076385D01*
X2049232Y66899411D01*
X1914871Y66843757D01*
X1736243Y66665128D01*
X1639570Y66431739D01*
X1639570Y65690750D01*
X1798320Y65532000D01*
X3048000Y65532000D01*
X3048000Y65552000D01*
X3302000Y65552000D01*
X3302000Y65532000D01*
X4551680Y65532000D01*
X4710430Y65690750D01*
X4710430Y65812430D01*
X4765088Y65680474D01*
X5052716Y65557321D01*
X6170395Y66675000D01*
X6529605Y66675000D01*
X7647284Y65557321D01*
X7934912Y65680474D01*
X8194856Y66362697D01*
X8173938Y67092466D01*
X7934912Y67669526D01*
X7647284Y67792679D01*
X6529605Y66675000D01*
X6170395Y66675000D01*
X5052716Y67792679D01*
X4765088Y67669526D01*
X4505144Y66987303D01*
X4511446Y66767439D01*
X4435129Y66843757D01*
X4300867Y66899370D01*
X4475915Y67074113D01*
X4710163Y67638244D01*
X4710454Y67972284D01*
X5232321Y67972284D01*
X6350000Y66854605D01*
X7467679Y67972284D01*
X7344526Y68259912D01*
X6662303Y68519856D01*
X5932534Y68498938D01*
X5355474Y68259912D01*
X5232321Y67972284D01*
X4710454Y67972284D01*
X4710696Y68249076D01*
X4477433Y68813615D01*
X4045887Y69245915D01*
X3481756Y69480163D01*
X2870924Y69480696D01*
X2306385Y69247433D01*
X1874085Y68815887D01*
X1639837Y68251756D01*
X1639304Y67640924D01*
X825500Y67640924D01*
X825500Y72104250D01*
X5100320Y72104250D01*
X5100320Y71014011D01*
X5196993Y70780622D01*
X5375621Y70601993D01*
X5609010Y70505320D01*
X6699250Y70505320D01*
X6858000Y70664070D01*
X6858000Y72263000D01*
X7112000Y72263000D01*
X7112000Y70664070D01*
X7270750Y70505320D01*
X8360990Y70505320D01*
X8594379Y70601993D01*
X8773007Y70780622D01*
X8869680Y71014011D01*
X8869680Y72104250D01*
X8710930Y72263000D01*
X7112000Y72263000D01*
X6858000Y72263000D01*
X5259070Y72263000D01*
X5100320Y72104250D01*
X825500Y72104250D01*
X825500Y73765989D01*
X5100320Y73765989D01*
X5100320Y72675750D01*
X5259070Y72517000D01*
X6858000Y72517000D01*
X6858000Y74115930D01*
X7112000Y74115930D01*
X7112000Y72517000D01*
X8710930Y72517000D01*
X8869680Y72675750D01*
X8869680Y73765989D01*
X8773007Y73999378D01*
X8594379Y74178007D01*
X8360990Y74274680D01*
X7270750Y74274680D01*
X7112000Y74115930D01*
X6858000Y74115930D01*
X6699250Y74274680D01*
X5609010Y74274680D01*
X5375621Y74178007D01*
X5196993Y73999378D01*
X5100320Y73765989D01*
X825500Y73765989D01*
X825500Y77096759D01*
X5099994Y77096759D01*
X5386314Y76403809D01*
X5916021Y75873178D01*
X6608469Y75585648D01*
X7358241Y75584994D01*
X8051191Y75871314D01*
X8581822Y76401021D01*
X8869352Y77093469D01*
X8870006Y77843241D01*
X8583686Y78536191D01*
X8053979Y79066822D01*
X7361531Y79354352D01*
X6611759Y79355006D01*
X5918809Y79068686D01*
X5388178Y78538979D01*
X5100648Y77846531D01*
X5099994Y77096759D01*
X825500Y77096759D01*
X825500Y82264250D01*
X5100320Y82264250D01*
X5100320Y81174011D01*
X5196993Y80940622D01*
X5375621Y80761993D01*
X5609010Y80665320D01*
X6699250Y80665320D01*
X6858000Y80824070D01*
X6858000Y82423000D01*
X7112000Y82423000D01*
X7112000Y80824070D01*
X7270750Y80665320D01*
X8360990Y80665320D01*
X8594379Y80761993D01*
X8773007Y80940622D01*
X8869680Y81174011D01*
X8869680Y82264250D01*
X8710930Y82423000D01*
X7112000Y82423000D01*
X6858000Y82423000D01*
X5259070Y82423000D01*
X5100320Y82264250D01*
X825500Y82264250D01*
X825500Y83925989D01*
X5100320Y83925989D01*
X5100320Y82835750D01*
X5259070Y82677000D01*
X6858000Y82677000D01*
X6858000Y84275930D01*
X7112000Y84275930D01*
X7112000Y82677000D01*
X8710930Y82677000D01*
X8869680Y82835750D01*
X8869680Y83925989D01*
X8773007Y84159378D01*
X8594379Y84338007D01*
X8360990Y84434680D01*
X7270750Y84434680D01*
X7112000Y84275930D01*
X6858000Y84275930D01*
X6699250Y84434680D01*
X5609010Y84434680D01*
X5375621Y84338007D01*
X5196993Y84159378D01*
X5100320Y83925989D01*
X825500Y83925989D01*
X825500Y87256759D01*
X5099994Y87256759D01*
X5386314Y86563809D01*
X5916021Y86033178D01*
X6608469Y85745648D01*
X7358241Y85744994D01*
X8051191Y86031314D01*
X8581822Y86561021D01*
X8869352Y87253469D01*
X8870006Y88003241D01*
X8583686Y88696191D01*
X8053979Y89226822D01*
X7361531Y89514352D01*
X6611759Y89515006D01*
X5918809Y89228686D01*
X5388178Y88698979D01*
X5100648Y88006531D01*
X5099994Y87256759D01*
X825500Y87256759D01*
X825500Y92170250D01*
X15494000Y92170250D01*
X15494000Y91313691D01*
X15590673Y91080302D01*
X15769301Y90901673D01*
X16002690Y90805000D01*
X16859250Y90805000D01*
X17018000Y90963750D01*
X17018000Y92329000D01*
X17272000Y92329000D01*
X17272000Y90963750D01*
X17430750Y90805000D01*
X18287310Y90805000D01*
X18520699Y90901673D01*
X18699327Y91080302D01*
X18796000Y91313691D01*
X18796000Y92170250D01*
X18637250Y92329000D01*
X17272000Y92329000D01*
X17018000Y92329000D01*
X15652750Y92329000D01*
X15494000Y92170250D01*
X825500Y92170250D01*
X825500Y94577185D01*
X2864630Y94577185D01*
X3188980Y93792200D01*
X3789041Y93191091D01*
X4573459Y92865372D01*
X5422815Y92864630D01*
X6207800Y93188980D01*
X6808909Y93789041D01*
X6942488Y94110735D01*
X11175670Y94110735D01*
X11465078Y93410314D01*
X12000495Y92873961D01*
X12700410Y92583332D01*
X13458265Y92582670D01*
X14158686Y92872078D01*
X14695039Y93407495D01*
X14985668Y94107410D01*
X14986330Y94865265D01*
X14696922Y95565686D01*
X14161505Y96102039D01*
X13461590Y96392668D01*
X12703735Y96393330D01*
X12003314Y96103922D01*
X11466961Y95568505D01*
X11176332Y94868590D01*
X11175670Y94110735D01*
X6942488Y94110735D01*
X7134628Y94573459D01*
X7135370Y95422815D01*
X6811020Y96207800D01*
X6210959Y96808909D01*
X5426541Y97134628D01*
X4577185Y97135370D01*
X3792200Y96811020D01*
X3191091Y96210959D01*
X2865372Y95426541D01*
X2864630Y94577185D01*
X825500Y94577185D01*
X825500Y94681998D01*
X1072903Y96374919D01*
X1895948Y97754805D01*
X3184399Y98714686D01*
X4801717Y99123500D01*
X69662998Y99123500D01*
X71355919Y98876097D01*
M02*
