M48
;DRILL file {KiCad 4.0.4-stable} date 01/06/17 10:24:36
;FORMAT={-:-/ absolute / inch / decimal}
FMAT,2
INCH,TZ
T1C0.024
T2C0.025
T3C0.031
T4C0.032
T5C0.032
T6C0.039
T7C0.039
T8C0.040
T9C0.047
T10C0.118
%
G90
G05
M72
T2
X1.065Y2.63
X1.115Y2.685
X1.31Y2.88
X1.875Y3.4
X2.225Y1.46
X2.275Y3.47
T3
X0.3081Y1.7931
X0.3081Y1.7144
X0.3081Y1.6356
X0.3081Y1.5569
X0.3081Y1.2681
X0.3081Y1.1894
X0.3081Y1.1106
X0.3081Y1.0319
X0.3081Y0.7431
X0.3081Y0.6644
X0.3081Y0.5856
X0.3081Y0.5069
X2.6919Y0.9431
X2.6919Y0.8644
X2.6919Y0.7856
X2.6919Y0.7069
T4
X0.5Y3.1
X0.5Y2.8
X0.55Y1.825
X0.55Y1.525
X0.55Y1.3
X0.55Y1.
X0.6Y3.1
X0.6Y2.8
X0.985Y1.67
X0.985Y1.37
X1.1Y3.425
X1.1Y3.125
X1.105Y2.09
X1.105Y1.79
X1.13Y3.66
X1.13Y3.56
X1.2Y3.425
X1.2Y3.125
X1.23Y3.66
X1.35Y3.425
X1.35Y3.125
X1.45Y3.425
X1.45Y3.125
X1.73Y1.06
X1.73Y0.76
X2.0875Y1.4625
X2.0875Y1.3625
X2.0875Y0.9875
X2.0875Y0.8875
X2.1125Y0.5125
X2.1125Y0.4125
X2.3125Y0.7875
X2.3125Y0.6875
X2.3125Y0.2875
X2.3125Y0.1875
X2.3275Y1.2475
X2.3275Y1.1475
X2.3875Y1.4625
X2.3875Y1.3625
X2.3875Y0.9875
X2.3875Y0.8875
X2.4125Y0.6875
X2.4125Y0.5125
X2.4125Y0.4125
X2.4125Y0.1875
X2.4275Y1.1475
T5
X0.8Y2.3
X0.8Y2.2
X0.8Y2.1
X0.8Y2.
X0.8Y1.9
X0.8Y1.8
X0.8Y1.7
X0.8Y1.6
X0.8Y1.5
X0.8Y1.4
X0.8Y1.3
X0.8Y1.2
X0.8Y1.1
X0.8Y1.
X0.8Y0.9
X1.4Y2.3
X1.4Y2.2
X1.4Y2.1
X1.4Y2.
X1.4Y1.9
X1.4Y1.8
X1.4Y1.7
X1.4Y1.6
X1.4Y1.5
X1.4Y1.4
X1.4Y1.3
X1.4Y1.2
X1.4Y1.1
X1.4Y1.
X1.4Y0.9
X1.73Y1.325
X1.73Y1.225
T6
X0.875Y3.725
X0.875Y3.625
X0.875Y3.525
X0.875Y3.425
X0.875Y3.325
X0.875Y3.225
X0.875Y3.125
X0.875Y3.025
X1.6Y3.725
X1.6Y3.625
X1.6Y3.525
X1.6Y3.425
X1.6Y3.325
X1.6Y3.225
X1.6Y3.125
X1.6Y3.025
T7
X0.125Y2.675
X0.125Y2.575
X0.125Y2.4
X0.125Y2.3
X0.125Y2.125
X0.125Y2.025
X0.225Y1.825
X0.225Y1.725
X0.225Y1.625
X0.225Y1.525
X0.225Y1.3
X0.225Y1.2
X0.225Y1.1
X0.225Y1.
X0.225Y0.775
X0.225Y0.675
X0.225Y0.575
X0.225Y0.475
X0.275Y3.45
X0.275Y3.25
X0.275Y3.05
X0.275Y2.85
X0.515Y3.72
X0.515Y3.35
X0.715Y3.125
X0.715Y2.755
X0.985Y2.155
X0.985Y1.785
X2.7Y3.325
X2.7Y3.125
X2.7Y2.925
X2.7Y2.725
X2.7Y2.525
X2.7Y2.325
X2.775Y1.125
X2.775Y0.925
X2.775Y0.725
X2.775Y0.525
T8
X1.61Y1.05
X1.61Y0.95
X1.61Y0.85
X1.775Y3.725
X1.775Y2.975
X1.875Y3.725
X1.875Y2.975
X2.2Y3.725
X2.275Y2.975
X2.3Y3.725
X2.375Y2.975
X2.3969Y3.7187
X2.725Y2.
X2.725Y1.9
X2.725Y1.8
X2.725Y1.7
X2.725Y1.6
X2.725Y1.5
T9
X0.25Y2.625
X0.25Y2.35
X0.25Y2.075
X0.5Y2.625
X0.5Y2.35
X0.5Y2.075
T10
X0.1969Y3.7402
X0.1969Y0.1969
X2.7559Y3.7402
X2.7559Y0.1969
T1
X1.8819Y2.3783G85X1.8819Y2.4217
G05
X2.1181Y2.3783G85X2.1181Y2.4217
G05
T0
M30
